%TF.GenerationSoftware,KiCad,Pcbnew,(6.0.6)*%
%TF.CreationDate,2023-03-24T22:01:14+11:00*%
%TF.ProjectId,fuyu,66757975-2e6b-4696-9361-645f70636258,rev?*%
%TF.SameCoordinates,Original*%
%TF.FileFunction,Legend,Top*%
%TF.FilePolarity,Positive*%
%FSLAX46Y46*%
G04 Gerber Fmt 4.6, Leading zero omitted, Abs format (unit mm)*
G04 Created by KiCad (PCBNEW (6.0.6)) date 2023-03-24 22:01:14*
%MOMM*%
%LPD*%
G01*
G04 APERTURE LIST*
%ADD10C,0.150000*%
%ADD11C,0.240000*%
%ADD12C,0.120000*%
%ADD13C,3.987800*%
%ADD14C,3.048000*%
%ADD15C,0.650000*%
%ADD16R,0.600000X1.450000*%
%ADD17R,0.300000X1.450000*%
%ADD18O,1.000000X2.100000*%
%ADD19O,1.000000X1.600000*%
%ADD20R,1.700000X1.700000*%
%ADD21O,1.700000X1.700000*%
%ADD22C,1.750000*%
%ADD23C,3.300000*%
G04 APERTURE END LIST*
D10*
X308152857Y-45978571D02*
X308295714Y-46026190D01*
X308343333Y-46073809D01*
X308390952Y-46169047D01*
X308390952Y-46311904D01*
X308343333Y-46407142D01*
X308295714Y-46454761D01*
X308200476Y-46502380D01*
X307819523Y-46502380D01*
X307819523Y-45502380D01*
X308152857Y-45502380D01*
X308248095Y-45550000D01*
X308295714Y-45597619D01*
X308343333Y-45692857D01*
X308343333Y-45788095D01*
X308295714Y-45883333D01*
X308248095Y-45930952D01*
X308152857Y-45978571D01*
X307819523Y-45978571D01*
X309010000Y-45502380D02*
X309200476Y-45502380D01*
X309295714Y-45550000D01*
X309390952Y-45645238D01*
X309438571Y-45835714D01*
X309438571Y-46169047D01*
X309390952Y-46359523D01*
X309295714Y-46454761D01*
X309200476Y-46502380D01*
X309010000Y-46502380D01*
X308914761Y-46454761D01*
X308819523Y-46359523D01*
X308771904Y-46169047D01*
X308771904Y-45835714D01*
X308819523Y-45645238D01*
X308914761Y-45550000D01*
X309010000Y-45502380D01*
X310057619Y-45502380D02*
X310248095Y-45502380D01*
X310343333Y-45550000D01*
X310438571Y-45645238D01*
X310486190Y-45835714D01*
X310486190Y-46169047D01*
X310438571Y-46359523D01*
X310343333Y-46454761D01*
X310248095Y-46502380D01*
X310057619Y-46502380D01*
X309962380Y-46454761D01*
X309867142Y-46359523D01*
X309819523Y-46169047D01*
X309819523Y-45835714D01*
X309867142Y-45645238D01*
X309962380Y-45550000D01*
X310057619Y-45502380D01*
X310771904Y-45502380D02*
X311343333Y-45502380D01*
X311057619Y-46502380D02*
X311057619Y-45502380D01*
D11*
X156742857Y-96367642D02*
X156309523Y-96367642D01*
X156309523Y-97048595D02*
X156309523Y-95748595D01*
X156928571Y-95748595D01*
X157423809Y-95748595D02*
X157423809Y-96800976D01*
X157485714Y-96924785D01*
X157547619Y-96986690D01*
X157671428Y-97048595D01*
X157919047Y-97048595D01*
X158042857Y-96986690D01*
X158104761Y-96924785D01*
X158166666Y-96800976D01*
X158166666Y-95748595D01*
X159033333Y-96429547D02*
X159033333Y-97048595D01*
X158600000Y-95748595D02*
X159033333Y-96429547D01*
X159466666Y-95748595D01*
X159900000Y-95748595D02*
X159900000Y-96800976D01*
X159961904Y-96924785D01*
X160023809Y-96986690D01*
X160147619Y-97048595D01*
X160395238Y-97048595D01*
X160519047Y-96986690D01*
X160580952Y-96924785D01*
X160642857Y-96800976D01*
X160642857Y-95748595D01*
X161261904Y-96553357D02*
X162252380Y-96553357D01*
X162871428Y-97048595D02*
X162871428Y-95748595D01*
X162871428Y-96367642D02*
X163614285Y-96367642D01*
X163614285Y-97048595D02*
X163614285Y-95748595D01*
X164171428Y-96986690D02*
X164357142Y-97048595D01*
X164666666Y-97048595D01*
X164790476Y-96986690D01*
X164852380Y-96924785D01*
X164914285Y-96800976D01*
X164914285Y-96677166D01*
X164852380Y-96553357D01*
X164790476Y-96491452D01*
X164666666Y-96429547D01*
X164419047Y-96367642D01*
X164295238Y-96305738D01*
X164233333Y-96243833D01*
X164171428Y-96120023D01*
X164171428Y-95996214D01*
X164233333Y-95872404D01*
X164295238Y-95810500D01*
X164419047Y-95748595D01*
X164728571Y-95748595D01*
X164914285Y-95810500D01*
X166338095Y-95748595D02*
X167204761Y-95748595D01*
X166647619Y-97048595D01*
X168257142Y-96181928D02*
X168257142Y-97048595D01*
X167700000Y-96181928D02*
X167700000Y-96862880D01*
X167761904Y-96986690D01*
X167885714Y-97048595D01*
X168071428Y-97048595D01*
X168195238Y-96986690D01*
X168257142Y-96924785D01*
X170609523Y-97048595D02*
X170176190Y-96429547D01*
X169866666Y-97048595D02*
X169866666Y-95748595D01*
X170361904Y-95748595D01*
X170485714Y-95810500D01*
X170547619Y-95872404D01*
X170609523Y-95996214D01*
X170609523Y-96181928D01*
X170547619Y-96305738D01*
X170485714Y-96367642D01*
X170361904Y-96429547D01*
X169866666Y-96429547D01*
X171661904Y-96986690D02*
X171538095Y-97048595D01*
X171290476Y-97048595D01*
X171166666Y-96986690D01*
X171104761Y-96862880D01*
X171104761Y-96367642D01*
X171166666Y-96243833D01*
X171290476Y-96181928D01*
X171538095Y-96181928D01*
X171661904Y-96243833D01*
X171723809Y-96367642D01*
X171723809Y-96491452D01*
X171104761Y-96615261D01*
X172157142Y-96181928D02*
X172466666Y-97048595D01*
X172776190Y-96181928D01*
X173952380Y-97048595D02*
X173209523Y-97048595D01*
X173580952Y-97048595D02*
X173580952Y-95748595D01*
X173457142Y-95934309D01*
X173333333Y-96058119D01*
X173209523Y-96120023D01*
X153430952Y-99141595D02*
X153430952Y-97841595D01*
X153740476Y-97841595D01*
X153926190Y-97903500D01*
X154050000Y-98027309D01*
X154111904Y-98151119D01*
X154173809Y-98398738D01*
X154173809Y-98584452D01*
X154111904Y-98832071D01*
X154050000Y-98955880D01*
X153926190Y-99079690D01*
X153740476Y-99141595D01*
X153430952Y-99141595D01*
X155226190Y-99079690D02*
X155102380Y-99141595D01*
X154854761Y-99141595D01*
X154730952Y-99079690D01*
X154669047Y-98955880D01*
X154669047Y-98460642D01*
X154730952Y-98336833D01*
X154854761Y-98274928D01*
X155102380Y-98274928D01*
X155226190Y-98336833D01*
X155288095Y-98460642D01*
X155288095Y-98584452D01*
X154669047Y-98708261D01*
X155783333Y-99079690D02*
X155907142Y-99141595D01*
X156154761Y-99141595D01*
X156278571Y-99079690D01*
X156340476Y-98955880D01*
X156340476Y-98893976D01*
X156278571Y-98770166D01*
X156154761Y-98708261D01*
X155969047Y-98708261D01*
X155845238Y-98646357D01*
X155783333Y-98522547D01*
X155783333Y-98460642D01*
X155845238Y-98336833D01*
X155969047Y-98274928D01*
X156154761Y-98274928D01*
X156278571Y-98336833D01*
X156897619Y-99141595D02*
X156897619Y-98274928D01*
X156897619Y-97841595D02*
X156835714Y-97903500D01*
X156897619Y-97965404D01*
X156959523Y-97903500D01*
X156897619Y-97841595D01*
X156897619Y-97965404D01*
X158073809Y-98274928D02*
X158073809Y-99327309D01*
X158011904Y-99451119D01*
X157950000Y-99513023D01*
X157826190Y-99574928D01*
X157640476Y-99574928D01*
X157516666Y-99513023D01*
X158073809Y-99079690D02*
X157950000Y-99141595D01*
X157702380Y-99141595D01*
X157578571Y-99079690D01*
X157516666Y-99017785D01*
X157454761Y-98893976D01*
X157454761Y-98522547D01*
X157516666Y-98398738D01*
X157578571Y-98336833D01*
X157702380Y-98274928D01*
X157950000Y-98274928D01*
X158073809Y-98336833D01*
X158692857Y-98274928D02*
X158692857Y-99141595D01*
X158692857Y-98398738D02*
X158754761Y-98336833D01*
X158878571Y-98274928D01*
X159064285Y-98274928D01*
X159188095Y-98336833D01*
X159250000Y-98460642D01*
X159250000Y-99141595D01*
X160364285Y-99079690D02*
X160240476Y-99141595D01*
X159992857Y-99141595D01*
X159869047Y-99079690D01*
X159807142Y-98955880D01*
X159807142Y-98460642D01*
X159869047Y-98336833D01*
X159992857Y-98274928D01*
X160240476Y-98274928D01*
X160364285Y-98336833D01*
X160426190Y-98460642D01*
X160426190Y-98584452D01*
X159807142Y-98708261D01*
X161540476Y-99141595D02*
X161540476Y-97841595D01*
X161540476Y-99079690D02*
X161416666Y-99141595D01*
X161169047Y-99141595D01*
X161045238Y-99079690D01*
X160983333Y-99017785D01*
X160921428Y-98893976D01*
X160921428Y-98522547D01*
X160983333Y-98398738D01*
X161045238Y-98336833D01*
X161169047Y-98274928D01*
X161416666Y-98274928D01*
X161540476Y-98336833D01*
X162964285Y-98274928D02*
X163459523Y-98274928D01*
X163150000Y-99141595D02*
X163150000Y-98027309D01*
X163211904Y-97903500D01*
X163335714Y-97841595D01*
X163459523Y-97841595D01*
X164078571Y-99141595D02*
X163954761Y-99079690D01*
X163892857Y-99017785D01*
X163830952Y-98893976D01*
X163830952Y-98522547D01*
X163892857Y-98398738D01*
X163954761Y-98336833D01*
X164078571Y-98274928D01*
X164264285Y-98274928D01*
X164388095Y-98336833D01*
X164450000Y-98398738D01*
X164511904Y-98522547D01*
X164511904Y-98893976D01*
X164450000Y-99017785D01*
X164388095Y-99079690D01*
X164264285Y-99141595D01*
X164078571Y-99141595D01*
X165069047Y-99141595D02*
X165069047Y-98274928D01*
X165069047Y-98522547D02*
X165130952Y-98398738D01*
X165192857Y-98336833D01*
X165316666Y-98274928D01*
X165440476Y-98274928D01*
X166678571Y-98274928D02*
X167173809Y-98274928D01*
X166864285Y-97841595D02*
X166864285Y-98955880D01*
X166926190Y-99079690D01*
X167050000Y-99141595D01*
X167173809Y-99141595D01*
X167607142Y-99141595D02*
X167607142Y-97841595D01*
X168164285Y-99141595D02*
X168164285Y-98460642D01*
X168102380Y-98336833D01*
X167978571Y-98274928D01*
X167792857Y-98274928D01*
X167669047Y-98336833D01*
X167607142Y-98398738D01*
X169278571Y-99079690D02*
X169154761Y-99141595D01*
X168907142Y-99141595D01*
X168783333Y-99079690D01*
X168721428Y-98955880D01*
X168721428Y-98460642D01*
X168783333Y-98336833D01*
X168907142Y-98274928D01*
X169154761Y-98274928D01*
X169278571Y-98336833D01*
X169340476Y-98460642D01*
X169340476Y-98584452D01*
X168721428Y-98708261D01*
X171321428Y-98460642D02*
X170888095Y-98460642D01*
X170888095Y-99141595D02*
X170888095Y-97841595D01*
X171507142Y-97841595D01*
X172683333Y-99141595D02*
X171940476Y-99141595D01*
X172311904Y-99141595D02*
X172311904Y-97841595D01*
X172188095Y-98027309D01*
X172064285Y-98151119D01*
X171940476Y-98213023D01*
X173240476Y-98646357D02*
X174230952Y-98646357D01*
X175035714Y-98398738D02*
X174911904Y-98336833D01*
X174850000Y-98274928D01*
X174788095Y-98151119D01*
X174788095Y-98089214D01*
X174850000Y-97965404D01*
X174911904Y-97903500D01*
X175035714Y-97841595D01*
X175283333Y-97841595D01*
X175407142Y-97903500D01*
X175469047Y-97965404D01*
X175530952Y-98089214D01*
X175530952Y-98151119D01*
X175469047Y-98274928D01*
X175407142Y-98336833D01*
X175283333Y-98398738D01*
X175035714Y-98398738D01*
X174911904Y-98460642D01*
X174850000Y-98522547D01*
X174788095Y-98646357D01*
X174788095Y-98893976D01*
X174850000Y-99017785D01*
X174911904Y-99079690D01*
X175035714Y-99141595D01*
X175283333Y-99141595D01*
X175407142Y-99079690D01*
X175469047Y-99017785D01*
X175530952Y-98893976D01*
X175530952Y-98646357D01*
X175469047Y-98522547D01*
X175407142Y-98460642D01*
X175283333Y-98398738D01*
X176088095Y-99141595D02*
X176088095Y-97841595D01*
X176830952Y-99141595D02*
X176273809Y-98398738D01*
X176830952Y-97841595D02*
X176088095Y-98584452D01*
X149407142Y-101234595D02*
X149407142Y-99934595D01*
X149964285Y-101234595D02*
X149964285Y-100553642D01*
X149902380Y-100429833D01*
X149778571Y-100367928D01*
X149592857Y-100367928D01*
X149469047Y-100429833D01*
X149407142Y-100491738D01*
X150397619Y-100367928D02*
X150892857Y-100367928D01*
X150583333Y-99934595D02*
X150583333Y-101048880D01*
X150645238Y-101172690D01*
X150769047Y-101234595D01*
X150892857Y-101234595D01*
X151140476Y-100367928D02*
X151635714Y-100367928D01*
X151326190Y-99934595D02*
X151326190Y-101048880D01*
X151388095Y-101172690D01*
X151511904Y-101234595D01*
X151635714Y-101234595D01*
X152069047Y-100367928D02*
X152069047Y-101667928D01*
X152069047Y-100429833D02*
X152192857Y-100367928D01*
X152440476Y-100367928D01*
X152564285Y-100429833D01*
X152626190Y-100491738D01*
X152688095Y-100615547D01*
X152688095Y-100986976D01*
X152626190Y-101110785D01*
X152564285Y-101172690D01*
X152440476Y-101234595D01*
X152192857Y-101234595D01*
X152069047Y-101172690D01*
X153183333Y-101172690D02*
X153307142Y-101234595D01*
X153554761Y-101234595D01*
X153678571Y-101172690D01*
X153740476Y-101048880D01*
X153740476Y-100986976D01*
X153678571Y-100863166D01*
X153554761Y-100801261D01*
X153369047Y-100801261D01*
X153245238Y-100739357D01*
X153183333Y-100615547D01*
X153183333Y-100553642D01*
X153245238Y-100429833D01*
X153369047Y-100367928D01*
X153554761Y-100367928D01*
X153678571Y-100429833D01*
X154297619Y-101110785D02*
X154359523Y-101172690D01*
X154297619Y-101234595D01*
X154235714Y-101172690D01*
X154297619Y-101110785D01*
X154297619Y-101234595D01*
X154297619Y-100429833D02*
X154359523Y-100491738D01*
X154297619Y-100553642D01*
X154235714Y-100491738D01*
X154297619Y-100429833D01*
X154297619Y-100553642D01*
X155845238Y-99872690D02*
X154730952Y-101544119D01*
X157207142Y-99872690D02*
X156092857Y-101544119D01*
X158197619Y-100367928D02*
X158197619Y-101420309D01*
X158135714Y-101544119D01*
X158073809Y-101606023D01*
X157950000Y-101667928D01*
X157764285Y-101667928D01*
X157640476Y-101606023D01*
X158197619Y-101172690D02*
X158073809Y-101234595D01*
X157826190Y-101234595D01*
X157702380Y-101172690D01*
X157640476Y-101110785D01*
X157578571Y-100986976D01*
X157578571Y-100615547D01*
X157640476Y-100491738D01*
X157702380Y-100429833D01*
X157826190Y-100367928D01*
X158073809Y-100367928D01*
X158197619Y-100429833D01*
X158816666Y-101234595D02*
X158816666Y-100367928D01*
X158816666Y-99934595D02*
X158754761Y-99996500D01*
X158816666Y-100058404D01*
X158878571Y-99996500D01*
X158816666Y-99934595D01*
X158816666Y-100058404D01*
X159250000Y-100367928D02*
X159745238Y-100367928D01*
X159435714Y-99934595D02*
X159435714Y-101048880D01*
X159497619Y-101172690D01*
X159621428Y-101234595D01*
X159745238Y-101234595D01*
X160178571Y-101234595D02*
X160178571Y-99934595D01*
X160735714Y-101234595D02*
X160735714Y-100553642D01*
X160673809Y-100429833D01*
X160550000Y-100367928D01*
X160364285Y-100367928D01*
X160240476Y-100429833D01*
X160178571Y-100491738D01*
X161911904Y-100367928D02*
X161911904Y-101234595D01*
X161354761Y-100367928D02*
X161354761Y-101048880D01*
X161416666Y-101172690D01*
X161540476Y-101234595D01*
X161726190Y-101234595D01*
X161850000Y-101172690D01*
X161911904Y-101110785D01*
X162530952Y-101234595D02*
X162530952Y-99934595D01*
X162530952Y-100429833D02*
X162654761Y-100367928D01*
X162902380Y-100367928D01*
X163026190Y-100429833D01*
X163088095Y-100491738D01*
X163150000Y-100615547D01*
X163150000Y-100986976D01*
X163088095Y-101110785D01*
X163026190Y-101172690D01*
X162902380Y-101234595D01*
X162654761Y-101234595D01*
X162530952Y-101172690D01*
X163707142Y-101110785D02*
X163769047Y-101172690D01*
X163707142Y-101234595D01*
X163645238Y-101172690D01*
X163707142Y-101110785D01*
X163707142Y-101234595D01*
X164883333Y-101172690D02*
X164759523Y-101234595D01*
X164511904Y-101234595D01*
X164388095Y-101172690D01*
X164326190Y-101110785D01*
X164264285Y-100986976D01*
X164264285Y-100615547D01*
X164326190Y-100491738D01*
X164388095Y-100429833D01*
X164511904Y-100367928D01*
X164759523Y-100367928D01*
X164883333Y-100429833D01*
X165626190Y-101234595D02*
X165502380Y-101172690D01*
X165440476Y-101110785D01*
X165378571Y-100986976D01*
X165378571Y-100615547D01*
X165440476Y-100491738D01*
X165502380Y-100429833D01*
X165626190Y-100367928D01*
X165811904Y-100367928D01*
X165935714Y-100429833D01*
X165997619Y-100491738D01*
X166059523Y-100615547D01*
X166059523Y-100986976D01*
X165997619Y-101110785D01*
X165935714Y-101172690D01*
X165811904Y-101234595D01*
X165626190Y-101234595D01*
X166616666Y-101234595D02*
X166616666Y-100367928D01*
X166616666Y-100491738D02*
X166678571Y-100429833D01*
X166802380Y-100367928D01*
X166988095Y-100367928D01*
X167111904Y-100429833D01*
X167173809Y-100553642D01*
X167173809Y-101234595D01*
X167173809Y-100553642D02*
X167235714Y-100429833D01*
X167359523Y-100367928D01*
X167545238Y-100367928D01*
X167669047Y-100429833D01*
X167730952Y-100553642D01*
X167730952Y-101234595D01*
X169278571Y-99872690D02*
X168164285Y-101544119D01*
X169588095Y-100367928D02*
X170269047Y-100367928D01*
X169588095Y-101234595D01*
X170269047Y-101234595D01*
X170640476Y-100367928D02*
X170950000Y-101234595D01*
X171259523Y-100367928D02*
X170950000Y-101234595D01*
X170826190Y-101544119D01*
X170764285Y-101606023D01*
X170640476Y-101667928D01*
X171754761Y-101234595D02*
X171754761Y-99934595D01*
X171878571Y-100739357D02*
X172250000Y-101234595D01*
X172250000Y-100367928D02*
X171754761Y-100863166D01*
X172807142Y-101234595D02*
X172807142Y-100367928D01*
X172807142Y-100615547D02*
X172869047Y-100491738D01*
X172930952Y-100429833D01*
X173054761Y-100367928D01*
X173178571Y-100367928D01*
X174169047Y-101234595D02*
X174169047Y-100553642D01*
X174107142Y-100429833D01*
X173983333Y-100367928D01*
X173735714Y-100367928D01*
X173611904Y-100429833D01*
X174169047Y-101172690D02*
X174045238Y-101234595D01*
X173735714Y-101234595D01*
X173611904Y-101172690D01*
X173550000Y-101048880D01*
X173550000Y-100925071D01*
X173611904Y-100801261D01*
X173735714Y-100739357D01*
X174045238Y-100739357D01*
X174169047Y-100677452D01*
X174788095Y-101234595D02*
X174788095Y-99934595D01*
X175345238Y-101234595D02*
X175345238Y-100553642D01*
X175283333Y-100429833D01*
X175159523Y-100367928D01*
X174973809Y-100367928D01*
X174850000Y-100429833D01*
X174788095Y-100491738D01*
X176892857Y-99872690D02*
X175778571Y-101544119D01*
X177140476Y-100367928D02*
X177635714Y-100367928D01*
X177326190Y-101234595D02*
X177326190Y-100120309D01*
X177388095Y-99996500D01*
X177511904Y-99934595D01*
X177635714Y-99934595D01*
X178626190Y-100367928D02*
X178626190Y-101234595D01*
X178069047Y-100367928D02*
X178069047Y-101048880D01*
X178130952Y-101172690D01*
X178254761Y-101234595D01*
X178440476Y-101234595D01*
X178564285Y-101172690D01*
X178626190Y-101110785D01*
X179121428Y-100367928D02*
X179430952Y-101234595D01*
X179740476Y-100367928D02*
X179430952Y-101234595D01*
X179307142Y-101544119D01*
X179245238Y-101606023D01*
X179121428Y-101667928D01*
X180792857Y-100367928D02*
X180792857Y-101234595D01*
X180235714Y-100367928D02*
X180235714Y-101048880D01*
X180297619Y-101172690D01*
X180421428Y-101234595D01*
X180607142Y-101234595D01*
X180730952Y-101172690D01*
X180792857Y-101110785D01*
X158661904Y-102337119D02*
X158538095Y-102275214D01*
X158290476Y-102275214D01*
X158166666Y-102337119D01*
X158042857Y-102460928D01*
X157980952Y-102584738D01*
X157980952Y-102832357D01*
X158042857Y-102956166D01*
X158166666Y-103079976D01*
X158290476Y-103141880D01*
X158538095Y-103141880D01*
X158661904Y-103079976D01*
X158414285Y-101841880D02*
X158104761Y-101903785D01*
X157795238Y-102089500D01*
X157609523Y-102399023D01*
X157547619Y-102708547D01*
X157609523Y-103018071D01*
X157795238Y-103327595D01*
X158104761Y-103513309D01*
X158414285Y-103575214D01*
X158723809Y-103513309D01*
X159033333Y-103327595D01*
X159219047Y-103018071D01*
X159280952Y-102708547D01*
X159219047Y-102399023D01*
X159033333Y-102089500D01*
X158723809Y-101903785D01*
X158414285Y-101841880D01*
X160704761Y-102027595D02*
X161571428Y-102027595D01*
X160704761Y-103327595D01*
X161571428Y-103327595D01*
X161942857Y-102460928D02*
X162252380Y-103327595D01*
X162561904Y-102460928D02*
X162252380Y-103327595D01*
X162128571Y-103637119D01*
X162066666Y-103699023D01*
X161942857Y-103760928D01*
X163057142Y-103327595D02*
X163057142Y-102027595D01*
X163180952Y-102832357D02*
X163552380Y-103327595D01*
X163552380Y-102460928D02*
X163057142Y-102956166D01*
X164109523Y-103327595D02*
X164109523Y-102460928D01*
X164109523Y-102708547D02*
X164171428Y-102584738D01*
X164233333Y-102522833D01*
X164357142Y-102460928D01*
X164480952Y-102460928D01*
X165471428Y-103327595D02*
X165471428Y-102646642D01*
X165409523Y-102522833D01*
X165285714Y-102460928D01*
X165038095Y-102460928D01*
X164914285Y-102522833D01*
X165471428Y-103265690D02*
X165347619Y-103327595D01*
X165038095Y-103327595D01*
X164914285Y-103265690D01*
X164852380Y-103141880D01*
X164852380Y-103018071D01*
X164914285Y-102894261D01*
X165038095Y-102832357D01*
X165347619Y-102832357D01*
X165471428Y-102770452D01*
X166090476Y-103327595D02*
X166090476Y-102027595D01*
X166647619Y-103327595D02*
X166647619Y-102646642D01*
X166585714Y-102522833D01*
X166461904Y-102460928D01*
X166276190Y-102460928D01*
X166152380Y-102522833D01*
X166090476Y-102584738D01*
X168195238Y-102151404D02*
X168257142Y-102089500D01*
X168380952Y-102027595D01*
X168690476Y-102027595D01*
X168814285Y-102089500D01*
X168876190Y-102151404D01*
X168938095Y-102275214D01*
X168938095Y-102399023D01*
X168876190Y-102584738D01*
X168133333Y-103327595D01*
X168938095Y-103327595D01*
X169742857Y-102027595D02*
X169866666Y-102027595D01*
X169990476Y-102089500D01*
X170052380Y-102151404D01*
X170114285Y-102275214D01*
X170176190Y-102522833D01*
X170176190Y-102832357D01*
X170114285Y-103079976D01*
X170052380Y-103203785D01*
X169990476Y-103265690D01*
X169866666Y-103327595D01*
X169742857Y-103327595D01*
X169619047Y-103265690D01*
X169557142Y-103203785D01*
X169495238Y-103079976D01*
X169433333Y-102832357D01*
X169433333Y-102522833D01*
X169495238Y-102275214D01*
X169557142Y-102151404D01*
X169619047Y-102089500D01*
X169742857Y-102027595D01*
X170671428Y-102151404D02*
X170733333Y-102089500D01*
X170857142Y-102027595D01*
X171166666Y-102027595D01*
X171290476Y-102089500D01*
X171352380Y-102151404D01*
X171414285Y-102275214D01*
X171414285Y-102399023D01*
X171352380Y-102584738D01*
X170609523Y-103327595D01*
X171414285Y-103327595D01*
X171847619Y-102027595D02*
X172652380Y-102027595D01*
X172219047Y-102522833D01*
X172404761Y-102522833D01*
X172528571Y-102584738D01*
X172590476Y-102646642D01*
X172652380Y-102770452D01*
X172652380Y-103079976D01*
X172590476Y-103203785D01*
X172528571Y-103265690D01*
X172404761Y-103327595D01*
X172033333Y-103327595D01*
X171909523Y-103265690D01*
X171847619Y-103203785D01*
D10*
%TO.C,J2*%
X278272916Y7602620D02*
X278272916Y6888334D01*
X278225297Y6745477D01*
X278130059Y6650239D01*
X277987202Y6602620D01*
X277891964Y6602620D01*
X278701488Y7507381D02*
X278749107Y7555000D01*
X278844345Y7602620D01*
X279082440Y7602620D01*
X279177678Y7555000D01*
X279225297Y7507381D01*
X279272916Y7412143D01*
X279272916Y7316905D01*
X279225297Y7174048D01*
X278653869Y6602620D01*
X279272916Y6602620D01*
%TO.C,G\u002A\u002A\u002A*%
G36*
X90913480Y-101526523D02*
G01*
X91307662Y-101564218D01*
X91742039Y-101623967D01*
X92206240Y-101703277D01*
X92689893Y-101799658D01*
X93182627Y-101910617D01*
X93674071Y-102033664D01*
X94153852Y-102166306D01*
X94611599Y-102306053D01*
X95036941Y-102450413D01*
X95419506Y-102596894D01*
X95748923Y-102743005D01*
X95806121Y-102771260D01*
X96128959Y-102965799D01*
X96396757Y-103195421D01*
X96608109Y-103457963D01*
X96761611Y-103751268D01*
X96855860Y-104073174D01*
X96889451Y-104421522D01*
X96889514Y-104437783D01*
X96874558Y-104632960D01*
X96827300Y-104787227D01*
X96822618Y-104797140D01*
X96715204Y-104962104D01*
X96558184Y-105127569D01*
X96367001Y-105279442D01*
X96158928Y-105402729D01*
X96031126Y-105463187D01*
X95928686Y-105501084D01*
X95826468Y-105522343D01*
X95699329Y-105532883D01*
X95589514Y-105536847D01*
X95406519Y-105537535D01*
X95259867Y-105525265D01*
X95119894Y-105496462D01*
X95022847Y-105468545D01*
X94868458Y-105415923D01*
X94714647Y-105352036D01*
X94548868Y-105270561D01*
X94358577Y-105165172D01*
X94131230Y-105029545D01*
X94036847Y-104971448D01*
X93742869Y-104781293D01*
X93429605Y-104564500D01*
X93115562Y-104334695D01*
X92819245Y-104105506D01*
X92559159Y-103890557D01*
X92506181Y-103844364D01*
X92438357Y-103784617D01*
X92336538Y-103695047D01*
X92216827Y-103589816D01*
X92139514Y-103521891D01*
X92009868Y-103406195D01*
X91854670Y-103264736D01*
X91680185Y-103103494D01*
X91492675Y-102928451D01*
X91298403Y-102745588D01*
X91103632Y-102560884D01*
X90914626Y-102380321D01*
X90737647Y-102209879D01*
X90578959Y-102055539D01*
X90444825Y-101923282D01*
X90341507Y-101819089D01*
X90275270Y-101748941D01*
X90252598Y-101720043D01*
X90249749Y-101646363D01*
X90266282Y-101588333D01*
X90288799Y-101550950D01*
X90324801Y-101528558D01*
X90389591Y-101517380D01*
X90498468Y-101513638D01*
X90569864Y-101513373D01*
X90913480Y-101526523D01*
G37*
G36*
X91749462Y-97691392D02*
G01*
X92038359Y-97710835D01*
X92326734Y-97742909D01*
X92628759Y-97789955D01*
X92958607Y-97854316D01*
X93330450Y-97938333D01*
X93515460Y-97983228D01*
X94076556Y-98132342D01*
X94602216Y-98293260D01*
X95081197Y-98462346D01*
X95413529Y-98596859D01*
X95712363Y-98737176D01*
X95955040Y-98878169D01*
X96151648Y-99028040D01*
X96312270Y-99194988D01*
X96446993Y-99387213D01*
X96499642Y-99480000D01*
X96604667Y-99719982D01*
X96674057Y-99972904D01*
X96706262Y-100223880D01*
X96699731Y-100458024D01*
X96652914Y-100660450D01*
X96628494Y-100717481D01*
X96487249Y-100932426D01*
X96297685Y-101112491D01*
X96070529Y-101253737D01*
X95816512Y-101352227D01*
X95546364Y-101404023D01*
X95270815Y-101405187D01*
X95000595Y-101351781D01*
X94948070Y-101334182D01*
X94803116Y-101277836D01*
X94668861Y-101214928D01*
X94531697Y-101137432D01*
X94378019Y-101037318D01*
X94194220Y-100906558D01*
X94079208Y-100821539D01*
X93953781Y-100720621D01*
X93791289Y-100578586D01*
X93599809Y-100403377D01*
X93387417Y-100202937D01*
X93162188Y-99985208D01*
X92932198Y-99758132D01*
X92705525Y-99529651D01*
X92490243Y-99307709D01*
X92294429Y-99100247D01*
X92126158Y-98915209D01*
X92039514Y-98815592D01*
X91905901Y-98659337D01*
X91758642Y-98488630D01*
X91618897Y-98327938D01*
X91539514Y-98237497D01*
X91412113Y-98092698D01*
X91323155Y-97988487D01*
X91267009Y-97915426D01*
X91238049Y-97864079D01*
X91230645Y-97825012D01*
X91239171Y-97788787D01*
X91252967Y-97757074D01*
X91292743Y-97669776D01*
X91749462Y-97691392D01*
G37*
G36*
X89627942Y-91226104D02*
G01*
X89839700Y-90807848D01*
X90033487Y-90393311D01*
X90213429Y-89974584D01*
X90383655Y-89543760D01*
X90548292Y-89092931D01*
X90577790Y-89008648D01*
X90736756Y-88537559D01*
X90866785Y-88119636D01*
X90969111Y-87748595D01*
X91044973Y-87418155D01*
X91095608Y-87122035D01*
X91122252Y-86853951D01*
X91126141Y-86607623D01*
X91108514Y-86376769D01*
X91103474Y-86338666D01*
X91081732Y-86158274D01*
X91077498Y-86031081D01*
X91093459Y-85945287D01*
X91132303Y-85889094D01*
X91196719Y-85850702D01*
X91216428Y-85842770D01*
X91354705Y-85814206D01*
X91543064Y-85810836D01*
X91770491Y-85831176D01*
X92025972Y-85873740D01*
X92298494Y-85937044D01*
X92577043Y-86019602D01*
X92610303Y-86030716D01*
X92808294Y-86105172D01*
X93032902Y-86201817D01*
X93268215Y-86312673D01*
X93498323Y-86429761D01*
X93707315Y-86545104D01*
X93879281Y-86650724D01*
X93959729Y-86707370D01*
X94149038Y-86863818D01*
X94282714Y-87005243D01*
X94367337Y-87140577D01*
X94409488Y-87278755D01*
X94415127Y-87325601D01*
X94418074Y-87438469D01*
X94397896Y-87522277D01*
X94344658Y-87611846D01*
X94326050Y-87637806D01*
X94236748Y-87740488D01*
X94132773Y-87833160D01*
X94093838Y-87860603D01*
X94020609Y-87919822D01*
X93938553Y-88013498D01*
X93840973Y-88150212D01*
X93722651Y-88336131D01*
X93614019Y-88510614D01*
X93497893Y-88693089D01*
X93388311Y-88861719D01*
X93300652Y-88992706D01*
X93224685Y-89106748D01*
X93167561Y-89198844D01*
X93136850Y-89256424D01*
X93134170Y-89269100D01*
X93168908Y-89263603D01*
X93252674Y-89238246D01*
X93372341Y-89197274D01*
X93494236Y-89152681D01*
X93822358Y-89025040D01*
X94139318Y-88891952D01*
X94459857Y-88746599D01*
X94798715Y-88582166D01*
X95170632Y-88391834D01*
X95392490Y-88274775D01*
X95640909Y-88147977D01*
X95845503Y-88057045D01*
X96016632Y-87999008D01*
X96164658Y-87970893D01*
X96299941Y-87969729D01*
X96401787Y-87985295D01*
X96539428Y-88021524D01*
X96728500Y-88080943D01*
X96959305Y-88160138D01*
X97222146Y-88255695D01*
X97507324Y-88364199D01*
X97748298Y-88459341D01*
X98092712Y-88611633D01*
X98431041Y-88787829D01*
X98754110Y-88981484D01*
X99052747Y-89186156D01*
X99317776Y-89395399D01*
X99540025Y-89602772D01*
X99710319Y-89801829D01*
X99757254Y-89870394D01*
X99829500Y-90007704D01*
X99852137Y-90122875D01*
X99821671Y-90224347D01*
X99734605Y-90320564D01*
X99587441Y-90419964D01*
X99512287Y-90461800D01*
X99109743Y-90687093D01*
X98761264Y-90904374D01*
X98456136Y-91121393D01*
X98183648Y-91345902D01*
X97933086Y-91585651D01*
X97874697Y-91646666D01*
X97790172Y-91734850D01*
X97664486Y-91863784D01*
X97503792Y-92027254D01*
X97314244Y-92219046D01*
X97101997Y-92432946D01*
X96873204Y-92662740D01*
X96634020Y-92902212D01*
X96403175Y-93132617D01*
X95229802Y-94301900D01*
X95584658Y-94520919D01*
X96284658Y-94932762D01*
X97033614Y-95335956D01*
X97813817Y-95721876D01*
X98607554Y-96081896D01*
X99397117Y-96407388D01*
X99679921Y-96515573D01*
X100081455Y-96661233D01*
X100536172Y-96818052D01*
X101032265Y-96982328D01*
X101557926Y-97150363D01*
X102101347Y-97318456D01*
X102650723Y-97482906D01*
X103194246Y-97640015D01*
X103720108Y-97786082D01*
X103822847Y-97813839D01*
X104000565Y-97861663D01*
X104156607Y-97903748D01*
X104279168Y-97936903D01*
X104356439Y-97957936D01*
X104376394Y-97963480D01*
X104410348Y-98002811D01*
X104439668Y-98084615D01*
X104458761Y-98184705D01*
X104462034Y-98278895D01*
X104457035Y-98312184D01*
X104407200Y-98398097D01*
X104302007Y-98465215D01*
X104138004Y-98515134D01*
X103955132Y-98544605D01*
X103844161Y-98558205D01*
X103679590Y-98578871D01*
X103473924Y-98605007D01*
X103239664Y-98635019D01*
X102989314Y-98667313D01*
X102780331Y-98694438D01*
X102023568Y-98786245D01*
X101271465Y-98864439D01*
X100534638Y-98928257D01*
X99823704Y-98976931D01*
X99149279Y-99009697D01*
X98521980Y-99025789D01*
X98167076Y-99027091D01*
X97886149Y-99023607D01*
X97664719Y-99016513D01*
X97495692Y-99005377D01*
X97371972Y-98989767D01*
X97303600Y-98974566D01*
X97171099Y-98917504D01*
X96997605Y-98811312D01*
X96785133Y-98657804D01*
X96535696Y-98458791D01*
X96251306Y-98216085D01*
X95933976Y-97931500D01*
X95585719Y-97606847D01*
X95208549Y-97243938D01*
X94804477Y-96844587D01*
X94375518Y-96410606D01*
X93923683Y-95943807D01*
X93837862Y-95854116D01*
X93606181Y-95611567D01*
X93289514Y-95830698D01*
X92319482Y-96470366D01*
X91346585Y-97047846D01*
X90362511Y-97567393D01*
X89358948Y-98033264D01*
X88327585Y-98449713D01*
X87806181Y-98638194D01*
X87306273Y-98811124D01*
X86864987Y-98961272D01*
X86478670Y-99089652D01*
X86143669Y-99197276D01*
X85856330Y-99285159D01*
X85613000Y-99354314D01*
X85410025Y-99405755D01*
X85243754Y-99440495D01*
X85110531Y-99459548D01*
X85006705Y-99463928D01*
X84928621Y-99454648D01*
X84897847Y-99445106D01*
X84838869Y-99412441D01*
X84820499Y-99373284D01*
X84846594Y-99323469D01*
X84921014Y-99258829D01*
X85047617Y-99175198D01*
X85230261Y-99068409D01*
X85264527Y-99049128D01*
X85407493Y-98968133D01*
X85596111Y-98859972D01*
X85818665Y-98731433D01*
X86063437Y-98589309D01*
X86318710Y-98440391D01*
X86572768Y-98291469D01*
X86639514Y-98252212D01*
X87463258Y-97760838D01*
X88229598Y-97290287D01*
X88937983Y-96840941D01*
X89587862Y-96413187D01*
X90178681Y-96007407D01*
X90709891Y-95623986D01*
X91180939Y-95263309D01*
X91591273Y-94925759D01*
X91940341Y-94611721D01*
X92120017Y-94434876D01*
X92187770Y-94367054D01*
X92235827Y-94314372D01*
X92260289Y-94268671D01*
X92257262Y-94221792D01*
X92222848Y-94165575D01*
X92153150Y-94091859D01*
X92044273Y-93992486D01*
X91892320Y-93859296D01*
X91811227Y-93788243D01*
X91528813Y-93552574D01*
X91235237Y-93330288D01*
X90944584Y-93131109D01*
X90670937Y-92964765D01*
X90461518Y-92856122D01*
X90216856Y-92741879D01*
X90028185Y-92905436D01*
X89846453Y-93057101D01*
X89636647Y-93222430D01*
X89408430Y-93394667D01*
X89171467Y-93567057D01*
X88935421Y-93732842D01*
X88709956Y-93885267D01*
X88504736Y-94017574D01*
X88329424Y-94123009D01*
X88193685Y-94194814D01*
X88166668Y-94206887D01*
X88023278Y-94261369D01*
X87922301Y-94283610D01*
X87863678Y-94270701D01*
X87847346Y-94219731D01*
X87873247Y-94127789D01*
X87941319Y-93991965D01*
X88051503Y-93809349D01*
X88155101Y-93649935D01*
X88518635Y-93094469D01*
X88843558Y-92582262D01*
X89133999Y-92105403D01*
X89201156Y-91989359D01*
X91087620Y-91989359D01*
X91091756Y-91991155D01*
X91148559Y-92004304D01*
X91247433Y-92024465D01*
X91343649Y-92042886D01*
X91768172Y-92147588D01*
X92188816Y-92304271D01*
X92612637Y-92516225D01*
X93046691Y-92786743D01*
X93256181Y-92935010D01*
X93342437Y-92995624D01*
X93406688Y-93035932D01*
X93429039Y-93045840D01*
X93458600Y-93021946D01*
X93518971Y-92957155D01*
X93599737Y-92862961D01*
X93647288Y-92805000D01*
X93800120Y-92613730D01*
X93937995Y-92435554D01*
X94070914Y-92256721D01*
X94208874Y-92063484D01*
X94361876Y-91842094D01*
X94539918Y-91578801D01*
X94550299Y-91563333D01*
X94674203Y-91379369D01*
X94793716Y-91203237D01*
X94900851Y-91046605D01*
X94987625Y-90921145D01*
X95046052Y-90838525D01*
X95049333Y-90834019D01*
X95119399Y-90728643D01*
X95153512Y-90643940D01*
X95161521Y-90552141D01*
X95160400Y-90520857D01*
X95138574Y-90386221D01*
X95092819Y-90258380D01*
X95032281Y-90156598D01*
X94966106Y-90100141D01*
X94959516Y-90097725D01*
X94897775Y-90100222D01*
X94790029Y-90126653D01*
X94650873Y-90173172D01*
X94600623Y-90192247D01*
X94431832Y-90257108D01*
X94249209Y-90325635D01*
X94086768Y-90385097D01*
X94056181Y-90396031D01*
X93741453Y-90506322D01*
X93480745Y-90593503D01*
X93266105Y-90659042D01*
X93089583Y-90704405D01*
X92943225Y-90731061D01*
X92819082Y-90740475D01*
X92709201Y-90734115D01*
X92605630Y-90713448D01*
X92506181Y-90682021D01*
X92393268Y-90641664D01*
X92301117Y-90609034D01*
X92256005Y-90593362D01*
X92211619Y-90610232D01*
X92138382Y-90682236D01*
X92034936Y-90810788D01*
X91990969Y-90869912D01*
X91750656Y-91187509D01*
X91524467Y-91463062D01*
X91297495Y-91714541D01*
X91244088Y-91770375D01*
X91141066Y-91883192D01*
X91089217Y-91955742D01*
X91087620Y-91989359D01*
X89201156Y-91989359D01*
X89394084Y-91655987D01*
X89627942Y-91226104D01*
G37*
G36*
X111565081Y-99309542D02*
G01*
X111802780Y-99239518D01*
X112021476Y-99186791D01*
X112207390Y-99155517D01*
X112311329Y-99148617D01*
X112416656Y-99157038D01*
X112558507Y-99179639D01*
X112713004Y-99212310D01*
X112781464Y-99229515D01*
X112931810Y-99267064D01*
X113031094Y-99285348D01*
X113087967Y-99285509D01*
X113109080Y-99272832D01*
X113141615Y-99257882D01*
X113206505Y-99278968D01*
X113262113Y-99308099D01*
X113338649Y-99356464D01*
X113385251Y-99396226D01*
X113391871Y-99408632D01*
X113411049Y-99422969D01*
X113419885Y-99418923D01*
X113458288Y-99424513D01*
X113540121Y-99453199D01*
X113652298Y-99500000D01*
X113748446Y-99543980D01*
X113911814Y-99626606D01*
X114038658Y-99705997D01*
X114152401Y-99798641D01*
X114260234Y-99904197D01*
X114397556Y-100050258D01*
X114498737Y-100171295D01*
X114575032Y-100283952D01*
X114637693Y-100404873D01*
X114697972Y-100550703D01*
X114698801Y-100552866D01*
X114751631Y-100686379D01*
X114806824Y-100818925D01*
X114849561Y-100915494D01*
X114873570Y-100973725D01*
X114891697Y-101038318D01*
X114905124Y-101119922D01*
X114915029Y-101229182D01*
X114922595Y-101376746D01*
X114929001Y-101573260D01*
X114931058Y-101650522D01*
X114936092Y-101835223D01*
X114939175Y-101980244D01*
X114938360Y-102097580D01*
X114931698Y-102199225D01*
X114917241Y-102297174D01*
X114893042Y-102403422D01*
X114857152Y-102529963D01*
X114807624Y-102688791D01*
X114742509Y-102891902D01*
X114716031Y-102974563D01*
X114664700Y-103100424D01*
X114587313Y-103229785D01*
X114476433Y-103373028D01*
X114324623Y-103540535D01*
X114270469Y-103596577D01*
X114141698Y-103702054D01*
X113971045Y-103804958D01*
X113779230Y-103894787D01*
X113586976Y-103961042D01*
X113518082Y-103977859D01*
X113434354Y-103997424D01*
X113313499Y-104027920D01*
X113179183Y-104063350D01*
X113155225Y-104069837D01*
X112999249Y-104105090D01*
X112847459Y-104121887D01*
X112685338Y-104119707D01*
X112498370Y-104098026D01*
X112272036Y-104056321D01*
X112169003Y-104034305D01*
X111969876Y-103983669D01*
X111814437Y-103925433D01*
X111683291Y-103850204D01*
X111557047Y-103748589D01*
X111532612Y-103726084D01*
X111443530Y-103651580D01*
X111353126Y-103589105D01*
X111329780Y-103575934D01*
X111247455Y-103521070D01*
X111158162Y-103444237D01*
X111134381Y-103420221D01*
X111067273Y-103356450D01*
X111013686Y-103318305D01*
X110998831Y-103313506D01*
X110959614Y-103286574D01*
X110916999Y-103220681D01*
X110882510Y-103138185D01*
X110867669Y-103061441D01*
X110867647Y-103058971D01*
X110880393Y-103009187D01*
X110922864Y-103008372D01*
X110978206Y-103026761D01*
X111074211Y-103059205D01*
X111191857Y-103099269D01*
X111213620Y-103106710D01*
X111356779Y-103153884D01*
X111449404Y-103178905D01*
X111499696Y-103182694D01*
X111515857Y-103166176D01*
X111510160Y-103140089D01*
X111509181Y-103110020D01*
X111548241Y-103104720D01*
X111597921Y-103112082D01*
X111697869Y-103134747D01*
X111812938Y-103166872D01*
X111838998Y-103175065D01*
X111936882Y-103202275D01*
X112018912Y-103217605D01*
X112037770Y-103218848D01*
X112112360Y-103233182D01*
X112186543Y-103262858D01*
X112267685Y-103286355D01*
X112391776Y-103301740D01*
X112539137Y-103308643D01*
X112690087Y-103306695D01*
X112824948Y-103295528D01*
X112918579Y-103276577D01*
X113093771Y-103188552D01*
X113238480Y-103048025D01*
X113338211Y-102880215D01*
X113395337Y-102746770D01*
X113440241Y-102623627D01*
X113474764Y-102499737D01*
X113500744Y-102364052D01*
X113520022Y-102205523D01*
X113534438Y-102013103D01*
X113545832Y-101775743D01*
X113552430Y-101593879D01*
X113559960Y-101356188D01*
X113564348Y-101170978D01*
X113565180Y-101027682D01*
X113562043Y-100915736D01*
X113554523Y-100824573D01*
X113542204Y-100743628D01*
X113524673Y-100662334D01*
X113514260Y-100619985D01*
X113428611Y-100349140D01*
X113318604Y-100130289D01*
X113178319Y-99955074D01*
X113001836Y-99815139D01*
X112904396Y-99759021D01*
X112784991Y-99708734D01*
X112658741Y-99673419D01*
X112604645Y-99665199D01*
X112479204Y-99650280D01*
X112343772Y-99628280D01*
X112309634Y-99621591D01*
X112189136Y-99602115D01*
X112070272Y-99591156D01*
X112037680Y-99590277D01*
X111882460Y-99601127D01*
X111685611Y-99631324D01*
X111464315Y-99677336D01*
X111235757Y-99735633D01*
X111038019Y-99795695D01*
X110903649Y-99839882D01*
X110793297Y-99875612D01*
X110719498Y-99898860D01*
X110694829Y-99905804D01*
X110692781Y-99880414D01*
X110699686Y-99846732D01*
X110737881Y-99800181D01*
X110823734Y-99743916D01*
X110909713Y-99701525D01*
X111001295Y-99657053D01*
X111058462Y-99621408D01*
X111069577Y-99601924D01*
X111068520Y-99601427D01*
X111023362Y-99606946D01*
X110940738Y-99635110D01*
X110847650Y-99675640D01*
X110746583Y-99726719D01*
X110689973Y-99767577D01*
X110664079Y-99812395D01*
X110655234Y-99874252D01*
X110652058Y-99954911D01*
X110650024Y-100074465D01*
X110649058Y-100219978D01*
X110649088Y-100378516D01*
X110650041Y-100537144D01*
X110651841Y-100682928D01*
X110654418Y-100802933D01*
X110657696Y-100884224D01*
X110661127Y-100913505D01*
X110664569Y-100948405D01*
X110669016Y-101038351D01*
X110674196Y-101175297D01*
X110679835Y-101351198D01*
X110685661Y-101558006D01*
X110691401Y-101787676D01*
X110692758Y-101846301D01*
X110699238Y-102086855D01*
X110707196Y-102312377D01*
X110716158Y-102513559D01*
X110725649Y-102681092D01*
X110735193Y-102805666D01*
X110744315Y-102877971D01*
X110745732Y-102884177D01*
X110762166Y-102977454D01*
X110748831Y-103024212D01*
X110743752Y-103028100D01*
X110722758Y-103069246D01*
X110699049Y-103161273D01*
X110674767Y-103292142D01*
X110652058Y-103449816D01*
X110633063Y-103622257D01*
X110628303Y-103676363D01*
X110612767Y-103797422D01*
X110585101Y-103952594D01*
X110549575Y-104122709D01*
X110510457Y-104288594D01*
X110472013Y-104431078D01*
X110438513Y-104530988D01*
X110437496Y-104533447D01*
X110399881Y-104602854D01*
X110364100Y-104637748D01*
X110359003Y-104638724D01*
X110339687Y-104615846D01*
X110347556Y-104583506D01*
X110369744Y-104507831D01*
X110380031Y-104449407D01*
X110392628Y-104362788D01*
X110410200Y-104261356D01*
X110411048Y-104256871D01*
X110419520Y-104175599D01*
X110401212Y-104134559D01*
X110380939Y-104123375D01*
X110347024Y-104120446D01*
X110317825Y-104147105D01*
X110288207Y-104212791D01*
X110253034Y-104326942D01*
X110235729Y-104390266D01*
X110203214Y-104495323D01*
X110167590Y-104587562D01*
X110158280Y-104607171D01*
X110086989Y-104752980D01*
X110017246Y-104907404D01*
X109958538Y-105048645D01*
X109921551Y-105151017D01*
X109891002Y-105231280D01*
X109861376Y-105281957D01*
X109855656Y-105286979D01*
X109827101Y-105331716D01*
X109826405Y-105339638D01*
X109845518Y-105347075D01*
X109889510Y-105317109D01*
X109934790Y-105286995D01*
X109952616Y-105296046D01*
X109928081Y-105333410D01*
X109866276Y-105385222D01*
X109833830Y-105407080D01*
X109749821Y-105465614D01*
X109684505Y-105520590D01*
X109671843Y-105534120D01*
X109622698Y-105576762D01*
X109536089Y-105637392D01*
X109426825Y-105707165D01*
X109309711Y-105777236D01*
X109199556Y-105838760D01*
X109111167Y-105882893D01*
X109059350Y-105900788D01*
X109057938Y-105900836D01*
X109028277Y-105903447D01*
X108987814Y-105914147D01*
X108924830Y-105937235D01*
X108827608Y-105977012D01*
X108684431Y-106037775D01*
X108682616Y-106038551D01*
X108609647Y-106063896D01*
X108568014Y-106067026D01*
X108564293Y-106061834D01*
X108591643Y-106019028D01*
X108665824Y-105960472D01*
X108775031Y-105893743D01*
X108907458Y-105826420D01*
X108982818Y-105793174D01*
X109089284Y-105746062D01*
X109171117Y-105704909D01*
X109212148Y-105677914D01*
X109213438Y-105676224D01*
X109255978Y-105652472D01*
X109288494Y-105648413D01*
X109346470Y-105625794D01*
X109364523Y-105601084D01*
X109359289Y-105561898D01*
X109322432Y-105553755D01*
X109264759Y-105565080D01*
X109246985Y-105578340D01*
X109209211Y-105593833D01*
X109129885Y-105605921D01*
X109075876Y-105609708D01*
X108947010Y-105625378D01*
X108819723Y-105665210D01*
X108674971Y-105736192D01*
X108580069Y-105791613D01*
X108481172Y-105846932D01*
X108427960Y-105865699D01*
X108422322Y-105847727D01*
X108455999Y-105803811D01*
X108493851Y-105758942D01*
X108485372Y-105747620D01*
X108423157Y-105760688D01*
X108421449Y-105761102D01*
X108326035Y-105787401D01*
X108254599Y-105810797D01*
X108186450Y-105833557D01*
X108158881Y-105832407D01*
X108154107Y-105812021D01*
X108181050Y-105780519D01*
X108247650Y-105742347D01*
X108332565Y-105706995D01*
X108414449Y-105683954D01*
X108451075Y-105679966D01*
X108588133Y-105652102D01*
X108749547Y-105569908D01*
X108931416Y-105435481D01*
X108974479Y-105398496D01*
X109074103Y-105313853D01*
X109160994Y-105245386D01*
X109220684Y-105204315D01*
X109232341Y-105198536D01*
X109270981Y-105156386D01*
X109269457Y-105119129D01*
X109279804Y-105051302D01*
X109332687Y-104965656D01*
X109338230Y-104958944D01*
X109386750Y-104890589D01*
X109434511Y-104806155D01*
X109476198Y-104718560D01*
X109506499Y-104640722D01*
X109520101Y-104585558D01*
X109511692Y-104565987D01*
X109496294Y-104574627D01*
X109444785Y-104599537D01*
X109420074Y-104582901D01*
X109437690Y-104536940D01*
X109460098Y-104479382D01*
X109465030Y-104447782D01*
X109532474Y-104447782D01*
X109544906Y-104455112D01*
X109566266Y-104414415D01*
X109586950Y-104344217D01*
X109593942Y-104285220D01*
X109579151Y-104272675D01*
X109578885Y-104272837D01*
X109553991Y-104314168D01*
X109535610Y-104386906D01*
X109532474Y-104447782D01*
X109465030Y-104447782D01*
X109473476Y-104393675D01*
X109473923Y-104386301D01*
X109484666Y-104273491D01*
X109502822Y-104164080D01*
X109523947Y-104082434D01*
X109533173Y-104061353D01*
X109565475Y-104056353D01*
X109589914Y-104070902D01*
X109619010Y-104085463D01*
X109619072Y-104085411D01*
X110405865Y-104085411D01*
X110420200Y-104102326D01*
X110445273Y-104074892D01*
X110464034Y-104008693D01*
X110464337Y-104006676D01*
X110466606Y-103946172D01*
X110451731Y-103940928D01*
X110426453Y-103987795D01*
X110411552Y-104031332D01*
X110405865Y-104085411D01*
X109619072Y-104085411D01*
X109641714Y-104066492D01*
X109643640Y-104060884D01*
X110279432Y-104060884D01*
X110292446Y-104070773D01*
X110317101Y-104043390D01*
X110351570Y-103972479D01*
X110379988Y-103897233D01*
X110418216Y-103803784D01*
X110456361Y-103740782D01*
X110479771Y-103723693D01*
X110518837Y-103718746D01*
X110522529Y-103715804D01*
X110536460Y-103629268D01*
X110540762Y-103536167D01*
X110535486Y-103459971D01*
X110521877Y-103424751D01*
X110498418Y-103436265D01*
X110489052Y-103501299D01*
X110489013Y-103507272D01*
X110484544Y-103573034D01*
X110467462Y-103584947D01*
X110449572Y-103570640D01*
X110426780Y-103512067D01*
X110416866Y-103394025D01*
X110417590Y-103272466D01*
X110418701Y-103139789D01*
X110412467Y-103068096D01*
X110398700Y-103055675D01*
X110394409Y-103061084D01*
X110371144Y-103127393D01*
X110363285Y-103197258D01*
X110350350Y-103288938D01*
X110327992Y-103351146D01*
X110309144Y-103410261D01*
X110327982Y-103437698D01*
X110339290Y-103476096D01*
X110341345Y-103559696D01*
X110335512Y-103671494D01*
X110323157Y-103794485D01*
X110305642Y-103911667D01*
X110284335Y-104006034D01*
X110281669Y-104014760D01*
X110279432Y-104060884D01*
X109643640Y-104060884D01*
X109662990Y-104004535D01*
X109687805Y-103890133D01*
X109689575Y-103881083D01*
X109699759Y-103787264D01*
X109704899Y-103649356D01*
X109705177Y-103486160D01*
X109700778Y-103316475D01*
X109691887Y-103159101D01*
X109681471Y-103053196D01*
X109673003Y-102961901D01*
X109680618Y-102917147D01*
X109707894Y-102903625D01*
X109716473Y-102903320D01*
X109753431Y-102890748D01*
X109749149Y-102842681D01*
X109745654Y-102832326D01*
X109734541Y-102771731D01*
X109724555Y-102665062D01*
X109717033Y-102529352D01*
X109716255Y-102503651D01*
X110562637Y-102503651D01*
X110566968Y-102522409D01*
X110583672Y-102524686D01*
X110609643Y-102513142D01*
X110604707Y-102503651D01*
X110567261Y-102499875D01*
X110562637Y-102503651D01*
X109716255Y-102503651D01*
X109714027Y-102430028D01*
X109711796Y-102378225D01*
X110573786Y-102378225D01*
X110588047Y-102398475D01*
X110608485Y-102371448D01*
X110615225Y-102319593D01*
X110611071Y-102260223D01*
X110603127Y-102240711D01*
X110588937Y-102267510D01*
X110575949Y-102319593D01*
X110573786Y-102378225D01*
X109711796Y-102378225D01*
X109704827Y-102216362D01*
X109687175Y-102030764D01*
X109662521Y-101882133D01*
X109632314Y-101779368D01*
X109600493Y-101732750D01*
X109577909Y-101701854D01*
X109591174Y-101645344D01*
X109600629Y-101623600D01*
X109623180Y-101553134D01*
X109607093Y-101503096D01*
X109594289Y-101487241D01*
X109564431Y-101436969D01*
X109546266Y-101359764D01*
X109537665Y-101242401D01*
X109536197Y-101126599D01*
X109534011Y-101052286D01*
X109523103Y-101032165D01*
X109497355Y-101057377D01*
X109492620Y-101063494D01*
X109464994Y-101094359D01*
X109457630Y-101079579D01*
X109466612Y-101011076D01*
X109466761Y-101010152D01*
X109473592Y-100942536D01*
X109462226Y-100933224D01*
X109453955Y-100943201D01*
X109407785Y-100969065D01*
X109383804Y-100962290D01*
X109343027Y-100973870D01*
X109264748Y-101035251D01*
X109149562Y-101145927D01*
X109064454Y-101234225D01*
X108934932Y-101375465D01*
X108841063Y-101489758D01*
X108771844Y-101592646D01*
X108716269Y-101699669D01*
X108686960Y-101767309D01*
X108634942Y-101892990D01*
X108587010Y-102007965D01*
X108552375Y-102090154D01*
X108548710Y-102098724D01*
X108493311Y-102255011D01*
X108440884Y-102451175D01*
X108395445Y-102666375D01*
X108361007Y-102879764D01*
X108341585Y-103070498D01*
X108339288Y-103186145D01*
X108333708Y-103341652D01*
X108298265Y-103456657D01*
X108224572Y-103549996D01*
X108151181Y-103608687D01*
X108063097Y-103664024D01*
X107989564Y-103684979D01*
X107898657Y-103679858D01*
X107885179Y-103677903D01*
X107724478Y-103630790D01*
X107536539Y-103536152D01*
X107329047Y-103399026D01*
X107109687Y-103224447D01*
X106903600Y-103034691D01*
X106770692Y-102861984D01*
X106691777Y-102657772D01*
X106666793Y-102421638D01*
X106695681Y-102153167D01*
X106745221Y-101954731D01*
X106779824Y-101832414D01*
X106824161Y-101665660D01*
X106873838Y-101471538D01*
X106924460Y-101267116D01*
X106955896Y-101136363D01*
X107014520Y-100903664D01*
X107074143Y-100693298D01*
X107132131Y-100512727D01*
X107185853Y-100369410D01*
X107232677Y-100270809D01*
X107269973Y-100224384D01*
X107278517Y-100221747D01*
X107290940Y-100250370D01*
X107300927Y-100325881D01*
X107306351Y-100432063D01*
X107306397Y-100434314D01*
X107310613Y-100647295D01*
X107335186Y-100489531D01*
X107351059Y-100355783D01*
X107361171Y-100211167D01*
X107362523Y-100167977D01*
X107371137Y-100060374D01*
X107390052Y-99997078D01*
X107415341Y-99984033D01*
X107443081Y-100027183D01*
X107447401Y-100039446D01*
X107460195Y-100117807D01*
X107466166Y-100244177D01*
X107465605Y-100403859D01*
X107458807Y-100582159D01*
X107446061Y-100764381D01*
X107429927Y-100918158D01*
X107411034Y-101125034D01*
X107400740Y-101361610D01*
X107399077Y-101606413D01*
X107406082Y-101837973D01*
X107421789Y-102034818D01*
X107428064Y-102082947D01*
X107452712Y-102224278D01*
X107483381Y-102360716D01*
X107516303Y-102479312D01*
X107547710Y-102567114D01*
X107573833Y-102611171D01*
X107582414Y-102613478D01*
X107621576Y-102581662D01*
X107690589Y-102510613D01*
X107780435Y-102410814D01*
X107882098Y-102292745D01*
X107986558Y-102166889D01*
X108084799Y-102043727D01*
X108167802Y-101933741D01*
X108170833Y-101929548D01*
X108270284Y-101794845D01*
X108378230Y-101653569D01*
X108474720Y-101531735D01*
X108493939Y-101508298D01*
X108731302Y-101210374D01*
X108911374Y-100965379D01*
X108968006Y-100896665D01*
X109015965Y-100857026D01*
X109027908Y-100853257D01*
X109072337Y-100829075D01*
X109115285Y-100781395D01*
X109163761Y-100728809D01*
X109200300Y-100710401D01*
X109238269Y-100687956D01*
X109300236Y-100629844D01*
X109355697Y-100568413D01*
X109419825Y-100487899D01*
X109456357Y-100421056D01*
X109473571Y-100343783D01*
X109479746Y-100231980D01*
X109480340Y-100205556D01*
X109480032Y-100101465D01*
X109476313Y-99953103D01*
X109469797Y-99772312D01*
X109461095Y-99570933D01*
X109450820Y-99360808D01*
X109439586Y-99153778D01*
X109428004Y-98961685D01*
X109416687Y-98796372D01*
X109406248Y-98669679D01*
X109397300Y-98593448D01*
X109396788Y-98590538D01*
X109353446Y-98475109D01*
X109274371Y-98411597D01*
X109158265Y-98399034D01*
X109142041Y-98400870D01*
X108901144Y-98459626D01*
X108689573Y-98569577D01*
X108504374Y-98733183D01*
X108342591Y-98952901D01*
X108235180Y-99155266D01*
X108173777Y-99295571D01*
X108121558Y-99430592D01*
X108085994Y-99540255D01*
X108076255Y-99582388D01*
X108052426Y-99678294D01*
X108027269Y-99712092D01*
X108006689Y-99684368D01*
X107996592Y-99595702D01*
X107996343Y-99574500D01*
X107989212Y-99484746D01*
X107970364Y-99436658D01*
X107961209Y-99432513D01*
X107939521Y-99408010D01*
X107944758Y-99333030D01*
X107955588Y-99290525D01*
X108059448Y-99290525D01*
X108075225Y-99306301D01*
X108091001Y-99290525D01*
X108075225Y-99274749D01*
X108059448Y-99290525D01*
X107955588Y-99290525D01*
X107977285Y-99205370D01*
X108000781Y-99132761D01*
X108122554Y-99132761D01*
X108138330Y-99148537D01*
X108154107Y-99132761D01*
X108138330Y-99116985D01*
X108122554Y-99132761D01*
X108000781Y-99132761D01*
X108021201Y-99069655D01*
X108154107Y-99069655D01*
X108169883Y-99085432D01*
X108185659Y-99069655D01*
X108169883Y-99053879D01*
X108154107Y-99069655D01*
X108021201Y-99069655D01*
X108066890Y-98931445D01*
X108113191Y-98783923D01*
X108136189Y-98706798D01*
X108217151Y-98497877D01*
X108332793Y-98295088D01*
X108470636Y-98117006D01*
X108561027Y-98034432D01*
X108797486Y-98034432D01*
X108842245Y-98015860D01*
X108842703Y-98015615D01*
X108903482Y-97973776D01*
X108929201Y-97946214D01*
X108930603Y-97927736D01*
X108885844Y-97946308D01*
X108885386Y-97946553D01*
X108824607Y-97988392D01*
X108798889Y-98015954D01*
X108797486Y-98034432D01*
X108561027Y-98034432D01*
X108618201Y-97982203D01*
X108627399Y-97975683D01*
X108753968Y-97898434D01*
X108843514Y-97869173D01*
X108869999Y-97870756D01*
X108932264Y-97870982D01*
X108958631Y-97854989D01*
X109003115Y-97828566D01*
X109040704Y-97823320D01*
X109106931Y-97809354D01*
X109197333Y-97774397D01*
X109228706Y-97759294D01*
X109398164Y-97693816D01*
X109594352Y-97651717D01*
X109803742Y-97632505D01*
X110012803Y-97635690D01*
X110208007Y-97660779D01*
X110375822Y-97707282D01*
X110502721Y-97774706D01*
X110538491Y-97806880D01*
X110590465Y-97872269D01*
X110616502Y-97923143D01*
X110617106Y-97927492D01*
X110623047Y-97979086D01*
X110636039Y-98067740D01*
X110644530Y-98120945D01*
X110653434Y-98233079D01*
X110652017Y-98376028D01*
X110640942Y-98515355D01*
X110631532Y-98620772D01*
X110623925Y-98760501D01*
X110618229Y-98922396D01*
X110614555Y-99094308D01*
X110613011Y-99264091D01*
X110613707Y-99419598D01*
X110616751Y-99548682D01*
X110622255Y-99639196D01*
X110630326Y-99678993D01*
X110630469Y-99679144D01*
X110664408Y-99673840D01*
X110739848Y-99644955D01*
X110842394Y-99598200D01*
X110875760Y-99581808D01*
X111087791Y-99484844D01*
X111089106Y-99484327D01*
X111607103Y-99484327D01*
X111643718Y-99482295D01*
X111672243Y-99476361D01*
X111742919Y-99458089D01*
X111780034Y-99443863D01*
X111780049Y-99443850D01*
X111776260Y-99431845D01*
X111734643Y-99433051D01*
X111678295Y-99444242D01*
X111630315Y-99462193D01*
X111624914Y-99465507D01*
X111607103Y-99484327D01*
X111089106Y-99484327D01*
X111322158Y-99392703D01*
X111565081Y-99309542D01*
G37*
G36*
X109700194Y-103676363D02*
G01*
X109684417Y-103692140D01*
X109668641Y-103676363D01*
X109684417Y-103660587D01*
X109700194Y-103676363D01*
G37*
G36*
X109259574Y-88244487D02*
G01*
X109270165Y-88253499D01*
X109315474Y-88273880D01*
X109377971Y-88287051D01*
X109435121Y-88305679D01*
X109535299Y-88349405D01*
X109666445Y-88412542D01*
X109816500Y-88489401D01*
X109889510Y-88528314D01*
X110060823Y-88622375D01*
X110188009Y-88697356D01*
X110283440Y-88762288D01*
X110359486Y-88826203D01*
X110428519Y-88898134D01*
X110480995Y-88960166D01*
X110610128Y-89126877D01*
X110698740Y-89267662D01*
X110753561Y-89398423D01*
X110781323Y-89535061D01*
X110788765Y-89687291D01*
X110782844Y-89837935D01*
X110758637Y-89942655D01*
X110706478Y-90018040D01*
X110616699Y-90080679D01*
X110535835Y-90121364D01*
X110440962Y-90178452D01*
X110330212Y-90263038D01*
X110240624Y-90344280D01*
X110160253Y-90422400D01*
X110097647Y-90479082D01*
X110065446Y-90502924D01*
X110064553Y-90503072D01*
X110051551Y-90476001D01*
X110047274Y-90424190D01*
X110034376Y-90358900D01*
X109998334Y-90351916D01*
X109952616Y-90392637D01*
X109902953Y-90433022D01*
X109877759Y-90440957D01*
X109817808Y-90472389D01*
X109761885Y-90556014D01*
X109711966Y-90680952D01*
X109670025Y-90836325D01*
X109638038Y-91011254D01*
X109617980Y-91194860D01*
X109611827Y-91376263D01*
X109621552Y-91544584D01*
X109649132Y-91688945D01*
X109650396Y-91693264D01*
X109709360Y-91883971D01*
X109762474Y-92032387D01*
X109818247Y-92157673D01*
X109885184Y-92278990D01*
X109969496Y-92412016D01*
X110033514Y-92507207D01*
X110092577Y-92588434D01*
X110155361Y-92665128D01*
X110230542Y-92746723D01*
X110326796Y-92842651D01*
X110452800Y-92962347D01*
X110611043Y-93109514D01*
X110718587Y-93217467D01*
X110843255Y-93355448D01*
X110965929Y-93501826D01*
X111028589Y-93581989D01*
X111122244Y-93703451D01*
X111208539Y-93811092D01*
X111276755Y-93891781D01*
X111311463Y-93928429D01*
X111385218Y-94026240D01*
X111454685Y-94176899D01*
X111517512Y-94370178D01*
X111571345Y-94595847D01*
X111613832Y-94843680D01*
X111642621Y-95103447D01*
X111655358Y-95364920D01*
X111655769Y-95425308D01*
X111653521Y-95606252D01*
X111646455Y-95738071D01*
X111632983Y-95834663D01*
X111611521Y-95909927D01*
X111596360Y-95945929D01*
X111481766Y-96121668D01*
X111323612Y-96264740D01*
X111134552Y-96370187D01*
X110927242Y-96433050D01*
X110714337Y-96448369D01*
X110508491Y-96411186D01*
X110457461Y-96392211D01*
X110220130Y-96275240D01*
X110020705Y-96133822D01*
X109889510Y-96010439D01*
X109781101Y-95911389D01*
X109655850Y-95815675D01*
X109581871Y-95768212D01*
X109494160Y-95713171D01*
X109434108Y-95666537D01*
X109416218Y-95642455D01*
X109394671Y-95612325D01*
X109335117Y-95546179D01*
X109245187Y-95451585D01*
X109132511Y-95336109D01*
X109004721Y-95207318D01*
X108869447Y-95072781D01*
X108734321Y-94940063D01*
X108606973Y-94816733D01*
X108495034Y-94710357D01*
X108406135Y-94628503D01*
X108347906Y-94578738D01*
X108333322Y-94568595D01*
X108294065Y-94559387D01*
X108247204Y-94580004D01*
X108180199Y-94637889D01*
X108128229Y-94690370D01*
X107923586Y-94905815D01*
X107741167Y-95104286D01*
X107586422Y-95279569D01*
X107464798Y-95425450D01*
X107381745Y-95535715D01*
X107365686Y-95560088D01*
X107298482Y-95654451D01*
X107227989Y-95716389D01*
X107136812Y-95755122D01*
X107007557Y-95779868D01*
X106934378Y-95788674D01*
X106838981Y-95797025D01*
X106768893Y-95792765D01*
X106703140Y-95769530D01*
X106620743Y-95720951D01*
X106544914Y-95670471D01*
X106389908Y-95549447D01*
X106282789Y-95420921D01*
X106213262Y-95267788D01*
X106171029Y-95072939D01*
X106166831Y-95042304D01*
X106148306Y-94860881D01*
X106138493Y-94679056D01*
X106137457Y-94512236D01*
X106145260Y-94375832D01*
X106161966Y-94285253D01*
X106163686Y-94280454D01*
X106203317Y-94201699D01*
X106264516Y-94108638D01*
X106338764Y-94010863D01*
X106417541Y-93917966D01*
X106492328Y-93839539D01*
X106554605Y-93785174D01*
X106595854Y-93764464D01*
X106608020Y-93780167D01*
X106636088Y-93795302D01*
X106707140Y-93800756D01*
X106750007Y-93799207D01*
X106834550Y-93797689D01*
X106885375Y-93804846D01*
X106891994Y-93810763D01*
X106869504Y-93841483D01*
X106812802Y-93894240D01*
X106782240Y-93919463D01*
X106704880Y-93990423D01*
X106646347Y-94060153D01*
X106635971Y-94077227D01*
X106599455Y-94147419D01*
X106677567Y-94075672D01*
X106797512Y-93998015D01*
X106946054Y-93949212D01*
X107106457Y-93929772D01*
X107261983Y-93940206D01*
X107395894Y-93981021D01*
X107489985Y-94050938D01*
X107552598Y-94092475D01*
X107591033Y-94100090D01*
X107663921Y-94112067D01*
X107748754Y-94141520D01*
X107823632Y-94178732D01*
X107866652Y-94213988D01*
X107870131Y-94223910D01*
X107845825Y-94240525D01*
X107789195Y-94225520D01*
X107707576Y-94206616D01*
X107598937Y-94195764D01*
X107558050Y-94194749D01*
X107450329Y-94203130D01*
X107377156Y-94234615D01*
X107333851Y-94273506D01*
X107289268Y-94330856D01*
X107276881Y-94368297D01*
X107278522Y-94370924D01*
X107337773Y-94398709D01*
X107448175Y-94421542D01*
X107597862Y-94437797D01*
X107774967Y-94445850D01*
X107829700Y-94446418D01*
X107969227Y-94445042D01*
X108055269Y-94439048D01*
X108097369Y-94426956D01*
X108105070Y-94407286D01*
X108103956Y-94403867D01*
X108108040Y-94374040D01*
X108161097Y-94374679D01*
X108164686Y-94375349D01*
X108241510Y-94367742D01*
X108362305Y-94326657D01*
X108489933Y-94269167D01*
X108624971Y-94203319D01*
X108712511Y-94161280D01*
X108761838Y-94139326D01*
X108782236Y-94133733D01*
X108782990Y-94140777D01*
X108774405Y-94155075D01*
X108740221Y-94186553D01*
X108667273Y-94241442D01*
X108569905Y-94309066D01*
X108546894Y-94324418D01*
X108338923Y-94462144D01*
X108427703Y-94532934D01*
X108487612Y-94572315D01*
X108591423Y-94632047D01*
X108726220Y-94705021D01*
X108879086Y-94784125D01*
X108934896Y-94812157D01*
X109129560Y-94906196D01*
X109287962Y-94973211D01*
X109428495Y-95017728D01*
X109569551Y-95044271D01*
X109729521Y-95057364D01*
X109926800Y-95061532D01*
X109949041Y-95061631D01*
X110070681Y-95060360D01*
X110146865Y-95052034D01*
X110195217Y-95031471D01*
X110233357Y-94993488D01*
X110248793Y-94973471D01*
X110288537Y-94882728D01*
X110315022Y-94743085D01*
X110328637Y-94567253D01*
X110329772Y-94367944D01*
X110318816Y-94157871D01*
X110296158Y-93949744D01*
X110262188Y-93756275D01*
X110217296Y-93590176D01*
X110205396Y-93556995D01*
X110163431Y-93469823D01*
X110093707Y-93349390D01*
X110006550Y-93212754D01*
X109927773Y-93098426D01*
X109726303Y-92801419D01*
X109562444Y-92521423D01*
X109427884Y-92240255D01*
X109314314Y-91939732D01*
X109213422Y-91601671D01*
X109174205Y-91449655D01*
X109099746Y-91024965D01*
X109088299Y-90602934D01*
X109139880Y-90183341D01*
X109254511Y-89765966D01*
X109337812Y-89552592D01*
X109416153Y-89370831D01*
X109471886Y-89234457D01*
X109505456Y-89130115D01*
X109517307Y-89044448D01*
X109507884Y-88964100D01*
X109477632Y-88875715D01*
X109426993Y-88765935D01*
X109368006Y-88645314D01*
X109302172Y-88507692D01*
X109247904Y-88389983D01*
X109210545Y-88304083D01*
X109195436Y-88261890D01*
X109195349Y-88260768D01*
X109216250Y-88232975D01*
X109259574Y-88244487D01*
G37*
G36*
X109563984Y-103938646D02*
G01*
X109567745Y-103987959D01*
X109561493Y-103999122D01*
X109547152Y-103989712D01*
X109544921Y-103957709D01*
X109552626Y-103924041D01*
X109563984Y-103938646D01*
G37*
G36*
X112856180Y-93139961D02*
G01*
X112959234Y-93166773D01*
X113170584Y-93236975D01*
X113378160Y-93331576D01*
X113600259Y-93459510D01*
X113726383Y-93541385D01*
X113998964Y-93734565D01*
X114251531Y-93934471D01*
X114476879Y-94134273D01*
X114667801Y-94327141D01*
X114817093Y-94506244D01*
X114917550Y-94664752D01*
X114922937Y-94675667D01*
X114974905Y-94827694D01*
X114970296Y-94960345D01*
X114906966Y-95083118D01*
X114807888Y-95184644D01*
X114717957Y-95252086D01*
X114629563Y-95290188D01*
X114513270Y-95310717D01*
X114485192Y-95313641D01*
X114274894Y-95326231D01*
X114108410Y-95319559D01*
X113991771Y-95294198D01*
X113939248Y-95261783D01*
X113886679Y-95224062D01*
X113854310Y-95219662D01*
X113802904Y-95229730D01*
X113714728Y-95242604D01*
X113667958Y-95248483D01*
X113576432Y-95252130D01*
X113525044Y-95240467D01*
X113521188Y-95218595D01*
X113572259Y-95191609D01*
X113581187Y-95188662D01*
X113632236Y-95158345D01*
X113644293Y-95134529D01*
X113615911Y-95118372D01*
X113541168Y-95112796D01*
X113435671Y-95116451D01*
X113315026Y-95127983D01*
X113194840Y-95146041D01*
X113090719Y-95169273D01*
X113037651Y-95187086D01*
X112941758Y-95223835D01*
X112900210Y-95229918D01*
X112911477Y-95203994D01*
X112974026Y-95144721D01*
X112981684Y-95138080D01*
X113092119Y-95042734D01*
X112997461Y-95064718D01*
X112909419Y-95096720D01*
X112847391Y-95134859D01*
X112793230Y-95167645D01*
X112770904Y-95155378D01*
X112785689Y-95110253D01*
X112818537Y-95068181D01*
X112867137Y-95001795D01*
X112887026Y-94945957D01*
X112909604Y-94886876D01*
X112939539Y-94853333D01*
X112985028Y-94808415D01*
X113055742Y-94730598D01*
X113137111Y-94635962D01*
X113144632Y-94626961D01*
X113239547Y-94498437D01*
X113292211Y-94383573D01*
X113300913Y-94272809D01*
X113263944Y-94156579D01*
X113179593Y-94025322D01*
X113046151Y-93869474D01*
X113000520Y-93820927D01*
X112868602Y-93693956D01*
X112714778Y-93563827D01*
X112553934Y-93441607D01*
X112400960Y-93338366D01*
X112270741Y-93265169D01*
X112228042Y-93246661D01*
X112153998Y-93212638D01*
X112119110Y-93184311D01*
X112121658Y-93174289D01*
X112175873Y-93161704D01*
X112267295Y-93157441D01*
X112371770Y-93160643D01*
X112465141Y-93170451D01*
X112523255Y-93186008D01*
X112527329Y-93188698D01*
X112580240Y-93194890D01*
X112663765Y-93165744D01*
X112665113Y-93165074D01*
X112727344Y-93138036D01*
X112783515Y-93129621D01*
X112856180Y-93139961D01*
G37*
G36*
X107959915Y-94270618D02*
G01*
X107993788Y-94302388D01*
X107986839Y-94320653D01*
X107982428Y-94320960D01*
X107955741Y-94298548D01*
X107946000Y-94284532D01*
X107942282Y-94262940D01*
X107959915Y-94270618D01*
G37*
G36*
X109605535Y-101972513D02*
G01*
X109589759Y-101988289D01*
X109573982Y-101972513D01*
X109589759Y-101956736D01*
X109605535Y-101972513D01*
G37*
D12*
%TO.C,J2*%
X283306250Y16600000D02*
X273906250Y16600000D01*
X273906250Y14700000D02*
X273906250Y16600000D01*
X283306250Y14700000D02*
X283306250Y16600000D01*
X273906250Y10800000D02*
X273906250Y12800000D01*
X283306250Y10800000D02*
X283306250Y12800000D01*
%TD*%
%LPC*%
D13*
%TO.C,S4*%
X261937500Y-89217500D03*
D14*
X238125000Y-73977500D03*
X261937500Y-73977500D03*
D13*
X238125000Y-89217500D03*
%TD*%
%TO.C,S5*%
X76200000Y-91757500D03*
X190500000Y-91757500D03*
D14*
X76200000Y-106997500D03*
X190500000Y-106997500D03*
%TD*%
D13*
%TO.C,S3*%
X0Y-89217500D03*
D14*
X0Y-73977500D03*
D13*
X23812500Y-89217500D03*
D14*
X23812500Y-73977500D03*
%TD*%
%TO.C,S1*%
X269081250Y-16827500D03*
D13*
X269081250Y-32067500D03*
X245268750Y-32067500D03*
D14*
X245268750Y-16827500D03*
%TD*%
D15*
%TO.C,J2*%
X281496250Y10100000D03*
X275716250Y10100000D03*
D16*
X281856250Y8655000D03*
X281056250Y8655000D03*
D17*
X279856250Y8655000D03*
X278856250Y8655000D03*
X278356250Y8655000D03*
X277356250Y8655000D03*
D16*
X276156250Y8655000D03*
X275356250Y8655000D03*
X275356250Y8655000D03*
X276156250Y8655000D03*
D17*
X276856250Y8655000D03*
X277856250Y8655000D03*
X279356250Y8655000D03*
X280356250Y8655000D03*
D16*
X281056250Y8655000D03*
X281856250Y8655000D03*
D18*
X274286250Y9570000D03*
D19*
X282926250Y13750000D03*
D18*
X282926250Y9570000D03*
D19*
X274286250Y13750000D03*
%TD*%
D13*
%TO.C,S2*%
X266700000Y-53657500D03*
X242887500Y-53657500D03*
D14*
X266700000Y-68897500D03*
X242887500Y-68897500D03*
%TD*%
D20*
%TO.C,J1*%
X279110000Y-87620000D03*
D21*
X279110000Y-85080000D03*
X279110000Y-82540000D03*
X279110000Y-80000000D03*
X279110000Y-77460000D03*
%TD*%
D22*
%TO.C,SW67*%
X249713750Y-61912500D03*
X259873750Y-61912500D03*
D13*
X254793750Y-61912500D03*
D23*
X250983750Y-59372500D03*
X257333750Y-56832500D03*
%TD*%
D22*
%TO.C,SW95*%
X295592500Y-100012500D03*
D13*
X290512500Y-100012500D03*
D22*
X285432500Y-100012500D03*
D23*
X286702500Y-97472500D03*
X293052500Y-94932500D03*
%TD*%
D22*
%TO.C,SW86*%
X304482500Y-80962500D03*
D13*
X309562500Y-80962500D03*
D22*
X314642500Y-80962500D03*
D23*
X305752500Y-78422500D03*
X312102500Y-75882500D03*
%TD*%
D22*
%TO.C,SW29*%
X204470000Y-23812500D03*
D13*
X209550000Y-23812500D03*
D22*
X214630000Y-23812500D03*
D23*
X205740000Y-21272500D03*
X212090000Y-18732500D03*
%TD*%
D22*
%TO.C,SW42*%
X99695000Y-42862500D03*
D13*
X104775000Y-42862500D03*
D22*
X109855000Y-42862500D03*
D23*
X100965000Y-40322500D03*
X107315000Y-37782500D03*
%TD*%
D22*
%TO.C,SW3*%
X43180000Y0D03*
X33020000Y0D03*
D13*
X38100000Y0D03*
D23*
X34290000Y2540000D03*
X40640000Y5080000D03*
%TD*%
D13*
%TO.C,SW11*%
X209550000Y0D03*
D22*
X214630000Y0D03*
X204470000Y0D03*
D23*
X205740000Y2540000D03*
X212090000Y5080000D03*
%TD*%
D22*
%TO.C,SW28*%
X185420000Y-23812500D03*
X195580000Y-23812500D03*
D13*
X190500000Y-23812500D03*
D23*
X186690000Y-21272500D03*
X193040000Y-18732500D03*
%TD*%
D22*
%TO.C,SW35*%
X314642500Y-23812500D03*
D13*
X309562500Y-23812500D03*
D22*
X304482500Y-23812500D03*
D23*
X305752500Y-21272500D03*
X312102500Y-18732500D03*
%TD*%
D22*
%TO.C,SW36*%
X323532500Y-23812500D03*
D13*
X328612500Y-23812500D03*
D22*
X333692500Y-23812500D03*
D23*
X324802500Y-21272500D03*
X331152500Y-18732500D03*
%TD*%
D13*
%TO.C,SW12*%
X228600000Y0D03*
D22*
X223520000Y0D03*
X233680000Y0D03*
D23*
X224790000Y2540000D03*
X231140000Y5080000D03*
%TD*%
D22*
%TO.C,SW59*%
X85407500Y-61912500D03*
X95567500Y-61912500D03*
D13*
X90487500Y-61912500D03*
D23*
X86677500Y-59372500D03*
X93027500Y-56832500D03*
%TD*%
D22*
%TO.C,SW72*%
X37782500Y-80962500D03*
D13*
X42862500Y-80962500D03*
D22*
X47942500Y-80962500D03*
D23*
X39052500Y-78422500D03*
X45402500Y-75882500D03*
%TD*%
D13*
%TO.C,SW9*%
X161925000Y0D03*
D22*
X167005000Y0D03*
X156845000Y0D03*
D23*
X158115000Y2540000D03*
X164465000Y5080000D03*
%TD*%
D13*
%TO.C,SW69*%
X309562500Y-61912500D03*
D22*
X314642500Y-61912500D03*
X304482500Y-61912500D03*
D23*
X305752500Y-59372500D03*
X312102500Y-56832500D03*
%TD*%
D13*
%TO.C,SW87*%
X328612500Y-80962500D03*
D22*
X323532500Y-80962500D03*
X333692500Y-80962500D03*
D23*
X324802500Y-78422500D03*
X331152500Y-75882500D03*
%TD*%
D22*
%TO.C,SW48*%
X213995000Y-42862500D03*
X224155000Y-42862500D03*
D13*
X219075000Y-42862500D03*
D23*
X215265000Y-40322500D03*
X221615000Y-37782500D03*
%TD*%
D13*
%TO.C,SW40*%
X66675000Y-42862500D03*
D22*
X71755000Y-42862500D03*
X61595000Y-42862500D03*
D23*
X62865000Y-40322500D03*
X69215000Y-37782500D03*
%TD*%
D22*
%TO.C,SW17*%
X323532500Y0D03*
X333692500Y0D03*
D13*
X328612500Y0D03*
D23*
X324802500Y2540000D03*
X331152500Y5080000D03*
%TD*%
D22*
%TO.C,SW7*%
X128905000Y0D03*
X118745000Y0D03*
D13*
X123825000Y0D03*
D23*
X120015000Y2540000D03*
X126365000Y5080000D03*
%TD*%
D22*
%TO.C,SW26*%
X147320000Y-23812500D03*
X157480000Y-23812500D03*
D13*
X152400000Y-23812500D03*
D23*
X148590000Y-21272500D03*
X154940000Y-18732500D03*
%TD*%
D22*
%TO.C,SW30*%
X233680000Y-23812500D03*
X223520000Y-23812500D03*
D13*
X228600000Y-23812500D03*
D23*
X224790000Y-21272500D03*
X231140000Y-18732500D03*
%TD*%
D13*
%TO.C,SW14*%
X266700000Y0D03*
D22*
X261620000Y0D03*
X271780000Y0D03*
D23*
X262890000Y2540000D03*
X269240000Y5080000D03*
%TD*%
D13*
%TO.C,SW64*%
X185737500Y-61912500D03*
D22*
X190817500Y-61912500D03*
X180657500Y-61912500D03*
D23*
X181927500Y-59372500D03*
X188277500Y-56832500D03*
%TD*%
D22*
%TO.C,SW24*%
X119380000Y-23812500D03*
D13*
X114300000Y-23812500D03*
D22*
X109220000Y-23812500D03*
D23*
X110490000Y-21272500D03*
X116840000Y-18732500D03*
%TD*%
D13*
%TO.C,SW90*%
X52387500Y-100012500D03*
D22*
X57467500Y-100012500D03*
X47307500Y-100012500D03*
D23*
X48577500Y-97472500D03*
X54927500Y-94932500D03*
%TD*%
D22*
%TO.C,SW75*%
X105092500Y-80962500D03*
X94932500Y-80962500D03*
D13*
X100012500Y-80962500D03*
D23*
X96202500Y-78422500D03*
X102552500Y-75882500D03*
%TD*%
D22*
%TO.C,SW52*%
X314642500Y-42862500D03*
X304482500Y-42862500D03*
D13*
X309562500Y-42862500D03*
D23*
X305752500Y-40322500D03*
X312102500Y-37782500D03*
%TD*%
D13*
%TO.C,SW60*%
X109537500Y-61912500D03*
D22*
X114617500Y-61912500D03*
X104457500Y-61912500D03*
D23*
X105727500Y-59372500D03*
X112077500Y-56832500D03*
%TD*%
D13*
%TO.C,SW37*%
X4762500Y-42862500D03*
D22*
X9842500Y-42862500D03*
X-317500Y-42862500D03*
D23*
X952500Y-40322500D03*
X7302500Y-37782500D03*
%TD*%
D22*
%TO.C,SW61*%
X133667500Y-61912500D03*
X123507500Y-61912500D03*
D13*
X128587500Y-61912500D03*
D23*
X124777500Y-59372500D03*
X131127500Y-56832500D03*
%TD*%
D22*
%TO.C,SW34*%
X295592500Y-23812500D03*
D13*
X290512500Y-23812500D03*
D22*
X285432500Y-23812500D03*
D23*
X286702500Y-21272500D03*
X293052500Y-18732500D03*
%TD*%
D13*
%TO.C,SW31*%
X247650000Y-23812500D03*
D22*
X242570000Y-23812500D03*
X252730000Y-23812500D03*
D23*
X251460000Y-26352500D03*
X245110000Y-28892500D03*
%TD*%
D22*
%TO.C,SW43*%
X118745000Y-42862500D03*
X128905000Y-42862500D03*
D13*
X123825000Y-42862500D03*
D23*
X120015000Y-40322500D03*
X126365000Y-37782500D03*
%TD*%
D22*
%TO.C,SW5*%
X81280000Y0D03*
X71120000Y0D03*
D13*
X76200000Y0D03*
D23*
X72390000Y2540000D03*
X78740000Y5080000D03*
%TD*%
D22*
%TO.C,SW70*%
X333692500Y-61912500D03*
D13*
X328612500Y-61912500D03*
D22*
X323532500Y-61912500D03*
D23*
X324802500Y-59372500D03*
X331152500Y-56832500D03*
%TD*%
D22*
%TO.C,SW92*%
X219392500Y-100012500D03*
X209232500Y-100012500D03*
D13*
X214312500Y-100012500D03*
D23*
X210502500Y-97472500D03*
X216852500Y-94932500D03*
%TD*%
D22*
%TO.C,SW73*%
X66992500Y-80962500D03*
X56832500Y-80962500D03*
D13*
X61912500Y-80962500D03*
D23*
X58102500Y-78422500D03*
X64452500Y-75882500D03*
%TD*%
D13*
%TO.C,SW81*%
X214312500Y-80962500D03*
D22*
X219392500Y-80962500D03*
X209232500Y-80962500D03*
D23*
X210502500Y-78422500D03*
X216852500Y-75882500D03*
%TD*%
D22*
%TO.C,SW93*%
X233045000Y-100012500D03*
D13*
X238125000Y-100012500D03*
D22*
X243205000Y-100012500D03*
D23*
X234315000Y-97472500D03*
X240665000Y-94932500D03*
%TD*%
D22*
%TO.C,SW49*%
X233045000Y-42862500D03*
X243205000Y-42862500D03*
D13*
X238125000Y-42862500D03*
D23*
X234315000Y-40322500D03*
X240665000Y-37782500D03*
%TD*%
D13*
%TO.C,SW57*%
X52387500Y-61912500D03*
D22*
X57467500Y-61912500D03*
X47307500Y-61912500D03*
D23*
X48577500Y-59372500D03*
X54927500Y-56832500D03*
%TD*%
D22*
%TO.C,SW74*%
X86042500Y-80962500D03*
D13*
X80962500Y-80962500D03*
D22*
X75882500Y-80962500D03*
D23*
X77152500Y-78422500D03*
X83502500Y-75882500D03*
%TD*%
D22*
%TO.C,SW32*%
X262255000Y-23812500D03*
X252095000Y-23812500D03*
D13*
X257175000Y-23812500D03*
D23*
X253365000Y-21272500D03*
X259715000Y-18732500D03*
%TD*%
D22*
%TO.C,SW79*%
X171132500Y-80962500D03*
D13*
X176212500Y-80962500D03*
D22*
X181292500Y-80962500D03*
D23*
X172402500Y-78422500D03*
X178752500Y-75882500D03*
%TD*%
D22*
%TO.C,SW55*%
X12223750Y-61912500D03*
D13*
X7143750Y-61912500D03*
D22*
X2063750Y-61912500D03*
D23*
X10953750Y-64452500D03*
X4603750Y-66992500D03*
%TD*%
D13*
%TO.C,SW65*%
X204787500Y-61912500D03*
D22*
X209867500Y-61912500D03*
X199707500Y-61912500D03*
D23*
X200977500Y-59372500D03*
X207327500Y-56832500D03*
%TD*%
D22*
%TO.C,SW22*%
X71120000Y-23812500D03*
D13*
X76200000Y-23812500D03*
D22*
X81280000Y-23812500D03*
D23*
X72390000Y-21272500D03*
X78740000Y-18732500D03*
%TD*%
D22*
%TO.C,SW4*%
X62230000Y0D03*
X52070000Y0D03*
D13*
X57150000Y0D03*
D23*
X53340000Y2540000D03*
X59690000Y5080000D03*
%TD*%
D13*
%TO.C,SW83*%
X250031250Y-80962500D03*
D22*
X255111250Y-80962500D03*
X244951250Y-80962500D03*
D23*
X246221250Y-78422500D03*
X252571250Y-75882500D03*
%TD*%
D13*
%TO.C,SW45*%
X161925000Y-42862500D03*
D22*
X156845000Y-42862500D03*
X167005000Y-42862500D03*
D23*
X158115000Y-40322500D03*
X164465000Y-37782500D03*
%TD*%
D22*
%TO.C,SW77*%
X133032500Y-80962500D03*
X143192500Y-80962500D03*
D13*
X138112500Y-80962500D03*
D23*
X134302500Y-78422500D03*
X140652500Y-75882500D03*
%TD*%
D22*
%TO.C,SW16*%
X304482500Y0D03*
X314642500Y0D03*
D13*
X309562500Y0D03*
D23*
X305752500Y2540000D03*
X312102500Y5080000D03*
%TD*%
D22*
%TO.C,SW97*%
X333692500Y-100012500D03*
D13*
X328612500Y-100012500D03*
D22*
X323532500Y-100012500D03*
D23*
X324802500Y-97472500D03*
X331152500Y-94932500D03*
%TD*%
D22*
%TO.C,SW58*%
X76517500Y-61912500D03*
D13*
X71437500Y-61912500D03*
D22*
X66357500Y-61912500D03*
D23*
X67627500Y-59372500D03*
X73977500Y-56832500D03*
%TD*%
D13*
%TO.C,SW78*%
X157162500Y-80962500D03*
D22*
X152082500Y-80962500D03*
X162242500Y-80962500D03*
D23*
X153352500Y-78422500D03*
X159702500Y-75882500D03*
%TD*%
D22*
%TO.C,SW47*%
X205105000Y-42862500D03*
D13*
X200025000Y-42862500D03*
D22*
X194945000Y-42862500D03*
D23*
X196215000Y-40322500D03*
X202565000Y-37782500D03*
%TD*%
D22*
%TO.C,SW25*%
X138430000Y-23812500D03*
X128270000Y-23812500D03*
D13*
X133350000Y-23812500D03*
D23*
X129540000Y-21272500D03*
X135890000Y-18732500D03*
%TD*%
D22*
%TO.C,SW44*%
X137795000Y-42862500D03*
D13*
X142875000Y-42862500D03*
D22*
X147955000Y-42862500D03*
D23*
X139065000Y-40322500D03*
X145415000Y-37782500D03*
%TD*%
D13*
%TO.C,SW13*%
X247650000Y0D03*
D22*
X242570000Y0D03*
X252730000Y0D03*
D23*
X243840000Y2540000D03*
X250190000Y5080000D03*
%TD*%
D22*
%TO.C,SW76*%
X113982500Y-80962500D03*
X124142500Y-80962500D03*
D13*
X119062500Y-80962500D03*
D23*
X115252500Y-78422500D03*
X121602500Y-75882500D03*
%TD*%
D22*
%TO.C,SW82*%
X235426250Y-80962500D03*
D13*
X240506250Y-80962500D03*
D22*
X245586250Y-80962500D03*
D23*
X244316250Y-83502500D03*
X237966250Y-86042500D03*
%TD*%
D22*
%TO.C,SW62*%
X142557500Y-61912500D03*
X152717500Y-61912500D03*
D13*
X147637500Y-61912500D03*
D23*
X143827500Y-59372500D03*
X150177500Y-56832500D03*
%TD*%
D13*
%TO.C,SW51*%
X290512500Y-42862500D03*
D22*
X285432500Y-42862500D03*
X295592500Y-42862500D03*
D23*
X286702500Y-40322500D03*
X293052500Y-37782500D03*
%TD*%
D13*
%TO.C,SW46*%
X180975000Y-42862500D03*
D22*
X175895000Y-42862500D03*
X186055000Y-42862500D03*
D23*
X177165000Y-40322500D03*
X183515000Y-37782500D03*
%TD*%
D13*
%TO.C,SW23*%
X95250000Y-23812500D03*
D22*
X90170000Y-23812500D03*
X100330000Y-23812500D03*
D23*
X91440000Y-21272500D03*
X97790000Y-18732500D03*
%TD*%
D22*
%TO.C,SW54*%
X7461250Y-61912500D03*
X-2698750Y-61912500D03*
D13*
X2381250Y-61912500D03*
D23*
X-1428750Y-59372500D03*
X4921250Y-56832500D03*
%TD*%
D13*
%TO.C,SW38*%
X28575000Y-42862500D03*
D22*
X33655000Y-42862500D03*
X23495000Y-42862500D03*
D23*
X24765000Y-40322500D03*
X31115000Y-37782500D03*
%TD*%
D22*
%TO.C,SW21*%
X52070000Y-23812500D03*
D13*
X57150000Y-23812500D03*
D22*
X62230000Y-23812500D03*
D23*
X53340000Y-21272500D03*
X59690000Y-18732500D03*
%TD*%
D13*
%TO.C,SW15*%
X290512500Y0D03*
D22*
X295592500Y0D03*
X285432500Y0D03*
D23*
X286702500Y2540000D03*
X293052500Y5080000D03*
%TD*%
D13*
%TO.C,SW80*%
X195262500Y-80962500D03*
D22*
X200342500Y-80962500D03*
X190182500Y-80962500D03*
D23*
X191452500Y-78422500D03*
X197802500Y-75882500D03*
%TD*%
D22*
%TO.C,SW8*%
X147955000Y0D03*
D13*
X142875000Y0D03*
D22*
X137795000Y0D03*
D23*
X139065000Y2540000D03*
X145415000Y5080000D03*
%TD*%
D22*
%TO.C,SW19*%
X13970000Y-23812500D03*
X24130000Y-23812500D03*
D13*
X19050000Y-23812500D03*
D23*
X15240000Y-21272500D03*
X21590000Y-18732500D03*
%TD*%
D22*
%TO.C,SW6*%
X100330000Y0D03*
D13*
X95250000Y0D03*
D22*
X90170000Y0D03*
D23*
X91440000Y2540000D03*
X97790000Y5080000D03*
%TD*%
D22*
%TO.C,SW50*%
X256857500Y-42862500D03*
D13*
X261937500Y-42862500D03*
D22*
X267017500Y-42862500D03*
D23*
X258127500Y-40322500D03*
X264477500Y-37782500D03*
%TD*%
D13*
%TO.C,SW2*%
X0Y0D03*
D22*
X-5080000Y0D03*
X5080000Y0D03*
D23*
X-3810000Y2540000D03*
X2540000Y5080000D03*
%TD*%
D13*
%TO.C,SW63*%
X166687500Y-61912500D03*
D22*
X161607500Y-61912500D03*
X171767500Y-61912500D03*
D23*
X162877500Y-59372500D03*
X169227500Y-56832500D03*
%TD*%
D22*
%TO.C,SW10*%
X175895000Y0D03*
X186055000Y0D03*
D13*
X180975000Y0D03*
D23*
X177165000Y2540000D03*
X183515000Y5080000D03*
%TD*%
D22*
%TO.C,SW71*%
X16986250Y-80962500D03*
X6826250Y-80962500D03*
D13*
X11906250Y-80962500D03*
D23*
X8096250Y-78422500D03*
X14446250Y-75882500D03*
%TD*%
D22*
%TO.C,SW33*%
X261620000Y-23812500D03*
D13*
X266700000Y-23812500D03*
D22*
X271780000Y-23812500D03*
D23*
X270510000Y-26352500D03*
X264160000Y-28892500D03*
%TD*%
D20*
%TO.C,SW1*%
X310780000Y-48225000D03*
D21*
X308240000Y-48225000D03*
%TD*%
D13*
%TO.C,SW96*%
X309562500Y-100012500D03*
D22*
X304482500Y-100012500D03*
X314642500Y-100012500D03*
D23*
X305752500Y-97472500D03*
X312102500Y-94932500D03*
%TD*%
D22*
%TO.C,SW66*%
X218757500Y-61912500D03*
X228917500Y-61912500D03*
D13*
X223837500Y-61912500D03*
D23*
X220027500Y-59372500D03*
X226377500Y-56832500D03*
%TD*%
D22*
%TO.C,SW88*%
X-317500Y-100012500D03*
D13*
X4762500Y-100012500D03*
D22*
X9842500Y-100012500D03*
D23*
X952500Y-97472500D03*
X7302500Y-94932500D03*
%TD*%
D22*
%TO.C,SW56*%
X38417500Y-61912500D03*
X28257500Y-61912500D03*
D13*
X33337500Y-61912500D03*
D23*
X29527500Y-59372500D03*
X35877500Y-56832500D03*
%TD*%
D22*
%TO.C,SW84*%
X271780000Y-80962500D03*
D13*
X266700000Y-80962500D03*
D22*
X261620000Y-80962500D03*
D23*
X270510000Y-83502500D03*
X264160000Y-86042500D03*
%TD*%
D22*
%TO.C,SW39*%
X42545000Y-42862500D03*
X52705000Y-42862500D03*
D13*
X47625000Y-42862500D03*
D23*
X43815000Y-40322500D03*
X50165000Y-37782500D03*
%TD*%
D22*
%TO.C,SW89*%
X23495000Y-100012500D03*
X33655000Y-100012500D03*
D13*
X28575000Y-100012500D03*
D23*
X24765000Y-97472500D03*
X31115000Y-94932500D03*
%TD*%
D22*
%TO.C,SW20*%
X33020000Y-23812500D03*
X43180000Y-23812500D03*
D13*
X38100000Y-23812500D03*
D23*
X34290000Y-21272500D03*
X40640000Y-18732500D03*
%TD*%
D22*
%TO.C,SW68*%
X295592500Y-61912500D03*
D13*
X290512500Y-61912500D03*
D22*
X285432500Y-61912500D03*
D23*
X286702500Y-59372500D03*
X293052500Y-56832500D03*
%TD*%
D22*
%TO.C,SW18*%
X-5080000Y-23812500D03*
D13*
X0Y-23812500D03*
D22*
X5080000Y-23812500D03*
D23*
X-3810000Y-21272500D03*
X2540000Y-18732500D03*
%TD*%
D22*
%TO.C,SW94*%
X256857500Y-100012500D03*
D13*
X261937500Y-100012500D03*
D22*
X267017500Y-100012500D03*
D23*
X258127500Y-97472500D03*
X264477500Y-94932500D03*
%TD*%
D22*
%TO.C,SW91*%
X138430000Y-100012500D03*
D13*
X133350000Y-100012500D03*
D22*
X128270000Y-100012500D03*
D23*
X129540000Y-97472500D03*
X135890000Y-94932500D03*
%TD*%
D13*
%TO.C,SW53*%
X328612500Y-42862500D03*
D22*
X323532500Y-42862500D03*
X333692500Y-42862500D03*
D23*
X324802500Y-40322500D03*
X331152500Y-37782500D03*
%TD*%
D13*
%TO.C,SW27*%
X171450000Y-23812500D03*
D22*
X166370000Y-23812500D03*
X176530000Y-23812500D03*
D23*
X167640000Y-21272500D03*
X173990000Y-18732500D03*
%TD*%
D22*
%TO.C,SW41*%
X80645000Y-42862500D03*
D13*
X85725000Y-42862500D03*
D22*
X90805000Y-42862500D03*
D23*
X81915000Y-40322500D03*
X88265000Y-37782500D03*
%TD*%
D13*
%TO.C,SW85*%
X290512500Y-80962500D03*
D22*
X285432500Y-80962500D03*
X295592500Y-80962500D03*
D23*
X286702500Y-78422500D03*
X293052500Y-75882500D03*
%TD*%
M02*
