M48
; DRILL file {KiCad (6.0.1)} date Mon Jun 13 22:26:40 2022
; FORMAT={-:-/ absolute / inch / decimal}
; #@! TF.CreationDate,2022-06-13T22:26:40+10:00
; #@! TF.GenerationSoftware,Kicad,Pcbnew,(6.0.1)
; #@! TF.FileFunction,Plated,1,2,PTH
FMAT,2
INCH
; #@! TA.AperFunction,Plated,PTH,ViaDrill
T1C0.0118
; #@! TA.AperFunction,Plated,PTH,ComponentDrill
T2C0.0138
; #@! TA.AperFunction,Plated,PTH,ViaDrill
T3C0.0157
; #@! TA.AperFunction,Plated,PTH,ViaDrill
T4C0.0197
; #@! TA.AperFunction,Plated,PTH,ComponentDrill
T5C0.0236
; #@! TA.AperFunction,Plated,PTH,ComponentDrill
T6C0.0394
; #@! TA.AperFunction,Plated,PTH,ComponentDrill
T7C0.0600
%
G90
G05
T1
X1.5681Y-3.8371
X1.5941Y-3.1347
X1.5984Y-6.1946
X1.6055Y-6.0706
X1.6335Y-4.0344
X1.6366Y-3.5627
X1.6374Y-3.454
X1.6374Y-5.5304
X1.6378Y-4.5237
X1.6386Y-3.191
X1.6386Y-3.8288
X1.6386Y-6.0135
X1.7043Y-4.58
X1.7051Y-3.1032
X1.7106Y-6.0769
X1.7673Y-3.0312
X1.9473Y-6.1784
X2.037Y-6.1784
X2.0587Y-2.667
X2.1004Y-5.6898
X2.1555Y-2.3414
X2.1563Y-2.6119
X2.2221Y-6.6666
X2.228Y-2.6454
X2.241Y-2.7367
X2.252Y-2.8883
X2.2831Y-2.2828
X2.3217Y-3.9434
X2.3307Y-2.5643
X2.4512Y-2.8206
X2.4614Y-2.2773
X2.4795Y-2.5851
X2.524Y-2.4529
X2.5252Y-2.6162
X2.5492Y-2.4883
X2.5559Y-2.7316
X2.5917Y-4.2466
X2.626Y-6.0737
X2.628Y-3.1021
X2.6406Y-6.2674
X2.6512Y-2.4221
X2.6764Y-2.6918
X2.6953Y-2.5174
X2.698Y-2.6532
X2.6988Y-2.7355
X2.7024Y-5.2257
X2.7043Y-6.2674
X2.7193Y-4.521
X2.7543Y-2.5501
X2.7728Y-2.3643
X2.7764Y-2.9131
X2.8047Y-2.8977
X2.8335Y-3.8599
X2.8933Y-2.3694
X2.9099Y-2.6391
X2.9134Y-2.5985
X2.9473Y-2.7497
X2.9823Y-2.617
X2.9851Y-2.3044
X2.991Y-2.4162
X3.0394Y-5.3879
X3.0721Y-2.8855
X3.0823Y-4.5127
X3.1839Y-2.6718
X3.2028Y-2.7225
X3.2028Y-3.1068
X3.2536Y-5.995
X3.2662Y-3.1068
X3.2669Y-2.7221
X3.3567Y-4.2521
X3.4386Y-6.6977
X3.4512Y-4.5406
X3.4634Y-6.4359
X3.6083Y-6.1525
X3.6536Y-3.1029
X3.6579Y-6.0725
X3.7642Y-4.521
X3.9528Y-2.7218
X3.9957Y-5.9891
X4.002Y-5.3777
X4.0169Y-2.7218
X4.1106Y-4.2607
X4.2272Y-4.5489
X4.2677Y-6.156
X4.3209Y-6.5367
X4.365Y-6.1572
X4.3654Y-3.5749
X4.3705Y-3.6347
X4.3847Y-2.9158
X4.4331Y-3.5749
X4.4398Y-3.6347
X4.4536Y-3.1068
X4.4543Y-3.1745
X4.4882Y-2.5918
X4.5406Y-4.5351
X4.5437Y-5.8844
X4.589Y-5.8249
X4.6311Y-5.8844
X4.6642Y-5.8249
X4.6815Y-3.1021
X4.7004Y-5.9702
X4.7028Y-2.7221
X4.7646Y-6.3564
X4.765Y-6.2765
X4.7665Y-2.7221
X4.8039Y-4.2662
X4.8433Y-4.5812
X4.9083Y-4.3249
X4.9122Y-5.1347
X4.915Y-4.493
X4.915Y-5.0745
X4.9772Y-4.3249
X4.9807Y-5.1347
X4.9827Y-4.4895
X4.9827Y-5.0745
X5.041Y-4.8249
X5.3004Y-4.5438
X5.4528Y-3.1068
X5.4532Y-2.7221
X5.487Y-6.1529
X5.5165Y-2.7221
X5.5169Y-3.1068
X5.5358Y-6.0737
X5.5996Y-4.2552
X5.6827Y-4.5847
X5.6862Y-6.7564
X5.7071Y-3.1029
X5.9414Y-6.421
X5.9902Y-4.5737
X6.1307Y-2.5658
X6.1996Y-3.1064
X6.2685Y-3.1068
X6.291Y-6.0013
X6.2973Y-5.3714
X6.3618Y-4.258
X6.4477Y-4.5906
X6.5303Y-2.7221
X6.5414Y-6.1544
X6.5906Y-5.9891
X6.591Y-6.0741
X6.6043Y-2.7225
X6.611Y-6.2249
X6.7055Y-6.2249
X6.7335Y-3.1021
X6.761Y-4.5847
X6.9492Y-3.1068
X6.9878Y-6.5548
X7.0185Y-3.1068
X7.0827Y-4.2521
X7.2201Y-4.804
X7.2299Y-4.5867
X7.2807Y-2.7221
X7.3551Y-2.7218
X7.3587Y-3.5749
X7.3642Y-3.6347
X7.4106Y-3.9985
X7.4264Y-3.5749
X7.4335Y-3.6344
X7.4512Y-3.1068
X7.4512Y-3.1741
X7.4732Y-6.1548
X7.491Y-2.9158
X7.5102Y-6.643
X7.5378Y-4.5812
X7.5725Y-6.1568
X7.6394Y-5.8245
X7.6394Y-5.8847
X7.6488Y-6.0749
X7.6988Y-3.1072
X7.7075Y-5.8245
X7.7075Y-5.8847
X7.765Y-3.1068
X7.8055Y-4.6592
X7.8288Y-4.2623
X7.8673Y-2.5891
X7.9071Y-5.1347
X7.9087Y-4.3249
X7.9177Y-4.5525
X7.9177Y-5.0749
X7.9744Y-3.771
X7.9772Y-5.1347
X7.9788Y-4.3245
X7.9854Y-4.5529
X7.9854Y-5.0749
X8.0319Y-2.7218
X8.0673Y-4.8501
X8.1071Y-2.7218
X8.2701Y-6.5017
X8.2917Y-4.5977
X8.4488Y-3.1072
X8.4803Y-5.4025
X8.5181Y-3.1072
X8.6079Y-4.2651
X8.763Y-4.6147
X8.7807Y-2.7218
X8.7894Y-3.1032
X8.8555Y-2.7218
X8.9823Y-6.6871
X9.0209Y-4.6092
X9.2043Y-3.1068
X9.2492Y-6.0359
X9.2732Y-3.1072
X9.3583Y-6.0359
X9.3835Y-4.2324
X9.4449Y-4.8084
X9.5417Y-2.5611
X9.7158Y-6.1552
X9.7591Y-6.0753
X9.7693Y-4.6257
X9.8146Y-3.1032
X9.9386Y-2.7218
X10.0099Y-2.7229
X10.061Y-3.1052
X10.1185Y-4.2678
X10.1406Y-6.1568
X10.2039Y-6.1572
X10.2654Y-4.6477
X10.402Y-3.5749
X10.4032Y-3.6344
X10.4697Y-3.5749
X10.4709Y-3.6344
X10.4906Y-3.1072
X10.4917Y-3.1745
X10.5039Y-4.6477
X10.6425Y-6.1564
X10.6536Y-5.8844
X10.6748Y-5.8249
X10.7039Y-2.7214
X10.7071Y-5.4151
X10.7102Y-6.1564
X10.7236Y-5.8847
X10.7512Y-5.8249
X10.7685Y-3.0969
X10.7689Y-2.7221
X10.7713Y-6.156
X10.8154Y-6.0753
X10.8185Y-4.2651
X10.8331Y-4.7009
X10.8421Y-6.5107
X10.8484Y-3.1111
X10.9106Y-4.3249
X10.9169Y-4.6158
X10.9169Y-5.0745
X10.9169Y-5.1347
X10.9634Y-3.7651
X10.9799Y-4.3249
X10.9847Y-4.6155
X10.9847Y-5.1347
X10.9851Y-5.0745
X11.0665Y-4.8292
X11.163Y-6.1568
X11.1851Y-5.2426
X11.2327Y-2.5946
X11.2386Y-4.6769
X11.3071Y-6.1564
X11.391Y-6.6977
X11.3921Y-6.1568
X11.4555Y-2.7218
X11.4791Y-5.6954
X11.5197Y-2.7221
X11.6693Y-4.2619
X11.6827Y-5.6233
X11.7193Y-4.7505
X11.7583Y-3.4354
X11.7831Y-5.0666
X11.7984Y-3.1745
X11.8264Y-6.1552
X11.8358Y-4.8615
X11.8646Y-3.1029
X11.8669Y-3.5635
X11.8693Y-6.0757
X11.889Y-3.1745
X11.9193Y-4.7753
X11.9358Y-5.4088
X11.9725Y-4.4032
X11.9854Y-2.5784
X11.991Y-6.2245
X12.0075Y-4.5946
X12.05Y-5.0702
X12.0543Y-6.2245
X12.0606Y-4.8363
X12.0933Y-5.2753
X12.1095Y-4.4032
X12.1433Y-3.9351
X12.1555Y-5.1481
X12.1823Y-2.7218
X12.2158Y-5.0426
X12.2185Y-4.4769
X12.2327Y-2.9765
X12.2457Y-6.1564
X12.2504Y-2.721
X12.2677Y-4.743
X12.3217Y-5.5269
X12.3351Y-4.3548
X12.3398Y-5.4745
X12.3425Y-4.532
X12.3536Y-4.1808
X12.3551Y-5.4406
X12.3921Y-4.3182
X12.4272Y-3.0344
X12.4547Y-3.0903
X12.4575Y-2.8796
X12.4602Y-5.0458
X12.4717Y-4.9127
X12.4843Y-2.7088
X12.4849Y-3.6647
X12.491Y-3.0918
X12.5244Y-3.0918
X12.5414Y-2.667
X12.5512Y-4.3277
X12.5512Y-4.3832
X12.5591Y-5.5698
X12.5721Y-2.4966
X12.5728Y-3.6044
X12.5799Y-5.8647
X12.5878Y-5.4281
X12.5969Y-5.184
X12.6016Y-2.6981
X12.6016Y-6.08
X12.6264Y-4.3273
X12.6264Y-4.3828
X12.6524Y-6.1403
X12.6555Y-3.5741
X12.6555Y-3.6344
X12.6555Y-3.0399
X12.6559Y-3.1355
X12.6748Y-5.5556
X12.6831Y-5.1946
X12.6842Y-4.3273
X12.6842Y-4.3828
X12.6888Y-2.9015
X12.6902Y-2.9477
X12.6917Y-5.8603
X12.7019Y-4.9383
X12.7087Y-2.6938
X12.7125Y-4.7777
X12.7146Y-6.0757
X12.7201Y-2.5336
X12.7479Y-5.0861
X12.7512Y-5.121
X12.7528Y-5.1966
X12.7595Y-2.2729
X12.7657Y-5.346
X12.7658Y-5.434
X12.7685Y-5.5757
X12.7717Y-4.6115
X12.7795Y-3.5745
X12.7795Y-3.6344
X12.7795Y-4.3273
X12.7795Y-4.3828
X12.7795Y-2.6143
X12.7795Y-2.6741
X12.7799Y-3.0399
X12.7799Y-3.1355
X12.7815Y-2.3521
X12.7815Y-2.5111
X12.7921Y-5.1177
X12.8032Y-4.3552
X12.8091Y-2.3363
X12.8091Y-2.3678
X12.8227Y-4.5932
X12.8256Y-6.4481
X12.8534Y-4.5848
X12.8579Y-2.3529
X12.8732Y-2.5103
X12.8744Y-3.634
X12.8744Y-3.0399
X12.8744Y-3.1355
X12.8748Y-3.5745
X12.8748Y-2.6141
X12.8748Y-2.6741
X12.8933Y-2.2788
X12.8953Y-6.0765
X12.9032Y-4.5836
X12.9067Y-4.2824
X12.9102Y-3.6044
X12.9225Y-3.0615
X12.9358Y-5.3346
X12.9484Y-2.667
X12.9516Y-5.4792
X12.9587Y-5.7281
X12.9736Y-5.244
X13.0008Y-2.8568
X13.0154Y-4.9665
X13.0365Y-4.7218
X13.0457Y-6.0812
X13.0508Y-4.5836
X13.0697Y-5.8261
X13.0709Y-3.0202
X13.0788Y-5.4481
X13.1059Y-4.0331
X13.1083Y-4.7662
X13.1102Y-5.2564
X13.1362Y-4.7895
X13.1398Y-3.106
X13.1599Y-5.2867
X13.1634Y-4.7564
X13.1732Y-5.3194
X13.2055Y-4.8005
X13.2083Y-3.1064
X13.2284Y-5.2013
X13.2465Y-4.6296
X13.2642Y-5.2131
X13.2764Y-4.8375
X13.2799Y-5.4403
X13.3339Y-4.7733
X13.3433Y-4.63
X13.363Y-5.2757
X13.3803Y-3.9162
X13.4851Y-4.906
X13.4921Y-5.4863
X13.5055Y-2.8804
X13.5819Y-3.1064
X13.5823Y-3.1749
X13.6036Y-4.8166
X13.6063Y-4.6836
X13.6067Y-3.5749
X13.6067Y-3.6347
X13.6067Y-4.3249
X13.6067Y-5.3064
X13.6067Y-5.4418
X13.6067Y-6.084
X13.6071Y-4.491
X13.6071Y-6.1568
X13.6406Y-4.7513
X13.6563Y-2.4879
X13.6677Y-6.4422
X13.6709Y-3.1745
X13.674Y-3.5749
X13.674Y-3.6344
X13.674Y-6.084
X13.6744Y-4.3249
X13.6744Y-4.491
X13.6744Y-4.6836
X13.6744Y-5.3064
X13.6744Y-5.4418
X13.6744Y-6.1568
X13.6748Y-4.756
X13.6819Y-4.8466
X13.7878Y-3.9107
X13.7878Y-5.2127
X13.8788Y-6.1552
X13.8882Y-3.1032
X13.8898Y-3.1753
X13.8906Y-6.2245
X13.9575Y-3.1749
X13.9583Y-6.2245
X14.0232Y-6.6914
X14.0236Y-5.6052
X14.198Y-2.8804
X14.2669Y-4.5824
X14.3114Y-5.2221
X14.3669Y-5.9859
X14.3851Y-2.4879
X14.4063Y-3.3674
X14.4169Y-3.9151
X14.4414Y-6.4481
X14.7473Y-4.8194
X14.7717Y-5.5182
X14.8028Y-5.2158
X14.8351Y-6.1572
X14.9087Y-6.1647
X14.9425Y-4.5379
X14.9441Y-3.1025
X14.9484Y-6.1946
X14.9504Y-5.3202
X14.9559Y-3.7875
X15.0059Y-5.1284
X15.0142Y-5.608
X15.0165Y-4.9509
X15.0169Y-4.2017
X15.0173Y-4.3151
X15.0185Y-5.8131
X15.0193Y-3.2092
X15.0193Y-3.5958
X15.0193Y-3.6741
X15.0197Y-5.5001
X15.0197Y-5.7036
X15.0201Y-5.2497
X15.0201Y-5.8765
X15.0213Y-4.5391
X15.0221Y-4.5824
X15.0221Y-4.6922
X15.0299Y-3.7958
X15.0366Y-5.3048
X15.037Y-3.9422
X15.0374Y-3.832
X15.039Y-6.2682
X15.0394Y-6.4631
X15.0429Y-3.0182
X15.0457Y-6.1119
X15.0484Y-2.982
X15.0488Y-3.1044
X15.052Y-5.3324
X15.052Y-5.4399
X15.0555Y-2.6395
X15.0862Y-6.5729
X15.087Y-5.3836
T2
X12.7293Y-4.8147
X12.7293Y-4.8649
X12.7293Y-4.9151
X12.7795Y-4.8147
X12.7795Y-4.8649
X12.7795Y-4.9151
X12.8297Y-4.8147
X12.8297Y-4.8649
X12.8297Y-4.9151
T3
X1.6028Y-3.1741
X1.6268Y-2.3615
X1.6398Y-3.9836
X1.6402Y-4.7336
X1.641Y-5.4836
X1.678Y-6.1946
X1.687Y-3.9832
X1.7126Y-4.6977
X1.7134Y-5.4477
X1.7717Y-3.1001
X1.7965Y-6.1725
X2.6213Y-6.1981
X2.7406Y-6.1879
X2.7591Y-3.0997
X2.7602Y-3.0221
X2.948Y-2.5745
X3.7811Y-3.0997
X3.7851Y-3.0218
X3.8516Y-6.1481
X4.2847Y-6.191
X4.4752Y-3.1406
X4.4791Y-6.1977
X4.8087Y-3.0997
X4.8169Y-3.0221
X5.7299Y-6.1493
X5.8288Y-3.0981
X5.8441Y-3.0221
X6.7866Y-6.1489
X6.8602Y-3.0989
X6.8725Y-3.0221
X7.4725Y-3.1406
X7.4906Y-6.1906
X7.8402Y-6.1485
X7.8835Y-3.0997
X7.8945Y-3.0218
X8.6851Y-6.1032
X8.9099Y-3.0981
X8.9193Y-6.1548
X8.9209Y-3.0202
X9.9339Y-3.0989
X9.9504Y-3.0237
X9.9524Y-6.1481
X10.5122Y-3.1406
X10.6764Y-6.1906
X10.9677Y-3.0989
X10.9705Y-2.9946
X11.0079Y-6.1481
X11.9795Y-2.9784
X11.9858Y-3.1001
X12.0618Y-6.1521
X12.5039Y-4.7508
X12.5046Y-4.714
X12.5295Y-3.0359
X12.552Y-3.1155
X12.5839Y-3.145
X12.6314Y-4.5837
X12.6673Y-2.421
X12.6977Y-2.3001
X12.7335Y-2.3753
X12.8278Y-4.475
X12.8692Y-4.475
X12.9154Y-3.1131
X12.928Y-2.3887
X13.0638Y-3.0997
X13.0756Y-4.4241
X13.0898Y-6.1485
X13.561Y-3.1406
X13.6398Y-6.1906
X14.0382Y-3.0985
X14.1162Y-6.1485
X15.0173Y-6.2336
X15.0477Y-3.1808
T4
X12.6575Y-2.2599
X12.9992Y-2.2607
X13.0359Y-4.4899
T6
X12.8291Y-5.5778
X12.8291Y-5.6778
X12.8291Y-5.7778
X12.8291Y-5.8778
X12.8291Y-5.9778
X13.9953Y-4.4696
X14.0953Y-4.4696
T7
X1.7099Y-2.471
X1.7099Y-3.4085
X1.8036Y-4.9085
X1.8036Y-5.6585
X1.8036Y-6.4085
X1.8974Y-4.1585
X1.8974Y-6.4085
X1.9599Y-2.371
X1.9599Y-3.3085
X1.9911Y-4.9085
X2.0536Y-4.8085
X2.0536Y-5.5585
X2.0536Y-6.3085
X2.1474Y-4.0585
X2.1474Y-6.3085
X2.1786Y-5.6585
X2.2411Y-4.8085
X2.4286Y-5.5585
X2.4599Y-3.4085
X2.6474Y-5.6585
X2.7099Y-3.3085
X2.7411Y-6.4085
X2.8349Y-4.1585
X2.8349Y-6.4085
X2.8974Y-5.5585
X2.9911Y-6.3085
X3.0224Y-4.9085
X3.0849Y-4.0585
X3.0849Y-6.3085
X3.2099Y-2.471
X3.2099Y-3.4085
X3.2724Y-4.8085
X3.3974Y-5.6585
X3.4599Y-2.371
X3.4599Y-3.3085
X3.5849Y-4.1585
X3.6474Y-5.5585
X3.6786Y-6.4085
X3.7724Y-4.9085
X3.7724Y-6.4085
X3.8349Y-4.0585
X3.9286Y-6.3085
X3.9599Y-2.471
X3.9599Y-3.4085
X4.0224Y-4.8085
X4.0224Y-6.3085
X4.1474Y-5.6585
X4.2099Y-2.371
X4.2099Y-3.3085
X4.3349Y-4.1585
X4.3974Y-5.5585
X4.5224Y-4.9085
X4.5849Y-4.0585
X4.7099Y-2.471
X4.7099Y-3.4085
X4.7724Y-4.8085
X4.8974Y-5.6585
X4.9599Y-2.371
X4.9599Y-3.3085
X5.0849Y-4.1585
X5.1474Y-5.5585
X5.2724Y-4.9085
X5.3349Y-4.0585
X5.4599Y-2.471
X5.4599Y-3.4085
X5.5224Y-4.8085
X5.6474Y-5.6585
X5.7099Y-2.371
X5.7099Y-3.3085
X5.8349Y-4.1585
X5.8974Y-5.5585
X6.0224Y-4.9085
X6.0849Y-4.0585
X6.2099Y-3.4085
X6.2724Y-4.8085
X6.3974Y-5.6585
X6.4599Y-3.3085
X6.4911Y-6.4085
X6.5849Y-2.471
X6.5849Y-4.1585
X6.6474Y-5.5585
X6.7411Y-6.3085
X6.7724Y-4.9085
X6.8349Y-2.371
X6.8349Y-4.0585
X6.9599Y-3.4085
X6.9599Y-6.4085
X7.0224Y-4.8085
X7.1474Y-5.6585
X7.2099Y-3.3085
X7.2099Y-6.3085
X7.3349Y-2.471
X7.3349Y-4.1585
X7.3974Y-5.5585
X7.5224Y-4.9085
X7.5849Y-2.371
X7.5849Y-4.0585
X7.7099Y-3.4085
X7.7724Y-4.8085
X7.8974Y-5.6585
X7.9599Y-3.3085
X8.0849Y-2.471
X8.0849Y-4.1585
X8.1474Y-5.5585
X8.2724Y-4.9085
X8.3349Y-2.371
X8.3349Y-4.0585
X8.4599Y-3.4085
X8.5224Y-4.8085
X8.6474Y-5.6585
X8.7099Y-3.3085
X8.8349Y-2.471
X8.8349Y-4.1585
X8.8974Y-5.5585
X9.0224Y-4.9085
X9.0849Y-2.371
X9.0849Y-4.0585
X9.2099Y-3.4085
X9.2724Y-4.8085
X9.3036Y-6.4085
X9.3974Y-5.6585
X9.4599Y-3.3085
X9.5536Y-6.3085
X9.5849Y-4.1585
X9.6474Y-5.5585
X9.7724Y-4.9085
X9.8349Y-4.0585
X9.9599Y-2.471
X9.9599Y-3.4085
X10.0224Y-4.8085
X10.1474Y-5.6585
X10.1474Y-6.4085
X10.2099Y-2.371
X10.2099Y-3.3085
X10.2411Y-6.4085
X10.3349Y-4.1585
X10.3974Y-5.5585
X10.3974Y-6.3085
X10.4911Y-6.3085
X10.5224Y-4.9085
X10.5849Y-4.0585
X10.7099Y-2.471
X10.7099Y-3.4085
X10.7724Y-4.8085
X10.9599Y-2.371
X10.9599Y-3.3085
X11.0849Y-4.1585
X11.0849Y-6.4085
X11.1786Y-5.6585
X11.1786Y-6.4085
X11.2724Y-4.9085
X11.3349Y-4.0585
X11.3349Y-6.3085
X11.4286Y-5.5585
X11.4286Y-6.3085
X11.4599Y-2.471
X11.4599Y-3.4085
X11.5224Y-4.8085
X11.5536Y-5.6585
X11.7099Y-2.371
X11.7099Y-3.3085
X11.7411Y-4.9085
X11.8036Y-5.5585
X11.8349Y-3.4085
X11.9911Y-4.8085
X12.0224Y-4.1585
X12.0224Y-6.4085
X12.0849Y-3.3085
X12.1161Y-4.5335
X12.1161Y-6.4085
X12.2099Y-2.471
X12.2099Y-3.4085
X12.2099Y-5.6585
X12.2724Y-4.0585
X12.2724Y-6.3085
X12.3661Y-4.4335
X12.3661Y-6.3085
X12.4599Y-2.371
X12.4599Y-3.3085
X12.4599Y-5.5585
X13.1474Y-2.471
X13.1474Y-3.4085
X13.1474Y-4.1585
X13.1474Y-4.9085
X13.1474Y-5.6585
X13.1474Y-6.4085
X13.3974Y-2.371
X13.3974Y-3.3085
X13.3974Y-4.0585
X13.3974Y-4.8085
X13.3974Y-5.5585
X13.3974Y-6.3085
X13.8974Y-2.471
X13.8974Y-3.4085
X13.8974Y-4.1585
X13.8974Y-4.9085
X13.8974Y-5.6585
X13.8974Y-6.4085
X14.1474Y-2.371
X14.1474Y-3.3085
X14.1474Y-4.0585
X14.1474Y-4.8085
X14.1474Y-5.5585
X14.1474Y-6.3085
X14.6474Y-2.471
X14.6474Y-3.4085
X14.6474Y-4.1585
X14.6474Y-4.9085
X14.6474Y-5.6585
X14.6474Y-6.4085
X14.8974Y-2.371
X14.8974Y-3.3085
X14.8974Y-4.0585
X14.8974Y-4.8085
X14.8974Y-5.5585
X14.8974Y-6.3085
T5
G00X12.6585Y-2.0414
M15
G01X12.6585Y-2.0178
M16
G05
G00X12.6585Y-2.2158
M15
G01X12.6585Y-2.1725
M16
G05
G00X12.9987Y-2.0414
M15
G01X12.9987Y-2.0178
M16
G05
G00X12.9987Y-2.2158
M15
G01X12.9987Y-2.1725
M16
G05
T0
M30
