M48
; DRILL file {KiCad (6.0.1)} date Mon Jun 13 22:26:40 2022
; FORMAT={-:-/ absolute / inch / decimal}
; #@! TF.CreationDate,2022-06-13T22:26:40+10:00
; #@! TF.GenerationSoftware,Kicad,Pcbnew,(6.0.1)
; #@! TF.FileFunction,NonPlated,1,2,NPTH
FMAT,2
INCH
; #@! TA.AperFunction,NonPlated,NPTH,ComponentDrill
T1C0.0256
; #@! TA.AperFunction,NonPlated,NPTH,ComponentDrill
T2C0.0689
; #@! TA.AperFunction,NonPlated,NPTH,ComponentDrill
T3C0.1200
; #@! TA.AperFunction,NonPlated,NPTH,ComponentDrill
T4C0.1570
%
G90
G05
T1
X12.7148Y-2.1733
X12.9424Y-2.1733
T2
X1.6599Y-2.571
X1.6599Y-3.5085
X1.7536Y-5.0085
X1.7536Y-5.7585
X1.7536Y-6.5085
X1.8474Y-4.2585
X1.8474Y-6.5085
X1.9411Y-5.0085
X2.0599Y-2.571
X2.0599Y-3.5085
X2.1286Y-5.7585
X2.1536Y-5.0085
X2.1536Y-5.7585
X2.1536Y-6.5085
X2.2474Y-4.2585
X2.2474Y-6.5085
X2.3411Y-5.0085
X2.4099Y-3.5085
X2.5286Y-5.7585
X2.5974Y-5.7585
X2.6911Y-6.5085
X2.7849Y-4.2585
X2.7849Y-6.5085
X2.8099Y-3.5085
X2.9724Y-5.0085
X2.9974Y-5.7585
X3.0911Y-6.5085
X3.1599Y-2.571
X3.1599Y-3.5085
X3.1849Y-4.2585
X3.1849Y-6.5085
X3.3474Y-5.7585
X3.3724Y-5.0085
X3.5349Y-4.2585
X3.5599Y-2.571
X3.5599Y-3.5085
X3.6286Y-6.5085
X3.7224Y-5.0085
X3.7224Y-6.5085
X3.7474Y-5.7585
X3.9099Y-2.571
X3.9099Y-3.5085
X3.9349Y-4.2585
X4.0286Y-6.5085
X4.0974Y-5.7585
X4.1224Y-5.0085
X4.1224Y-6.5085
X4.2849Y-4.2585
X4.3099Y-2.571
X4.3099Y-3.5085
X4.4724Y-5.0085
X4.4974Y-5.7585
X4.6599Y-2.571
X4.6599Y-3.5085
X4.6849Y-4.2585
X4.8474Y-5.7585
X4.8724Y-5.0085
X5.0349Y-4.2585
X5.0599Y-2.571
X5.0599Y-3.5085
X5.2224Y-5.0085
X5.2474Y-5.7585
X5.4099Y-2.571
X5.4099Y-3.5085
X5.4349Y-4.2585
X5.5974Y-5.7585
X5.6224Y-5.0085
X5.7849Y-4.2585
X5.8099Y-2.571
X5.8099Y-3.5085
X5.9724Y-5.0085
X5.9974Y-5.7585
X6.1599Y-3.5085
X6.1849Y-4.2585
X6.3474Y-5.7585
X6.3724Y-5.0085
X6.4411Y-6.5085
X6.5349Y-2.571
X6.5349Y-4.2585
X6.5599Y-3.5085
X6.7224Y-5.0085
X6.7474Y-5.7585
X6.8411Y-6.5085
X6.9099Y-3.5085
X6.9099Y-6.5085
X6.9349Y-2.571
X6.9349Y-4.2585
X7.0974Y-5.7585
X7.1224Y-5.0085
X7.2849Y-2.571
X7.2849Y-4.2585
X7.3099Y-3.5085
X7.3099Y-6.5085
X7.4724Y-5.0085
X7.4974Y-5.7585
X7.6599Y-3.5085
X7.6849Y-2.571
X7.6849Y-4.2585
X7.8474Y-5.7585
X7.8724Y-5.0085
X8.0349Y-2.571
X8.0349Y-4.2585
X8.0599Y-3.5085
X8.2224Y-5.0085
X8.2474Y-5.7585
X8.4099Y-3.5085
X8.4349Y-2.571
X8.4349Y-4.2585
X8.5974Y-5.7585
X8.6224Y-5.0085
X8.7849Y-2.571
X8.7849Y-4.2585
X8.8099Y-3.5085
X8.9724Y-5.0085
X8.9974Y-5.7585
X9.1599Y-3.5085
X9.1849Y-2.571
X9.1849Y-4.2585
X9.2536Y-6.5085
X9.3474Y-5.7585
X9.3724Y-5.0085
X9.5349Y-4.2585
X9.5599Y-3.5085
X9.6536Y-6.5085
X9.7224Y-5.0085
X9.7474Y-5.7585
X9.9099Y-2.571
X9.9099Y-3.5085
X9.9349Y-4.2585
X10.0974Y-5.7585
X10.0974Y-6.5085
X10.1224Y-5.0085
X10.1911Y-6.5085
X10.2849Y-4.2585
X10.3099Y-2.571
X10.3099Y-3.5085
X10.4724Y-5.0085
X10.4974Y-5.7585
X10.4974Y-6.5085
X10.5911Y-6.5085
X10.6599Y-2.571
X10.6599Y-3.5085
X10.6849Y-4.2585
X10.8724Y-5.0085
X11.0349Y-4.2585
X11.0349Y-6.5085
X11.0599Y-2.571
X11.0599Y-3.5085
X11.1286Y-5.7585
X11.1286Y-6.5085
X11.2224Y-5.0085
X11.4099Y-2.571
X11.4099Y-3.5085
X11.4349Y-4.2585
X11.4349Y-6.5085
X11.5036Y-5.7585
X11.5286Y-5.7585
X11.5286Y-6.5085
X11.6224Y-5.0085
X11.6911Y-5.0085
X11.7849Y-3.5085
X11.8099Y-2.571
X11.8099Y-3.5085
X11.9036Y-5.7585
X11.9724Y-4.2585
X11.9724Y-6.5085
X12.0661Y-4.6335
X12.0661Y-6.5085
X12.0911Y-5.0085
X12.1599Y-2.571
X12.1599Y-3.5085
X12.1599Y-5.7585
X12.1849Y-3.5085
X12.3724Y-4.2585
X12.3724Y-6.5085
X12.4661Y-4.6335
X12.4661Y-6.5085
X12.5599Y-2.571
X12.5599Y-3.5085
X12.5599Y-5.7585
X13.0974Y-2.571
X13.0974Y-3.5085
X13.0974Y-4.2585
X13.0974Y-5.0085
X13.0974Y-5.7585
X13.0974Y-6.5085
X13.4974Y-2.571
X13.4974Y-3.5085
X13.4974Y-4.2585
X13.4974Y-5.0085
X13.4974Y-5.7585
X13.4974Y-6.5085
X13.8474Y-2.571
X13.8474Y-3.5085
X13.8474Y-4.2585
X13.8474Y-5.0085
X13.8474Y-5.7585
X13.8474Y-6.5085
X14.2474Y-2.571
X14.2474Y-3.5085
X14.2474Y-4.2585
X14.2474Y-5.0085
X14.2474Y-5.7585
X14.2474Y-6.5085
X14.5974Y-2.571
X14.5974Y-3.5085
X14.5974Y-4.2585
X14.5974Y-5.0085
X14.5974Y-5.7585
X14.5974Y-6.5085
X14.9974Y-2.571
X14.9974Y-3.5085
X14.9974Y-4.2585
X14.9974Y-5.0085
X14.9974Y-5.7585
X14.9974Y-6.5085
T3
X1.8599Y-5.4835
X2.7974Y-5.4835
X4.6713Y-6.7835
X4.8599Y-6.7835
X8.6088Y-6.7835
X9.3599Y-6.7835
X11.2349Y-5.4835
X11.4224Y-5.2835
X11.5161Y-3.2335
X12.1724Y-5.4835
X12.3599Y-5.2835
X12.4536Y-3.2335
X12.5411Y-4.1647
X12.5411Y-5.1022
T4
X1.8599Y-2.571
X1.8599Y-3.5085
X1.8599Y-6.0835
X1.9536Y-5.0085
X1.9536Y-5.7585
X1.9536Y-6.5085
X2.0474Y-4.2585
X2.0474Y-6.5085
X2.1411Y-5.0085
X2.3286Y-5.7585
X2.6099Y-3.5085
X2.7974Y-5.7585
X2.7974Y-6.0835
X2.8911Y-6.5085
X2.9849Y-4.2585
X2.9849Y-6.5085
X3.1724Y-5.0085
X3.3599Y-2.571
X3.3599Y-3.5085
X3.5474Y-5.7585
X3.7349Y-4.2585
X3.8286Y-6.5085
X3.9224Y-5.0085
X3.9224Y-6.5085
X4.1099Y-2.571
X4.1099Y-3.5085
X4.2974Y-5.7585
X4.4849Y-4.2585
X4.6713Y-6.1835
X4.6724Y-5.0085
X4.8599Y-2.571
X4.8599Y-3.5085
X4.8599Y-6.1835
X5.0474Y-5.7585
X5.2349Y-4.2585
X5.4224Y-5.0085
X5.6099Y-2.571
X5.6099Y-3.5085
X5.7974Y-5.7585
X5.9849Y-4.2585
X6.1724Y-5.0085
X6.3599Y-3.5085
X6.5474Y-5.7585
X6.6411Y-6.5085
X6.7349Y-2.571
X6.7349Y-4.2585
X6.9224Y-5.0085
X7.1099Y-3.5085
X7.1099Y-6.5085
X7.2974Y-5.7585
X7.4849Y-2.571
X7.4849Y-4.2585
X7.6724Y-5.0085
X7.8599Y-3.5085
X8.0474Y-5.7585
X8.2349Y-2.571
X8.2349Y-4.2585
X8.4224Y-5.0085
X8.6088Y-6.1835
X8.6099Y-3.5085
X8.7974Y-5.7585
X8.9849Y-2.571
X8.9849Y-4.2585
X9.1724Y-5.0085
X9.3599Y-3.5085
X9.3599Y-6.1835
X9.4536Y-6.5085
X9.5474Y-5.7585
X9.7349Y-4.2585
X9.9224Y-5.0085
X10.1099Y-2.571
X10.1099Y-3.5085
X10.2974Y-5.7585
X10.2974Y-6.5085
X10.3911Y-6.5085
X10.4849Y-4.2585
X10.6724Y-5.0085
X10.8599Y-2.571
X10.8599Y-3.5085
X11.2349Y-4.2585
X11.2349Y-6.0835
X11.2349Y-6.5085
X11.3286Y-5.7585
X11.3286Y-6.5085
X11.4224Y-4.6835
X11.4224Y-5.0085
X11.5161Y-3.8335
X11.6099Y-2.571
X11.6099Y-3.5085
X11.7036Y-5.7585
X11.8911Y-5.0085
X11.9411Y-4.1647
X11.9411Y-5.1022
X11.9849Y-3.5085
X12.1724Y-4.2585
X12.1724Y-6.0835
X12.1724Y-6.5085
X12.2661Y-4.6335
X12.2661Y-6.5085
X12.3599Y-2.571
X12.3599Y-3.5085
X12.3599Y-4.6835
X12.3599Y-5.7585
X12.4536Y-3.8335
X13.2974Y-2.571
X13.2974Y-3.5085
X13.2974Y-4.2585
X13.2974Y-5.0085
X13.2974Y-5.7585
X13.2974Y-6.5085
X14.0474Y-2.571
X14.0474Y-3.5085
X14.0474Y-4.2585
X14.0474Y-5.0085
X14.0474Y-5.7585
X14.0474Y-6.5085
X14.7974Y-2.571
X14.7974Y-3.5085
X14.7974Y-4.2585
X14.7974Y-5.0085
X14.7974Y-5.7585
X14.7974Y-6.5085
T0
M30
