M48
; DRILL file {KiCad (6.0.6)} date Fri Mar 24 22:01:14 2023
; FORMAT={-:-/ absolute / inch / decimal}
; #@! TF.CreationDate,2023-03-24T22:01:14+11:00
; #@! TF.GenerationSoftware,Kicad,Pcbnew,(6.0.6)
; #@! TF.FileFunction,Plated,1,2,PTH
FMAT,2
INCH
; #@! TA.AperFunction,Plated,PTH,ViaDrill
T1C0.0118
; #@! TA.AperFunction,Plated,PTH,ComponentDrill
T2C0.0138
; #@! TA.AperFunction,Plated,PTH,ViaDrill
T3C0.0157
; #@! TA.AperFunction,Plated,PTH,ViaDrill
T4C0.0197
; #@! TA.AperFunction,Plated,PTH,ComponentDrill
T5C0.0236
; #@! TA.AperFunction,Plated,PTH,ComponentDrill
T6C0.0394
; #@! TA.AperFunction,Plated,PTH,ComponentDrill
T7C0.1181
%
G90
G05
T1
X-0.2917Y-1.2661
X-0.2906Y-0.9114
X-0.2657Y-0.5638
X-0.2614Y-3.6236
X-0.2543Y-3.4996
X-0.2264Y-1.4634
X-0.2232Y-0.9917
X-0.2224Y-2.9594
X-0.222Y-1.9528
X-0.2213Y-0.6201
X-0.2213Y-1.2579
X-0.2213Y-3.4425
X-0.1555Y-2.0091
X-0.1547Y-0.5323
X-0.1492Y-3.5059
X-0.0925Y-0.4602
X-0.0441Y-3.1811
X0.0311Y0.276
X0.0874Y-3.6075
X0.1772Y-3.6075
X0.1815Y-3.5122
X0.1988Y-0.0961
X0.2724Y-3.5122
X0.2965Y-0.0409
X0.3276Y-2.9799
X0.3681Y-0.0744
X0.3811Y-0.1657
X0.3921Y-0.3173
X0.4157Y-3.05
X0.4232Y0.2882
X0.4618Y-1.3724
X0.4708Y0.0067
X0.5913Y-0.2496
X0.5984Y-2.1087
X0.6016Y0.2937
X0.6197Y-0.0142
X0.6642Y0.1181
X0.6654Y-0.0453
X0.6894Y0.0827
X0.6961Y-0.1606
X0.7146Y-4.161
X0.7319Y-1.6756
X0.7661Y-3.5028
X0.7681Y-0.5311
X0.7913Y0.1488
X0.8165Y-0.1209
X0.8354Y0.0535
X0.8382Y-0.0823
X0.839Y-0.1646
X0.8945Y0.0209
X0.913Y0.2067
X0.9165Y-0.3421
X0.9449Y-0.3268
X0.9736Y-1.289
X1.0335Y0.2016
X1.05Y-0.0681
X1.0535Y-0.0276
X1.0689Y-3.5693
X1.0874Y-0.1787
X1.1091Y-3.513
X1.1224Y-0.0461
X1.1252Y0.2665
X1.1311Y0.1547
X1.1504Y-3.5697
X1.1819Y-3.513
X1.1882Y-2.6169
X1.2122Y-0.3146
X1.324Y-0.1008
X1.3429Y-0.1516
X1.3429Y-0.5358
X1.3937Y-3.424
X1.4063Y-0.5358
X1.4071Y-0.1512
X1.4228Y-1.9878
X1.4343Y-2.4709
X1.4969Y-1.6811
X1.5724Y-3.5142
X1.6016Y-2.9579
X1.6067Y-3.5701
X1.6457Y-3.513
X1.6913Y-3.5697
X1.7484Y-3.5815
X1.7937Y-0.5319
X1.798Y-3.5016
X2.0067Y-2.2445
X2.0929Y-0.1508
X2.1421Y-2.8067
X2.1571Y-0.1508
X2.1862Y-2.4724
X2.2508Y-1.6898
X2.3504Y-2.961
X2.4079Y-3.585
X2.4839Y-3.5122
X2.5051Y-3.5862
X2.5055Y-1.0039
X2.5106Y-1.0638
X2.5248Y-0.3449
X2.5732Y-1.0039
X2.5748Y-3.5189
X2.5799Y-1.0638
X2.5937Y-0.5358
X2.5945Y-0.6035
X2.6283Y-0.0209
X2.6839Y-3.3134
X2.7291Y-3.2539
X2.7713Y-3.3134
X2.8043Y-3.2539
X2.8083Y-1.961
X2.8217Y-0.5311
X2.8429Y-0.1512
X2.9047Y-3.7854
X2.9051Y-3.7055
X2.9067Y-0.1512
X2.9441Y-1.6953
X3.0161Y-2.6689
X3.0484Y-1.7539
X3.0524Y-2.5638
X3.0551Y-2.5035
X3.0925Y-2.6685
X3.102Y-2.9579
X3.1173Y-1.7539
X3.1209Y-2.5638
X3.1228Y-2.5035
X3.1811Y-2.2539
X3.3177Y-1.2339
X3.5929Y-0.5358
X3.5933Y-0.1512
X3.6272Y-3.5819
X3.6567Y-0.1512
X3.6571Y-0.5358
X3.676Y-3.5028
X3.6898Y-2.4709
X3.7398Y-1.6843
X3.8472Y-0.5319
X3.8508Y-2.9547
X4.2709Y0.0051
X4.3398Y-0.5354
X4.3846Y-1.9717
X4.4087Y-0.5358
X4.4339Y-2.4709
X4.4374Y-2.8004
X4.502Y-1.687
X4.5413Y-3.8512
X4.6059Y-2.9547
X4.6106Y-3.5126
X4.6705Y-0.1512
X4.6815Y-3.5835
X4.7311Y-3.5031
X4.7445Y-0.1516
X4.7512Y-3.6539
X4.7587Y-4.1709
X4.8457Y-3.6539
X4.8736Y-0.5311
X5.0126Y-2.2516
X5.0894Y-0.5358
X5.1587Y-0.5358
X5.1858Y-2.4709
X5.2228Y-1.6811
X5.3528Y-2.9547
X5.4209Y-0.1512
X5.4461Y-2.226
X5.4953Y-0.1508
X5.4988Y-1.0039
X5.5043Y-1.0638
X5.5508Y-1.4276
X5.5665Y-1.0039
X5.5736Y-1.0634
X5.5913Y-0.5358
X5.5913Y-0.6031
X5.6134Y-3.5839
X5.6311Y-0.3449
X5.6882Y-3.5122
X5.7035Y-2.8272
X5.7126Y-3.5858
X5.7795Y-3.2535
X5.7795Y-3.3138
X5.789Y-3.5039
X5.839Y-0.5362
X5.8394Y-1.9665
X5.8476Y-3.2535
X5.8476Y-3.3138
X5.9051Y-0.5358
X5.9295Y-2.7327
X5.9689Y-1.6913
X6.0075Y-0.0181
X6.015Y-2.8224
X6.0268Y-2.7319
X6.0472Y-2.5638
X6.0488Y-1.7539
X6.0579Y-2.5039
X6.1047Y-2.9563
X6.1146Y-1.2
X6.1173Y-2.5638
X6.1189Y-1.7535
X6.1256Y-2.5039
X6.172Y-0.1508
X6.2472Y-0.1508
X6.589Y-0.5362
X6.6205Y-2.8315
X6.6583Y-0.5362
X6.6878Y-2.4724
X6.748Y-1.6941
X6.8531Y-2.9563
X6.9209Y-0.1508
X6.9295Y-0.5323
X6.9957Y-0.1508
X7.1634Y-3.8492
X7.2602Y-2.2449
X7.3205Y-1.9717
X7.3445Y-0.5358
X7.4134Y-0.5362
X7.4378Y-2.4693
X7.5236Y-1.6614
X7.6102Y-2.9469
X7.6815Y-2.2146
X7.6819Y0.0098
X7.8559Y-3.5843
X7.8992Y-3.5043
X7.9547Y-0.5323
X8.0787Y-0.1508
X8.15Y-0.152
X8.1882Y-2.4677
X8.2012Y-0.5343
X8.2587Y-1.6969
X8.2598Y-3.7291
X8.2803Y-3.5126
X8.2807Y-3.5858
X8.3441Y-3.5862
X8.3449Y-3.5126
X8.365Y-2.9531
X8.5421Y-1.0039
X8.5433Y-1.0634
X8.6098Y-1.0039
X8.611Y-1.0634
X8.6307Y-0.5362
X8.6319Y-0.6035
X8.7827Y-3.5118
X8.7827Y-3.5854
X8.7909Y-1.9823
X8.7937Y-3.3134
X8.815Y-3.2539
X8.8441Y-0.1504
X8.8504Y-3.5122
X8.8504Y-3.5854
X8.8638Y-3.3138
X8.8854Y-3.8602
X8.8913Y-3.2539
X8.9087Y-0.526
X8.9091Y-0.1512
X8.9114Y-3.585
X8.937Y-2.474
X8.9555Y-3.5043
X8.9886Y-0.5402
X9.0508Y-1.7539
X9.0571Y-1.8138
X9.0571Y-2.5035
X9.0571Y-2.5638
X9.1035Y-1.1941
X9.1201Y-1.7539
X9.1248Y-1.8138
X9.1248Y-2.5638
X9.1252Y-2.5035
X9.1917Y-3.6555
X9.2587Y-3.663
X9.2614Y-3.587
X9.3087Y-2.8161
X9.3728Y-0.0236
X9.4457Y-2.6791
X9.4902Y-3.5839
X9.5957Y-0.1508
X9.6437Y-2.9827
X9.6598Y-0.1512
X9.6815Y-2.6697
X9.785Y-2.8634
X9.7925Y-3.8465
X9.8654Y-2.4953
X9.9665Y-3.5843
X10.0047Y-0.5319
X10.0094Y-3.5047
X10.1256Y-0.0075
X10.1469Y-2.8311
X10.2319Y-3.265
X10.3087Y-1.8717
X10.3138Y-2.4524
X10.3382Y-0.1512
X10.3728Y-0.4055
X10.3862Y-1.3161
X10.4094Y-0.1524
X10.4224Y-2.2803
X10.4339Y-3.5165
X10.4728Y-3.5693
X10.4752Y-1.7839
X10.5Y-1.6098
X10.5205Y-2.5246
X10.5209Y-2.902
X10.5295Y-3.5126
X10.5323Y-1.7472
X10.539Y-1.111
X10.539Y-3.0594
X10.5673Y-0.4634
X10.5925Y-2.813
X10.5949Y-0.5193
X10.5976Y-0.3087
X10.6083Y-1.7555
X10.6087Y-1.8122
X10.6244Y-0.1378
X10.6311Y-0.5209
X10.6528Y-0.8272
X10.6646Y-0.5209
X10.6764Y-1.7559
X10.6768Y-1.8118
X10.6776Y-3.4055
X10.6815Y-0.0961
X10.7122Y0.0744
X10.7319Y-2.8064
X10.7327Y-1.7559
X10.7327Y-1.8122
X10.7417Y-0.1272
X10.75Y-3.5118
X10.7507Y-2.5502
X10.7613Y-2.3896
X10.7673Y-1.2878
X10.7917Y-3.5697
X10.7957Y-0.4689
X10.7961Y-0.5646
X10.7968Y-2.6979
X10.8Y-2.7328
X10.8146Y-2.9579
X10.8157Y-3.8323
X10.8169Y-3.2106
X10.8205Y-2.2234
X10.826Y-0.963
X10.826Y-1.1736
X10.828Y-1.8118
X10.8283Y-1.7559
X10.8289Y-0.3305
X10.8303Y-0.3768
X10.8409Y-2.7295
X10.8488Y-0.1228
X10.8524Y-3.5126
X10.8602Y0.0374
X10.8715Y-2.205
X10.8996Y0.298
X10.9022Y-2.1967
X10.9173Y-1.7843
X10.9185Y-4.1571
X10.9197Y-1.0035
X10.9197Y-1.0634
X10.9197Y-0.0433
X10.9197Y-0.1031
X10.9201Y-0.4689
X10.9201Y-0.5646
X10.9217Y0.2189
X10.9217Y0.0598
X10.9492Y0.2346
X10.9492Y0.2031
X10.9685Y-1.6114
X10.9846Y-2.9464
X10.998Y0.2181
X11.0126Y-2.3024
X11.0134Y0.0606
X11.0145Y-1.063
X11.0146Y-0.4689
X11.0146Y-0.5646
X11.0149Y-1.0035
X11.015Y-0.0431
X11.015Y-0.1031
X11.0224Y-2.8559
X11.0228Y-1.948
X11.0335Y0.2921
X11.0358Y-2.4661
X11.0504Y-1.0335
X11.0539Y-3.0972
X11.0626Y-0.4906
X11.0717Y-3.513
X11.0839Y-2.076
X11.0874Y-2.8382
X11.0886Y-0.0961
X11.1161Y-3.622
X11.1311Y-2.4098
X11.1409Y-0.2858
X11.1634Y-1.0031
X11.1634Y-1.0642
X11.1642Y-2.4512
X11.1795Y-3.513
X11.1929Y-1.9343
X11.1996Y-2.6453
X11.211Y-0.4492
X11.2114Y-1.2433
X11.239Y-0.7291
X11.2406Y-1.8469
X11.2541Y-2.5161
X11.2622Y-2.8138
X11.2799Y-0.535
X11.2807Y-3.5134
X11.2807Y-3.5858
X11.2807Y-3.6531
X11.2862Y-2.2433
X11.2866Y-2.9705
X11.3126Y-1.9835
X11.3126Y-2.0909
X11.328Y-2.7165
X11.3402Y-1.8681
X11.3476Y-3.513
X11.3476Y-3.6531
X11.348Y-3.5858
X11.3484Y-0.5354
X11.3488Y-2.1661
X11.3713Y-1.9378
X11.3717Y-2.0929
X11.4189Y-3.0417
X11.6457Y-0.3094
X11.722Y-0.5354
X11.7224Y-0.6039
X11.7457Y-2.4906
X11.7457Y-2.8354
X11.7457Y-3.2106
X11.7461Y-1.0031
X11.7465Y-1.7531
X11.7465Y-2.0921
X11.7469Y-1.0634
X11.7469Y-1.8709
X11.7469Y-3.513
X11.7472Y-1.8138
X11.7472Y-1.9272
X11.7472Y-2.165
X11.7472Y-2.6228
X11.7472Y-3.5858
X11.7613Y-0.0962
X11.7803Y-2.5913
X11.7965Y0.0831
X11.811Y-2.8039
X11.8122Y-2.7713
X11.8154Y-3.6748
X11.8268Y-3.513
X11.8268Y-3.5862
X11.8276Y-2.7437
X11.8311Y-0.5362
X11.8315Y-0.6035
X11.8315Y-3.2531
X11.8319Y-1.0642
X11.8433Y-2.7161
X11.8531Y-1.824
X11.8634Y-2.5917
X11.8642Y-2.0921
X11.8642Y-2.1654
X11.8998Y-1.0337
X11.9336Y-1.7837
X11.9429Y-1.2598
X12.0283Y-0.5323
X12.0291Y-3.6098
X12.0299Y-0.6043
X12.0307Y-3.6929
X12.0976Y-0.6039
X12.0984Y-3.6949
X12.1008Y-3.25
X12.172Y-3.5701
X12.3382Y-0.3094
X12.5114Y-1.9583
X12.5185Y-3.8575
X12.5252Y0.0831
X12.5465Y-0.7965
X12.8571Y-4.1709
X12.9843Y-3.5693
X13.0067Y-3.513
X13.0512Y-3.5882
X13.0815Y-3.5031
X13.0827Y-1.9669
X13.0843Y-0.5315
X13.0886Y-3.6236
X13.0906Y-2.7492
X13.0961Y-1.2165
X13.1571Y-1.6307
X13.1575Y-1.7441
X13.1614Y-1.9681
X13.1622Y-2.0114
X13.1622Y-2.1213
X13.1701Y-1.2248
X13.1768Y-2.7339
X13.1772Y-1.3713
X13.1776Y-1.261
X13.1831Y-0.4472
X13.1858Y-3.5409
X13.1886Y-0.411
X13.189Y-0.5335
X13.1921Y-2.7614
X13.1921Y-2.8689
X13.1957Y-0.0685
X13.2272Y-2.8126
T2
X10.7781Y-2.4266
X10.7781Y-2.4768
X10.7781Y-2.527
X10.8283Y-2.4266
X10.8283Y-2.4768
X10.8283Y-2.527
X10.8785Y-2.4266
X10.8785Y-2.4768
X10.8785Y-2.527
T3
X-0.2571Y-0.6031
X-0.2331Y0.2094
X-0.2201Y-1.4126
X-0.2197Y-2.1626
X-0.2189Y-2.9126
X-0.1819Y-3.6236
X-0.1728Y-1.4122
X-0.1472Y-2.1268
X-0.1465Y-2.8768
X-0.0882Y-0.5291
X-0.0634Y-3.6016
X0.7614Y-3.6272
X0.8807Y-3.6169
X0.8992Y-0.5287
X0.9004Y-0.4512
X1.0882Y-0.0035
X1.9213Y-0.5287
X1.9252Y-0.4508
X1.9917Y-3.5772
X2.4248Y-3.6201
X2.6154Y-0.5697
X2.6193Y-3.6268
X2.9488Y-0.5287
X2.9571Y-0.4512
X3.8701Y-3.5783
X3.9689Y-0.5272
X3.9843Y-0.4512
X4.9268Y-3.578
X5.0004Y-0.528
X5.0126Y-0.4512
X5.6126Y-0.5697
X5.6307Y-3.6197
X5.9803Y-3.5776
X6.0236Y-0.5287
X6.0346Y-0.4508
X6.8685Y-3.4965
X7.05Y-0.5272
X7.0594Y-3.5839
X7.061Y-0.4492
X8.074Y-0.528
X8.0906Y-0.4528
X8.0925Y-3.5772
X8.6524Y-0.5697
X8.8165Y-3.6197
X9.1079Y-0.528
X9.1106Y-0.4236
X9.148Y-3.5772
X10.1197Y-0.4075
X10.126Y-0.5291
X10.2004Y-3.6087
X10.5527Y-2.3626
X10.5534Y-2.3259
X10.6697Y-0.465
X10.6802Y-2.1956
X10.6921Y-0.5445
X10.724Y-0.574
X10.813Y0.1472
X10.8378Y0.2709
X10.8736Y0.1957
X10.8766Y-2.0868
X10.918Y-2.0868
X11.0555Y-0.5421
X11.0681Y0.1823
X11.2039Y-0.5287
X11.2299Y-3.5776
X11.7012Y-0.5697
X11.7799Y-3.6197
X12.0185Y-3.5134
X12.1783Y-0.5276
X13.1575Y-3.6626
X13.1878Y-0.6098
T4
X10.7976Y0.311
X11.1394Y0.3102
T6
X10.9886Y-3.0496
X10.9886Y-3.1496
X10.9886Y-3.2496
X10.9886Y-3.3496
X10.9886Y-3.4496
X12.1354Y-1.8986
X12.2354Y-1.8986
T7
X-0.15Y0.1
X-0.15Y-0.8375
X-0.0563Y-2.3375
X0.0375Y-1.5875
X0.0375Y-3.8375
X0.1Y0.2
X0.1Y-0.7375
X0.1812Y-2.6375
X0.1938Y-2.2375
X0.2875Y-1.4875
X0.2875Y-3.7375
X0.3187Y-3.0875
X0.4312Y-2.5375
X0.5687Y-2.9875
X0.6Y-0.8375
X0.85Y-0.7375
X0.975Y-1.5875
X0.975Y-3.8375
X1.1625Y-2.3375
X1.225Y-1.4875
X1.225Y-3.7375
X1.35Y0.1
X1.35Y-0.8375
X1.4125Y-2.2375
X1.5375Y-3.0875
X1.6Y0.2
X1.6Y-0.7375
X1.725Y-1.5875
X1.7875Y-2.9875
X1.9125Y-2.3375
X1.9125Y-3.8375
X1.975Y-1.4875
X2.1Y0.1
X2.1Y-0.8375
X2.1625Y-2.2375
X2.1625Y-3.7375
X2.2875Y-3.0875
X2.35Y0.2
X2.35Y-0.7375
X2.475Y-1.5875
X2.5375Y-2.9875
X2.6625Y-2.3375
X2.725Y-1.4875
X2.85Y0.1
X2.85Y-0.8375
X2.9125Y-2.2375
X3.0375Y-3.0875
X3.1Y0.2
X3.1Y-0.7375
X3.225Y-1.5875
X3.2875Y-2.9875
X3.4125Y-2.3375
X3.475Y-1.4875
X3.6Y0.1
X3.6Y-0.8375
X3.6625Y-2.2375
X3.7875Y-3.0875
X3.85Y0.2
X3.85Y-0.7375
X3.975Y-1.5875
X4.0375Y-2.9875
X4.1625Y-2.3375
X4.225Y-1.4875
X4.35Y-0.8375
X4.4125Y-2.2375
X4.5375Y-3.0875
X4.6Y-0.7375
X4.725Y0.1
X4.725Y-1.5875
X4.7875Y-2.9875
X4.9125Y-2.3375
X4.975Y0.2
X4.975Y-1.4875
X5.1Y-0.8375
X5.1Y-3.8375
X5.1625Y-2.2375
X5.2875Y-3.0875
X5.35Y-0.7375
X5.35Y-3.7375
X5.475Y0.1
X5.475Y-1.5875
X5.5375Y-2.9875
X5.6625Y-2.3375
X5.725Y0.2
X5.725Y-1.4875
X5.85Y-0.8375
X5.9125Y-2.2375
X6.0375Y-3.0875
X6.1Y-0.7375
X6.225Y0.1
X6.225Y-1.5875
X6.2875Y-2.9875
X6.4125Y-2.3375
X6.475Y0.2
X6.475Y-1.4875
X6.6Y-0.8375
X6.6625Y-2.2375
X6.7875Y-3.0875
X6.85Y-0.7375
X6.975Y0.1
X6.975Y-1.5875
X7.0375Y-2.9875
X7.1625Y-2.3375
X7.225Y0.2
X7.225Y-1.4875
X7.35Y-0.8375
X7.4125Y-2.2375
X7.5375Y-3.0875
X7.6Y-0.7375
X7.725Y-1.5875
X7.7875Y-2.9875
X7.9125Y-2.3375
X7.975Y-1.4875
X8.1Y0.1
X8.1Y-0.8375
X8.1625Y-2.2375
X8.2875Y-3.0875
X8.2875Y-3.8375
X8.35Y0.2
X8.35Y-0.7375
X8.475Y-1.5875
X8.5375Y-2.9875
X8.5375Y-3.7375
X8.6625Y-2.3375
X8.725Y-1.4875
X8.85Y0.1
X8.85Y-0.8375
X8.9125Y-2.2375
X9.1Y0.2
X9.1Y-0.7375
X9.225Y-1.5875
X9.225Y-3.8375
X9.3688Y-3.3875
X9.475Y-1.4875
X9.475Y-3.7375
X9.6Y0.1
X9.6188Y-3.2875
X9.65Y-1.1375
X9.6937Y-3.0875
X9.85Y0.2
X9.8812Y-2.3375
X9.9Y-1.0375
X9.9437Y-2.9875
X9.975Y-0.8375
X10.1312Y-2.2375
X10.1625Y-1.5875
X10.1625Y-3.8375
X10.225Y-0.7375
X10.35Y0.1
X10.4Y-1.1375
X10.4Y-3.3875
X10.4125Y-1.4875
X10.4125Y-3.7375
X10.6Y0.2
X10.65Y-1.0375
X10.65Y-3.2875
X11.2875Y0.1
X11.2875Y-0.8375
X11.2875Y-1.5875
X11.2875Y-2.3375
X11.2875Y-3.0875
X11.2875Y-3.8375
X11.5375Y0.2
X11.5375Y-0.7375
X11.5375Y-1.4875
X11.5375Y-2.2375
X11.5375Y-2.9875
X11.5375Y-3.7375
X12.0375Y0.1
X12.0375Y-0.8375
X12.0375Y-1.5875
X12.0375Y-2.3375
X12.0375Y-3.0875
X12.0375Y-3.8375
X12.2875Y0.2
X12.2875Y-0.7375
X12.2875Y-1.4875
X12.2875Y-2.2375
X12.2875Y-2.9875
X12.2875Y-3.7375
X12.7875Y0.1
X12.7875Y-0.8375
X12.7875Y-1.5875
X12.7875Y-2.3375
X12.7875Y-3.0875
X12.7875Y-3.8375
X13.0375Y0.2
X13.0375Y-0.7375
X13.0375Y-1.4875
X13.0375Y-2.2375
X13.0375Y-2.9875
X13.0375Y-3.7375
T5
G00X10.7987Y0.5295
M15
G01X10.7987Y0.5531
M16
G05
G00X10.7987Y0.3551
M15
G01X10.7987Y0.3984
M16
G05
G00X11.1388Y0.5295
M15
G01X11.1388Y0.5531
M16
G05
G00X11.1388Y0.3551
M15
G01X11.1388Y0.3984
M16
G05
T0
M30
