%TF.GenerationSoftware,KiCad,Pcbnew,(6.0.1)*%
%TF.CreationDate,2022-06-13T23:58:49+10:00*%
%TF.ProjectId,fuyu,66757975-2e6b-4696-9361-645f70636258,rev?*%
%TF.SameCoordinates,Original*%
%TF.FileFunction,Soldermask,Bot*%
%TF.FilePolarity,Negative*%
%FSLAX46Y46*%
G04 Gerber Fmt 4.6, Leading zero omitted, Abs format (unit mm)*
G04 Created by KiCad (PCBNEW (6.0.1)) date 2022-06-13 23:58:49*
%MOMM*%
%LPD*%
G01*
G04 APERTURE LIST*
G04 Aperture macros list*
%AMRoundRect*
0 Rectangle with rounded corners*
0 $1 Rounding radius*
0 $2 $3 $4 $5 $6 $7 $8 $9 X,Y pos of 4 corners*
0 Add a 4 corners polygon primitive as box body*
4,1,4,$2,$3,$4,$5,$6,$7,$8,$9,$2,$3,0*
0 Add four circle primitives for the rounded corners*
1,1,$1+$1,$2,$3*
1,1,$1+$1,$4,$5*
1,1,$1+$1,$6,$7*
1,1,$1+$1,$8,$9*
0 Add four rect primitives between the rounded corners*
20,1,$1+$1,$2,$3,$4,$5,0*
20,1,$1+$1,$4,$5,$6,$7,0*
20,1,$1+$1,$6,$7,$8,$9,0*
20,1,$1+$1,$8,$9,$2,$3,0*%
%AMRotRect*
0 Rectangle, with rotation*
0 The origin of the aperture is its center*
0 $1 length*
0 $2 width*
0 $3 Rotation angle, in degrees counterclockwise*
0 Add horizontal line*
21,1,$1,$2,0,0,$3*%
%AMFreePoly0*
4,1,18,-0.410000,0.593000,-0.403758,0.624380,-0.385983,0.650983,-0.359380,0.668758,-0.328000,0.675000,0.328000,0.675000,0.359380,0.668758,0.385983,0.650983,0.403758,0.624380,0.410000,0.593000,0.410000,-0.593000,0.403758,-0.624380,0.385983,-0.650983,0.359380,-0.668758,0.328000,-0.675000,0.000000,-0.675000,-0.410000,-0.265000,-0.410000,0.593000,-0.410000,0.593000,$1*%
G04 Aperture macros list end*
%ADD10RoundRect,0.150000X-0.512500X-0.150000X0.512500X-0.150000X0.512500X0.150000X-0.512500X0.150000X0*%
%ADD11RoundRect,0.140000X-0.140000X-0.170000X0.140000X-0.170000X0.140000X0.170000X-0.140000X0.170000X0*%
%ADD12RoundRect,0.140000X0.140000X0.170000X-0.140000X0.170000X-0.140000X-0.170000X0.140000X-0.170000X0*%
%ADD13RoundRect,0.140000X-0.170000X0.140000X-0.170000X-0.140000X0.170000X-0.140000X0.170000X0.140000X0*%
%ADD14RoundRect,0.140000X0.170000X-0.140000X0.170000X0.140000X-0.170000X0.140000X-0.170000X-0.140000X0*%
%ADD15C,1.750000*%
%ADD16C,3.987800*%
%ADD17C,2.300000*%
%ADD18C,3.048000*%
%ADD19C,0.650000*%
%ADD20O,1.000000X2.100000*%
%ADD21O,1.000000X1.600000*%
%ADD22RoundRect,0.082000X0.593000X-0.328000X0.593000X0.328000X-0.593000X0.328000X-0.593000X-0.328000X0*%
%ADD23FreePoly0,90.000000*%
%ADD24RoundRect,0.105000X-0.245000X-0.245000X0.245000X-0.245000X0.245000X0.245000X-0.245000X0.245000X0*%
%ADD25R,1.700000X1.700000*%
%ADD26O,1.700000X1.700000*%
%ADD27RotRect,1.400000X1.200000X45.000000*%
%ADD28R,1.200000X0.900000*%
%ADD29RoundRect,0.105000X0.245000X0.245000X-0.245000X0.245000X-0.245000X-0.245000X0.245000X-0.245000X0*%
%ADD30RoundRect,0.200000X-0.275000X0.200000X-0.275000X-0.200000X0.275000X-0.200000X0.275000X0.200000X0*%
%ADD31RoundRect,0.082000X-0.328000X-0.593000X0.328000X-0.593000X0.328000X0.593000X-0.328000X0.593000X0*%
%ADD32FreePoly0,0.000000*%
%ADD33RoundRect,0.150000X0.650000X0.150000X-0.650000X0.150000X-0.650000X-0.150000X0.650000X-0.150000X0*%
%ADD34RoundRect,0.150000X0.475000X0.150000X-0.475000X0.150000X-0.475000X-0.150000X0.475000X-0.150000X0*%
%ADD35RoundRect,0.135000X-0.135000X-0.185000X0.135000X-0.185000X0.135000X0.185000X-0.135000X0.185000X0*%
%ADD36RoundRect,0.135000X0.185000X-0.135000X0.185000X0.135000X-0.185000X0.135000X-0.185000X-0.135000X0*%
%ADD37RoundRect,0.050000X0.387500X0.050000X-0.387500X0.050000X-0.387500X-0.050000X0.387500X-0.050000X0*%
%ADD38RoundRect,0.050000X0.050000X0.387500X-0.050000X0.387500X-0.050000X-0.387500X0.050000X-0.387500X0*%
%ADD39RoundRect,0.144000X1.456000X1.456000X-1.456000X1.456000X-1.456000X-1.456000X1.456000X-1.456000X0*%
%ADD40RoundRect,0.135000X0.135000X0.185000X-0.135000X0.185000X-0.135000X-0.185000X0.135000X-0.185000X0*%
%ADD41RoundRect,0.082000X0.328000X0.593000X-0.328000X0.593000X-0.328000X-0.593000X0.328000X-0.593000X0*%
%ADD42FreePoly0,180.000000*%
%ADD43RoundRect,0.140000X0.021213X-0.219203X0.219203X-0.021213X-0.021213X0.219203X-0.219203X0.021213X0*%
%ADD44RoundRect,0.140000X0.219203X0.021213X0.021213X0.219203X-0.219203X-0.021213X-0.021213X-0.219203X0*%
%ADD45RoundRect,0.135000X0.035355X-0.226274X0.226274X-0.035355X-0.035355X0.226274X-0.226274X0.035355X0*%
%ADD46RoundRect,0.150000X0.150000X-0.587500X0.150000X0.587500X-0.150000X0.587500X-0.150000X-0.587500X0*%
%ADD47RoundRect,0.250000X-0.625000X0.375000X-0.625000X-0.375000X0.625000X-0.375000X0.625000X0.375000X0*%
%ADD48RoundRect,0.082000X-0.593000X0.328000X-0.593000X-0.328000X0.593000X-0.328000X0.593000X0.328000X0*%
%ADD49FreePoly0,270.000000*%
G04 APERTURE END LIST*
D10*
%TO.C,U5*%
X334492812Y-121782500D03*
X334492812Y-120832500D03*
X334492812Y-119882500D03*
X336767812Y-119882500D03*
X336767812Y-121782500D03*
%TD*%
D11*
%TO.C,C23*%
X70570312Y-72932500D03*
X71530312Y-72932500D03*
%TD*%
D12*
%TO.C,C22*%
X69660312Y-74212500D03*
X68700312Y-74212500D03*
%TD*%
D13*
%TO.C,C21*%
X56590312Y-67842500D03*
X56590312Y-68802500D03*
%TD*%
D12*
%TO.C,C20*%
X61940312Y-58242500D03*
X60980312Y-58242500D03*
%TD*%
%TO.C,C58*%
X336290312Y-123112500D03*
X337250312Y-123112500D03*
%TD*%
D14*
%TO.C,C19*%
X75980312Y-63152500D03*
X75980312Y-62192500D03*
%TD*%
D12*
%TO.C,C18*%
X66410312Y-61522500D03*
X65450312Y-61522500D03*
%TD*%
D15*
%TO.C,SW99*%
X235041562Y-165315000D03*
X245201562Y-165315000D03*
D16*
X240121562Y-165315000D03*
D17*
X236311562Y-162775000D03*
X242661562Y-160235000D03*
%TD*%
D15*
%TO.C,SW68*%
X307114062Y-127215000D03*
X296954062Y-127215000D03*
D16*
X302034062Y-127215000D03*
D17*
X298224062Y-124675000D03*
X304574062Y-122135000D03*
%TD*%
D16*
%TO.C,SW106*%
X337752812Y-165315000D03*
D15*
X332672812Y-165315000D03*
X342832812Y-165315000D03*
D17*
X333942812Y-162775000D03*
X340292812Y-160235000D03*
%TD*%
D15*
%TO.C,SW89*%
X351722812Y-146265000D03*
X361882812Y-146265000D03*
D16*
X356802812Y-146265000D03*
D17*
X352992812Y-143725000D03*
X359342812Y-141185000D03*
%TD*%
D15*
%TO.C,SW28*%
X251710312Y-89115000D03*
D16*
X256790312Y-89115000D03*
D15*
X261870312Y-89115000D03*
D17*
X252980312Y-86575000D03*
X259330312Y-84035000D03*
%TD*%
D15*
%TO.C,SW41*%
X157095312Y-108165000D03*
D16*
X152015312Y-108165000D03*
D15*
X146935312Y-108165000D03*
D17*
X148205312Y-105625000D03*
X154555312Y-103085000D03*
%TD*%
D15*
%TO.C,SW2*%
X80260312Y-65302500D03*
D16*
X85340312Y-65302500D03*
D15*
X90420312Y-65302500D03*
D17*
X81530312Y-62762500D03*
X87880312Y-60222500D03*
%TD*%
D16*
%TO.C,SW10*%
X256790312Y-65302500D03*
D15*
X251710312Y-65302500D03*
X261870312Y-65302500D03*
D17*
X252980312Y-62762500D03*
X259330312Y-60222500D03*
%TD*%
D15*
%TO.C,SW27*%
X242820312Y-89115000D03*
X232660312Y-89115000D03*
D16*
X237740312Y-89115000D03*
D17*
X233930312Y-86575000D03*
X240280312Y-84035000D03*
%TD*%
D16*
%TO.C,SW34*%
X356802812Y-89115000D03*
D15*
X361882812Y-89115000D03*
X351722812Y-89115000D03*
D17*
X352992812Y-86575000D03*
X359342812Y-84035000D03*
%TD*%
D15*
%TO.C,SW35*%
X380932812Y-89115000D03*
D16*
X375852812Y-89115000D03*
D15*
X370772812Y-89115000D03*
D17*
X372042812Y-86575000D03*
X378392812Y-84035000D03*
%TD*%
D16*
%TO.C,SW11*%
X275840312Y-65302500D03*
D15*
X270760312Y-65302500D03*
X280920312Y-65302500D03*
D17*
X272030312Y-62762500D03*
X278380312Y-60222500D03*
%TD*%
D15*
%TO.C,SW59*%
X142807812Y-127215000D03*
D16*
X137727812Y-127215000D03*
D15*
X132647812Y-127215000D03*
D17*
X133917812Y-124675000D03*
X140267812Y-122135000D03*
%TD*%
D16*
%TO.C,SW75*%
X90102812Y-146265000D03*
D15*
X85022812Y-146265000D03*
X95182812Y-146265000D03*
D17*
X86292812Y-143725000D03*
X92642812Y-141185000D03*
%TD*%
D15*
%TO.C,SW8*%
X214245312Y-65302500D03*
X204085312Y-65302500D03*
D16*
X209165312Y-65302500D03*
D17*
X205355312Y-62762500D03*
X211705312Y-60222500D03*
%TD*%
D15*
%TO.C,SW70*%
X361882812Y-127215000D03*
D16*
X356802812Y-127215000D03*
D15*
X351722812Y-127215000D03*
D17*
X352992812Y-124675000D03*
X359342812Y-122135000D03*
%TD*%
D15*
%TO.C,SW90*%
X370772812Y-146265000D03*
D16*
X375852812Y-146265000D03*
D15*
X380932812Y-146265000D03*
D17*
X372042812Y-143725000D03*
X378392812Y-141185000D03*
%TD*%
D15*
%TO.C,SW47*%
X261235312Y-108165000D03*
D16*
X266315312Y-108165000D03*
D15*
X271395312Y-108165000D03*
D17*
X262505312Y-105625000D03*
X268855312Y-103085000D03*
%TD*%
D15*
%TO.C,SW39*%
X108835312Y-108165000D03*
D16*
X113915312Y-108165000D03*
D15*
X118995312Y-108165000D03*
D17*
X110105312Y-105625000D03*
X116455312Y-103085000D03*
%TD*%
D15*
%TO.C,SW16*%
X380932812Y-65302500D03*
X370772812Y-65302500D03*
D16*
X375852812Y-65302500D03*
D17*
X372042812Y-62762500D03*
X378392812Y-60222500D03*
%TD*%
D15*
%TO.C,SW6*%
X176145312Y-65302500D03*
D16*
X171065312Y-65302500D03*
D15*
X165985312Y-65302500D03*
D17*
X167255312Y-62762500D03*
X173605312Y-60222500D03*
%TD*%
D15*
%TO.C,SW25*%
X204720312Y-89115000D03*
X194560312Y-89115000D03*
D16*
X199640312Y-89115000D03*
D17*
X195830312Y-86575000D03*
X202180312Y-84035000D03*
%TD*%
D15*
%TO.C,SW29*%
X270760312Y-89115000D03*
D16*
X275840312Y-89115000D03*
D15*
X280920312Y-89115000D03*
D17*
X272030312Y-86575000D03*
X278380312Y-84035000D03*
%TD*%
D16*
%TO.C,SW101*%
X263934062Y-165315000D03*
D15*
X258854062Y-165315000D03*
X269014062Y-165315000D03*
D17*
X260124062Y-162775000D03*
X266474062Y-160235000D03*
%TD*%
D16*
%TO.C,SW13*%
X313940312Y-65302500D03*
D15*
X308860312Y-65302500D03*
X319020312Y-65302500D03*
D17*
X310130312Y-62762500D03*
X316480312Y-60222500D03*
%TD*%
D16*
%TO.C,SW64*%
X232977812Y-127215000D03*
D15*
X238057812Y-127215000D03*
X227897812Y-127215000D03*
D17*
X229167812Y-124675000D03*
X235517812Y-122135000D03*
%TD*%
D16*
%TO.C,S5*%
X285365312Y-154520000D03*
D18*
X309177812Y-139280000D03*
X285365312Y-139280000D03*
D16*
X309177812Y-154520000D03*
%TD*%
D15*
%TO.C,SW103*%
X282666562Y-165315000D03*
D16*
X287746562Y-165315000D03*
D15*
X292826562Y-165315000D03*
D17*
X283936562Y-162775000D03*
X290286562Y-160235000D03*
%TD*%
D15*
%TO.C,SW23*%
X166620312Y-89115000D03*
D16*
X161540312Y-89115000D03*
D15*
X156460312Y-89115000D03*
D17*
X157730312Y-86575000D03*
X164080312Y-84035000D03*
%TD*%
D15*
%TO.C,SW91*%
X44541562Y-165315000D03*
D16*
X49621562Y-165315000D03*
D15*
X54701562Y-165315000D03*
D17*
X45811562Y-162775000D03*
X52161562Y-160235000D03*
%TD*%
D15*
%TO.C,SW96*%
X104707812Y-165315000D03*
D16*
X99627812Y-165315000D03*
D15*
X94547812Y-165315000D03*
D17*
X95817812Y-162775000D03*
X102167812Y-160235000D03*
%TD*%
D15*
%TO.C,SW78*%
X152332812Y-146265000D03*
D16*
X147252812Y-146265000D03*
D15*
X142172812Y-146265000D03*
D17*
X143442812Y-143725000D03*
X149792812Y-141185000D03*
%TD*%
D15*
%TO.C,SW52*%
X361882812Y-108165000D03*
D16*
X356802812Y-108165000D03*
D15*
X351722812Y-108165000D03*
D17*
X352992812Y-105625000D03*
X359342812Y-103085000D03*
%TD*%
D15*
%TO.C,SW60*%
X151697812Y-127215000D03*
D16*
X156777812Y-127215000D03*
D15*
X161857812Y-127215000D03*
D17*
X152967812Y-124675000D03*
X159317812Y-122135000D03*
%TD*%
D15*
%TO.C,SW36*%
X57082812Y-108165000D03*
D16*
X52002812Y-108165000D03*
D15*
X46922812Y-108165000D03*
D17*
X48192812Y-105625000D03*
X54542812Y-103085000D03*
%TD*%
D15*
%TO.C,SW61*%
X180907812Y-127215000D03*
D16*
X175827812Y-127215000D03*
D15*
X170747812Y-127215000D03*
D17*
X172017812Y-124675000D03*
X178367812Y-122135000D03*
%TD*%
D16*
%TO.C,SW74*%
X71052812Y-146265000D03*
D15*
X65972812Y-146265000D03*
X76132812Y-146265000D03*
D17*
X67242812Y-143725000D03*
X73592812Y-141185000D03*
%TD*%
D16*
%TO.C,S7*%
X123440312Y-157060000D03*
D18*
X123440312Y-172300000D03*
D16*
X237740312Y-157060000D03*
D18*
X237740312Y-172300000D03*
%TD*%
D15*
%TO.C,SW33*%
X342832812Y-89115000D03*
X332672812Y-89115000D03*
D16*
X337752812Y-89115000D03*
D17*
X333942812Y-86575000D03*
X340292812Y-84035000D03*
%TD*%
D15*
%TO.C,SW30*%
X299970312Y-89115000D03*
X289810312Y-89115000D03*
D16*
X294890312Y-89115000D03*
D17*
X291080312Y-86575000D03*
X297430312Y-84035000D03*
%TD*%
D18*
%TO.C,S2*%
X318544062Y-129596250D03*
D16*
X303304062Y-129596250D03*
X303304062Y-105783750D03*
D18*
X318544062Y-105783750D03*
%TD*%
D15*
%TO.C,SW42*%
X165985312Y-108165000D03*
D16*
X171065312Y-108165000D03*
D15*
X176145312Y-108165000D03*
D17*
X167255312Y-105625000D03*
X173605312Y-103085000D03*
%TD*%
D15*
%TO.C,SW4*%
X118360312Y-65302500D03*
D16*
X123440312Y-65302500D03*
D15*
X128520312Y-65302500D03*
D17*
X119630312Y-62762500D03*
X125980312Y-60222500D03*
%TD*%
D15*
%TO.C,SW71*%
X380932812Y-127215000D03*
D16*
X375852812Y-127215000D03*
D15*
X370772812Y-127215000D03*
D17*
X372042812Y-124675000D03*
X378392812Y-122135000D03*
%TD*%
D15*
%TO.C,SW100*%
X256472812Y-165315000D03*
D16*
X261552812Y-165315000D03*
D15*
X266632812Y-165315000D03*
D17*
X257742812Y-162775000D03*
X264092812Y-160235000D03*
%TD*%
D16*
%TO.C,SW76*%
X109152812Y-146265000D03*
D15*
X114232812Y-146265000D03*
X104072812Y-146265000D03*
D17*
X105342812Y-143725000D03*
X111692812Y-141185000D03*
%TD*%
D15*
%TO.C,SW84*%
X266632812Y-146265000D03*
X256472812Y-146265000D03*
D16*
X261552812Y-146265000D03*
D17*
X257742812Y-143725000D03*
X264092812Y-141185000D03*
%TD*%
D15*
%TO.C,SW102*%
X290445312Y-165315000D03*
X280285312Y-165315000D03*
D16*
X285365312Y-165315000D03*
D17*
X281555312Y-162775000D03*
X287905312Y-160235000D03*
%TD*%
D15*
%TO.C,SW48*%
X280285312Y-108165000D03*
X290445312Y-108165000D03*
D16*
X285365312Y-108165000D03*
D17*
X281555312Y-105625000D03*
X287905312Y-103085000D03*
%TD*%
D16*
%TO.C,SW93*%
X73434062Y-165315000D03*
D15*
X68354062Y-165315000D03*
X78514062Y-165315000D03*
D17*
X69624062Y-162775000D03*
X75974062Y-160235000D03*
%TD*%
D16*
%TO.C,SW57*%
X99627812Y-127215000D03*
D15*
X94547812Y-127215000D03*
X104707812Y-127215000D03*
D17*
X95817812Y-124675000D03*
X102167812Y-122135000D03*
%TD*%
D16*
%TO.C,SW77*%
X128202812Y-146265000D03*
D15*
X123122812Y-146265000D03*
X133282812Y-146265000D03*
D17*
X124392812Y-143725000D03*
X130742812Y-141185000D03*
%TD*%
D15*
%TO.C,SW31*%
X309495312Y-89115000D03*
X299335312Y-89115000D03*
D16*
X304415312Y-89115000D03*
D17*
X300605312Y-86575000D03*
X306955312Y-84035000D03*
%TD*%
D15*
%TO.C,SW82*%
X228532812Y-146265000D03*
D16*
X223452812Y-146265000D03*
D15*
X218372812Y-146265000D03*
D17*
X219642812Y-143725000D03*
X225992812Y-141185000D03*
%TD*%
D15*
%TO.C,SW55*%
X49304062Y-127215000D03*
X59464062Y-127215000D03*
D16*
X54384062Y-127215000D03*
D17*
X50574062Y-124675000D03*
X56924062Y-122135000D03*
%TD*%
D15*
%TO.C,SW65*%
X257107812Y-127215000D03*
D16*
X252027812Y-127215000D03*
D15*
X246947812Y-127215000D03*
D17*
X248217812Y-124675000D03*
X254567812Y-122135000D03*
%TD*%
D16*
%TO.C,SW21*%
X123440312Y-89115000D03*
D15*
X128520312Y-89115000D03*
X118360312Y-89115000D03*
D17*
X119630312Y-86575000D03*
X125980312Y-84035000D03*
%TD*%
D16*
%TO.C,S1*%
X292509062Y-97370000D03*
X316321562Y-97370000D03*
D18*
X292509062Y-82130000D03*
X316321562Y-82130000D03*
%TD*%
D15*
%TO.C,SW3*%
X109470312Y-65302500D03*
X99310312Y-65302500D03*
D16*
X104390312Y-65302500D03*
D17*
X100580312Y-62762500D03*
X106930312Y-60222500D03*
%TD*%
D15*
%TO.C,SW86*%
X302351562Y-146265000D03*
D16*
X297271562Y-146265000D03*
D15*
X292191562Y-146265000D03*
D17*
X293461562Y-143725000D03*
X299811562Y-141185000D03*
%TD*%
D15*
%TO.C,SW44*%
X214245312Y-108165000D03*
D16*
X209165312Y-108165000D03*
D15*
X204085312Y-108165000D03*
D17*
X205355312Y-105625000D03*
X211705312Y-103085000D03*
%TD*%
D15*
%TO.C,SW80*%
X180272812Y-146265000D03*
X190432812Y-146265000D03*
D16*
X185352812Y-146265000D03*
D17*
X181542812Y-143725000D03*
X187892812Y-141185000D03*
%TD*%
D15*
%TO.C,SW15*%
X361882812Y-65302500D03*
X351722812Y-65302500D03*
D16*
X356802812Y-65302500D03*
D17*
X352992812Y-62762500D03*
X359342812Y-60222500D03*
%TD*%
D15*
%TO.C,SW108*%
X370772812Y-165315000D03*
X380932812Y-165315000D03*
D16*
X375852812Y-165315000D03*
D17*
X372042812Y-162775000D03*
X378392812Y-160235000D03*
%TD*%
D15*
%TO.C,SW58*%
X113597812Y-127215000D03*
D16*
X118677812Y-127215000D03*
D15*
X123757812Y-127215000D03*
D17*
X114867812Y-124675000D03*
X121217812Y-122135000D03*
%TD*%
D15*
%TO.C,SW81*%
X199322812Y-146265000D03*
X209482812Y-146265000D03*
D16*
X204402812Y-146265000D03*
D17*
X200592812Y-143725000D03*
X206942812Y-141185000D03*
%TD*%
D16*
%TO.C,SW46*%
X247265312Y-108165000D03*
D15*
X252345312Y-108165000D03*
X242185312Y-108165000D03*
D17*
X243455312Y-105625000D03*
X249805312Y-103085000D03*
%TD*%
D16*
%TO.C,SW24*%
X180590312Y-89115000D03*
D15*
X185670312Y-89115000D03*
X175510312Y-89115000D03*
D17*
X176780312Y-86575000D03*
X183130312Y-84035000D03*
%TD*%
D15*
%TO.C,SW43*%
X195195312Y-108165000D03*
D16*
X190115312Y-108165000D03*
D15*
X185035312Y-108165000D03*
D17*
X186305312Y-105625000D03*
X192655312Y-103085000D03*
%TD*%
D15*
%TO.C,SW12*%
X289810312Y-65302500D03*
X299970312Y-65302500D03*
D16*
X294890312Y-65302500D03*
D17*
X291080312Y-62762500D03*
X297430312Y-60222500D03*
%TD*%
D16*
%TO.C,SW79*%
X166302812Y-146265000D03*
D15*
X161222812Y-146265000D03*
X171382812Y-146265000D03*
D17*
X162492812Y-143725000D03*
X168842812Y-141185000D03*
%TD*%
D15*
%TO.C,SW85*%
X282666562Y-146265000D03*
D16*
X287746562Y-146265000D03*
D15*
X292826562Y-146265000D03*
D17*
X283936562Y-143725000D03*
X290286562Y-141185000D03*
%TD*%
D15*
%TO.C,SW62*%
X189797812Y-127215000D03*
D16*
X194877812Y-127215000D03*
D15*
X199957812Y-127215000D03*
D17*
X191067812Y-124675000D03*
X197417812Y-122135000D03*
%TD*%
D15*
%TO.C,SW51*%
X332672812Y-108165000D03*
X342832812Y-108165000D03*
D16*
X337752812Y-108165000D03*
D17*
X333942812Y-105625000D03*
X340292812Y-103085000D03*
%TD*%
D15*
%TO.C,SW45*%
X223135312Y-108165000D03*
D16*
X228215312Y-108165000D03*
D15*
X233295312Y-108165000D03*
D17*
X224405312Y-105625000D03*
X230755312Y-103085000D03*
%TD*%
D15*
%TO.C,SW22*%
X137410312Y-89115000D03*
D16*
X142490312Y-89115000D03*
D15*
X147570312Y-89115000D03*
D17*
X138680312Y-86575000D03*
X145030312Y-84035000D03*
%TD*%
D15*
%TO.C,SW105*%
X316639062Y-165315000D03*
X306479062Y-165315000D03*
D16*
X311559062Y-165315000D03*
D17*
X307749062Y-162775000D03*
X314099062Y-160235000D03*
%TD*%
D15*
%TO.C,SW54*%
X54701562Y-127215000D03*
X44541562Y-127215000D03*
D16*
X49621562Y-127215000D03*
D17*
X45811562Y-124675000D03*
X52161562Y-122135000D03*
%TD*%
D15*
%TO.C,SW37*%
X70735312Y-108165000D03*
X80895312Y-108165000D03*
D16*
X75815312Y-108165000D03*
D17*
X72005312Y-105625000D03*
X78355312Y-103085000D03*
%TD*%
D16*
%TO.C,SW20*%
X104390312Y-89115000D03*
D15*
X109470312Y-89115000D03*
X99310312Y-89115000D03*
D17*
X100580312Y-86575000D03*
X106930312Y-84035000D03*
%TD*%
D16*
%TO.C,SW14*%
X337752812Y-65302500D03*
D15*
X342832812Y-65302500D03*
X332672812Y-65302500D03*
D17*
X333942812Y-62762500D03*
X340292812Y-60222500D03*
%TD*%
D15*
%TO.C,SW83*%
X237422812Y-146265000D03*
D16*
X242502812Y-146265000D03*
D15*
X247582812Y-146265000D03*
D17*
X238692812Y-143725000D03*
X245042812Y-141185000D03*
%TD*%
D16*
%TO.C,S6*%
X218662812Y-157060000D03*
D18*
X218662812Y-172300000D03*
D16*
X118650312Y-157060000D03*
D18*
X118650312Y-172300000D03*
%TD*%
D15*
%TO.C,SW7*%
X195195312Y-65302500D03*
X185035312Y-65302500D03*
D16*
X190115312Y-65302500D03*
D17*
X186305312Y-62762500D03*
X192655312Y-60222500D03*
%TD*%
D15*
%TO.C,SW72*%
X54701562Y-146265000D03*
X44541562Y-146265000D03*
D16*
X49621562Y-146265000D03*
D17*
X45811562Y-143725000D03*
X52161562Y-141185000D03*
%TD*%
D15*
%TO.C,SW18*%
X61210312Y-89115000D03*
X71370312Y-89115000D03*
D16*
X66290312Y-89115000D03*
D17*
X62480312Y-86575000D03*
X68830312Y-84035000D03*
%TD*%
D16*
%TO.C,SW5*%
X142490312Y-65302500D03*
D15*
X137410312Y-65302500D03*
X147570312Y-65302500D03*
D17*
X138680312Y-62762500D03*
X145030312Y-60222500D03*
%TD*%
D15*
%TO.C,SW67*%
X285047812Y-127215000D03*
D16*
X290127812Y-127215000D03*
D15*
X295207812Y-127215000D03*
D17*
X286317812Y-124675000D03*
X292667812Y-122135000D03*
%TD*%
D15*
%TO.C,SW49*%
X314257812Y-108165000D03*
D16*
X309177812Y-108165000D03*
D15*
X304097812Y-108165000D03*
D17*
X305367812Y-105625000D03*
X311717812Y-103085000D03*
%TD*%
D16*
%TO.C,SW1*%
X47240312Y-65302500D03*
D15*
X52320312Y-65302500D03*
X42160312Y-65302500D03*
D17*
X43430312Y-62762500D03*
X49780312Y-60222500D03*
%TD*%
D15*
%TO.C,SW63*%
X219007812Y-127215000D03*
D16*
X213927812Y-127215000D03*
D15*
X208847812Y-127215000D03*
D17*
X210117812Y-124675000D03*
X216467812Y-122135000D03*
%TD*%
D16*
%TO.C,SW9*%
X228215312Y-65302500D03*
D15*
X223135312Y-65302500D03*
X233295312Y-65302500D03*
D17*
X224405312Y-62762500D03*
X230755312Y-60222500D03*
%TD*%
D15*
%TO.C,SW69*%
X342832812Y-127215000D03*
X332672812Y-127215000D03*
D16*
X337752812Y-127215000D03*
D17*
X333942812Y-124675000D03*
X340292812Y-122135000D03*
%TD*%
D19*
%TO.C,J1*%
X328736562Y-55202500D03*
X322956562Y-55202500D03*
D20*
X321526562Y-55732500D03*
D21*
X330166562Y-51552500D03*
X321526562Y-51552500D03*
D20*
X330166562Y-55732500D03*
%TD*%
D16*
%TO.C,SW73*%
X59146562Y-146265000D03*
D15*
X64226562Y-146265000D03*
X54066562Y-146265000D03*
D17*
X55336562Y-143725000D03*
X61686562Y-141185000D03*
%TD*%
D16*
%TO.C,SW32*%
X313940312Y-89115000D03*
D15*
X319020312Y-89115000D03*
X308860312Y-89115000D03*
D17*
X310130312Y-86575000D03*
X316480312Y-84035000D03*
%TD*%
D15*
%TO.C,SW97*%
X173764062Y-165315000D03*
D16*
X168684062Y-165315000D03*
D15*
X163604062Y-165315000D03*
D17*
X164874062Y-162775000D03*
X171224062Y-160235000D03*
%TD*%
D15*
%TO.C,SW107*%
X351722812Y-165315000D03*
X361882812Y-165315000D03*
D16*
X356802812Y-165315000D03*
D17*
X352992812Y-162775000D03*
X359342812Y-160235000D03*
%TD*%
D15*
%TO.C,SW66*%
X265997812Y-127215000D03*
D16*
X271077812Y-127215000D03*
D15*
X276157812Y-127215000D03*
D17*
X267267812Y-124675000D03*
X273617812Y-122135000D03*
%TD*%
D16*
%TO.C,SW92*%
X52002812Y-165315000D03*
D15*
X57082812Y-165315000D03*
X46922812Y-165315000D03*
D17*
X48192812Y-162775000D03*
X54542812Y-160235000D03*
%TD*%
D16*
%TO.C,SW56*%
X80577812Y-127215000D03*
D15*
X85657812Y-127215000D03*
X75497812Y-127215000D03*
D17*
X76767812Y-124675000D03*
X83117812Y-122135000D03*
%TD*%
D18*
%TO.C,S3*%
X290127812Y-134200000D03*
X313940312Y-134200000D03*
D16*
X313940312Y-118960000D03*
X290127812Y-118960000D03*
%TD*%
D15*
%TO.C,SW87*%
X308860312Y-146265000D03*
D16*
X313940312Y-146265000D03*
D15*
X319020312Y-146265000D03*
D17*
X310130312Y-143725000D03*
X316480312Y-141185000D03*
%TD*%
D16*
%TO.C,SW38*%
X94865312Y-108165000D03*
D15*
X99945312Y-108165000D03*
X89785312Y-108165000D03*
D17*
X91055312Y-105625000D03*
X97405312Y-103085000D03*
%TD*%
D16*
%TO.C,SW94*%
X75815312Y-165315000D03*
D15*
X70735312Y-165315000D03*
X80895312Y-165315000D03*
D17*
X72005312Y-162775000D03*
X78355312Y-160235000D03*
%TD*%
D15*
%TO.C,SW19*%
X80260312Y-89115000D03*
D16*
X85340312Y-89115000D03*
D15*
X90420312Y-89115000D03*
D17*
X81530312Y-86575000D03*
X87880312Y-84035000D03*
%TD*%
D15*
%TO.C,SW50*%
X316639062Y-117690000D03*
X306479062Y-117690000D03*
D16*
X311559062Y-117690000D03*
D17*
X307749062Y-115150000D03*
X314099062Y-112610000D03*
%TD*%
D16*
%TO.C,SW17*%
X47240312Y-89115000D03*
D15*
X42160312Y-89115000D03*
X52320312Y-89115000D03*
D17*
X43430312Y-86575000D03*
X49780312Y-84035000D03*
%TD*%
D15*
%TO.C,SW95*%
X102326562Y-165315000D03*
D16*
X97246562Y-165315000D03*
D15*
X92166562Y-165315000D03*
D17*
X93436562Y-162775000D03*
X99786562Y-160235000D03*
%TD*%
D16*
%TO.C,SW104*%
X309177812Y-165315000D03*
D15*
X304097812Y-165315000D03*
X314257812Y-165315000D03*
D17*
X305367812Y-162775000D03*
X311717812Y-160235000D03*
%TD*%
D15*
%TO.C,SW98*%
X175510312Y-165315000D03*
X185670312Y-165315000D03*
D16*
X180590312Y-165315000D03*
D17*
X176780312Y-162775000D03*
X183130312Y-160235000D03*
%TD*%
D15*
%TO.C,SW53*%
X380932812Y-108165000D03*
D16*
X375852812Y-108165000D03*
D15*
X370772812Y-108165000D03*
D17*
X372042812Y-105625000D03*
X378392812Y-103085000D03*
%TD*%
D15*
%TO.C,SW26*%
X223770312Y-89115000D03*
D16*
X218690312Y-89115000D03*
D15*
X213610312Y-89115000D03*
D17*
X214880312Y-86575000D03*
X221230312Y-84035000D03*
%TD*%
D15*
%TO.C,SW40*%
X138045312Y-108165000D03*
D16*
X132965312Y-108165000D03*
D15*
X127885312Y-108165000D03*
D17*
X129155312Y-105625000D03*
X135505312Y-103085000D03*
%TD*%
D15*
%TO.C,SW88*%
X332672812Y-146265000D03*
X342832812Y-146265000D03*
D16*
X337752812Y-146265000D03*
D17*
X333942812Y-143725000D03*
X340292812Y-141185000D03*
%TD*%
D22*
%TO.C,LED3*%
X63565312Y-58552500D03*
X63565312Y-60052500D03*
X69015312Y-58552500D03*
D23*
X69015312Y-60052500D03*
%TD*%
D12*
%TO.C,C40*%
X381410312Y-135112500D03*
X380450312Y-135112500D03*
%TD*%
D24*
%TO.C,D114*%
X379925312Y-99182500D03*
X379925312Y-98082500D03*
X381755312Y-98082500D03*
X381755312Y-99182500D03*
%TD*%
D25*
%TO.C,J2*%
X325860312Y-151837094D03*
D26*
X325860312Y-149297094D03*
X325860312Y-146757094D03*
X325860312Y-144217094D03*
X325860312Y-141677094D03*
%TD*%
D27*
%TO.C,Y1*%
X325131102Y-133055317D03*
X326686737Y-131499682D03*
X327888818Y-132701763D03*
X326333183Y-134257398D03*
%TD*%
D28*
%TO.C,D38*%
X117090312Y-110608750D03*
X117090312Y-107308750D03*
%TD*%
D11*
%TO.C,C32*%
X250260312Y-78852500D03*
X251220312Y-78852500D03*
%TD*%
%TO.C,C44*%
X304390312Y-156342500D03*
X305350312Y-156342500D03*
%TD*%
D28*
%TO.C,D14*%
X340927812Y-67746250D03*
X340927812Y-64446250D03*
%TD*%
D12*
%TO.C,C9*%
X323090312Y-131056392D03*
X322130312Y-131056392D03*
%TD*%
D28*
%TO.C,D8*%
X212340312Y-67746250D03*
X212340312Y-64446250D03*
%TD*%
D24*
%TO.C,D121*%
X274672350Y-156340000D03*
X274672350Y-155240000D03*
X276502350Y-155240000D03*
X276502350Y-156340000D03*
%TD*%
D14*
%TO.C,C3*%
X326887504Y-115703892D03*
X326887504Y-114743892D03*
%TD*%
D29*
%TO.C,D101*%
X68670696Y-76658750D03*
X68670696Y-77758750D03*
X66840696Y-77758750D03*
X66840696Y-76658750D03*
%TD*%
D12*
%TO.C,C2*%
X323090312Y-130036392D03*
X322130312Y-130036392D03*
%TD*%
%TO.C,C11*%
X319647504Y-119736392D03*
X318687504Y-119736392D03*
%TD*%
D11*
%TO.C,C34*%
X302410312Y-78842500D03*
X303370312Y-78842500D03*
%TD*%
D28*
%TO.C,D44*%
X231390312Y-110608750D03*
X231390312Y-107308750D03*
%TD*%
%TO.C,D41*%
X174240312Y-110608750D03*
X174240312Y-107308750D03*
%TD*%
%TO.C,D65*%
X344896562Y-129658750D03*
X344896562Y-126358750D03*
%TD*%
%TO.C,D18*%
X69465312Y-91558750D03*
X69465312Y-88258750D03*
%TD*%
D14*
%TO.C,C1*%
X321887504Y-118416392D03*
X321887504Y-117456392D03*
%TD*%
D30*
%TO.C,R3*%
X322578124Y-114260294D03*
X322578124Y-115910294D03*
%TD*%
D28*
%TO.C,D17*%
X50415312Y-91558750D03*
X50415312Y-88258750D03*
%TD*%
D11*
%TO.C,C24*%
X41660312Y-78842500D03*
X42620312Y-78842500D03*
%TD*%
D28*
%TO.C,D43*%
X212340312Y-110608750D03*
X212340312Y-107308750D03*
%TD*%
D12*
%TO.C,C38*%
X380840312Y-96992500D03*
X379880312Y-96992500D03*
%TD*%
D28*
%TO.C,D51*%
X379027812Y-110608750D03*
X379027812Y-107308750D03*
%TD*%
D29*
%TO.C,D132*%
X42599062Y-117140000D03*
X42599062Y-118240000D03*
X40769062Y-118240000D03*
X40769062Y-117140000D03*
%TD*%
D28*
%TO.C,D49*%
X340927812Y-110608750D03*
X340927812Y-107308750D03*
%TD*%
D11*
%TO.C,C45*%
X277570312Y-156342500D03*
X278530312Y-156342500D03*
%TD*%
D28*
%TO.C,D34*%
X379027812Y-91558750D03*
X379027812Y-88258750D03*
%TD*%
D29*
%TO.C,D109*%
X277243768Y-76658750D03*
X277243768Y-77758750D03*
X275413768Y-77758750D03*
X275413768Y-76658750D03*
%TD*%
D11*
%TO.C,C8*%
X330200312Y-124602500D03*
X329240312Y-124602500D03*
%TD*%
D29*
%TO.C,D107*%
X225100500Y-76658750D03*
X225100500Y-77758750D03*
X223270500Y-77758750D03*
X223270500Y-76658750D03*
%TD*%
D11*
%TO.C,C26*%
X93820312Y-78842500D03*
X94780312Y-78842500D03*
%TD*%
D24*
%TO.C,D130*%
X40769062Y-156340000D03*
X40769062Y-155240000D03*
X42599062Y-155240000D03*
X42599062Y-156340000D03*
%TD*%
D31*
%TO.C,LED4*%
X61670954Y-59677500D03*
X60170954Y-59677500D03*
X61670954Y-65127500D03*
D32*
X60170954Y-65127500D03*
%TD*%
D28*
%TO.C,D7*%
X193290312Y-67746250D03*
X193290312Y-64446250D03*
%TD*%
D29*
%TO.C,D108*%
X251172134Y-76658750D03*
X251172134Y-77758750D03*
X249342134Y-77758750D03*
X249342134Y-76658750D03*
%TD*%
D33*
%TO.C,U4*%
X339160620Y-113227500D03*
X339160620Y-114497500D03*
X339160620Y-115767500D03*
X339160620Y-117037500D03*
X331960620Y-117037500D03*
X331960620Y-115767500D03*
X331960620Y-114497500D03*
X331960620Y-113227500D03*
%TD*%
D28*
%TO.C,D3*%
X107565312Y-67746250D03*
X107565312Y-64446250D03*
%TD*%
D29*
%TO.C,D104*%
X146885598Y-76658750D03*
X146885598Y-77758750D03*
X145055598Y-77758750D03*
X145055598Y-76658750D03*
%TD*%
D28*
%TO.C,D48*%
X312352812Y-110608750D03*
X312352812Y-107308750D03*
%TD*%
D24*
%TO.C,D122*%
X247859302Y-156340000D03*
X247859302Y-155240000D03*
X249689302Y-155240000D03*
X249689302Y-156340000D03*
%TD*%
D28*
%TO.C,D70*%
X93277812Y-148708750D03*
X93277812Y-145408750D03*
%TD*%
D12*
%TO.C,C41*%
X381530312Y-157422500D03*
X380570312Y-157422500D03*
%TD*%
D11*
%TO.C,C29*%
X172050312Y-78872500D03*
X173010312Y-78872500D03*
%TD*%
%TO.C,C52*%
X95800312Y-156342500D03*
X96760312Y-156342500D03*
%TD*%
D28*
%TO.C,D52*%
X57559062Y-129658750D03*
X57559062Y-126358750D03*
%TD*%
D24*
%TO.C,D125*%
X167420158Y-156340000D03*
X167420158Y-155240000D03*
X169250158Y-155240000D03*
X169250158Y-156340000D03*
%TD*%
D11*
%TO.C,C55*%
X41680312Y-138372500D03*
X42640312Y-138372500D03*
%TD*%
D28*
%TO.C,D93*%
X340927812Y-167758750D03*
X340927812Y-164458750D03*
%TD*%
D12*
%TO.C,C39*%
X380502187Y-116062500D03*
X379542187Y-116062500D03*
%TD*%
D11*
%TO.C,C33*%
X276330312Y-78852500D03*
X277290312Y-78852500D03*
%TD*%
D28*
%TO.C,D74*%
X169477812Y-148708750D03*
X169477812Y-145408750D03*
%TD*%
%TO.C,D6*%
X174240312Y-67746250D03*
X174240312Y-64446250D03*
%TD*%
%TO.C,D42*%
X193290312Y-110608750D03*
X193290312Y-107308750D03*
%TD*%
D34*
%TO.C,U3*%
X326972812Y-61022500D03*
X326972812Y-61972500D03*
X327047812Y-62922500D03*
X324622812Y-62922500D03*
X324622812Y-61972500D03*
X324622812Y-61022500D03*
%TD*%
D12*
%TO.C,C14*%
X321575312Y-73722500D03*
X320615312Y-73722500D03*
%TD*%
D28*
%TO.C,D71*%
X112327812Y-148708750D03*
X112327812Y-145408750D03*
%TD*%
D35*
%TO.C,R7*%
X323800312Y-58522500D03*
X324820312Y-58522500D03*
%TD*%
D11*
%TO.C,C13*%
X320590312Y-68532500D03*
X321550312Y-68532500D03*
%TD*%
D24*
%TO.C,D124*%
X194233206Y-156340000D03*
X194233206Y-155240000D03*
X196063206Y-155240000D03*
X196063206Y-156340000D03*
%TD*%
D36*
%TO.C,R1*%
X323489670Y-146717094D03*
X323489670Y-145697094D03*
%TD*%
D14*
%TO.C,C5*%
X320839416Y-118419750D03*
X320839416Y-117459750D03*
%TD*%
D28*
%TO.C,D95*%
X379027812Y-167758750D03*
X379027812Y-164458750D03*
%TD*%
%TO.C,D15*%
X359977812Y-67746250D03*
X359977812Y-64446250D03*
%TD*%
%TO.C,D54*%
X102802812Y-129658750D03*
X102802812Y-126358750D03*
%TD*%
%TO.C,D61*%
X236152812Y-129658750D03*
X236152812Y-126358750D03*
%TD*%
D11*
%TO.C,C35*%
X329810312Y-78842500D03*
X330770312Y-78842500D03*
%TD*%
D28*
%TO.C,D91*%
X295684062Y-167758750D03*
X295684062Y-164458750D03*
%TD*%
%TO.C,D81*%
X317115312Y-148708750D03*
X317115312Y-145408750D03*
%TD*%
%TO.C,D46*%
X269490312Y-110608750D03*
X269490312Y-107308750D03*
%TD*%
%TO.C,D40*%
X155190312Y-110608750D03*
X155190312Y-107308750D03*
%TD*%
%TO.C,D57*%
X159952812Y-129658750D03*
X159952812Y-126358750D03*
%TD*%
D18*
%TO.C,S4*%
X47240312Y-139280000D03*
D16*
X47240312Y-154520000D03*
D18*
X71052812Y-139280000D03*
D16*
X71052812Y-154520000D03*
%TD*%
D28*
%TO.C,D28*%
X259965312Y-91558750D03*
X259965312Y-88258750D03*
%TD*%
D11*
%TO.C,C30*%
X198110312Y-78872500D03*
X199070312Y-78872500D03*
%TD*%
D28*
%TO.C,D86*%
X83752812Y-167758750D03*
X83752812Y-164458750D03*
%TD*%
%TO.C,D19*%
X88515312Y-91558750D03*
X88515312Y-88258750D03*
%TD*%
%TO.C,D92*%
X319496562Y-167758750D03*
X319496562Y-164458750D03*
%TD*%
D12*
%TO.C,C6*%
X318440312Y-124782500D03*
X317480312Y-124782500D03*
%TD*%
D28*
%TO.C,D24*%
X183765312Y-91558750D03*
X183765312Y-88258750D03*
%TD*%
%TO.C,D78*%
X245677812Y-148708750D03*
X245677812Y-145408750D03*
%TD*%
D29*
%TO.C,D106*%
X199028866Y-76658750D03*
X199028866Y-77758750D03*
X197198866Y-77758750D03*
X197198866Y-76658750D03*
%TD*%
D11*
%TO.C,C48*%
X197120312Y-156342500D03*
X198080312Y-156342500D03*
%TD*%
D24*
%TO.C,D129*%
X66675312Y-156340000D03*
X66675312Y-155240000D03*
X68505312Y-155240000D03*
X68505312Y-156340000D03*
%TD*%
D28*
%TO.C,D39*%
X136140312Y-110608750D03*
X136140312Y-107308750D03*
%TD*%
D30*
%TO.C,R2*%
X324164374Y-114260294D03*
X324164374Y-115910294D03*
%TD*%
D28*
%TO.C,D25*%
X202815312Y-91558750D03*
X202815312Y-88258750D03*
%TD*%
D24*
%TO.C,D123*%
X221744062Y-156340000D03*
X221744062Y-155240000D03*
X223574062Y-155240000D03*
X223574062Y-156340000D03*
%TD*%
D28*
%TO.C,D5*%
X145665312Y-67746250D03*
X145665312Y-64446250D03*
%TD*%
D24*
%TO.C,D119*%
X327557036Y-156340000D03*
X327557036Y-155240000D03*
X329387036Y-155240000D03*
X329387036Y-156340000D03*
%TD*%
D14*
%TO.C,C7*%
X325837504Y-115703892D03*
X325837504Y-114743892D03*
%TD*%
D28*
%TO.C,D67*%
X368709062Y-129658750D03*
X368709062Y-126358750D03*
%TD*%
D37*
%TO.C,U2*%
X328037812Y-120968892D03*
X328037812Y-121368892D03*
X328037812Y-121768892D03*
X328037812Y-122168892D03*
X328037812Y-122568892D03*
X328037812Y-122968892D03*
X328037812Y-123368892D03*
X328037812Y-123768892D03*
X328037812Y-124168892D03*
X328037812Y-124568892D03*
X328037812Y-124968892D03*
X328037812Y-125368892D03*
X328037812Y-125768892D03*
X328037812Y-126168892D03*
D38*
X327200312Y-127006392D03*
X326800312Y-127006392D03*
X326400312Y-127006392D03*
X326000312Y-127006392D03*
X325600312Y-127006392D03*
X325200312Y-127006392D03*
X324800312Y-127006392D03*
X324400312Y-127006392D03*
X324000312Y-127006392D03*
X323600312Y-127006392D03*
X323200312Y-127006392D03*
X322800312Y-127006392D03*
X322400312Y-127006392D03*
X322000312Y-127006392D03*
D37*
X321162812Y-126168892D03*
X321162812Y-125768892D03*
X321162812Y-125368892D03*
X321162812Y-124968892D03*
X321162812Y-124568892D03*
X321162812Y-124168892D03*
X321162812Y-123768892D03*
X321162812Y-123368892D03*
X321162812Y-122968892D03*
X321162812Y-122568892D03*
X321162812Y-122168892D03*
X321162812Y-121768892D03*
X321162812Y-121368892D03*
X321162812Y-120968892D03*
D38*
X322000312Y-120131392D03*
X322400312Y-120131392D03*
X322800312Y-120131392D03*
X323200312Y-120131392D03*
X323600312Y-120131392D03*
X324000312Y-120131392D03*
X324400312Y-120131392D03*
X324800312Y-120131392D03*
X325200312Y-120131392D03*
X325600312Y-120131392D03*
X326000312Y-120131392D03*
X326400312Y-120131392D03*
X326800312Y-120131392D03*
X327200312Y-120131392D03*
D39*
X324600312Y-123568892D03*
%TD*%
D28*
%TO.C,D84*%
X368709062Y-148646250D03*
X368709062Y-145346250D03*
%TD*%
D24*
%TO.C,D118*%
X353628670Y-156340000D03*
X353628670Y-155240000D03*
X355458670Y-155240000D03*
X355458670Y-156340000D03*
%TD*%
D22*
%TO.C,LED5*%
X58195954Y-67852500D03*
X58195954Y-69352500D03*
X63645954Y-67852500D03*
D23*
X63645954Y-69352500D03*
%TD*%
D40*
%TO.C,R5*%
X352850313Y-113527500D03*
X351830313Y-113527500D03*
%TD*%
D28*
%TO.C,D22*%
X145665312Y-91558750D03*
X145665312Y-88258750D03*
%TD*%
D11*
%TO.C,C31*%
X224210312Y-78842500D03*
X225170312Y-78842500D03*
%TD*%
%TO.C,C47*%
X224640312Y-156342500D03*
X225600312Y-156342500D03*
%TD*%
D28*
%TO.C,D77*%
X226627812Y-148708750D03*
X226627812Y-145408750D03*
%TD*%
D29*
%TO.C,D100*%
X42599062Y-76658750D03*
X42599062Y-77758750D03*
X40769062Y-77758750D03*
X40769062Y-76658750D03*
%TD*%
D24*
%TO.C,D126*%
X140607110Y-156340000D03*
X140607110Y-155240000D03*
X142437110Y-155240000D03*
X142437110Y-156340000D03*
%TD*%
D41*
%TO.C,LED7*%
X70909670Y-71327500D03*
X72409670Y-71327500D03*
X70909670Y-65877500D03*
D42*
X72409670Y-65877500D03*
%TD*%
D11*
%TO.C,C43*%
X330450312Y-156342500D03*
X331410312Y-156342500D03*
%TD*%
D28*
%TO.C,D35*%
X55177812Y-110608750D03*
X55177812Y-107308750D03*
%TD*%
%TO.C,D56*%
X140902812Y-129658750D03*
X140902812Y-126358750D03*
%TD*%
%TO.C,D82*%
X344896562Y-148708750D03*
X344896562Y-145408750D03*
%TD*%
%TO.C,D80*%
X300446562Y-148708750D03*
X300446562Y-145408750D03*
%TD*%
%TO.C,D79*%
X264727812Y-148708750D03*
X264727812Y-145408750D03*
%TD*%
D11*
%TO.C,C4*%
X320590312Y-74872500D03*
X321550312Y-74872500D03*
%TD*%
D43*
%TO.C,C15*%
X327890549Y-134817951D03*
X328569371Y-134139129D03*
%TD*%
D28*
%TO.C,D53*%
X83752812Y-129658750D03*
X83752812Y-126358750D03*
%TD*%
%TO.C,D59*%
X198052812Y-129658750D03*
X198052812Y-126358750D03*
%TD*%
%TO.C,D94*%
X359977812Y-167758750D03*
X359977812Y-164458750D03*
%TD*%
%TO.C,D75*%
X188527812Y-148708750D03*
X188527812Y-145408750D03*
%TD*%
D11*
%TO.C,C54*%
X43670312Y-156342500D03*
X44630312Y-156342500D03*
%TD*%
D28*
%TO.C,D27*%
X240915312Y-91558750D03*
X240915312Y-88258750D03*
%TD*%
%TO.C,D63*%
X274252812Y-129658750D03*
X274252812Y-126358750D03*
%TD*%
%TO.C,D89*%
X243296562Y-167758750D03*
X243296562Y-164458750D03*
%TD*%
D29*
%TO.C,D111*%
X330730312Y-76658750D03*
X330730312Y-77758750D03*
X328900312Y-77758750D03*
X328900312Y-76658750D03*
%TD*%
D12*
%TO.C,C10*%
X319647504Y-120733892D03*
X318687504Y-120733892D03*
%TD*%
D11*
%TO.C,C49*%
X170320312Y-156342500D03*
X171280312Y-156342500D03*
%TD*%
D28*
%TO.C,D36*%
X78990312Y-110608750D03*
X78990312Y-107308750D03*
%TD*%
%TO.C,D88*%
X183765312Y-167758750D03*
X183765312Y-164458750D03*
%TD*%
D44*
%TO.C,C16*%
X324899371Y-135157951D03*
X324220549Y-134479129D03*
%TD*%
D11*
%TO.C,C36*%
X354550312Y-78842500D03*
X355510312Y-78842500D03*
%TD*%
D29*
%TO.C,D103*%
X120813964Y-76658750D03*
X120813964Y-77758750D03*
X118983964Y-77758750D03*
X118983964Y-76658750D03*
%TD*%
D11*
%TO.C,C12*%
X329270312Y-120662500D03*
X330230312Y-120662500D03*
%TD*%
D28*
%TO.C,D50*%
X359977812Y-110608750D03*
X359977812Y-107308750D03*
%TD*%
%TO.C,D73*%
X150427812Y-148708750D03*
X150427812Y-145408750D03*
%TD*%
%TO.C,D33*%
X359977812Y-91558750D03*
X359977812Y-88258750D03*
%TD*%
%TO.C,D66*%
X359977812Y-129658750D03*
X359977812Y-126358750D03*
%TD*%
%TO.C,D85*%
X59940312Y-167758750D03*
X59940312Y-164458750D03*
%TD*%
D31*
%TO.C,LED1*%
X67040312Y-62927500D03*
X65540312Y-62927500D03*
X67040312Y-68377500D03*
D32*
X65540312Y-68377500D03*
%TD*%
D11*
%TO.C,C37*%
X380620312Y-78842500D03*
X381580312Y-78842500D03*
%TD*%
D29*
%TO.C,D102*%
X94742330Y-76658750D03*
X94742330Y-77758750D03*
X92912330Y-77758750D03*
X92912330Y-76658750D03*
%TD*%
D24*
%TO.C,D117*%
X379700312Y-156340000D03*
X379700312Y-155240000D03*
X381530312Y-155240000D03*
X381530312Y-156340000D03*
%TD*%
D28*
%TO.C,D16*%
X379027812Y-67746250D03*
X379027812Y-64446250D03*
%TD*%
%TO.C,D68*%
X62321562Y-148708750D03*
X62321562Y-145408750D03*
%TD*%
D45*
%TO.C,R4*%
X325259336Y-130939164D03*
X325980584Y-130217916D03*
%TD*%
D40*
%TO.C,R6*%
X327890312Y-58522500D03*
X326870312Y-58522500D03*
%TD*%
D11*
%TO.C,C28*%
X145960312Y-78842500D03*
X146920312Y-78842500D03*
%TD*%
D29*
%TO.C,D105*%
X172957232Y-76658750D03*
X172957232Y-77758750D03*
X171127232Y-77758750D03*
X171127232Y-76658750D03*
%TD*%
D28*
%TO.C,D23*%
X164715312Y-91558750D03*
X164715312Y-88258750D03*
%TD*%
D11*
%TO.C,C56*%
X41660312Y-119322500D03*
X42620312Y-119322500D03*
%TD*%
D28*
%TO.C,D20*%
X107565312Y-91558750D03*
X107565312Y-88258750D03*
%TD*%
%TO.C,D58*%
X179002812Y-129658750D03*
X179002812Y-126358750D03*
%TD*%
D11*
%TO.C,C50*%
X143490312Y-156342500D03*
X144450312Y-156342500D03*
%TD*%
D28*
%TO.C,D90*%
X271871562Y-167758750D03*
X271871562Y-164458750D03*
%TD*%
D29*
%TO.C,D113*%
X381530312Y-76658750D03*
X381530312Y-77758750D03*
X379700312Y-77758750D03*
X379700312Y-76658750D03*
%TD*%
D28*
%TO.C,D29*%
X279015312Y-91558750D03*
X279015312Y-88258750D03*
%TD*%
%TO.C,D21*%
X126615312Y-91558750D03*
X126615312Y-88258750D03*
%TD*%
D11*
%TO.C,C57*%
X41650312Y-100272500D03*
X42610312Y-100272500D03*
%TD*%
D28*
%TO.C,D11*%
X279015312Y-67746250D03*
X279015312Y-64446250D03*
%TD*%
D46*
%TO.C,U1*%
X322510312Y-72080000D03*
X320610312Y-72080000D03*
X321560312Y-70205000D03*
%TD*%
D28*
%TO.C,D47*%
X288540312Y-110608750D03*
X288540312Y-107308750D03*
%TD*%
D24*
%TO.C,D116*%
X380490312Y-137302500D03*
X380490312Y-136202500D03*
X382320312Y-136202500D03*
X382320312Y-137302500D03*
%TD*%
D28*
%TO.C,D30*%
X287746562Y-91558750D03*
X287746562Y-88258750D03*
%TD*%
%TO.C,D69*%
X74227812Y-148708750D03*
X74227812Y-145408750D03*
%TD*%
D25*
%TO.C,SW0*%
X358020312Y-113527500D03*
D26*
X355480312Y-113527500D03*
%TD*%
D24*
%TO.C,D120*%
X301485402Y-156340000D03*
X301485402Y-155240000D03*
X303315402Y-155240000D03*
X303315402Y-156340000D03*
%TD*%
D28*
%TO.C,D64*%
X282984062Y-129658750D03*
X282984062Y-126358750D03*
%TD*%
D29*
%TO.C,D131*%
X42599062Y-136190000D03*
X42599062Y-137290000D03*
X40769062Y-137290000D03*
X40769062Y-136190000D03*
%TD*%
D28*
%TO.C,D1*%
X50415312Y-67746250D03*
X50415312Y-64446250D03*
%TD*%
%TO.C,D76*%
X207577812Y-148708750D03*
X207577812Y-145408750D03*
%TD*%
%TO.C,D9*%
X231390312Y-67746250D03*
X231390312Y-64446250D03*
%TD*%
%TO.C,D60*%
X217102812Y-129658750D03*
X217102812Y-126358750D03*
%TD*%
D12*
%TO.C,C51*%
X115620312Y-157422500D03*
X114660312Y-157422500D03*
%TD*%
D28*
%TO.C,D26*%
X221865312Y-91558750D03*
X221865312Y-88258750D03*
%TD*%
D24*
%TO.C,D127*%
X113794062Y-156340000D03*
X113794062Y-155240000D03*
X115624062Y-155240000D03*
X115624062Y-156340000D03*
%TD*%
D47*
%TO.C,F1*%
X321630312Y-62862500D03*
X321630312Y-65662500D03*
%TD*%
D28*
%TO.C,D2*%
X88515312Y-67746250D03*
X88515312Y-64446250D03*
%TD*%
%TO.C,D83*%
X359977812Y-148708750D03*
X359977812Y-145408750D03*
%TD*%
%TO.C,D87*%
X107565312Y-167758750D03*
X107565312Y-164458750D03*
%TD*%
%TO.C,D13*%
X317115312Y-67746250D03*
X317115312Y-64446250D03*
%TD*%
D11*
%TO.C,C42*%
X356510312Y-156342500D03*
X357470312Y-156342500D03*
%TD*%
D28*
%TO.C,D55*%
X121852812Y-129658750D03*
X121852812Y-126358750D03*
%TD*%
%TO.C,D12*%
X298065312Y-67746250D03*
X298065312Y-64446250D03*
%TD*%
%TO.C,D10*%
X259965312Y-67746250D03*
X259965312Y-64446250D03*
%TD*%
%TO.C,D4*%
X126615312Y-67746250D03*
X126615312Y-64446250D03*
%TD*%
%TO.C,D72*%
X131377812Y-148708750D03*
X131377812Y-145408750D03*
%TD*%
%TO.C,D45*%
X250440312Y-110608750D03*
X250440312Y-107308750D03*
%TD*%
D29*
%TO.C,D110*%
X303315402Y-76658750D03*
X303315402Y-77758750D03*
X301485402Y-77758750D03*
X301485402Y-76658750D03*
%TD*%
%TO.C,D133*%
X42599062Y-98090000D03*
X42599062Y-99190000D03*
X40769062Y-99190000D03*
X40769062Y-98090000D03*
%TD*%
D24*
%TO.C,D128*%
X92912330Y-156340000D03*
X92912330Y-155240000D03*
X94742330Y-155240000D03*
X94742330Y-156340000D03*
%TD*%
D12*
%TO.C,C53*%
X68510312Y-157422500D03*
X67550312Y-157422500D03*
%TD*%
D11*
%TO.C,C46*%
X250750312Y-156342500D03*
X251710312Y-156342500D03*
%TD*%
D14*
%TO.C,C17*%
X330210620Y-113232500D03*
X330210620Y-112272500D03*
%TD*%
D24*
%TO.C,D115*%
X379588437Y-118240000D03*
X379588437Y-117140000D03*
X381418437Y-117140000D03*
X381418437Y-118240000D03*
%TD*%
D11*
%TO.C,C27*%
X119920312Y-78872500D03*
X120880312Y-78872500D03*
%TD*%
D28*
%TO.C,D31*%
X317115312Y-91558750D03*
X317115312Y-88258750D03*
%TD*%
%TO.C,D62*%
X255202812Y-129658750D03*
X255202812Y-126358750D03*
%TD*%
%TO.C,D37*%
X98040312Y-110608750D03*
X98040312Y-107308750D03*
%TD*%
D29*
%TO.C,D112*%
X355458670Y-76658750D03*
X355458670Y-77758750D03*
X353628670Y-77758750D03*
X353628670Y-76658750D03*
%TD*%
D48*
%TO.C,LED2*%
X74384670Y-63152500D03*
X74384670Y-61652500D03*
X68934670Y-63152500D03*
D49*
X68934670Y-61652500D03*
%TD*%
D11*
%TO.C,C25*%
X67770312Y-78912500D03*
X68730312Y-78912500D03*
%TD*%
D28*
%TO.C,D32*%
X340927812Y-91558750D03*
X340927812Y-88258750D03*
%TD*%
D48*
%TO.C,LED6*%
X69015312Y-72452500D03*
X69015312Y-70952500D03*
X63565312Y-72452500D03*
D49*
X63565312Y-70952500D03*
%TD*%
M02*
