%TF.GenerationSoftware,KiCad,Pcbnew,(6.0.1)*%
%TF.CreationDate,2022-06-13T22:26:40+10:00*%
%TF.ProjectId,fuyu,66757975-2e6b-4696-9361-645f70636258,rev?*%
%TF.SameCoordinates,Original*%
%TF.FileFunction,Legend,Top*%
%TF.FilePolarity,Positive*%
%FSLAX46Y46*%
G04 Gerber Fmt 4.6, Leading zero omitted, Abs format (unit mm)*
G04 Created by KiCad (PCBNEW (6.0.1)) date 2022-06-13 22:26:40*
%MOMM*%
%LPD*%
G01*
G04 APERTURE LIST*
%ADD10C,0.150000*%
%ADD11C,0.240000*%
%ADD12C,0.100000*%
%ADD13C,0.120000*%
G04 APERTURE END LIST*
D10*
X355393169Y-111281071D02*
X355536026Y-111328690D01*
X355583645Y-111376309D01*
X355631264Y-111471547D01*
X355631264Y-111614404D01*
X355583645Y-111709642D01*
X355536026Y-111757261D01*
X355440788Y-111804880D01*
X355059835Y-111804880D01*
X355059835Y-110804880D01*
X355393169Y-110804880D01*
X355488407Y-110852500D01*
X355536026Y-110900119D01*
X355583645Y-110995357D01*
X355583645Y-111090595D01*
X355536026Y-111185833D01*
X355488407Y-111233452D01*
X355393169Y-111281071D01*
X355059835Y-111281071D01*
X356250312Y-110804880D02*
X356440788Y-110804880D01*
X356536026Y-110852500D01*
X356631264Y-110947738D01*
X356678883Y-111138214D01*
X356678883Y-111471547D01*
X356631264Y-111662023D01*
X356536026Y-111757261D01*
X356440788Y-111804880D01*
X356250312Y-111804880D01*
X356155073Y-111757261D01*
X356059835Y-111662023D01*
X356012216Y-111471547D01*
X356012216Y-111138214D01*
X356059835Y-110947738D01*
X356155073Y-110852500D01*
X356250312Y-110804880D01*
X357297931Y-110804880D02*
X357488407Y-110804880D01*
X357583645Y-110852500D01*
X357678883Y-110947738D01*
X357726502Y-111138214D01*
X357726502Y-111471547D01*
X357678883Y-111662023D01*
X357583645Y-111757261D01*
X357488407Y-111804880D01*
X357297931Y-111804880D01*
X357202692Y-111757261D01*
X357107454Y-111662023D01*
X357059835Y-111471547D01*
X357059835Y-111138214D01*
X357107454Y-110947738D01*
X357202692Y-110852500D01*
X357297931Y-110804880D01*
X358012216Y-110804880D02*
X358583645Y-110804880D01*
X358297931Y-111804880D02*
X358297931Y-110804880D01*
D11*
X202390312Y-161670142D02*
X201956978Y-161670142D01*
X201956978Y-162351095D02*
X201956978Y-161051095D01*
X202576026Y-161051095D01*
X203071264Y-161051095D02*
X203071264Y-162103476D01*
X203133169Y-162227285D01*
X203195073Y-162289190D01*
X203318883Y-162351095D01*
X203566502Y-162351095D01*
X203690312Y-162289190D01*
X203752216Y-162227285D01*
X203814121Y-162103476D01*
X203814121Y-161051095D01*
X204680788Y-161732047D02*
X204680788Y-162351095D01*
X204247454Y-161051095D02*
X204680788Y-161732047D01*
X205114121Y-161051095D01*
X205547454Y-161051095D02*
X205547454Y-162103476D01*
X205609359Y-162227285D01*
X205671264Y-162289190D01*
X205795073Y-162351095D01*
X206042692Y-162351095D01*
X206166502Y-162289190D01*
X206228407Y-162227285D01*
X206290312Y-162103476D01*
X206290312Y-161051095D01*
X208642692Y-162351095D02*
X208209359Y-161732047D01*
X207899835Y-162351095D02*
X207899835Y-161051095D01*
X208395073Y-161051095D01*
X208518883Y-161113000D01*
X208580788Y-161174904D01*
X208642692Y-161298714D01*
X208642692Y-161484428D01*
X208580788Y-161608238D01*
X208518883Y-161670142D01*
X208395073Y-161732047D01*
X207899835Y-161732047D01*
X209695073Y-162289190D02*
X209571264Y-162351095D01*
X209323645Y-162351095D01*
X209199835Y-162289190D01*
X209137931Y-162165380D01*
X209137931Y-161670142D01*
X209199835Y-161546333D01*
X209323645Y-161484428D01*
X209571264Y-161484428D01*
X209695073Y-161546333D01*
X209756978Y-161670142D01*
X209756978Y-161793952D01*
X209137931Y-161917761D01*
X210190312Y-161484428D02*
X210499835Y-162351095D01*
X210809359Y-161484428D01*
X211985550Y-162351095D02*
X211242692Y-162351095D01*
X211614121Y-162351095D02*
X211614121Y-161051095D01*
X211490312Y-161236809D01*
X211366502Y-161360619D01*
X211242692Y-161422523D01*
X195271264Y-164444095D02*
X195271264Y-163144095D01*
X195580788Y-163144095D01*
X195766502Y-163206000D01*
X195890312Y-163329809D01*
X195952216Y-163453619D01*
X196014121Y-163701238D01*
X196014121Y-163886952D01*
X195952216Y-164134571D01*
X195890312Y-164258380D01*
X195766502Y-164382190D01*
X195580788Y-164444095D01*
X195271264Y-164444095D01*
X197066502Y-164382190D02*
X196942692Y-164444095D01*
X196695073Y-164444095D01*
X196571264Y-164382190D01*
X196509359Y-164258380D01*
X196509359Y-163763142D01*
X196571264Y-163639333D01*
X196695073Y-163577428D01*
X196942692Y-163577428D01*
X197066502Y-163639333D01*
X197128407Y-163763142D01*
X197128407Y-163886952D01*
X196509359Y-164010761D01*
X197623645Y-164382190D02*
X197747454Y-164444095D01*
X197995073Y-164444095D01*
X198118883Y-164382190D01*
X198180788Y-164258380D01*
X198180788Y-164196476D01*
X198118883Y-164072666D01*
X197995073Y-164010761D01*
X197809359Y-164010761D01*
X197685550Y-163948857D01*
X197623645Y-163825047D01*
X197623645Y-163763142D01*
X197685550Y-163639333D01*
X197809359Y-163577428D01*
X197995073Y-163577428D01*
X198118883Y-163639333D01*
X198737931Y-164444095D02*
X198737931Y-163577428D01*
X198737931Y-163144095D02*
X198676026Y-163206000D01*
X198737931Y-163267904D01*
X198799835Y-163206000D01*
X198737931Y-163144095D01*
X198737931Y-163267904D01*
X199914121Y-163577428D02*
X199914121Y-164629809D01*
X199852216Y-164753619D01*
X199790312Y-164815523D01*
X199666502Y-164877428D01*
X199480788Y-164877428D01*
X199356978Y-164815523D01*
X199914121Y-164382190D02*
X199790312Y-164444095D01*
X199542692Y-164444095D01*
X199418883Y-164382190D01*
X199356978Y-164320285D01*
X199295073Y-164196476D01*
X199295073Y-163825047D01*
X199356978Y-163701238D01*
X199418883Y-163639333D01*
X199542692Y-163577428D01*
X199790312Y-163577428D01*
X199914121Y-163639333D01*
X200533169Y-163577428D02*
X200533169Y-164444095D01*
X200533169Y-163701238D02*
X200595073Y-163639333D01*
X200718883Y-163577428D01*
X200904597Y-163577428D01*
X201028407Y-163639333D01*
X201090312Y-163763142D01*
X201090312Y-164444095D01*
X202204597Y-164382190D02*
X202080788Y-164444095D01*
X201833169Y-164444095D01*
X201709359Y-164382190D01*
X201647454Y-164258380D01*
X201647454Y-163763142D01*
X201709359Y-163639333D01*
X201833169Y-163577428D01*
X202080788Y-163577428D01*
X202204597Y-163639333D01*
X202266502Y-163763142D01*
X202266502Y-163886952D01*
X201647454Y-164010761D01*
X203380788Y-164444095D02*
X203380788Y-163144095D01*
X203380788Y-164382190D02*
X203256978Y-164444095D01*
X203009359Y-164444095D01*
X202885550Y-164382190D01*
X202823645Y-164320285D01*
X202761740Y-164196476D01*
X202761740Y-163825047D01*
X202823645Y-163701238D01*
X202885550Y-163639333D01*
X203009359Y-163577428D01*
X203256978Y-163577428D01*
X203380788Y-163639333D01*
X204804597Y-163577428D02*
X205299835Y-163577428D01*
X204990312Y-164444095D02*
X204990312Y-163329809D01*
X205052216Y-163206000D01*
X205176026Y-163144095D01*
X205299835Y-163144095D01*
X205918883Y-164444095D02*
X205795073Y-164382190D01*
X205733169Y-164320285D01*
X205671264Y-164196476D01*
X205671264Y-163825047D01*
X205733169Y-163701238D01*
X205795073Y-163639333D01*
X205918883Y-163577428D01*
X206104597Y-163577428D01*
X206228407Y-163639333D01*
X206290312Y-163701238D01*
X206352216Y-163825047D01*
X206352216Y-164196476D01*
X206290312Y-164320285D01*
X206228407Y-164382190D01*
X206104597Y-164444095D01*
X205918883Y-164444095D01*
X206909359Y-164444095D02*
X206909359Y-163577428D01*
X206909359Y-163825047D02*
X206971264Y-163701238D01*
X207033169Y-163639333D01*
X207156978Y-163577428D01*
X207280788Y-163577428D01*
X208518883Y-163577428D02*
X209014121Y-163577428D01*
X208704597Y-163144095D02*
X208704597Y-164258380D01*
X208766502Y-164382190D01*
X208890312Y-164444095D01*
X209014121Y-164444095D01*
X209447454Y-164444095D02*
X209447454Y-163144095D01*
X210004597Y-164444095D02*
X210004597Y-163763142D01*
X209942692Y-163639333D01*
X209818883Y-163577428D01*
X209633169Y-163577428D01*
X209509359Y-163639333D01*
X209447454Y-163701238D01*
X211118883Y-164382190D02*
X210995073Y-164444095D01*
X210747454Y-164444095D01*
X210623645Y-164382190D01*
X210561740Y-164258380D01*
X210561740Y-163763142D01*
X210623645Y-163639333D01*
X210747454Y-163577428D01*
X210995073Y-163577428D01*
X211118883Y-163639333D01*
X211180788Y-163763142D01*
X211180788Y-163886952D01*
X210561740Y-164010761D01*
X213161740Y-163763142D02*
X212728407Y-163763142D01*
X212728407Y-164444095D02*
X212728407Y-163144095D01*
X213347454Y-163144095D01*
X214523645Y-164444095D02*
X213780788Y-164444095D01*
X214152216Y-164444095D02*
X214152216Y-163144095D01*
X214028407Y-163329809D01*
X213904597Y-163453619D01*
X213780788Y-163515523D01*
X215080788Y-163948857D02*
X216071264Y-163948857D01*
X216876026Y-163701238D02*
X216752216Y-163639333D01*
X216690312Y-163577428D01*
X216628407Y-163453619D01*
X216628407Y-163391714D01*
X216690312Y-163267904D01*
X216752216Y-163206000D01*
X216876026Y-163144095D01*
X217123645Y-163144095D01*
X217247454Y-163206000D01*
X217309359Y-163267904D01*
X217371264Y-163391714D01*
X217371264Y-163453619D01*
X217309359Y-163577428D01*
X217247454Y-163639333D01*
X217123645Y-163701238D01*
X216876026Y-163701238D01*
X216752216Y-163763142D01*
X216690312Y-163825047D01*
X216628407Y-163948857D01*
X216628407Y-164196476D01*
X216690312Y-164320285D01*
X216752216Y-164382190D01*
X216876026Y-164444095D01*
X217123645Y-164444095D01*
X217247454Y-164382190D01*
X217309359Y-164320285D01*
X217371264Y-164196476D01*
X217371264Y-163948857D01*
X217309359Y-163825047D01*
X217247454Y-163763142D01*
X217123645Y-163701238D01*
X217928407Y-164444095D02*
X217928407Y-163144095D01*
X218671264Y-164444095D02*
X218114121Y-163701238D01*
X218671264Y-163144095D02*
X217928407Y-163886952D01*
X191247454Y-166537095D02*
X191247454Y-165237095D01*
X191804597Y-166537095D02*
X191804597Y-165856142D01*
X191742692Y-165732333D01*
X191618883Y-165670428D01*
X191433169Y-165670428D01*
X191309359Y-165732333D01*
X191247454Y-165794238D01*
X192237931Y-165670428D02*
X192733169Y-165670428D01*
X192423645Y-165237095D02*
X192423645Y-166351380D01*
X192485550Y-166475190D01*
X192609359Y-166537095D01*
X192733169Y-166537095D01*
X192980788Y-165670428D02*
X193476026Y-165670428D01*
X193166502Y-165237095D02*
X193166502Y-166351380D01*
X193228407Y-166475190D01*
X193352216Y-166537095D01*
X193476026Y-166537095D01*
X193909359Y-165670428D02*
X193909359Y-166970428D01*
X193909359Y-165732333D02*
X194033169Y-165670428D01*
X194280788Y-165670428D01*
X194404597Y-165732333D01*
X194466502Y-165794238D01*
X194528407Y-165918047D01*
X194528407Y-166289476D01*
X194466502Y-166413285D01*
X194404597Y-166475190D01*
X194280788Y-166537095D01*
X194033169Y-166537095D01*
X193909359Y-166475190D01*
X195023645Y-166475190D02*
X195147454Y-166537095D01*
X195395073Y-166537095D01*
X195518883Y-166475190D01*
X195580788Y-166351380D01*
X195580788Y-166289476D01*
X195518883Y-166165666D01*
X195395073Y-166103761D01*
X195209359Y-166103761D01*
X195085550Y-166041857D01*
X195023645Y-165918047D01*
X195023645Y-165856142D01*
X195085550Y-165732333D01*
X195209359Y-165670428D01*
X195395073Y-165670428D01*
X195518883Y-165732333D01*
X196137931Y-166413285D02*
X196199835Y-166475190D01*
X196137931Y-166537095D01*
X196076026Y-166475190D01*
X196137931Y-166413285D01*
X196137931Y-166537095D01*
X196137931Y-165732333D02*
X196199835Y-165794238D01*
X196137931Y-165856142D01*
X196076026Y-165794238D01*
X196137931Y-165732333D01*
X196137931Y-165856142D01*
X197685550Y-165175190D02*
X196571264Y-166846619D01*
X199047454Y-165175190D02*
X197933169Y-166846619D01*
X200037931Y-165670428D02*
X200037931Y-166722809D01*
X199976026Y-166846619D01*
X199914121Y-166908523D01*
X199790312Y-166970428D01*
X199604597Y-166970428D01*
X199480788Y-166908523D01*
X200037931Y-166475190D02*
X199914121Y-166537095D01*
X199666502Y-166537095D01*
X199542692Y-166475190D01*
X199480788Y-166413285D01*
X199418883Y-166289476D01*
X199418883Y-165918047D01*
X199480788Y-165794238D01*
X199542692Y-165732333D01*
X199666502Y-165670428D01*
X199914121Y-165670428D01*
X200037931Y-165732333D01*
X200656978Y-166537095D02*
X200656978Y-165670428D01*
X200656978Y-165237095D02*
X200595073Y-165299000D01*
X200656978Y-165360904D01*
X200718883Y-165299000D01*
X200656978Y-165237095D01*
X200656978Y-165360904D01*
X201090312Y-165670428D02*
X201585550Y-165670428D01*
X201276026Y-165237095D02*
X201276026Y-166351380D01*
X201337931Y-166475190D01*
X201461740Y-166537095D01*
X201585550Y-166537095D01*
X202018883Y-166537095D02*
X202018883Y-165237095D01*
X202576026Y-166537095D02*
X202576026Y-165856142D01*
X202514121Y-165732333D01*
X202390312Y-165670428D01*
X202204597Y-165670428D01*
X202080788Y-165732333D01*
X202018883Y-165794238D01*
X203752216Y-165670428D02*
X203752216Y-166537095D01*
X203195073Y-165670428D02*
X203195073Y-166351380D01*
X203256978Y-166475190D01*
X203380788Y-166537095D01*
X203566502Y-166537095D01*
X203690312Y-166475190D01*
X203752216Y-166413285D01*
X204371264Y-166537095D02*
X204371264Y-165237095D01*
X204371264Y-165732333D02*
X204495073Y-165670428D01*
X204742692Y-165670428D01*
X204866502Y-165732333D01*
X204928407Y-165794238D01*
X204990312Y-165918047D01*
X204990312Y-166289476D01*
X204928407Y-166413285D01*
X204866502Y-166475190D01*
X204742692Y-166537095D01*
X204495073Y-166537095D01*
X204371264Y-166475190D01*
X205547454Y-166413285D02*
X205609359Y-166475190D01*
X205547454Y-166537095D01*
X205485550Y-166475190D01*
X205547454Y-166413285D01*
X205547454Y-166537095D01*
X206723645Y-166475190D02*
X206599835Y-166537095D01*
X206352216Y-166537095D01*
X206228407Y-166475190D01*
X206166502Y-166413285D01*
X206104597Y-166289476D01*
X206104597Y-165918047D01*
X206166502Y-165794238D01*
X206228407Y-165732333D01*
X206352216Y-165670428D01*
X206599835Y-165670428D01*
X206723645Y-165732333D01*
X207466502Y-166537095D02*
X207342692Y-166475190D01*
X207280788Y-166413285D01*
X207218883Y-166289476D01*
X207218883Y-165918047D01*
X207280788Y-165794238D01*
X207342692Y-165732333D01*
X207466502Y-165670428D01*
X207652216Y-165670428D01*
X207776026Y-165732333D01*
X207837931Y-165794238D01*
X207899835Y-165918047D01*
X207899835Y-166289476D01*
X207837931Y-166413285D01*
X207776026Y-166475190D01*
X207652216Y-166537095D01*
X207466502Y-166537095D01*
X208456978Y-166537095D02*
X208456978Y-165670428D01*
X208456978Y-165794238D02*
X208518883Y-165732333D01*
X208642692Y-165670428D01*
X208828407Y-165670428D01*
X208952216Y-165732333D01*
X209014121Y-165856142D01*
X209014121Y-166537095D01*
X209014121Y-165856142D02*
X209076026Y-165732333D01*
X209199835Y-165670428D01*
X209385550Y-165670428D01*
X209509359Y-165732333D01*
X209571264Y-165856142D01*
X209571264Y-166537095D01*
X211118883Y-165175190D02*
X210004597Y-166846619D01*
X211428407Y-165670428D02*
X212109359Y-165670428D01*
X211428407Y-166537095D01*
X212109359Y-166537095D01*
X212480788Y-165670428D02*
X212790312Y-166537095D01*
X213099835Y-165670428D02*
X212790312Y-166537095D01*
X212666502Y-166846619D01*
X212604597Y-166908523D01*
X212480788Y-166970428D01*
X213595073Y-166537095D02*
X213595073Y-165237095D01*
X213718883Y-166041857D02*
X214090312Y-166537095D01*
X214090312Y-165670428D02*
X213595073Y-166165666D01*
X214647454Y-166537095D02*
X214647454Y-165670428D01*
X214647454Y-165918047D02*
X214709359Y-165794238D01*
X214771264Y-165732333D01*
X214895073Y-165670428D01*
X215018883Y-165670428D01*
X216009359Y-166537095D02*
X216009359Y-165856142D01*
X215947454Y-165732333D01*
X215823645Y-165670428D01*
X215576026Y-165670428D01*
X215452216Y-165732333D01*
X216009359Y-166475190D02*
X215885550Y-166537095D01*
X215576026Y-166537095D01*
X215452216Y-166475190D01*
X215390312Y-166351380D01*
X215390312Y-166227571D01*
X215452216Y-166103761D01*
X215576026Y-166041857D01*
X215885550Y-166041857D01*
X216009359Y-165979952D01*
X216628407Y-166537095D02*
X216628407Y-165237095D01*
X217185550Y-166537095D02*
X217185550Y-165856142D01*
X217123645Y-165732333D01*
X216999835Y-165670428D01*
X216814121Y-165670428D01*
X216690312Y-165732333D01*
X216628407Y-165794238D01*
X218733169Y-165175190D02*
X217618883Y-166846619D01*
X218980788Y-165670428D02*
X219476026Y-165670428D01*
X219166502Y-166537095D02*
X219166502Y-165422809D01*
X219228407Y-165299000D01*
X219352216Y-165237095D01*
X219476026Y-165237095D01*
X220466502Y-165670428D02*
X220466502Y-166537095D01*
X219909359Y-165670428D02*
X219909359Y-166351380D01*
X219971264Y-166475190D01*
X220095073Y-166537095D01*
X220280788Y-166537095D01*
X220404597Y-166475190D01*
X220466502Y-166413285D01*
X220961740Y-165670428D02*
X221271264Y-166537095D01*
X221580788Y-165670428D02*
X221271264Y-166537095D01*
X221147454Y-166846619D01*
X221085550Y-166908523D01*
X220961740Y-166970428D01*
X222633169Y-165670428D02*
X222633169Y-166537095D01*
X222076026Y-165670428D02*
X222076026Y-166351380D01*
X222137931Y-166475190D01*
X222261740Y-166537095D01*
X222447454Y-166537095D01*
X222571264Y-166475190D01*
X222633169Y-166413285D01*
X200502216Y-167639619D02*
X200378407Y-167577714D01*
X200130788Y-167577714D01*
X200006978Y-167639619D01*
X199883169Y-167763428D01*
X199821264Y-167887238D01*
X199821264Y-168134857D01*
X199883169Y-168258666D01*
X200006978Y-168382476D01*
X200130788Y-168444380D01*
X200378407Y-168444380D01*
X200502216Y-168382476D01*
X200254597Y-167144380D02*
X199945073Y-167206285D01*
X199635550Y-167392000D01*
X199449835Y-167701523D01*
X199387931Y-168011047D01*
X199449835Y-168320571D01*
X199635550Y-168630095D01*
X199945073Y-168815809D01*
X200254597Y-168877714D01*
X200564121Y-168815809D01*
X200873645Y-168630095D01*
X201059359Y-168320571D01*
X201121264Y-168011047D01*
X201059359Y-167701523D01*
X200873645Y-167392000D01*
X200564121Y-167206285D01*
X200254597Y-167144380D01*
X202545073Y-167330095D02*
X203411740Y-167330095D01*
X202545073Y-168630095D01*
X203411740Y-168630095D01*
X203783169Y-167763428D02*
X204092692Y-168630095D01*
X204402216Y-167763428D02*
X204092692Y-168630095D01*
X203968883Y-168939619D01*
X203906978Y-169001523D01*
X203783169Y-169063428D01*
X204897454Y-168630095D02*
X204897454Y-167330095D01*
X205021264Y-168134857D02*
X205392692Y-168630095D01*
X205392692Y-167763428D02*
X204897454Y-168258666D01*
X205949835Y-168630095D02*
X205949835Y-167763428D01*
X205949835Y-168011047D02*
X206011740Y-167887238D01*
X206073645Y-167825333D01*
X206197454Y-167763428D01*
X206321264Y-167763428D01*
X207311740Y-168630095D02*
X207311740Y-167949142D01*
X207249835Y-167825333D01*
X207126026Y-167763428D01*
X206878407Y-167763428D01*
X206754597Y-167825333D01*
X207311740Y-168568190D02*
X207187931Y-168630095D01*
X206878407Y-168630095D01*
X206754597Y-168568190D01*
X206692692Y-168444380D01*
X206692692Y-168320571D01*
X206754597Y-168196761D01*
X206878407Y-168134857D01*
X207187931Y-168134857D01*
X207311740Y-168072952D01*
X207930788Y-168630095D02*
X207930788Y-167330095D01*
X208487931Y-168630095D02*
X208487931Y-167949142D01*
X208426026Y-167825333D01*
X208302216Y-167763428D01*
X208116502Y-167763428D01*
X207992692Y-167825333D01*
X207930788Y-167887238D01*
X210035550Y-167453904D02*
X210097454Y-167392000D01*
X210221264Y-167330095D01*
X210530788Y-167330095D01*
X210654597Y-167392000D01*
X210716502Y-167453904D01*
X210778407Y-167577714D01*
X210778407Y-167701523D01*
X210716502Y-167887238D01*
X209973645Y-168630095D01*
X210778407Y-168630095D01*
X211583169Y-167330095D02*
X211706978Y-167330095D01*
X211830788Y-167392000D01*
X211892692Y-167453904D01*
X211954597Y-167577714D01*
X212016502Y-167825333D01*
X212016502Y-168134857D01*
X211954597Y-168382476D01*
X211892692Y-168506285D01*
X211830788Y-168568190D01*
X211706978Y-168630095D01*
X211583169Y-168630095D01*
X211459359Y-168568190D01*
X211397454Y-168506285D01*
X211335550Y-168382476D01*
X211273645Y-168134857D01*
X211273645Y-167825333D01*
X211335550Y-167577714D01*
X211397454Y-167453904D01*
X211459359Y-167392000D01*
X211583169Y-167330095D01*
X212511740Y-167453904D02*
X212573645Y-167392000D01*
X212697454Y-167330095D01*
X213006978Y-167330095D01*
X213130788Y-167392000D01*
X213192692Y-167453904D01*
X213254597Y-167577714D01*
X213254597Y-167701523D01*
X213192692Y-167887238D01*
X212449835Y-168630095D01*
X213254597Y-168630095D01*
X213749835Y-167453904D02*
X213811740Y-167392000D01*
X213935550Y-167330095D01*
X214245073Y-167330095D01*
X214368883Y-167392000D01*
X214430788Y-167453904D01*
X214492692Y-167577714D01*
X214492692Y-167701523D01*
X214430788Y-167887238D01*
X213687931Y-168630095D01*
X214492692Y-168630095D01*
D12*
X322596978Y-52459166D02*
X322596978Y-52959166D01*
X322563645Y-53059166D01*
X322496978Y-53125833D01*
X322396978Y-53159166D01*
X322330312Y-53159166D01*
X323263645Y-53159166D02*
X322930312Y-53159166D01*
X322930312Y-52459166D01*
X323896978Y-53092500D02*
X323863645Y-53125833D01*
X323763645Y-53159166D01*
X323696978Y-53159166D01*
X323596978Y-53125833D01*
X323530312Y-53059166D01*
X323496978Y-52992500D01*
X323463645Y-52859166D01*
X323463645Y-52759166D01*
X323496978Y-52625833D01*
X323530312Y-52559166D01*
X323596978Y-52492500D01*
X323696978Y-52459166D01*
X323763645Y-52459166D01*
X323863645Y-52492500D01*
X323896978Y-52525833D01*
X324396978Y-52459166D02*
X324396978Y-52959166D01*
X324363645Y-53059166D01*
X324296978Y-53125833D01*
X324196978Y-53159166D01*
X324130312Y-53159166D01*
X325063645Y-53159166D02*
X324730312Y-53159166D01*
X324730312Y-52459166D01*
X325696978Y-53092500D02*
X325663645Y-53125833D01*
X325563645Y-53159166D01*
X325496978Y-53159166D01*
X325396978Y-53125833D01*
X325330312Y-53059166D01*
X325296978Y-52992500D01*
X325263645Y-52859166D01*
X325263645Y-52759166D01*
X325296978Y-52625833D01*
X325330312Y-52559166D01*
X325396978Y-52492500D01*
X325496978Y-52459166D01*
X325563645Y-52459166D01*
X325663645Y-52492500D01*
X325696978Y-52525833D01*
X326196978Y-52459166D02*
X326196978Y-52959166D01*
X326163645Y-53059166D01*
X326096978Y-53125833D01*
X325996978Y-53159166D01*
X325930312Y-53159166D01*
X326863645Y-53159166D02*
X326530312Y-53159166D01*
X326530312Y-52459166D01*
X327496978Y-53092500D02*
X327463645Y-53125833D01*
X327363645Y-53159166D01*
X327296978Y-53159166D01*
X327196978Y-53125833D01*
X327130312Y-53059166D01*
X327096978Y-52992500D01*
X327063645Y-52859166D01*
X327063645Y-52759166D01*
X327096978Y-52625833D01*
X327130312Y-52559166D01*
X327196978Y-52492500D01*
X327296978Y-52459166D01*
X327363645Y-52459166D01*
X327463645Y-52492500D01*
X327496978Y-52525833D01*
X327996978Y-52459166D02*
X327996978Y-52959166D01*
X327963645Y-53059166D01*
X327896978Y-53125833D01*
X327796978Y-53159166D01*
X327730312Y-53159166D01*
X328663645Y-53159166D02*
X328330312Y-53159166D01*
X328330312Y-52459166D01*
X329296978Y-53092500D02*
X329263645Y-53125833D01*
X329163645Y-53159166D01*
X329096978Y-53159166D01*
X328996978Y-53125833D01*
X328930312Y-53059166D01*
X328896978Y-52992500D01*
X328863645Y-52859166D01*
X328863645Y-52759166D01*
X328896978Y-52625833D01*
X328930312Y-52559166D01*
X328996978Y-52492500D01*
X329096978Y-52459166D01*
X329163645Y-52459166D01*
X329263645Y-52492500D01*
X329296978Y-52525833D01*
D10*
%TO.C,J1*%
X325513228Y-57699880D02*
X325513228Y-58414166D01*
X325465609Y-58557023D01*
X325370371Y-58652261D01*
X325227514Y-58699880D01*
X325132276Y-58699880D01*
X326513228Y-58699880D02*
X325941800Y-58699880D01*
X326227514Y-58699880D02*
X326227514Y-57699880D01*
X326132276Y-57842738D01*
X326037038Y-57937976D01*
X325941800Y-57985595D01*
%TO.C,G\u002A\u002A\u002A*%
G36*
X135877611Y-166829023D02*
G01*
X136271793Y-166866718D01*
X136706170Y-166926467D01*
X137170371Y-167005777D01*
X137654024Y-167102158D01*
X138146758Y-167213117D01*
X138638202Y-167336164D01*
X139117983Y-167468806D01*
X139575730Y-167608553D01*
X140001072Y-167752913D01*
X140383637Y-167899394D01*
X140713054Y-168045505D01*
X140770252Y-168073760D01*
X141093090Y-168268299D01*
X141360888Y-168497921D01*
X141572240Y-168760463D01*
X141725742Y-169053768D01*
X141819991Y-169375674D01*
X141853582Y-169724022D01*
X141853645Y-169740283D01*
X141838689Y-169935460D01*
X141791431Y-170089727D01*
X141786749Y-170099640D01*
X141679335Y-170264604D01*
X141522315Y-170430069D01*
X141331132Y-170581942D01*
X141123059Y-170705229D01*
X140995257Y-170765687D01*
X140892817Y-170803584D01*
X140790599Y-170824843D01*
X140663460Y-170835383D01*
X140553645Y-170839347D01*
X140370650Y-170840035D01*
X140223998Y-170827765D01*
X140084025Y-170798962D01*
X139986978Y-170771045D01*
X139832589Y-170718423D01*
X139678778Y-170654536D01*
X139512999Y-170573061D01*
X139322708Y-170467672D01*
X139095361Y-170332045D01*
X139000978Y-170273948D01*
X138707000Y-170083793D01*
X138393736Y-169867000D01*
X138079693Y-169637195D01*
X137783376Y-169408006D01*
X137523290Y-169193057D01*
X137470312Y-169146864D01*
X137402488Y-169087117D01*
X137300669Y-168997547D01*
X137180958Y-168892316D01*
X137103645Y-168824391D01*
X136973999Y-168708695D01*
X136818801Y-168567236D01*
X136644316Y-168405994D01*
X136456806Y-168230951D01*
X136262534Y-168048088D01*
X136067763Y-167863384D01*
X135878757Y-167682821D01*
X135701778Y-167512379D01*
X135543090Y-167358039D01*
X135408956Y-167225782D01*
X135305638Y-167121589D01*
X135239401Y-167051441D01*
X135216729Y-167022543D01*
X135213880Y-166948863D01*
X135230413Y-166890833D01*
X135252930Y-166853450D01*
X135288932Y-166831058D01*
X135353722Y-166819880D01*
X135462599Y-166816138D01*
X135533995Y-166815873D01*
X135877611Y-166829023D01*
G37*
G36*
X136713593Y-162993892D02*
G01*
X137002490Y-163013335D01*
X137290865Y-163045409D01*
X137592890Y-163092455D01*
X137922738Y-163156816D01*
X138294581Y-163240833D01*
X138479591Y-163285728D01*
X139040687Y-163434842D01*
X139566347Y-163595760D01*
X140045328Y-163764846D01*
X140377660Y-163899359D01*
X140676494Y-164039676D01*
X140919171Y-164180669D01*
X141115779Y-164330540D01*
X141276401Y-164497488D01*
X141411124Y-164689713D01*
X141463773Y-164782500D01*
X141568798Y-165022482D01*
X141638188Y-165275404D01*
X141670393Y-165526380D01*
X141663862Y-165760524D01*
X141617045Y-165962950D01*
X141592625Y-166019981D01*
X141451380Y-166234926D01*
X141261816Y-166414991D01*
X141034660Y-166556237D01*
X140780643Y-166654727D01*
X140510495Y-166706523D01*
X140234946Y-166707687D01*
X139964726Y-166654281D01*
X139912201Y-166636682D01*
X139767247Y-166580336D01*
X139632992Y-166517428D01*
X139495828Y-166439932D01*
X139342150Y-166339818D01*
X139158351Y-166209058D01*
X139043339Y-166124039D01*
X138917912Y-166023121D01*
X138755420Y-165881086D01*
X138563940Y-165705877D01*
X138351548Y-165505437D01*
X138126319Y-165287708D01*
X137896329Y-165060632D01*
X137669656Y-164832151D01*
X137454374Y-164610209D01*
X137258560Y-164402747D01*
X137090289Y-164217709D01*
X137003645Y-164118092D01*
X136870032Y-163961837D01*
X136722773Y-163791130D01*
X136583028Y-163630438D01*
X136503645Y-163539997D01*
X136376244Y-163395198D01*
X136287286Y-163290987D01*
X136231140Y-163217926D01*
X136202180Y-163166579D01*
X136194776Y-163127512D01*
X136203302Y-163091287D01*
X136217098Y-163059574D01*
X136256874Y-162972276D01*
X136713593Y-162993892D01*
G37*
G36*
X134592073Y-156528604D02*
G01*
X134803831Y-156110348D01*
X134997618Y-155695811D01*
X135177560Y-155277084D01*
X135347786Y-154846260D01*
X135512423Y-154395431D01*
X135541921Y-154311148D01*
X135700887Y-153840059D01*
X135830916Y-153422136D01*
X135933242Y-153051095D01*
X136009104Y-152720655D01*
X136059739Y-152424535D01*
X136086383Y-152156451D01*
X136090272Y-151910123D01*
X136072645Y-151679269D01*
X136067605Y-151641166D01*
X136045863Y-151460774D01*
X136041629Y-151333581D01*
X136057590Y-151247787D01*
X136096434Y-151191594D01*
X136160850Y-151153202D01*
X136180559Y-151145270D01*
X136318836Y-151116706D01*
X136507195Y-151113336D01*
X136734622Y-151133676D01*
X136990103Y-151176240D01*
X137262625Y-151239544D01*
X137541174Y-151322102D01*
X137574434Y-151333216D01*
X137772425Y-151407672D01*
X137997033Y-151504317D01*
X138232346Y-151615173D01*
X138462454Y-151732261D01*
X138671446Y-151847604D01*
X138843412Y-151953224D01*
X138923860Y-152009870D01*
X139113169Y-152166318D01*
X139246845Y-152307743D01*
X139331468Y-152443077D01*
X139373619Y-152581255D01*
X139379258Y-152628101D01*
X139382205Y-152740969D01*
X139362027Y-152824777D01*
X139308789Y-152914346D01*
X139290181Y-152940306D01*
X139200879Y-153042988D01*
X139096904Y-153135660D01*
X139057969Y-153163103D01*
X138984740Y-153222322D01*
X138902684Y-153315998D01*
X138805104Y-153452712D01*
X138686782Y-153638631D01*
X138578150Y-153813114D01*
X138462024Y-153995589D01*
X138352442Y-154164219D01*
X138264783Y-154295206D01*
X138188816Y-154409248D01*
X138131692Y-154501344D01*
X138100981Y-154558924D01*
X138098301Y-154571600D01*
X138133039Y-154566103D01*
X138216805Y-154540746D01*
X138336472Y-154499774D01*
X138458367Y-154455181D01*
X138786489Y-154327540D01*
X139103449Y-154194452D01*
X139423988Y-154049099D01*
X139762846Y-153884666D01*
X140134763Y-153694334D01*
X140356621Y-153577275D01*
X140605040Y-153450477D01*
X140809634Y-153359545D01*
X140980763Y-153301508D01*
X141128789Y-153273393D01*
X141264072Y-153272229D01*
X141365918Y-153287795D01*
X141503559Y-153324024D01*
X141692631Y-153383443D01*
X141923436Y-153462638D01*
X142186277Y-153558195D01*
X142471455Y-153666699D01*
X142712429Y-153761841D01*
X143056843Y-153914133D01*
X143395172Y-154090329D01*
X143718241Y-154283984D01*
X144016878Y-154488656D01*
X144281907Y-154697899D01*
X144504156Y-154905272D01*
X144674450Y-155104329D01*
X144721385Y-155172894D01*
X144793631Y-155310204D01*
X144816268Y-155425375D01*
X144785802Y-155526847D01*
X144698736Y-155623064D01*
X144551572Y-155722464D01*
X144476418Y-155764300D01*
X144073874Y-155989593D01*
X143725395Y-156206874D01*
X143420267Y-156423893D01*
X143147779Y-156648402D01*
X142897217Y-156888151D01*
X142838828Y-156949166D01*
X142754303Y-157037350D01*
X142628617Y-157166284D01*
X142467923Y-157329754D01*
X142278375Y-157521546D01*
X142066128Y-157735446D01*
X141837335Y-157965240D01*
X141598151Y-158204712D01*
X141367306Y-158435117D01*
X140193933Y-159604400D01*
X140548789Y-159823419D01*
X141248789Y-160235262D01*
X141997745Y-160638456D01*
X142777948Y-161024376D01*
X143571685Y-161384396D01*
X144361248Y-161709888D01*
X144644052Y-161818073D01*
X145045586Y-161963733D01*
X145500303Y-162120552D01*
X145996396Y-162284828D01*
X146522057Y-162452863D01*
X147065478Y-162620956D01*
X147614854Y-162785406D01*
X148158377Y-162942515D01*
X148684239Y-163088582D01*
X148786978Y-163116339D01*
X148964696Y-163164163D01*
X149120738Y-163206248D01*
X149243299Y-163239403D01*
X149320570Y-163260436D01*
X149340525Y-163265980D01*
X149374479Y-163305311D01*
X149403799Y-163387115D01*
X149422892Y-163487205D01*
X149426165Y-163581395D01*
X149421166Y-163614684D01*
X149371331Y-163700597D01*
X149266138Y-163767715D01*
X149102135Y-163817634D01*
X148919263Y-163847105D01*
X148808292Y-163860705D01*
X148643721Y-163881371D01*
X148438055Y-163907507D01*
X148203795Y-163937519D01*
X147953445Y-163969813D01*
X147744462Y-163996938D01*
X146987699Y-164088745D01*
X146235596Y-164166939D01*
X145498769Y-164230757D01*
X144787835Y-164279431D01*
X144113410Y-164312197D01*
X143486111Y-164328289D01*
X143131207Y-164329591D01*
X142850280Y-164326107D01*
X142628850Y-164319013D01*
X142459823Y-164307877D01*
X142336103Y-164292267D01*
X142267731Y-164277066D01*
X142135230Y-164220004D01*
X141961736Y-164113812D01*
X141749264Y-163960304D01*
X141499827Y-163761291D01*
X141215437Y-163518585D01*
X140898107Y-163234000D01*
X140549850Y-162909347D01*
X140172680Y-162546438D01*
X139768608Y-162147087D01*
X139339649Y-161713106D01*
X138887814Y-161246307D01*
X138801993Y-161156616D01*
X138570312Y-160914067D01*
X138253645Y-161133198D01*
X137283613Y-161772866D01*
X136310716Y-162350346D01*
X135326642Y-162869893D01*
X134323079Y-163335764D01*
X133291716Y-163752213D01*
X132770312Y-163940694D01*
X132270404Y-164113624D01*
X131829118Y-164263772D01*
X131442801Y-164392152D01*
X131107800Y-164499776D01*
X130820461Y-164587659D01*
X130577131Y-164656814D01*
X130374156Y-164708255D01*
X130207885Y-164742995D01*
X130074662Y-164762048D01*
X129970836Y-164766428D01*
X129892752Y-164757148D01*
X129861978Y-164747606D01*
X129803000Y-164714941D01*
X129784630Y-164675784D01*
X129810725Y-164625969D01*
X129885145Y-164561329D01*
X130011748Y-164477698D01*
X130194392Y-164370909D01*
X130228658Y-164351628D01*
X130371624Y-164270633D01*
X130560242Y-164162472D01*
X130782796Y-164033933D01*
X131027568Y-163891809D01*
X131282841Y-163742891D01*
X131536899Y-163593969D01*
X131603645Y-163554712D01*
X132427389Y-163063338D01*
X133193729Y-162592787D01*
X133902114Y-162143441D01*
X134551993Y-161715687D01*
X135142812Y-161309907D01*
X135674022Y-160926486D01*
X136145070Y-160565809D01*
X136555404Y-160228259D01*
X136904472Y-159914221D01*
X137084148Y-159737376D01*
X137151901Y-159669554D01*
X137199958Y-159616872D01*
X137224420Y-159571171D01*
X137221393Y-159524292D01*
X137186979Y-159468075D01*
X137117281Y-159394359D01*
X137008404Y-159294986D01*
X136856451Y-159161796D01*
X136775358Y-159090743D01*
X136492944Y-158855074D01*
X136199368Y-158632788D01*
X135908715Y-158433609D01*
X135635068Y-158267265D01*
X135425649Y-158158622D01*
X135180987Y-158044379D01*
X134992316Y-158207936D01*
X134810584Y-158359601D01*
X134600778Y-158524930D01*
X134372561Y-158697167D01*
X134135598Y-158869557D01*
X133899552Y-159035342D01*
X133674087Y-159187767D01*
X133468867Y-159320074D01*
X133293555Y-159425509D01*
X133157816Y-159497314D01*
X133130799Y-159509387D01*
X132987409Y-159563869D01*
X132886432Y-159586110D01*
X132827809Y-159573201D01*
X132811477Y-159522231D01*
X132837378Y-159430289D01*
X132905450Y-159294465D01*
X133015634Y-159111849D01*
X133119232Y-158952435D01*
X133482766Y-158396969D01*
X133807689Y-157884762D01*
X134098130Y-157407903D01*
X134165287Y-157291859D01*
X136051751Y-157291859D01*
X136055887Y-157293655D01*
X136112690Y-157306804D01*
X136211564Y-157326965D01*
X136307780Y-157345386D01*
X136732303Y-157450088D01*
X137152947Y-157606771D01*
X137576768Y-157818725D01*
X138010822Y-158089243D01*
X138220312Y-158237510D01*
X138306568Y-158298124D01*
X138370819Y-158338432D01*
X138393170Y-158348340D01*
X138422731Y-158324446D01*
X138483102Y-158259655D01*
X138563868Y-158165461D01*
X138611419Y-158107500D01*
X138764251Y-157916230D01*
X138902126Y-157738054D01*
X139035045Y-157559221D01*
X139173005Y-157365984D01*
X139326007Y-157144594D01*
X139504049Y-156881301D01*
X139514430Y-156865833D01*
X139638334Y-156681869D01*
X139757847Y-156505737D01*
X139864982Y-156349105D01*
X139951756Y-156223645D01*
X140010183Y-156141025D01*
X140013464Y-156136519D01*
X140083530Y-156031143D01*
X140117643Y-155946440D01*
X140125652Y-155854641D01*
X140124531Y-155823357D01*
X140102705Y-155688721D01*
X140056950Y-155560880D01*
X139996412Y-155459098D01*
X139930237Y-155402641D01*
X139923647Y-155400225D01*
X139861906Y-155402722D01*
X139754160Y-155429153D01*
X139615004Y-155475672D01*
X139564754Y-155494747D01*
X139395963Y-155559608D01*
X139213340Y-155628135D01*
X139050899Y-155687597D01*
X139020312Y-155698531D01*
X138705584Y-155808822D01*
X138444876Y-155896003D01*
X138230236Y-155961542D01*
X138053714Y-156006905D01*
X137907356Y-156033561D01*
X137783213Y-156042975D01*
X137673332Y-156036615D01*
X137569761Y-156015948D01*
X137470312Y-155984521D01*
X137357399Y-155944164D01*
X137265248Y-155911534D01*
X137220136Y-155895862D01*
X137175750Y-155912732D01*
X137102513Y-155984736D01*
X136999067Y-156113288D01*
X136955100Y-156172412D01*
X136714787Y-156490009D01*
X136488598Y-156765562D01*
X136261626Y-157017041D01*
X136208219Y-157072875D01*
X136105197Y-157185692D01*
X136053348Y-157258242D01*
X136051751Y-157291859D01*
X134165287Y-157291859D01*
X134358215Y-156958487D01*
X134592073Y-156528604D01*
G37*
G36*
X156529212Y-164612042D02*
G01*
X156766911Y-164542018D01*
X156985607Y-164489291D01*
X157171521Y-164458017D01*
X157275460Y-164451117D01*
X157380787Y-164459538D01*
X157522638Y-164482139D01*
X157677135Y-164514810D01*
X157745595Y-164532015D01*
X157895941Y-164569564D01*
X157995225Y-164587848D01*
X158052098Y-164588009D01*
X158073211Y-164575332D01*
X158105746Y-164560382D01*
X158170636Y-164581468D01*
X158226244Y-164610599D01*
X158302780Y-164658964D01*
X158349382Y-164698726D01*
X158356002Y-164711132D01*
X158375180Y-164725469D01*
X158384016Y-164721423D01*
X158422419Y-164727013D01*
X158504252Y-164755699D01*
X158616429Y-164802500D01*
X158712577Y-164846480D01*
X158875945Y-164929106D01*
X159002789Y-165008497D01*
X159116532Y-165101141D01*
X159224365Y-165206697D01*
X159361687Y-165352758D01*
X159462868Y-165473795D01*
X159539163Y-165586452D01*
X159601824Y-165707373D01*
X159662103Y-165853203D01*
X159662932Y-165855366D01*
X159715762Y-165988879D01*
X159770955Y-166121425D01*
X159813692Y-166217994D01*
X159837701Y-166276225D01*
X159855828Y-166340818D01*
X159869255Y-166422422D01*
X159879160Y-166531682D01*
X159886726Y-166679246D01*
X159893132Y-166875760D01*
X159895189Y-166953022D01*
X159900223Y-167137723D01*
X159903306Y-167282744D01*
X159902491Y-167400080D01*
X159895829Y-167501725D01*
X159881372Y-167599674D01*
X159857173Y-167705922D01*
X159821283Y-167832463D01*
X159771755Y-167991291D01*
X159706640Y-168194402D01*
X159680162Y-168277063D01*
X159628831Y-168402924D01*
X159551444Y-168532285D01*
X159440564Y-168675528D01*
X159288754Y-168843035D01*
X159234600Y-168899077D01*
X159105829Y-169004554D01*
X158935176Y-169107458D01*
X158743361Y-169197287D01*
X158551107Y-169263542D01*
X158482213Y-169280359D01*
X158398485Y-169299924D01*
X158277630Y-169330420D01*
X158143314Y-169365850D01*
X158119356Y-169372337D01*
X157963380Y-169407590D01*
X157811590Y-169424387D01*
X157649469Y-169422207D01*
X157462501Y-169400526D01*
X157236167Y-169358821D01*
X157133134Y-169336805D01*
X156934007Y-169286169D01*
X156778568Y-169227933D01*
X156647422Y-169152704D01*
X156521178Y-169051089D01*
X156496743Y-169028584D01*
X156407661Y-168954080D01*
X156317257Y-168891605D01*
X156293911Y-168878434D01*
X156211586Y-168823570D01*
X156122293Y-168746737D01*
X156098512Y-168722721D01*
X156031404Y-168658950D01*
X155977817Y-168620805D01*
X155962962Y-168616006D01*
X155923745Y-168589074D01*
X155881130Y-168523181D01*
X155846641Y-168440685D01*
X155831800Y-168363941D01*
X155831778Y-168361471D01*
X155844524Y-168311687D01*
X155886995Y-168310872D01*
X155942337Y-168329261D01*
X156038342Y-168361705D01*
X156155988Y-168401769D01*
X156177751Y-168409210D01*
X156320910Y-168456384D01*
X156413535Y-168481405D01*
X156463827Y-168485194D01*
X156479988Y-168468676D01*
X156474291Y-168442589D01*
X156473312Y-168412520D01*
X156512372Y-168407220D01*
X156562052Y-168414582D01*
X156662000Y-168437247D01*
X156777069Y-168469372D01*
X156803129Y-168477565D01*
X156901013Y-168504775D01*
X156983043Y-168520105D01*
X157001901Y-168521348D01*
X157076491Y-168535682D01*
X157150674Y-168565358D01*
X157231816Y-168588855D01*
X157355907Y-168604240D01*
X157503268Y-168611143D01*
X157654218Y-168609195D01*
X157789079Y-168598028D01*
X157882710Y-168579077D01*
X158057902Y-168491052D01*
X158202611Y-168350525D01*
X158302342Y-168182715D01*
X158359468Y-168049270D01*
X158404372Y-167926127D01*
X158438895Y-167802237D01*
X158464875Y-167666552D01*
X158484153Y-167508023D01*
X158498569Y-167315603D01*
X158509963Y-167078243D01*
X158516561Y-166896379D01*
X158524091Y-166658688D01*
X158528479Y-166473478D01*
X158529311Y-166330182D01*
X158526174Y-166218236D01*
X158518654Y-166127073D01*
X158506335Y-166046128D01*
X158488804Y-165964834D01*
X158478391Y-165922485D01*
X158392742Y-165651640D01*
X158282735Y-165432789D01*
X158142450Y-165257574D01*
X157965967Y-165117639D01*
X157868527Y-165061521D01*
X157749122Y-165011234D01*
X157622872Y-164975919D01*
X157568776Y-164967699D01*
X157443335Y-164952780D01*
X157307903Y-164930780D01*
X157273765Y-164924091D01*
X157153267Y-164904615D01*
X157034403Y-164893656D01*
X157001811Y-164892777D01*
X156846591Y-164903627D01*
X156649742Y-164933824D01*
X156428446Y-164979836D01*
X156199888Y-165038133D01*
X156002150Y-165098195D01*
X155867780Y-165142382D01*
X155757428Y-165178112D01*
X155683629Y-165201360D01*
X155658960Y-165208304D01*
X155656912Y-165182914D01*
X155663817Y-165149232D01*
X155702012Y-165102681D01*
X155787865Y-165046416D01*
X155873844Y-165004025D01*
X155965426Y-164959553D01*
X156022593Y-164923908D01*
X156033708Y-164904424D01*
X156032651Y-164903927D01*
X155987493Y-164909446D01*
X155904869Y-164937610D01*
X155811781Y-164978140D01*
X155710714Y-165029219D01*
X155654104Y-165070077D01*
X155628210Y-165114895D01*
X155619365Y-165176752D01*
X155616189Y-165257411D01*
X155614155Y-165376965D01*
X155613189Y-165522478D01*
X155613219Y-165681016D01*
X155614172Y-165839644D01*
X155615972Y-165985428D01*
X155618549Y-166105433D01*
X155621827Y-166186724D01*
X155625258Y-166216005D01*
X155628700Y-166250905D01*
X155633147Y-166340851D01*
X155638327Y-166477797D01*
X155643966Y-166653698D01*
X155649792Y-166860506D01*
X155655532Y-167090176D01*
X155656889Y-167148801D01*
X155663369Y-167389355D01*
X155671327Y-167614877D01*
X155680289Y-167816059D01*
X155689780Y-167983592D01*
X155699324Y-168108166D01*
X155708446Y-168180471D01*
X155709863Y-168186677D01*
X155726297Y-168279954D01*
X155712962Y-168326712D01*
X155707883Y-168330600D01*
X155686889Y-168371746D01*
X155663180Y-168463773D01*
X155638898Y-168594642D01*
X155616189Y-168752316D01*
X155597194Y-168924757D01*
X155592434Y-168978863D01*
X155576898Y-169099922D01*
X155549232Y-169255094D01*
X155513706Y-169425209D01*
X155474588Y-169591094D01*
X155436144Y-169733578D01*
X155402644Y-169833488D01*
X155401627Y-169835947D01*
X155364012Y-169905354D01*
X155328231Y-169940248D01*
X155323134Y-169941224D01*
X155303818Y-169918346D01*
X155311687Y-169886006D01*
X155333875Y-169810331D01*
X155344162Y-169751907D01*
X155356759Y-169665288D01*
X155374331Y-169563856D01*
X155375179Y-169559371D01*
X155383651Y-169478099D01*
X155365343Y-169437059D01*
X155345070Y-169425875D01*
X155311155Y-169422946D01*
X155281956Y-169449605D01*
X155252338Y-169515291D01*
X155217165Y-169629442D01*
X155199860Y-169692766D01*
X155167345Y-169797823D01*
X155131721Y-169890062D01*
X155122411Y-169909671D01*
X155051120Y-170055480D01*
X154981377Y-170209904D01*
X154922669Y-170351145D01*
X154885682Y-170453517D01*
X154855133Y-170533780D01*
X154825507Y-170584457D01*
X154819787Y-170589479D01*
X154791232Y-170634216D01*
X154790536Y-170642138D01*
X154809649Y-170649575D01*
X154853641Y-170619609D01*
X154898921Y-170589495D01*
X154916747Y-170598546D01*
X154892212Y-170635910D01*
X154830407Y-170687722D01*
X154797961Y-170709580D01*
X154713952Y-170768114D01*
X154648636Y-170823090D01*
X154635974Y-170836620D01*
X154586829Y-170879262D01*
X154500220Y-170939892D01*
X154390956Y-171009665D01*
X154273842Y-171079736D01*
X154163687Y-171141260D01*
X154075298Y-171185393D01*
X154023481Y-171203288D01*
X154022069Y-171203336D01*
X153992408Y-171205947D01*
X153951945Y-171216647D01*
X153888961Y-171239735D01*
X153791739Y-171279512D01*
X153648562Y-171340275D01*
X153646747Y-171341051D01*
X153573778Y-171366396D01*
X153532145Y-171369526D01*
X153528424Y-171364334D01*
X153555774Y-171321528D01*
X153629955Y-171262972D01*
X153739162Y-171196243D01*
X153871589Y-171128920D01*
X153946949Y-171095674D01*
X154053415Y-171048562D01*
X154135248Y-171007409D01*
X154176279Y-170980414D01*
X154177569Y-170978724D01*
X154220109Y-170954972D01*
X154252625Y-170950913D01*
X154310601Y-170928294D01*
X154328654Y-170903584D01*
X154323420Y-170864398D01*
X154286563Y-170856255D01*
X154228890Y-170867580D01*
X154211116Y-170880840D01*
X154173342Y-170896333D01*
X154094016Y-170908421D01*
X154040007Y-170912208D01*
X153911141Y-170927878D01*
X153783854Y-170967710D01*
X153639102Y-171038692D01*
X153544200Y-171094113D01*
X153445303Y-171149432D01*
X153392091Y-171168199D01*
X153386453Y-171150227D01*
X153420130Y-171106311D01*
X153457982Y-171061442D01*
X153449503Y-171050120D01*
X153387288Y-171063188D01*
X153385580Y-171063602D01*
X153290166Y-171089901D01*
X153218730Y-171113297D01*
X153150581Y-171136057D01*
X153123012Y-171134907D01*
X153118238Y-171114521D01*
X153145181Y-171083019D01*
X153211781Y-171044847D01*
X153296696Y-171009495D01*
X153378580Y-170986454D01*
X153415206Y-170982466D01*
X153552264Y-170954602D01*
X153713678Y-170872408D01*
X153895547Y-170737981D01*
X153938610Y-170700996D01*
X154038234Y-170616353D01*
X154125125Y-170547886D01*
X154184815Y-170506815D01*
X154196472Y-170501036D01*
X154235112Y-170458886D01*
X154233588Y-170421629D01*
X154243935Y-170353802D01*
X154296818Y-170268156D01*
X154302361Y-170261444D01*
X154350881Y-170193089D01*
X154398642Y-170108655D01*
X154440329Y-170021060D01*
X154470630Y-169943222D01*
X154484232Y-169888058D01*
X154475823Y-169868487D01*
X154460425Y-169877127D01*
X154408916Y-169902037D01*
X154384205Y-169885401D01*
X154401821Y-169839440D01*
X154424229Y-169781882D01*
X154429161Y-169750282D01*
X154496605Y-169750282D01*
X154509037Y-169757612D01*
X154530397Y-169716915D01*
X154551081Y-169646717D01*
X154558073Y-169587720D01*
X154543282Y-169575175D01*
X154543016Y-169575337D01*
X154518122Y-169616668D01*
X154499741Y-169689406D01*
X154496605Y-169750282D01*
X154429161Y-169750282D01*
X154437607Y-169696175D01*
X154438054Y-169688801D01*
X154448797Y-169575991D01*
X154466953Y-169466580D01*
X154488078Y-169384934D01*
X154497304Y-169363853D01*
X154529606Y-169358853D01*
X154554045Y-169373402D01*
X154583141Y-169387963D01*
X154583203Y-169387911D01*
X155369996Y-169387911D01*
X155384331Y-169404826D01*
X155409404Y-169377392D01*
X155428165Y-169311193D01*
X155428468Y-169309176D01*
X155430737Y-169248672D01*
X155415862Y-169243428D01*
X155390584Y-169290295D01*
X155375683Y-169333832D01*
X155369996Y-169387911D01*
X154583203Y-169387911D01*
X154605845Y-169368992D01*
X154607771Y-169363384D01*
X155243563Y-169363384D01*
X155256577Y-169373273D01*
X155281232Y-169345890D01*
X155315701Y-169274979D01*
X155344119Y-169199733D01*
X155382347Y-169106284D01*
X155420492Y-169043282D01*
X155443902Y-169026193D01*
X155482968Y-169021246D01*
X155486660Y-169018304D01*
X155500591Y-168931768D01*
X155504893Y-168838667D01*
X155499617Y-168762471D01*
X155486008Y-168727251D01*
X155462549Y-168738765D01*
X155453183Y-168803799D01*
X155453144Y-168809772D01*
X155448675Y-168875534D01*
X155431593Y-168887447D01*
X155413703Y-168873140D01*
X155390911Y-168814567D01*
X155380997Y-168696525D01*
X155381721Y-168574966D01*
X155382832Y-168442289D01*
X155376598Y-168370596D01*
X155362831Y-168358175D01*
X155358540Y-168363584D01*
X155335275Y-168429893D01*
X155327416Y-168499758D01*
X155314481Y-168591438D01*
X155292123Y-168653646D01*
X155273275Y-168712761D01*
X155292113Y-168740198D01*
X155303421Y-168778596D01*
X155305476Y-168862196D01*
X155299643Y-168973994D01*
X155287288Y-169096985D01*
X155269773Y-169214167D01*
X155248466Y-169308534D01*
X155245800Y-169317260D01*
X155243563Y-169363384D01*
X154607771Y-169363384D01*
X154627121Y-169307035D01*
X154651936Y-169192633D01*
X154653706Y-169183583D01*
X154663890Y-169089764D01*
X154669030Y-168951856D01*
X154669308Y-168788660D01*
X154664909Y-168618975D01*
X154656018Y-168461601D01*
X154645602Y-168355696D01*
X154637134Y-168264401D01*
X154644749Y-168219647D01*
X154672025Y-168206125D01*
X154680604Y-168205820D01*
X154717562Y-168193248D01*
X154713280Y-168145181D01*
X154709785Y-168134826D01*
X154698672Y-168074231D01*
X154688686Y-167967562D01*
X154681164Y-167831852D01*
X154680386Y-167806151D01*
X155526768Y-167806151D01*
X155531099Y-167824909D01*
X155547803Y-167827186D01*
X155573774Y-167815642D01*
X155568838Y-167806151D01*
X155531392Y-167802375D01*
X155526768Y-167806151D01*
X154680386Y-167806151D01*
X154678158Y-167732528D01*
X154675927Y-167680725D01*
X155537917Y-167680725D01*
X155552178Y-167700975D01*
X155572616Y-167673948D01*
X155579356Y-167622093D01*
X155575202Y-167562723D01*
X155567258Y-167543211D01*
X155553068Y-167570010D01*
X155540080Y-167622093D01*
X155537917Y-167680725D01*
X154675927Y-167680725D01*
X154668958Y-167518862D01*
X154651306Y-167333264D01*
X154626652Y-167184633D01*
X154596445Y-167081868D01*
X154564624Y-167035250D01*
X154542040Y-167004354D01*
X154555305Y-166947844D01*
X154564760Y-166926100D01*
X154587311Y-166855634D01*
X154571224Y-166805596D01*
X154558420Y-166789741D01*
X154528562Y-166739469D01*
X154510397Y-166662264D01*
X154501796Y-166544901D01*
X154500328Y-166429099D01*
X154498142Y-166354786D01*
X154487234Y-166334665D01*
X154461486Y-166359877D01*
X154456751Y-166365994D01*
X154429125Y-166396859D01*
X154421761Y-166382079D01*
X154430743Y-166313576D01*
X154430892Y-166312652D01*
X154437723Y-166245036D01*
X154426357Y-166235724D01*
X154418086Y-166245701D01*
X154371916Y-166271565D01*
X154347935Y-166264790D01*
X154307158Y-166276370D01*
X154228879Y-166337751D01*
X154113693Y-166448427D01*
X154028585Y-166536725D01*
X153899063Y-166677965D01*
X153805194Y-166792258D01*
X153735975Y-166895146D01*
X153680400Y-167002169D01*
X153651091Y-167069809D01*
X153599073Y-167195490D01*
X153551141Y-167310465D01*
X153516506Y-167392654D01*
X153512841Y-167401224D01*
X153457442Y-167557511D01*
X153405015Y-167753675D01*
X153359576Y-167968875D01*
X153325138Y-168182264D01*
X153305716Y-168372998D01*
X153303419Y-168488645D01*
X153297839Y-168644152D01*
X153262396Y-168759157D01*
X153188703Y-168852496D01*
X153115312Y-168911187D01*
X153027228Y-168966524D01*
X152953695Y-168987479D01*
X152862788Y-168982358D01*
X152849310Y-168980403D01*
X152688609Y-168933290D01*
X152500670Y-168838652D01*
X152293178Y-168701526D01*
X152073818Y-168526947D01*
X151867731Y-168337191D01*
X151734823Y-168164484D01*
X151655908Y-167960272D01*
X151630924Y-167724138D01*
X151659812Y-167455667D01*
X151709352Y-167257231D01*
X151743955Y-167134914D01*
X151788292Y-166968160D01*
X151837969Y-166774038D01*
X151888591Y-166569616D01*
X151920027Y-166438863D01*
X151978651Y-166206164D01*
X152038274Y-165995798D01*
X152096262Y-165815227D01*
X152149984Y-165671910D01*
X152196808Y-165573309D01*
X152234104Y-165526884D01*
X152242648Y-165524247D01*
X152255071Y-165552870D01*
X152265058Y-165628381D01*
X152270482Y-165734563D01*
X152270528Y-165736814D01*
X152274744Y-165949795D01*
X152299317Y-165792031D01*
X152315190Y-165658283D01*
X152325302Y-165513667D01*
X152326654Y-165470477D01*
X152335268Y-165362874D01*
X152354183Y-165299578D01*
X152379472Y-165286533D01*
X152407212Y-165329683D01*
X152411532Y-165341946D01*
X152424326Y-165420307D01*
X152430297Y-165546677D01*
X152429736Y-165706359D01*
X152422938Y-165884659D01*
X152410192Y-166066881D01*
X152394058Y-166220658D01*
X152375165Y-166427534D01*
X152364871Y-166664110D01*
X152363208Y-166908913D01*
X152370213Y-167140473D01*
X152385920Y-167337318D01*
X152392195Y-167385447D01*
X152416843Y-167526778D01*
X152447512Y-167663216D01*
X152480434Y-167781812D01*
X152511841Y-167869614D01*
X152537964Y-167913671D01*
X152546545Y-167915978D01*
X152585707Y-167884162D01*
X152654720Y-167813113D01*
X152744566Y-167713314D01*
X152846229Y-167595245D01*
X152950689Y-167469389D01*
X153048930Y-167346227D01*
X153131933Y-167236241D01*
X153134964Y-167232048D01*
X153234415Y-167097345D01*
X153342361Y-166956069D01*
X153438851Y-166834235D01*
X153458070Y-166810798D01*
X153695433Y-166512874D01*
X153875505Y-166267879D01*
X153932137Y-166199165D01*
X153980096Y-166159526D01*
X153992039Y-166155757D01*
X154036468Y-166131575D01*
X154079416Y-166083895D01*
X154127892Y-166031309D01*
X154164431Y-166012901D01*
X154202400Y-165990456D01*
X154264367Y-165932344D01*
X154319828Y-165870913D01*
X154383956Y-165790399D01*
X154420488Y-165723556D01*
X154437702Y-165646283D01*
X154443877Y-165534480D01*
X154444471Y-165508056D01*
X154444163Y-165403965D01*
X154440444Y-165255603D01*
X154433928Y-165074812D01*
X154425226Y-164873433D01*
X154414951Y-164663308D01*
X154403717Y-164456278D01*
X154392135Y-164264185D01*
X154380818Y-164098872D01*
X154370379Y-163972179D01*
X154361431Y-163895948D01*
X154360919Y-163893038D01*
X154317577Y-163777609D01*
X154238502Y-163714097D01*
X154122396Y-163701534D01*
X154106172Y-163703370D01*
X153865275Y-163762126D01*
X153653704Y-163872077D01*
X153468505Y-164035683D01*
X153306722Y-164255401D01*
X153199311Y-164457766D01*
X153137908Y-164598071D01*
X153085689Y-164733092D01*
X153050125Y-164842755D01*
X153040386Y-164884888D01*
X153016557Y-164980794D01*
X152991400Y-165014592D01*
X152970820Y-164986868D01*
X152960723Y-164898202D01*
X152960474Y-164877000D01*
X152953343Y-164787246D01*
X152934495Y-164739158D01*
X152925340Y-164735013D01*
X152903652Y-164710510D01*
X152908889Y-164635530D01*
X152919719Y-164593025D01*
X153023579Y-164593025D01*
X153039356Y-164608801D01*
X153055132Y-164593025D01*
X153039356Y-164577249D01*
X153023579Y-164593025D01*
X152919719Y-164593025D01*
X152941416Y-164507870D01*
X152964912Y-164435261D01*
X153086685Y-164435261D01*
X153102461Y-164451037D01*
X153118238Y-164435261D01*
X153102461Y-164419485D01*
X153086685Y-164435261D01*
X152964912Y-164435261D01*
X152985332Y-164372155D01*
X153118238Y-164372155D01*
X153134014Y-164387932D01*
X153149790Y-164372155D01*
X153134014Y-164356379D01*
X153118238Y-164372155D01*
X152985332Y-164372155D01*
X153031021Y-164233945D01*
X153077322Y-164086423D01*
X153100320Y-164009298D01*
X153181282Y-163800377D01*
X153296924Y-163597588D01*
X153434767Y-163419506D01*
X153525158Y-163336932D01*
X153761617Y-163336932D01*
X153806376Y-163318360D01*
X153806834Y-163318115D01*
X153867613Y-163276276D01*
X153893332Y-163248714D01*
X153894734Y-163230236D01*
X153849975Y-163248808D01*
X153849517Y-163249053D01*
X153788738Y-163290892D01*
X153763020Y-163318454D01*
X153761617Y-163336932D01*
X153525158Y-163336932D01*
X153582332Y-163284703D01*
X153591530Y-163278183D01*
X153718099Y-163200934D01*
X153807645Y-163171673D01*
X153834130Y-163173256D01*
X153896395Y-163173482D01*
X153922762Y-163157489D01*
X153967246Y-163131066D01*
X154004835Y-163125820D01*
X154071062Y-163111854D01*
X154161464Y-163076897D01*
X154192837Y-163061794D01*
X154362295Y-162996316D01*
X154558483Y-162954217D01*
X154767873Y-162935005D01*
X154976934Y-162938190D01*
X155172138Y-162963279D01*
X155339953Y-163009782D01*
X155466852Y-163077206D01*
X155502622Y-163109380D01*
X155554596Y-163174769D01*
X155580633Y-163225643D01*
X155581237Y-163229992D01*
X155587178Y-163281586D01*
X155600170Y-163370240D01*
X155608661Y-163423445D01*
X155617565Y-163535579D01*
X155616148Y-163678528D01*
X155605073Y-163817855D01*
X155595663Y-163923272D01*
X155588056Y-164063001D01*
X155582360Y-164224896D01*
X155578686Y-164396808D01*
X155577142Y-164566591D01*
X155577838Y-164722098D01*
X155580882Y-164851182D01*
X155586386Y-164941696D01*
X155594457Y-164981493D01*
X155594600Y-164981644D01*
X155628539Y-164976340D01*
X155703979Y-164947455D01*
X155806525Y-164900700D01*
X155839891Y-164884308D01*
X156051922Y-164787344D01*
X156053237Y-164786827D01*
X156571234Y-164786827D01*
X156607849Y-164784795D01*
X156636374Y-164778861D01*
X156707050Y-164760589D01*
X156744165Y-164746363D01*
X156744180Y-164746350D01*
X156740391Y-164734345D01*
X156698774Y-164735551D01*
X156642426Y-164746742D01*
X156594446Y-164764693D01*
X156589045Y-164768007D01*
X156571234Y-164786827D01*
X156053237Y-164786827D01*
X156286289Y-164695203D01*
X156529212Y-164612042D01*
G37*
G36*
X154664325Y-168978863D02*
G01*
X154648548Y-168994640D01*
X154632772Y-168978863D01*
X154648548Y-168963087D01*
X154664325Y-168978863D01*
G37*
G36*
X154223705Y-153546987D02*
G01*
X154234296Y-153555999D01*
X154279605Y-153576380D01*
X154342102Y-153589551D01*
X154399252Y-153608179D01*
X154499430Y-153651905D01*
X154630576Y-153715042D01*
X154780631Y-153791901D01*
X154853641Y-153830814D01*
X155024954Y-153924875D01*
X155152140Y-153999856D01*
X155247571Y-154064788D01*
X155323617Y-154128703D01*
X155392650Y-154200634D01*
X155445126Y-154262666D01*
X155574259Y-154429377D01*
X155662871Y-154570162D01*
X155717692Y-154700923D01*
X155745454Y-154837561D01*
X155752896Y-154989791D01*
X155746975Y-155140435D01*
X155722768Y-155245155D01*
X155670609Y-155320540D01*
X155580830Y-155383179D01*
X155499966Y-155423864D01*
X155405093Y-155480952D01*
X155294343Y-155565538D01*
X155204755Y-155646780D01*
X155124384Y-155724900D01*
X155061778Y-155781582D01*
X155029577Y-155805424D01*
X155028684Y-155805572D01*
X155015682Y-155778501D01*
X155011405Y-155726690D01*
X154998507Y-155661400D01*
X154962465Y-155654416D01*
X154916747Y-155695137D01*
X154867084Y-155735522D01*
X154841890Y-155743457D01*
X154781939Y-155774889D01*
X154726016Y-155858514D01*
X154676097Y-155983452D01*
X154634156Y-156138825D01*
X154602169Y-156313754D01*
X154582111Y-156497360D01*
X154575958Y-156678763D01*
X154585683Y-156847084D01*
X154613263Y-156991445D01*
X154614527Y-156995764D01*
X154673491Y-157186471D01*
X154726605Y-157334887D01*
X154782378Y-157460173D01*
X154849315Y-157581490D01*
X154933627Y-157714516D01*
X154997645Y-157809707D01*
X155056708Y-157890934D01*
X155119492Y-157967628D01*
X155194673Y-158049223D01*
X155290927Y-158145151D01*
X155416931Y-158264847D01*
X155575174Y-158412014D01*
X155682718Y-158519967D01*
X155807386Y-158657948D01*
X155930060Y-158804326D01*
X155992720Y-158884489D01*
X156086375Y-159005951D01*
X156172670Y-159113592D01*
X156240886Y-159194281D01*
X156275594Y-159230929D01*
X156349349Y-159328740D01*
X156418816Y-159479399D01*
X156481643Y-159672678D01*
X156535476Y-159898347D01*
X156577963Y-160146180D01*
X156606752Y-160405947D01*
X156619489Y-160667420D01*
X156619900Y-160727808D01*
X156617652Y-160908752D01*
X156610586Y-161040571D01*
X156597114Y-161137163D01*
X156575652Y-161212427D01*
X156560491Y-161248429D01*
X156445897Y-161424168D01*
X156287743Y-161567240D01*
X156098683Y-161672687D01*
X155891373Y-161735550D01*
X155678468Y-161750869D01*
X155472622Y-161713686D01*
X155421592Y-161694711D01*
X155184261Y-161577740D01*
X154984836Y-161436322D01*
X154853641Y-161312939D01*
X154745232Y-161213889D01*
X154619981Y-161118175D01*
X154546002Y-161070712D01*
X154458291Y-161015671D01*
X154398239Y-160969037D01*
X154380349Y-160944955D01*
X154358802Y-160914825D01*
X154299248Y-160848679D01*
X154209318Y-160754085D01*
X154096642Y-160638609D01*
X153968852Y-160509818D01*
X153833578Y-160375281D01*
X153698452Y-160242563D01*
X153571104Y-160119233D01*
X153459165Y-160012857D01*
X153370266Y-159931003D01*
X153312037Y-159881238D01*
X153297453Y-159871095D01*
X153258196Y-159861887D01*
X153211335Y-159882504D01*
X153144330Y-159940389D01*
X153092360Y-159992870D01*
X152887717Y-160208315D01*
X152705298Y-160406786D01*
X152550553Y-160582069D01*
X152428929Y-160727950D01*
X152345876Y-160838215D01*
X152329817Y-160862588D01*
X152262613Y-160956951D01*
X152192120Y-161018889D01*
X152100943Y-161057622D01*
X151971688Y-161082368D01*
X151898509Y-161091174D01*
X151803112Y-161099525D01*
X151733024Y-161095265D01*
X151667271Y-161072030D01*
X151584874Y-161023451D01*
X151509045Y-160972971D01*
X151354039Y-160851947D01*
X151246920Y-160723421D01*
X151177393Y-160570288D01*
X151135160Y-160375439D01*
X151130962Y-160344804D01*
X151112437Y-160163381D01*
X151102624Y-159981556D01*
X151101588Y-159814736D01*
X151109391Y-159678332D01*
X151126097Y-159587753D01*
X151127817Y-159582954D01*
X151167448Y-159504199D01*
X151228647Y-159411138D01*
X151302895Y-159313363D01*
X151381672Y-159220466D01*
X151456459Y-159142039D01*
X151518736Y-159087674D01*
X151559985Y-159066964D01*
X151572151Y-159082667D01*
X151600219Y-159097802D01*
X151671271Y-159103256D01*
X151714138Y-159101707D01*
X151798681Y-159100189D01*
X151849506Y-159107346D01*
X151856125Y-159113263D01*
X151833635Y-159143983D01*
X151776933Y-159196740D01*
X151746371Y-159221963D01*
X151669011Y-159292923D01*
X151610478Y-159362653D01*
X151600102Y-159379727D01*
X151563586Y-159449919D01*
X151641698Y-159378172D01*
X151761643Y-159300515D01*
X151910185Y-159251712D01*
X152070588Y-159232272D01*
X152226114Y-159242706D01*
X152360025Y-159283521D01*
X152454116Y-159353438D01*
X152516729Y-159394975D01*
X152555164Y-159402590D01*
X152628052Y-159414567D01*
X152712885Y-159444020D01*
X152787763Y-159481232D01*
X152830783Y-159516488D01*
X152834262Y-159526410D01*
X152809956Y-159543025D01*
X152753326Y-159528020D01*
X152671707Y-159509116D01*
X152563068Y-159498264D01*
X152522181Y-159497249D01*
X152414460Y-159505630D01*
X152341287Y-159537115D01*
X152297982Y-159576006D01*
X152253399Y-159633356D01*
X152241012Y-159670797D01*
X152242653Y-159673424D01*
X152301904Y-159701209D01*
X152412306Y-159724042D01*
X152561993Y-159740297D01*
X152739098Y-159748350D01*
X152793831Y-159748918D01*
X152933358Y-159747542D01*
X153019400Y-159741548D01*
X153061500Y-159729456D01*
X153069201Y-159709786D01*
X153068087Y-159706367D01*
X153072171Y-159676540D01*
X153125228Y-159677179D01*
X153128817Y-159677849D01*
X153205641Y-159670242D01*
X153326436Y-159629157D01*
X153454064Y-159571667D01*
X153589102Y-159505819D01*
X153676642Y-159463780D01*
X153725969Y-159441826D01*
X153746367Y-159436233D01*
X153747121Y-159443277D01*
X153738536Y-159457575D01*
X153704352Y-159489053D01*
X153631404Y-159543942D01*
X153534036Y-159611566D01*
X153511025Y-159626918D01*
X153303054Y-159764644D01*
X153391834Y-159835434D01*
X153451743Y-159874815D01*
X153555554Y-159934547D01*
X153690351Y-160007521D01*
X153843217Y-160086625D01*
X153899027Y-160114657D01*
X154093691Y-160208696D01*
X154252093Y-160275711D01*
X154392626Y-160320228D01*
X154533682Y-160346771D01*
X154693652Y-160359864D01*
X154890931Y-160364032D01*
X154913172Y-160364131D01*
X155034812Y-160362860D01*
X155110996Y-160354534D01*
X155159348Y-160333971D01*
X155197488Y-160295988D01*
X155212924Y-160275971D01*
X155252668Y-160185228D01*
X155279153Y-160045585D01*
X155292768Y-159869753D01*
X155293903Y-159670444D01*
X155282947Y-159460371D01*
X155260289Y-159252244D01*
X155226319Y-159058775D01*
X155181427Y-158892676D01*
X155169527Y-158859495D01*
X155127562Y-158772323D01*
X155057838Y-158651890D01*
X154970681Y-158515254D01*
X154891904Y-158400926D01*
X154690434Y-158103919D01*
X154526575Y-157823923D01*
X154392015Y-157542755D01*
X154278445Y-157242232D01*
X154177553Y-156904171D01*
X154138336Y-156752155D01*
X154063877Y-156327465D01*
X154052430Y-155905434D01*
X154104011Y-155485841D01*
X154218642Y-155068466D01*
X154301943Y-154855092D01*
X154380284Y-154673331D01*
X154436017Y-154536957D01*
X154469587Y-154432615D01*
X154481438Y-154346948D01*
X154472015Y-154266600D01*
X154441763Y-154178215D01*
X154391124Y-154068435D01*
X154332137Y-153947814D01*
X154266303Y-153810192D01*
X154212035Y-153692483D01*
X154174676Y-153606583D01*
X154159567Y-153564390D01*
X154159480Y-153563268D01*
X154180381Y-153535475D01*
X154223705Y-153546987D01*
G37*
G36*
X154528115Y-169241146D02*
G01*
X154531876Y-169290459D01*
X154525624Y-169301622D01*
X154511283Y-169292212D01*
X154509052Y-169260209D01*
X154516757Y-169226541D01*
X154528115Y-169241146D01*
G37*
G36*
X157820311Y-158442461D02*
G01*
X157923365Y-158469273D01*
X158134715Y-158539475D01*
X158342291Y-158634076D01*
X158564390Y-158762010D01*
X158690514Y-158843885D01*
X158963095Y-159037065D01*
X159215662Y-159236971D01*
X159441010Y-159436773D01*
X159631932Y-159629641D01*
X159781224Y-159808744D01*
X159881681Y-159967252D01*
X159887068Y-159978167D01*
X159939036Y-160130194D01*
X159934427Y-160262845D01*
X159871097Y-160385618D01*
X159772019Y-160487144D01*
X159682088Y-160554586D01*
X159593694Y-160592688D01*
X159477401Y-160613217D01*
X159449323Y-160616141D01*
X159239025Y-160628731D01*
X159072541Y-160622059D01*
X158955902Y-160596698D01*
X158903379Y-160564283D01*
X158850810Y-160526562D01*
X158818441Y-160522162D01*
X158767035Y-160532230D01*
X158678859Y-160545104D01*
X158632089Y-160550983D01*
X158540563Y-160554630D01*
X158489175Y-160542967D01*
X158485319Y-160521095D01*
X158536390Y-160494109D01*
X158545318Y-160491162D01*
X158596367Y-160460845D01*
X158608424Y-160437029D01*
X158580042Y-160420872D01*
X158505299Y-160415296D01*
X158399802Y-160418951D01*
X158279157Y-160430483D01*
X158158971Y-160448541D01*
X158054850Y-160471773D01*
X158001782Y-160489586D01*
X157905889Y-160526335D01*
X157864341Y-160532418D01*
X157875608Y-160506494D01*
X157938157Y-160447221D01*
X157945815Y-160440580D01*
X158056250Y-160345234D01*
X157961592Y-160367218D01*
X157873550Y-160399220D01*
X157811522Y-160437359D01*
X157757361Y-160470145D01*
X157735035Y-160457878D01*
X157749820Y-160412753D01*
X157782668Y-160370681D01*
X157831268Y-160304295D01*
X157851157Y-160248457D01*
X157873735Y-160189376D01*
X157903670Y-160155833D01*
X157949159Y-160110915D01*
X158019873Y-160033098D01*
X158101242Y-159938462D01*
X158108763Y-159929461D01*
X158203678Y-159800937D01*
X158256342Y-159686073D01*
X158265044Y-159575309D01*
X158228075Y-159459079D01*
X158143724Y-159327822D01*
X158010282Y-159171974D01*
X157964651Y-159123427D01*
X157832733Y-158996456D01*
X157678909Y-158866327D01*
X157518065Y-158744107D01*
X157365091Y-158640866D01*
X157234872Y-158567669D01*
X157192173Y-158549161D01*
X157118129Y-158515138D01*
X157083241Y-158486811D01*
X157085789Y-158476789D01*
X157140004Y-158464204D01*
X157231426Y-158459941D01*
X157335901Y-158463143D01*
X157429272Y-158472951D01*
X157487386Y-158488508D01*
X157491460Y-158491198D01*
X157544371Y-158497390D01*
X157627896Y-158468244D01*
X157629244Y-158467574D01*
X157691475Y-158440536D01*
X157747646Y-158432121D01*
X157820311Y-158442461D01*
G37*
G36*
X152924046Y-159573118D02*
G01*
X152957919Y-159604888D01*
X152950970Y-159623153D01*
X152946559Y-159623460D01*
X152919872Y-159601048D01*
X152910131Y-159587032D01*
X152906413Y-159565440D01*
X152924046Y-159573118D01*
G37*
G36*
X154569666Y-167275013D02*
G01*
X154553890Y-167290789D01*
X154538113Y-167275013D01*
X154553890Y-167259236D01*
X154569666Y-167275013D01*
G37*
D13*
%TO.C,J1*%
X321146562Y-54502500D02*
X321146562Y-52502500D01*
X330546562Y-54502500D02*
X330546562Y-52502500D01*
%TD*%
M02*
