%TF.GenerationSoftware,KiCad,Pcbnew,(6.0.6)*%
%TF.CreationDate,2023-03-24T21:40:07+11:00*%
%TF.ProjectId,fuyu,66757975-2e6b-4696-9361-645f70636258,rev?*%
%TF.SameCoordinates,Original*%
%TF.FileFunction,Paste,Bot*%
%TF.FilePolarity,Positive*%
%FSLAX46Y46*%
G04 Gerber Fmt 4.6, Leading zero omitted, Abs format (unit mm)*
G04 Created by KiCad (PCBNEW (6.0.6)) date 2023-03-24 21:40:07*
%MOMM*%
%LPD*%
G01*
G04 APERTURE LIST*
G04 Aperture macros list*
%AMRoundRect*
0 Rectangle with rounded corners*
0 $1 Rounding radius*
0 $2 $3 $4 $5 $6 $7 $8 $9 X,Y pos of 4 corners*
0 Add a 4 corners polygon primitive as box body*
4,1,4,$2,$3,$4,$5,$6,$7,$8,$9,$2,$3,0*
0 Add four circle primitives for the rounded corners*
1,1,$1+$1,$2,$3*
1,1,$1+$1,$4,$5*
1,1,$1+$1,$6,$7*
1,1,$1+$1,$8,$9*
0 Add four rect primitives between the rounded corners*
20,1,$1+$1,$2,$3,$4,$5,0*
20,1,$1+$1,$4,$5,$6,$7,0*
20,1,$1+$1,$6,$7,$8,$9,0*
20,1,$1+$1,$8,$9,$2,$3,0*%
%AMRotRect*
0 Rectangle, with rotation*
0 The origin of the aperture is its center*
0 $1 length*
0 $2 width*
0 $3 Rotation angle, in degrees counterclockwise*
0 Add horizontal line*
21,1,$1,$2,0,0,$3*%
%AMFreePoly0*
4,1,18,-0.410000,0.593000,-0.403758,0.624380,-0.385983,0.650983,-0.359380,0.668758,-0.328000,0.675000,0.328000,0.675000,0.359380,0.668758,0.385983,0.650983,0.403758,0.624380,0.410000,0.593000,0.410000,-0.593000,0.403758,-0.624380,0.385983,-0.650983,0.359380,-0.668758,0.328000,-0.675000,0.000000,-0.675000,-0.410000,-0.265000,-0.410000,0.593000,-0.410000,0.593000,$1*%
G04 Aperture macros list end*
%ADD10FreePoly0,90.000000*%
%ADD11RoundRect,0.082000X0.593000X-0.328000X0.593000X0.328000X-0.593000X0.328000X-0.593000X-0.328000X0*%
%ADD12RoundRect,0.140000X0.140000X0.170000X-0.140000X0.170000X-0.140000X-0.170000X0.140000X-0.170000X0*%
%ADD13RoundRect,0.105000X-0.245000X-0.245000X0.245000X-0.245000X0.245000X0.245000X-0.245000X0.245000X0*%
%ADD14RotRect,1.400000X1.200000X45.000000*%
%ADD15R,1.200000X0.900000*%
%ADD16RoundRect,0.140000X-0.140000X-0.170000X0.140000X-0.170000X0.140000X0.170000X-0.140000X0.170000X0*%
%ADD17RoundRect,0.250000X1.025000X1.000000X-1.025000X1.000000X-1.025000X-1.000000X1.025000X-1.000000X0*%
%ADD18RoundRect,0.140000X0.170000X-0.140000X0.170000X0.140000X-0.170000X0.140000X-0.170000X-0.140000X0*%
%ADD19RoundRect,0.105000X0.245000X0.245000X-0.245000X0.245000X-0.245000X-0.245000X0.245000X-0.245000X0*%
%ADD20RoundRect,0.200000X-0.275000X0.200000X-0.275000X-0.200000X0.275000X-0.200000X0.275000X0.200000X0*%
%ADD21RoundRect,0.150000X-0.512500X-0.150000X0.512500X-0.150000X0.512500X0.150000X-0.512500X0.150000X0*%
%ADD22FreePoly0,0.000000*%
%ADD23RoundRect,0.082000X-0.328000X-0.593000X0.328000X-0.593000X0.328000X0.593000X-0.328000X0.593000X0*%
%ADD24RoundRect,0.150000X0.150000X-0.650000X0.150000X0.650000X-0.150000X0.650000X-0.150000X-0.650000X0*%
%ADD25R,0.900000X1.200000*%
%ADD26RoundRect,0.150000X0.475000X0.150000X-0.475000X0.150000X-0.475000X-0.150000X0.475000X-0.150000X0*%
%ADD27RoundRect,0.135000X-0.135000X-0.185000X0.135000X-0.185000X0.135000X0.185000X-0.135000X0.185000X0*%
%ADD28RoundRect,0.250000X-1.025000X-1.000000X1.025000X-1.000000X1.025000X1.000000X-1.025000X1.000000X0*%
%ADD29RoundRect,0.135000X-0.185000X0.135000X-0.185000X-0.135000X0.185000X-0.135000X0.185000X0.135000X0*%
%ADD30RoundRect,0.050000X0.050000X0.387500X-0.050000X0.387500X-0.050000X-0.387500X0.050000X-0.387500X0*%
%ADD31RoundRect,0.050000X0.387500X0.050000X-0.387500X0.050000X-0.387500X-0.050000X0.387500X-0.050000X0*%
%ADD32RoundRect,0.250000X0.292217X0.292217X-0.292217X0.292217X-0.292217X-0.292217X0.292217X-0.292217X0*%
%ADD33RoundRect,0.135000X0.135000X0.185000X-0.135000X0.185000X-0.135000X-0.185000X0.135000X-0.185000X0*%
%ADD34FreePoly0,180.000000*%
%ADD35RoundRect,0.082000X0.328000X0.593000X-0.328000X0.593000X-0.328000X-0.593000X0.328000X-0.593000X0*%
%ADD36RoundRect,0.140000X0.021213X-0.219203X0.219203X-0.021213X-0.021213X0.219203X-0.219203X0.021213X0*%
%ADD37RoundRect,0.140000X0.219203X0.021213X0.021213X0.219203X-0.219203X-0.021213X-0.021213X-0.219203X0*%
%ADD38RoundRect,0.135000X0.035355X-0.226274X0.226274X-0.035355X-0.035355X0.226274X-0.226274X0.035355X0*%
%ADD39RoundRect,0.171500X0.686000X1.078500X-0.686000X1.078500X-0.686000X-1.078500X0.686000X-1.078500X0*%
%ADD40RoundRect,0.150000X0.150000X-0.587500X0.150000X0.587500X-0.150000X0.587500X-0.150000X-0.587500X0*%
%ADD41RoundRect,0.250000X-0.625000X0.375000X-0.625000X-0.375000X0.625000X-0.375000X0.625000X0.375000X0*%
%ADD42RoundRect,0.140000X-0.170000X0.140000X-0.170000X-0.140000X0.170000X-0.140000X0.170000X0.140000X0*%
%ADD43FreePoly0,270.000000*%
%ADD44RoundRect,0.082000X-0.593000X0.328000X-0.593000X-0.328000X0.593000X-0.328000X0.593000X0.328000X0*%
G04 APERTURE END LIST*
D10*
%TO.C,LED3*%
X21775000Y5250000D03*
D11*
X21775000Y6750000D03*
X16325000Y5250000D03*
X16325000Y6750000D03*
%TD*%
D12*
%TO.C,C41*%
X333210000Y-69810000D03*
X334170000Y-69810000D03*
%TD*%
D13*
%TO.C,D109*%
X334515000Y-33880000D03*
X334515000Y-32780000D03*
X332685000Y-32780000D03*
X332685000Y-33880000D03*
%TD*%
D14*
%TO.C,Y1*%
X275570790Y-72396425D03*
X277126425Y-70840790D03*
X278328506Y-72042871D03*
X276772871Y-73598506D03*
%TD*%
D15*
%TO.C,D38*%
X69850000Y-42006250D03*
X69850000Y-45306250D03*
%TD*%
D16*
%TO.C,C33*%
X203980000Y-13550000D03*
X203020000Y-13550000D03*
%TD*%
D17*
%TO.C,SW92*%
X198971250Y-94932500D03*
X185521250Y-97472500D03*
%TD*%
D16*
%TO.C,C45*%
X258110000Y-91040000D03*
X257150000Y-91040000D03*
%TD*%
D17*
%TO.C,SW67*%
X260883750Y-56832500D03*
X247433750Y-59372500D03*
%TD*%
%TO.C,SW96*%
X296602500Y-94932500D03*
X283152500Y-97472500D03*
%TD*%
%TO.C,SW86*%
X315652500Y-75882500D03*
X302202500Y-78422500D03*
%TD*%
D15*
%TO.C,D14*%
X293687500Y856250D03*
X293687500Y-2443750D03*
%TD*%
D12*
%TO.C,C9*%
X273530000Y-70397500D03*
X272570000Y-70397500D03*
%TD*%
D17*
%TO.C,SW29*%
X215640000Y-18732500D03*
X202190000Y-21272500D03*
%TD*%
D15*
%TO.C,D8*%
X165100000Y856250D03*
X165100000Y-2443750D03*
%TD*%
D13*
%TO.C,D116*%
X229262038Y-91037500D03*
X229262038Y-89937500D03*
X227432038Y-89937500D03*
X227432038Y-91037500D03*
%TD*%
D17*
%TO.C,SW42*%
X110865000Y-37782500D03*
X97415000Y-40322500D03*
%TD*%
%TO.C,SW3*%
X44190000Y5080000D03*
X30740000Y2540000D03*
%TD*%
D18*
%TO.C,C3*%
X277327192Y-55045000D03*
X277327192Y-54085000D03*
%TD*%
D17*
%TO.C,SW11*%
X215640000Y5080000D03*
X202190000Y2540000D03*
%TD*%
D19*
%TO.C,D96*%
X19600384Y-11356250D03*
X19600384Y-12456250D03*
X21430384Y-12456250D03*
X21430384Y-11356250D03*
%TD*%
D17*
%TO.C,SW28*%
X196590000Y-18732500D03*
X183140000Y-21272500D03*
%TD*%
D12*
%TO.C,C2*%
X273530000Y-69377500D03*
X272570000Y-69377500D03*
%TD*%
D17*
%TO.C,SW35*%
X315652500Y-18732500D03*
X302202500Y-21272500D03*
%TD*%
D12*
%TO.C,C11*%
X270087192Y-59077500D03*
X269127192Y-59077500D03*
%TD*%
D16*
%TO.C,C35*%
X256130000Y-13540000D03*
X255170000Y-13540000D03*
%TD*%
D17*
%TO.C,SW36*%
X334702500Y-18732500D03*
X321252500Y-21272500D03*
%TD*%
%TO.C,SW12*%
X234690000Y5080000D03*
X221240000Y2540000D03*
%TD*%
D15*
%TO.C,D44*%
X184150000Y-42006250D03*
X184150000Y-45306250D03*
%TD*%
D17*
%TO.C,SW59*%
X96577500Y-56832500D03*
X83127500Y-59372500D03*
%TD*%
D15*
%TO.C,D41*%
X127000000Y-42006250D03*
X127000000Y-45306250D03*
%TD*%
D17*
%TO.C,SW72*%
X48952500Y-75882500D03*
X35502500Y-78422500D03*
%TD*%
D15*
%TO.C,D65*%
X297656250Y-61056250D03*
X297656250Y-64356250D03*
%TD*%
%TO.C,D18*%
X22225000Y-22956250D03*
X22225000Y-26256250D03*
%TD*%
D17*
%TO.C,SW9*%
X168015000Y5080000D03*
X154565000Y2540000D03*
%TD*%
%TO.C,SW69*%
X315652500Y-56832500D03*
X302202500Y-59372500D03*
%TD*%
D18*
%TO.C,C1*%
X272327192Y-57757500D03*
X272327192Y-56797500D03*
%TD*%
D17*
%TO.C,SW87*%
X334702500Y-75882500D03*
X321252500Y-78422500D03*
%TD*%
D20*
%TO.C,R3*%
X273017812Y-53601402D03*
X273017812Y-55251402D03*
%TD*%
D17*
%TO.C,SW48*%
X225165000Y-37782500D03*
X211715000Y-40322500D03*
%TD*%
%TO.C,SW40*%
X72765000Y-37782500D03*
X59315000Y-40322500D03*
%TD*%
D15*
%TO.C,D17*%
X3175000Y-22956250D03*
X3175000Y-26256250D03*
%TD*%
D16*
%TO.C,C25*%
X-4620000Y-13540000D03*
X-5580000Y-13540000D03*
%TD*%
D17*
%TO.C,SW17*%
X334702500Y5080000D03*
X321252500Y2540000D03*
%TD*%
D15*
%TO.C,D43*%
X165100000Y-42006250D03*
X165100000Y-45306250D03*
%TD*%
D17*
%TO.C,SW7*%
X129915000Y5080000D03*
X116465000Y2540000D03*
%TD*%
D12*
%TO.C,C39*%
X332640000Y-31690000D03*
X333600000Y-31690000D03*
%TD*%
D17*
%TO.C,SW26*%
X158490000Y-18732500D03*
X145040000Y-21272500D03*
%TD*%
%TO.C,SW30*%
X234690000Y-18732500D03*
X221240000Y-21272500D03*
%TD*%
D15*
%TO.C,D51*%
X331787500Y-42006250D03*
X331787500Y-45306250D03*
%TD*%
D19*
%TO.C,D127*%
X-6471250Y-51837500D03*
X-6471250Y-52937500D03*
X-4641250Y-52937500D03*
X-4641250Y-51837500D03*
%TD*%
D17*
%TO.C,SW93*%
X222783750Y-94932500D03*
X209333750Y-97472500D03*
%TD*%
%TO.C,SW14*%
X272790000Y5080000D03*
X259340000Y2540000D03*
%TD*%
D15*
%TO.C,D49*%
X293687500Y-42006250D03*
X293687500Y-45306250D03*
%TD*%
D16*
%TO.C,C46*%
X231290000Y-91040000D03*
X230330000Y-91040000D03*
%TD*%
D15*
%TO.C,D34*%
X331787500Y-22956250D03*
X331787500Y-26256250D03*
%TD*%
D19*
%TO.C,D104*%
X228173456Y-11356250D03*
X228173456Y-12456250D03*
X230003456Y-12456250D03*
X230003456Y-11356250D03*
%TD*%
D18*
%TO.C,C8*%
X279720000Y-63580000D03*
X279720000Y-62620000D03*
%TD*%
D19*
%TO.C,D102*%
X176030188Y-11356250D03*
X176030188Y-12456250D03*
X177860188Y-12456250D03*
X177860188Y-11356250D03*
%TD*%
D16*
%TO.C,C27*%
X47540000Y-13540000D03*
X46580000Y-13540000D03*
%TD*%
D17*
%TO.C,SW64*%
X191827500Y-56832500D03*
X178377500Y-59372500D03*
%TD*%
D13*
%TO.C,D125*%
X-4641250Y-91037500D03*
X-4641250Y-89937500D03*
X-6471250Y-89937500D03*
X-6471250Y-91037500D03*
%TD*%
D21*
%TO.C,U5*%
X281300000Y-64790000D03*
X281300000Y-63840000D03*
X281300000Y-62890000D03*
X283575000Y-62890000D03*
X283575000Y-64790000D03*
%TD*%
D17*
%TO.C,SW94*%
X246596250Y-94932500D03*
X233146250Y-97472500D03*
%TD*%
D22*
%TO.C,LED4*%
X12930642Y175000D03*
D23*
X14430642Y175000D03*
X12930642Y5625000D03*
X14430642Y5625000D03*
%TD*%
D17*
%TO.C,SW24*%
X120390000Y-18732500D03*
X106940000Y-21272500D03*
%TD*%
D15*
%TO.C,D7*%
X146050000Y856250D03*
X146050000Y-2443750D03*
%TD*%
D19*
%TO.C,D103*%
X202101822Y-11356250D03*
X202101822Y-12456250D03*
X203931822Y-12456250D03*
X203931822Y-11356250D03*
%TD*%
D24*
%TO.C,U4*%
X283395000Y-54724305D03*
X282125000Y-54724305D03*
X280855000Y-54724305D03*
X279585000Y-54724305D03*
X279585000Y-47524305D03*
X280855000Y-47524305D03*
X282125000Y-47524305D03*
X283395000Y-47524305D03*
%TD*%
D17*
%TO.C,SW88*%
X8471250Y-94932500D03*
X-4978750Y-97472500D03*
%TD*%
D15*
%TO.C,D3*%
X60325000Y856250D03*
X60325000Y-2443750D03*
%TD*%
D19*
%TO.C,D99*%
X97815286Y-11356250D03*
X97815286Y-12456250D03*
X99645286Y-12456250D03*
X99645286Y-11356250D03*
%TD*%
D15*
%TO.C,D48*%
X265112500Y-42006250D03*
X265112500Y-45306250D03*
%TD*%
D13*
%TO.C,D117*%
X202448990Y-91037500D03*
X202448990Y-89937500D03*
X200618990Y-89937500D03*
X200618990Y-91037500D03*
%TD*%
D15*
%TO.C,D69*%
X46037500Y-80106250D03*
X46037500Y-83406250D03*
%TD*%
D12*
%TO.C,C42*%
X333330000Y-92120000D03*
X334290000Y-92120000D03*
%TD*%
D16*
%TO.C,C30*%
X125770000Y-13570000D03*
X124810000Y-13570000D03*
%TD*%
D17*
%TO.C,SW75*%
X106102500Y-75882500D03*
X92652500Y-78422500D03*
%TD*%
D16*
%TO.C,C53*%
X49520000Y-91040000D03*
X48560000Y-91040000D03*
%TD*%
D25*
%TO.C,D52*%
X6280000Y-70300000D03*
X9580000Y-70300000D03*
%TD*%
D13*
%TO.C,D120*%
X122009846Y-91037500D03*
X122009846Y-89937500D03*
X120179846Y-89937500D03*
X120179846Y-91037500D03*
%TD*%
D17*
%TO.C,SW52*%
X315652500Y-37782500D03*
X302202500Y-40322500D03*
%TD*%
%TO.C,SW60*%
X115627500Y-56832500D03*
X102177500Y-59372500D03*
%TD*%
D16*
%TO.C,C56*%
X-4600000Y-73070000D03*
X-5560000Y-73070000D03*
%TD*%
D15*
%TO.C,D92*%
X293687500Y-99156250D03*
X293687500Y-102456250D03*
%TD*%
D12*
%TO.C,C19*%
X18210000Y3780000D03*
X19170000Y3780000D03*
%TD*%
D17*
%TO.C,SW37*%
X10852500Y-37782500D03*
X-2597500Y-40322500D03*
%TD*%
D12*
%TO.C,C40*%
X332301875Y-50760000D03*
X333261875Y-50760000D03*
%TD*%
D17*
%TO.C,SW61*%
X134677500Y-56832500D03*
X121227500Y-59372500D03*
%TD*%
D16*
%TO.C,C34*%
X230050000Y-13550000D03*
X229090000Y-13550000D03*
%TD*%
D15*
%TO.C,D73*%
X122237500Y-80106250D03*
X122237500Y-83406250D03*
%TD*%
%TO.C,D6*%
X127000000Y856250D03*
X127000000Y-2443750D03*
%TD*%
%TO.C,D42*%
X146050000Y-42006250D03*
X146050000Y-45306250D03*
%TD*%
D26*
%TO.C,U3*%
X279732500Y4280000D03*
X279732500Y3330000D03*
X279807500Y2380000D03*
X277382500Y2380000D03*
X277382500Y3330000D03*
X277382500Y4280000D03*
%TD*%
D12*
%TO.C,C14*%
X274335000Y-8420000D03*
X273375000Y-8420000D03*
%TD*%
D15*
%TO.C,D70*%
X65087500Y-80106250D03*
X65087500Y-83406250D03*
%TD*%
D27*
%TO.C,R7*%
X276560000Y6780000D03*
X277580000Y6780000D03*
%TD*%
D18*
%TO.C,C18*%
X285200000Y-63910000D03*
X285200000Y-64870000D03*
%TD*%
D17*
%TO.C,SW34*%
X296602500Y-18732500D03*
X283152500Y-21272500D03*
%TD*%
D16*
%TO.C,C13*%
X273350000Y-3230000D03*
X274310000Y-3230000D03*
%TD*%
D28*
%TO.C,SW31*%
X241560000Y-28892500D03*
X255010000Y-26352500D03*
%TD*%
D13*
%TO.C,D119*%
X148822894Y-91037500D03*
X148822894Y-89937500D03*
X146992894Y-89937500D03*
X146992894Y-91037500D03*
%TD*%
D29*
%TO.C,R1*%
X276739358Y-81480000D03*
X276739358Y-82500000D03*
%TD*%
D18*
%TO.C,C5*%
X271279104Y-57760858D03*
X271279104Y-56800858D03*
%TD*%
D17*
%TO.C,SW43*%
X129915000Y-37782500D03*
X116465000Y-40322500D03*
%TD*%
D15*
%TO.C,D94*%
X331787500Y-99156250D03*
X331787500Y-102456250D03*
%TD*%
D17*
%TO.C,SW5*%
X82290000Y5080000D03*
X68840000Y2540000D03*
%TD*%
%TO.C,SW70*%
X334702500Y-56832500D03*
X321252500Y-59372500D03*
%TD*%
D15*
%TO.C,D15*%
X312737500Y856250D03*
X312737500Y-2443750D03*
%TD*%
%TO.C,D54*%
X55562500Y-61056250D03*
X55562500Y-64356250D03*
%TD*%
%TO.C,D61*%
X188912500Y-61056250D03*
X188912500Y-64356250D03*
%TD*%
D12*
%TO.C,C23*%
X21460000Y-8910000D03*
X22420000Y-8910000D03*
%TD*%
D16*
%TO.C,C36*%
X283530000Y-13540000D03*
X282570000Y-13540000D03*
%TD*%
D15*
%TO.C,D90*%
X243681250Y-99156250D03*
X243681250Y-102456250D03*
%TD*%
%TO.C,D80*%
X263590000Y-82080000D03*
X263590000Y-78780000D03*
%TD*%
%TO.C,D46*%
X222250000Y-42006250D03*
X222250000Y-45306250D03*
%TD*%
D17*
%TO.C,SW73*%
X68002500Y-75882500D03*
X54552500Y-78422500D03*
%TD*%
D15*
%TO.C,D40*%
X107950000Y-42006250D03*
X107950000Y-45306250D03*
%TD*%
%TO.C,D57*%
X112712500Y-61056250D03*
X112712500Y-64356250D03*
%TD*%
D17*
%TO.C,SW81*%
X220402500Y-75882500D03*
X206952500Y-78422500D03*
%TD*%
D15*
%TO.C,D28*%
X212725000Y-22956250D03*
X212725000Y-26256250D03*
%TD*%
D16*
%TO.C,C31*%
X151830000Y-13570000D03*
X150870000Y-13570000D03*
%TD*%
D17*
%TO.C,SW49*%
X244215000Y-37782500D03*
X230765000Y-40322500D03*
%TD*%
D15*
%TO.C,D85*%
X29368750Y-99156250D03*
X29368750Y-102456250D03*
%TD*%
D17*
%TO.C,SW89*%
X32283750Y-94932500D03*
X18833750Y-97472500D03*
%TD*%
D15*
%TO.C,D19*%
X41275000Y-22956250D03*
X41275000Y-26256250D03*
%TD*%
%TO.C,D91*%
X267493750Y-99156250D03*
X267493750Y-102456250D03*
%TD*%
D12*
%TO.C,C6*%
X268880000Y-64123608D03*
X267920000Y-64123608D03*
%TD*%
D15*
%TO.C,D24*%
X136525000Y-22956250D03*
X136525000Y-26256250D03*
%TD*%
D17*
%TO.C,SW57*%
X58477500Y-56832500D03*
X45027500Y-59372500D03*
%TD*%
D15*
%TO.C,D77*%
X198437500Y-80106250D03*
X198437500Y-83406250D03*
%TD*%
D17*
%TO.C,SW74*%
X87052500Y-75882500D03*
X73602500Y-78422500D03*
%TD*%
D19*
%TO.C,D101*%
X149958554Y-11356250D03*
X149958554Y-12456250D03*
X151788554Y-12456250D03*
X151788554Y-11356250D03*
%TD*%
D16*
%TO.C,C49*%
X150840000Y-91040000D03*
X149880000Y-91040000D03*
%TD*%
D17*
%TO.C,SW32*%
X263265000Y-18732500D03*
X249815000Y-21272500D03*
%TD*%
%TO.C,SW79*%
X182302500Y-75882500D03*
X168852500Y-78422500D03*
%TD*%
D13*
%TO.C,D124*%
X21265000Y-91037500D03*
X21265000Y-89937500D03*
X19435000Y-89937500D03*
X19435000Y-91037500D03*
%TD*%
D16*
%TO.C,C24*%
X24290000Y-7630000D03*
X23330000Y-7630000D03*
%TD*%
D15*
%TO.C,D39*%
X88900000Y-42006250D03*
X88900000Y-45306250D03*
%TD*%
D28*
%TO.C,SW55*%
X1053750Y-66992500D03*
X14503750Y-64452500D03*
%TD*%
D20*
%TO.C,R2*%
X274604062Y-53601402D03*
X274604062Y-55251402D03*
%TD*%
D15*
%TO.C,D25*%
X155575000Y-22956250D03*
X155575000Y-26256250D03*
%TD*%
D13*
%TO.C,D118*%
X176333750Y-91037500D03*
X176333750Y-89937500D03*
X174503750Y-89937500D03*
X174503750Y-91037500D03*
%TD*%
D15*
%TO.C,D5*%
X98425000Y856250D03*
X98425000Y-2443750D03*
%TD*%
D13*
%TO.C,D114*%
X282146724Y-91037500D03*
X282146724Y-89937500D03*
X280316724Y-89937500D03*
X280316724Y-91037500D03*
%TD*%
D17*
%TO.C,SW65*%
X210877500Y-56832500D03*
X197427500Y-59372500D03*
%TD*%
D18*
%TO.C,C7*%
X276277192Y-55045000D03*
X276277192Y-54085000D03*
%TD*%
D25*
%TO.C,D67*%
X324630000Y-64360000D03*
X321330000Y-64360000D03*
%TD*%
D30*
%TO.C,U2*%
X277640000Y-59472500D03*
X277240000Y-59472500D03*
X276840000Y-59472500D03*
X276440000Y-59472500D03*
X276040000Y-59472500D03*
X275640000Y-59472500D03*
X275240000Y-59472500D03*
X274840000Y-59472500D03*
X274440000Y-59472500D03*
X274040000Y-59472500D03*
X273640000Y-59472500D03*
X273240000Y-59472500D03*
X272840000Y-59472500D03*
X272440000Y-59472500D03*
D31*
X271602500Y-60310000D03*
X271602500Y-60710000D03*
X271602500Y-61110000D03*
X271602500Y-61510000D03*
X271602500Y-61910000D03*
X271602500Y-62310000D03*
X271602500Y-62710000D03*
X271602500Y-63110000D03*
X271602500Y-63510000D03*
X271602500Y-63910000D03*
X271602500Y-64310000D03*
X271602500Y-64710000D03*
X271602500Y-65110000D03*
X271602500Y-65510000D03*
D30*
X272440000Y-66347500D03*
X272840000Y-66347500D03*
X273240000Y-66347500D03*
X273640000Y-66347500D03*
X274040000Y-66347500D03*
X274440000Y-66347500D03*
X274840000Y-66347500D03*
X275240000Y-66347500D03*
X275640000Y-66347500D03*
X276040000Y-66347500D03*
X276440000Y-66347500D03*
X276840000Y-66347500D03*
X277240000Y-66347500D03*
X277640000Y-66347500D03*
D31*
X278477500Y-65510000D03*
X278477500Y-65110000D03*
X278477500Y-64710000D03*
X278477500Y-64310000D03*
X278477500Y-63910000D03*
X278477500Y-63510000D03*
X278477500Y-63110000D03*
X278477500Y-62710000D03*
X278477500Y-62310000D03*
X278477500Y-61910000D03*
X278477500Y-61510000D03*
X278477500Y-61110000D03*
X278477500Y-60710000D03*
X278477500Y-60310000D03*
D32*
X275677500Y-62272500D03*
X274402500Y-63547500D03*
X274402500Y-62272500D03*
X275677500Y-63547500D03*
%TD*%
D17*
%TO.C,SW22*%
X82290000Y-18732500D03*
X68840000Y-21272500D03*
%TD*%
%TO.C,SW4*%
X63240000Y5080000D03*
X49790000Y2540000D03*
%TD*%
%TO.C,SW83*%
X256121250Y-75882500D03*
X242671250Y-78422500D03*
%TD*%
D25*
%TO.C,D83*%
X324700000Y-83400000D03*
X321400000Y-83400000D03*
%TD*%
D13*
%TO.C,D113*%
X308218358Y-91037500D03*
X308218358Y-89937500D03*
X306388358Y-89937500D03*
X306388358Y-91037500D03*
%TD*%
D10*
%TO.C,LED5*%
X16405642Y-4050000D03*
D11*
X16405642Y-2550000D03*
X10955642Y-4050000D03*
X10955642Y-2550000D03*
%TD*%
D17*
%TO.C,SW45*%
X168015000Y-37782500D03*
X154565000Y-40322500D03*
%TD*%
D33*
%TO.C,R5*%
X305610001Y-48225000D03*
X304590001Y-48225000D03*
%TD*%
D17*
%TO.C,SW77*%
X144202500Y-75882500D03*
X130752500Y-78422500D03*
%TD*%
%TO.C,SW16*%
X315652500Y5080000D03*
X302202500Y2540000D03*
%TD*%
D15*
%TO.C,D22*%
X98425000Y-22956250D03*
X98425000Y-26256250D03*
%TD*%
D16*
%TO.C,C32*%
X177930000Y-13540000D03*
X176970000Y-13540000D03*
%TD*%
%TO.C,C48*%
X178360000Y-91040000D03*
X177400000Y-91040000D03*
%TD*%
D15*
%TO.C,D76*%
X179387500Y-80106250D03*
X179387500Y-83406250D03*
%TD*%
D19*
%TO.C,D95*%
X-6471250Y-11356250D03*
X-6471250Y-12456250D03*
X-4641250Y-12456250D03*
X-4641250Y-11356250D03*
%TD*%
D17*
%TO.C,SW98*%
X334702500Y-94932500D03*
X321252500Y-97472500D03*
%TD*%
D13*
%TO.C,D121*%
X95196798Y-91037500D03*
X95196798Y-89937500D03*
X93366798Y-89937500D03*
X93366798Y-91037500D03*
%TD*%
D34*
%TO.C,LED7*%
X25169358Y-575000D03*
D35*
X23669358Y-575000D03*
X25169358Y-6025000D03*
X23669358Y-6025000D03*
%TD*%
D17*
%TO.C,SW58*%
X77527500Y-56832500D03*
X64077500Y-59372500D03*
%TD*%
D16*
%TO.C,C44*%
X284170000Y-91040000D03*
X283210000Y-91040000D03*
%TD*%
D17*
%TO.C,SW78*%
X163252500Y-75882500D03*
X149802500Y-78422500D03*
%TD*%
%TO.C,SW47*%
X206115000Y-37782500D03*
X192665000Y-40322500D03*
%TD*%
D15*
%TO.C,D35*%
X7937500Y-42006250D03*
X7937500Y-45306250D03*
%TD*%
D17*
%TO.C,SW25*%
X139440000Y-18732500D03*
X125990000Y-21272500D03*
%TD*%
D15*
%TO.C,D56*%
X93662500Y-61056250D03*
X93662500Y-64356250D03*
%TD*%
D17*
%TO.C,SW44*%
X148965000Y-37782500D03*
X135515000Y-40322500D03*
%TD*%
D15*
%TO.C,D81*%
X297656250Y-80106250D03*
X297656250Y-83406250D03*
%TD*%
D17*
%TO.C,SW13*%
X253740000Y5080000D03*
X240290000Y2540000D03*
%TD*%
%TO.C,SW76*%
X125152500Y-75882500D03*
X111702500Y-78422500D03*
%TD*%
D28*
%TO.C,SW82*%
X234416250Y-86042500D03*
X247866250Y-83502500D03*
%TD*%
D17*
%TO.C,SW62*%
X153727500Y-56832500D03*
X140277500Y-59372500D03*
%TD*%
D25*
%TO.C,D79*%
X250360000Y-85510000D03*
X253660000Y-85510000D03*
%TD*%
D15*
%TO.C,D78*%
X217487500Y-80106250D03*
X217487500Y-83406250D03*
%TD*%
D16*
%TO.C,C4*%
X273350000Y-9570000D03*
X274310000Y-9570000D03*
%TD*%
D17*
%TO.C,SW51*%
X296602500Y-37782500D03*
X283152500Y-40322500D03*
%TD*%
D36*
%TO.C,C15*%
X278330237Y-74159059D03*
X279009059Y-73480237D03*
%TD*%
D15*
%TO.C,D53*%
X36512500Y-61056250D03*
X36512500Y-64356250D03*
%TD*%
%TO.C,D59*%
X150812500Y-61056250D03*
X150812500Y-64356250D03*
%TD*%
%TO.C,D93*%
X312737500Y-99156250D03*
X312737500Y-102456250D03*
%TD*%
%TO.C,D74*%
X141287500Y-80106250D03*
X141287500Y-83406250D03*
%TD*%
D16*
%TO.C,C55*%
X-2610000Y-91040000D03*
X-3570000Y-91040000D03*
%TD*%
D15*
%TO.C,D27*%
X193675000Y-22956250D03*
X193675000Y-26256250D03*
%TD*%
%TO.C,D63*%
X227012500Y-61056250D03*
X227012500Y-64356250D03*
%TD*%
D17*
%TO.C,SW46*%
X187065000Y-37782500D03*
X173615000Y-40322500D03*
%TD*%
D15*
%TO.C,D88*%
X196056250Y-99156250D03*
X196056250Y-102456250D03*
%TD*%
D19*
%TO.C,D106*%
X281660000Y-11356250D03*
X281660000Y-12456250D03*
X283490000Y-12456250D03*
X283490000Y-11356250D03*
%TD*%
D12*
%TO.C,C10*%
X270087192Y-60075000D03*
X269127192Y-60075000D03*
%TD*%
D16*
%TO.C,C50*%
X124040000Y-91040000D03*
X123080000Y-91040000D03*
%TD*%
D17*
%TO.C,SW23*%
X101340000Y-18732500D03*
X87890000Y-21272500D03*
%TD*%
D15*
%TO.C,D36*%
X31750000Y-42006250D03*
X31750000Y-45306250D03*
%TD*%
D17*
%TO.C,SW95*%
X270408750Y-94932500D03*
X256958750Y-97472500D03*
%TD*%
D15*
%TO.C,D87*%
X124618750Y-99156250D03*
X124618750Y-102456250D03*
%TD*%
D37*
%TO.C,C16*%
X275339059Y-74499059D03*
X274660237Y-73820237D03*
%TD*%
D16*
%TO.C,C37*%
X308270000Y-13540000D03*
X307310000Y-13540000D03*
%TD*%
D19*
%TO.C,D98*%
X71743652Y-11356250D03*
X71743652Y-12456250D03*
X73573652Y-12456250D03*
X73573652Y-11356250D03*
%TD*%
D18*
%TO.C,C12*%
X279720000Y-60090000D03*
X279720000Y-59130000D03*
%TD*%
D15*
%TO.C,D50*%
X312737500Y-42006250D03*
X312737500Y-45306250D03*
%TD*%
%TO.C,D72*%
X103187500Y-80106250D03*
X103187500Y-83406250D03*
%TD*%
D17*
%TO.C,SW54*%
X8471250Y-56832500D03*
X-4978750Y-59372500D03*
%TD*%
%TO.C,SW38*%
X34665000Y-37782500D03*
X21215000Y-40322500D03*
%TD*%
%TO.C,SW21*%
X63240000Y-18732500D03*
X49790000Y-21272500D03*
%TD*%
%TO.C,SW15*%
X296602500Y5080000D03*
X283152500Y2540000D03*
%TD*%
D15*
%TO.C,D33*%
X312737500Y-22956250D03*
X312737500Y-26256250D03*
%TD*%
%TO.C,D66*%
X312737500Y-61056250D03*
X312737500Y-64356250D03*
%TD*%
%TO.C,D84*%
X5556250Y-99156250D03*
X5556250Y-102456250D03*
%TD*%
D22*
%TO.C,LED1*%
X18300000Y-3075000D03*
D23*
X19800000Y-3075000D03*
X18300000Y2375000D03*
X19800000Y2375000D03*
%TD*%
D16*
%TO.C,C38*%
X334340000Y-13540000D03*
X333380000Y-13540000D03*
%TD*%
D19*
%TO.C,D97*%
X45672018Y-11356250D03*
X45672018Y-12456250D03*
X47502018Y-12456250D03*
X47502018Y-11356250D03*
%TD*%
D13*
%TO.C,D112*%
X334290000Y-91037500D03*
X334290000Y-89937500D03*
X332460000Y-89937500D03*
X332460000Y-91037500D03*
%TD*%
D15*
%TO.C,D16*%
X331787500Y856250D03*
X331787500Y-2443750D03*
%TD*%
D17*
%TO.C,SW80*%
X201352500Y-75882500D03*
X187902500Y-78422500D03*
%TD*%
%TO.C,SW8*%
X148965000Y5080000D03*
X135515000Y2540000D03*
%TD*%
%TO.C,SW19*%
X25140000Y-18732500D03*
X11690000Y-21272500D03*
%TD*%
D15*
%TO.C,D68*%
X15081250Y-80106250D03*
X15081250Y-83406250D03*
%TD*%
D38*
%TO.C,R4*%
X275699024Y-70280272D03*
X276420272Y-69559024D03*
%TD*%
D17*
%TO.C,SW6*%
X101340000Y5080000D03*
X87890000Y2540000D03*
%TD*%
D33*
%TO.C,R6*%
X280650000Y6780000D03*
X279630000Y6780000D03*
%TD*%
D17*
%TO.C,SW50*%
X268027500Y-37782500D03*
X254577500Y-40322500D03*
%TD*%
D16*
%TO.C,C29*%
X99680000Y-13540000D03*
X98720000Y-13540000D03*
%TD*%
D19*
%TO.C,D100*%
X123886920Y-11356250D03*
X123886920Y-12456250D03*
X125716920Y-12456250D03*
X125716920Y-11356250D03*
%TD*%
D17*
%TO.C,SW2*%
X6090000Y5080000D03*
D39*
X-6942500Y2540000D03*
%TD*%
D17*
%TO.C,SW63*%
X172777500Y-56832500D03*
X159327500Y-59372500D03*
%TD*%
D15*
%TO.C,D23*%
X117475000Y-22956250D03*
X117475000Y-26256250D03*
%TD*%
D16*
%TO.C,C57*%
X-4620000Y-54020000D03*
X-5580000Y-54020000D03*
%TD*%
D15*
%TO.C,D20*%
X60325000Y-22956250D03*
X60325000Y-26256250D03*
%TD*%
%TO.C,D58*%
X131762500Y-61056250D03*
X131762500Y-64356250D03*
%TD*%
D16*
%TO.C,C51*%
X97210000Y-91040000D03*
X96250000Y-91040000D03*
%TD*%
D15*
%TO.C,D89*%
X219868750Y-99156250D03*
X219868750Y-102456250D03*
%TD*%
D19*
%TO.C,D108*%
X332460000Y-11356250D03*
X332460000Y-12456250D03*
X334290000Y-12456250D03*
X334290000Y-11356250D03*
%TD*%
D17*
%TO.C,SW10*%
X187065000Y5080000D03*
X173615000Y2540000D03*
%TD*%
D15*
%TO.C,D29*%
X231775000Y-22956250D03*
X231775000Y-26256250D03*
%TD*%
D18*
%TO.C,C20*%
X28740000Y3110000D03*
X28740000Y2150000D03*
%TD*%
D15*
%TO.C,D21*%
X79375000Y-22956250D03*
X79375000Y-26256250D03*
%TD*%
D16*
%TO.C,C58*%
X-4630000Y-34970000D03*
X-5590000Y-34970000D03*
%TD*%
D15*
%TO.C,D11*%
X231775000Y856250D03*
X231775000Y-2443750D03*
%TD*%
D40*
%TO.C,U1*%
X275270000Y-6777500D03*
X273370000Y-6777500D03*
X274320000Y-4902500D03*
%TD*%
D17*
%TO.C,SW71*%
X17996250Y-75882500D03*
X4546250Y-78422500D03*
%TD*%
D15*
%TO.C,D47*%
X241300000Y-42006250D03*
X241300000Y-45306250D03*
%TD*%
D28*
%TO.C,SW33*%
X260610000Y-28892500D03*
X274060000Y-26352500D03*
%TD*%
D13*
%TO.C,D111*%
X335080000Y-72000000D03*
X335080000Y-70900000D03*
X333250000Y-70900000D03*
X333250000Y-72000000D03*
%TD*%
D15*
%TO.C,D30*%
X244540000Y-22200000D03*
X244540000Y-25500000D03*
%TD*%
D17*
%TO.C,SW91*%
X127533750Y-94932500D03*
X114083750Y-97472500D03*
%TD*%
D12*
%TO.C,C21*%
X13740000Y7060000D03*
X14700000Y7060000D03*
%TD*%
D13*
%TO.C,D115*%
X256075090Y-91037500D03*
X256075090Y-89937500D03*
X254245090Y-89937500D03*
X254245090Y-91037500D03*
%TD*%
D15*
%TO.C,D64*%
X257920000Y-60720000D03*
X257920000Y-64020000D03*
%TD*%
D19*
%TO.C,D126*%
X-6471250Y-70887500D03*
X-6471250Y-71987500D03*
X-4641250Y-71987500D03*
X-4641250Y-70887500D03*
%TD*%
D17*
%TO.C,SW97*%
X315652500Y-94932500D03*
X302202500Y-97472500D03*
%TD*%
D15*
%TO.C,D1*%
X3175000Y856250D03*
X3175000Y-2443750D03*
%TD*%
D17*
%TO.C,SW66*%
X229927500Y-56832500D03*
X216477500Y-59372500D03*
%TD*%
D15*
%TO.C,D75*%
X160337500Y-80106250D03*
X160337500Y-83406250D03*
%TD*%
%TO.C,D9*%
X184150000Y856250D03*
X184150000Y-2443750D03*
%TD*%
%TO.C,D60*%
X169862500Y-61056250D03*
X169862500Y-64356250D03*
%TD*%
D12*
%TO.C,C52*%
X67420000Y-92120000D03*
X68380000Y-92120000D03*
%TD*%
D15*
%TO.C,D26*%
X174625000Y-22956250D03*
X174625000Y-26256250D03*
%TD*%
D17*
%TO.C,SW56*%
X39427500Y-56832500D03*
X25977500Y-59372500D03*
%TD*%
D13*
%TO.C,D122*%
X68383750Y-91037500D03*
X68383750Y-89937500D03*
X66553750Y-89937500D03*
X66553750Y-91037500D03*
%TD*%
D28*
%TO.C,SW84*%
X260610000Y-86042500D03*
X274060000Y-83502500D03*
%TD*%
D41*
%TO.C,F1*%
X274390000Y2440000D03*
X274390000Y-360000D03*
%TD*%
D17*
%TO.C,SW39*%
X53715000Y-37782500D03*
X40265000Y-40322500D03*
%TD*%
%TO.C,SW20*%
X44190000Y-18732500D03*
X30740000Y-21272500D03*
%TD*%
D15*
%TO.C,D2*%
X41275000Y856250D03*
X41275000Y-2443750D03*
%TD*%
%TO.C,D82*%
X312737500Y-80106250D03*
X312737500Y-83406250D03*
%TD*%
D42*
%TO.C,C22*%
X9350000Y-3500000D03*
X9350000Y-2540000D03*
%TD*%
D15*
%TO.C,D86*%
X53181250Y-99156250D03*
X53181250Y-102456250D03*
%TD*%
D17*
%TO.C,SW68*%
X296602500Y-56832500D03*
X283152500Y-59372500D03*
%TD*%
D15*
%TO.C,D13*%
X269875000Y856250D03*
X269875000Y-2443750D03*
%TD*%
D12*
%TO.C,C43*%
X307260000Y-92110000D03*
X308220000Y-92110000D03*
%TD*%
D15*
%TO.C,D55*%
X74612500Y-61056250D03*
X74612500Y-64356250D03*
%TD*%
%TO.C,D12*%
X250825000Y856250D03*
X250825000Y-2443750D03*
%TD*%
%TO.C,D10*%
X212725000Y856250D03*
X212725000Y-2443750D03*
%TD*%
D17*
%TO.C,SW18*%
X6090000Y-18732500D03*
D39*
X-6942500Y-21272500D03*
%TD*%
D15*
%TO.C,D4*%
X79375000Y856250D03*
X79375000Y-2443750D03*
%TD*%
%TO.C,D71*%
X84137500Y-80106250D03*
X84137500Y-83406250D03*
%TD*%
%TO.C,D45*%
X203200000Y-42006250D03*
X203200000Y-45306250D03*
%TD*%
D19*
%TO.C,D105*%
X254245090Y-11356250D03*
X254245090Y-12456250D03*
X256075090Y-12456250D03*
X256075090Y-11356250D03*
%TD*%
%TO.C,D128*%
X-6471250Y-32787500D03*
X-6471250Y-33887500D03*
X-4641250Y-33887500D03*
X-4641250Y-32787500D03*
%TD*%
D13*
%TO.C,D123*%
X47502018Y-91037500D03*
X47502018Y-89937500D03*
X45672018Y-89937500D03*
X45672018Y-91037500D03*
%TD*%
D12*
%TO.C,C54*%
X20310000Y-92120000D03*
X21270000Y-92120000D03*
%TD*%
D16*
%TO.C,C47*%
X204470000Y-91040000D03*
X203510000Y-91040000D03*
%TD*%
D18*
%TO.C,C17*%
X284950000Y-47870000D03*
X284950000Y-46910000D03*
%TD*%
D13*
%TO.C,D110*%
X334178125Y-52937500D03*
X334178125Y-51837500D03*
X332348125Y-51837500D03*
X332348125Y-52937500D03*
%TD*%
D17*
%TO.C,SW90*%
X56096250Y-94932500D03*
X42646250Y-97472500D03*
%TD*%
D16*
%TO.C,C28*%
X73640000Y-13570000D03*
X72680000Y-13570000D03*
%TD*%
D15*
%TO.C,D31*%
X274200000Y-28740000D03*
X274200000Y-32040000D03*
%TD*%
%TO.C,D62*%
X207962500Y-61056250D03*
X207962500Y-64356250D03*
%TD*%
%TO.C,D37*%
X50800000Y-42006250D03*
X50800000Y-45306250D03*
%TD*%
D19*
%TO.C,D107*%
X306388358Y-11356250D03*
X306388358Y-12456250D03*
X308218358Y-12456250D03*
X308218358Y-11356250D03*
%TD*%
D43*
%TO.C,LED2*%
X21694358Y3650000D03*
D44*
X21694358Y2150000D03*
X27144358Y3650000D03*
X27144358Y2150000D03*
%TD*%
D16*
%TO.C,C26*%
X21490000Y-13610000D03*
X20530000Y-13610000D03*
%TD*%
D15*
%TO.C,D32*%
X293687500Y-22956250D03*
X293687500Y-26256250D03*
%TD*%
D17*
%TO.C,SW53*%
X334702500Y-37782500D03*
X321252500Y-40322500D03*
%TD*%
%TO.C,SW27*%
X177540000Y-18732500D03*
X164090000Y-21272500D03*
%TD*%
%TO.C,SW41*%
X91815000Y-37782500D03*
X78365000Y-40322500D03*
%TD*%
D43*
%TO.C,LED6*%
X16325000Y-5650000D03*
D44*
X16325000Y-7150000D03*
X21775000Y-5650000D03*
X21775000Y-7150000D03*
%TD*%
D17*
%TO.C,SW85*%
X296602500Y-75882500D03*
X283152500Y-78422500D03*
%TD*%
M02*
