%TF.GenerationSoftware,KiCad,Pcbnew,(6.0.6)*%
%TF.CreationDate,2023-03-24T21:40:06+11:00*%
%TF.ProjectId,fuyu,66757975-2e6b-4696-9361-645f70636258,rev?*%
%TF.SameCoordinates,Original*%
%TF.FileFunction,Legend,Top*%
%TF.FilePolarity,Positive*%
%FSLAX46Y46*%
G04 Gerber Fmt 4.6, Leading zero omitted, Abs format (unit mm)*
G04 Created by KiCad (PCBNEW (6.0.6)) date 2023-03-24 21:40:06*
%MOMM*%
%LPD*%
G01*
G04 APERTURE LIST*
%ADD10C,0.150000*%
%ADD11C,0.240000*%
%ADD12C,0.120000*%
%ADD13C,3.987800*%
%ADD14C,3.048000*%
%ADD15O,1.000000X1.600000*%
%ADD16O,1.000000X2.100000*%
%ADD17R,0.600000X1.450000*%
%ADD18R,0.300000X1.450000*%
%ADD19C,0.650000*%
%ADD20R,1.700000X1.700000*%
%ADD21O,1.700000X1.700000*%
%ADD22C,3.300000*%
%ADD23C,1.750000*%
G04 APERTURE END LIST*
D10*
X308152857Y-45978571D02*
X308295714Y-46026190D01*
X308343333Y-46073809D01*
X308390952Y-46169047D01*
X308390952Y-46311904D01*
X308343333Y-46407142D01*
X308295714Y-46454761D01*
X308200476Y-46502380D01*
X307819523Y-46502380D01*
X307819523Y-45502380D01*
X308152857Y-45502380D01*
X308248095Y-45550000D01*
X308295714Y-45597619D01*
X308343333Y-45692857D01*
X308343333Y-45788095D01*
X308295714Y-45883333D01*
X308248095Y-45930952D01*
X308152857Y-45978571D01*
X307819523Y-45978571D01*
X309010000Y-45502380D02*
X309200476Y-45502380D01*
X309295714Y-45550000D01*
X309390952Y-45645238D01*
X309438571Y-45835714D01*
X309438571Y-46169047D01*
X309390952Y-46359523D01*
X309295714Y-46454761D01*
X309200476Y-46502380D01*
X309010000Y-46502380D01*
X308914761Y-46454761D01*
X308819523Y-46359523D01*
X308771904Y-46169047D01*
X308771904Y-45835714D01*
X308819523Y-45645238D01*
X308914761Y-45550000D01*
X309010000Y-45502380D01*
X310057619Y-45502380D02*
X310248095Y-45502380D01*
X310343333Y-45550000D01*
X310438571Y-45645238D01*
X310486190Y-45835714D01*
X310486190Y-46169047D01*
X310438571Y-46359523D01*
X310343333Y-46454761D01*
X310248095Y-46502380D01*
X310057619Y-46502380D01*
X309962380Y-46454761D01*
X309867142Y-46359523D01*
X309819523Y-46169047D01*
X309819523Y-45835714D01*
X309867142Y-45645238D01*
X309962380Y-45550000D01*
X310057619Y-45502380D01*
X310771904Y-45502380D02*
X311343333Y-45502380D01*
X311057619Y-46502380D02*
X311057619Y-45502380D01*
D11*
X139320238Y-96780142D02*
X138886904Y-96780142D01*
X138886904Y-97461095D02*
X138886904Y-96161095D01*
X139505952Y-96161095D01*
X140001190Y-96161095D02*
X140001190Y-97213476D01*
X140063095Y-97337285D01*
X140125000Y-97399190D01*
X140248809Y-97461095D01*
X140496428Y-97461095D01*
X140620238Y-97399190D01*
X140682142Y-97337285D01*
X140744047Y-97213476D01*
X140744047Y-96161095D01*
X141610714Y-96842047D02*
X141610714Y-97461095D01*
X141177380Y-96161095D02*
X141610714Y-96842047D01*
X142044047Y-96161095D01*
X142477380Y-96161095D02*
X142477380Y-97213476D01*
X142539285Y-97337285D01*
X142601190Y-97399190D01*
X142725000Y-97461095D01*
X142972619Y-97461095D01*
X143096428Y-97399190D01*
X143158333Y-97337285D01*
X143220238Y-97213476D01*
X143220238Y-96161095D01*
X143839285Y-96965857D02*
X144829761Y-96965857D01*
X145448809Y-97461095D02*
X145448809Y-96161095D01*
X145448809Y-96780142D02*
X146191666Y-96780142D01*
X146191666Y-97461095D02*
X146191666Y-96161095D01*
X146748809Y-97399190D02*
X146934523Y-97461095D01*
X147244047Y-97461095D01*
X147367857Y-97399190D01*
X147429761Y-97337285D01*
X147491666Y-97213476D01*
X147491666Y-97089666D01*
X147429761Y-96965857D01*
X147367857Y-96903952D01*
X147244047Y-96842047D01*
X146996428Y-96780142D01*
X146872619Y-96718238D01*
X146810714Y-96656333D01*
X146748809Y-96532523D01*
X146748809Y-96408714D01*
X146810714Y-96284904D01*
X146872619Y-96223000D01*
X146996428Y-96161095D01*
X147305952Y-96161095D01*
X147491666Y-96223000D01*
X149596428Y-96161095D02*
X149348809Y-96161095D01*
X149225000Y-96223000D01*
X149163095Y-96284904D01*
X149039285Y-96470619D01*
X148977380Y-96718238D01*
X148977380Y-97213476D01*
X149039285Y-97337285D01*
X149101190Y-97399190D01*
X149225000Y-97461095D01*
X149472619Y-97461095D01*
X149596428Y-97399190D01*
X149658333Y-97337285D01*
X149720238Y-97213476D01*
X149720238Y-96903952D01*
X149658333Y-96780142D01*
X149596428Y-96718238D01*
X149472619Y-96656333D01*
X149225000Y-96656333D01*
X149101190Y-96718238D01*
X149039285Y-96780142D01*
X148977380Y-96903952D01*
X150277380Y-97337285D02*
X150339285Y-97399190D01*
X150277380Y-97461095D01*
X150215476Y-97399190D01*
X150277380Y-97337285D01*
X150277380Y-97461095D01*
X150834523Y-96284904D02*
X150896428Y-96223000D01*
X151020238Y-96161095D01*
X151329761Y-96161095D01*
X151453571Y-96223000D01*
X151515476Y-96284904D01*
X151577380Y-96408714D01*
X151577380Y-96532523D01*
X151515476Y-96718238D01*
X150772619Y-97461095D01*
X151577380Y-97461095D01*
X152753571Y-96161095D02*
X152134523Y-96161095D01*
X152072619Y-96780142D01*
X152134523Y-96718238D01*
X152258333Y-96656333D01*
X152567857Y-96656333D01*
X152691666Y-96718238D01*
X152753571Y-96780142D01*
X152815476Y-96903952D01*
X152815476Y-97213476D01*
X152753571Y-97337285D01*
X152691666Y-97399190D01*
X152567857Y-97461095D01*
X152258333Y-97461095D01*
X152134523Y-97399190D01*
X152072619Y-97337285D01*
X153929761Y-96594428D02*
X153929761Y-97461095D01*
X153372619Y-96594428D02*
X153372619Y-97275380D01*
X153434523Y-97399190D01*
X153558333Y-97461095D01*
X153744047Y-97461095D01*
X153867857Y-97399190D01*
X153929761Y-97337285D01*
X156282142Y-97461095D02*
X155848809Y-96842047D01*
X155539285Y-97461095D02*
X155539285Y-96161095D01*
X156034523Y-96161095D01*
X156158333Y-96223000D01*
X156220238Y-96284904D01*
X156282142Y-96408714D01*
X156282142Y-96594428D01*
X156220238Y-96718238D01*
X156158333Y-96780142D01*
X156034523Y-96842047D01*
X155539285Y-96842047D01*
X157334523Y-97399190D02*
X157210714Y-97461095D01*
X156963095Y-97461095D01*
X156839285Y-97399190D01*
X156777380Y-97275380D01*
X156777380Y-96780142D01*
X156839285Y-96656333D01*
X156963095Y-96594428D01*
X157210714Y-96594428D01*
X157334523Y-96656333D01*
X157396428Y-96780142D01*
X157396428Y-96903952D01*
X156777380Y-97027761D01*
X157829761Y-96594428D02*
X158139285Y-97461095D01*
X158448809Y-96594428D01*
X159625000Y-97461095D02*
X158882142Y-97461095D01*
X159253571Y-97461095D02*
X159253571Y-96161095D01*
X159129761Y-96346809D01*
X159005952Y-96470619D01*
X158882142Y-96532523D01*
X137555952Y-99554095D02*
X137555952Y-98254095D01*
X137865476Y-98254095D01*
X138051190Y-98316000D01*
X138175000Y-98439809D01*
X138236904Y-98563619D01*
X138298809Y-98811238D01*
X138298809Y-98996952D01*
X138236904Y-99244571D01*
X138175000Y-99368380D01*
X138051190Y-99492190D01*
X137865476Y-99554095D01*
X137555952Y-99554095D01*
X139351190Y-99492190D02*
X139227380Y-99554095D01*
X138979761Y-99554095D01*
X138855952Y-99492190D01*
X138794047Y-99368380D01*
X138794047Y-98873142D01*
X138855952Y-98749333D01*
X138979761Y-98687428D01*
X139227380Y-98687428D01*
X139351190Y-98749333D01*
X139413095Y-98873142D01*
X139413095Y-98996952D01*
X138794047Y-99120761D01*
X139908333Y-99492190D02*
X140032142Y-99554095D01*
X140279761Y-99554095D01*
X140403571Y-99492190D01*
X140465476Y-99368380D01*
X140465476Y-99306476D01*
X140403571Y-99182666D01*
X140279761Y-99120761D01*
X140094047Y-99120761D01*
X139970238Y-99058857D01*
X139908333Y-98935047D01*
X139908333Y-98873142D01*
X139970238Y-98749333D01*
X140094047Y-98687428D01*
X140279761Y-98687428D01*
X140403571Y-98749333D01*
X141022619Y-99554095D02*
X141022619Y-98687428D01*
X141022619Y-98254095D02*
X140960714Y-98316000D01*
X141022619Y-98377904D01*
X141084523Y-98316000D01*
X141022619Y-98254095D01*
X141022619Y-98377904D01*
X142198809Y-98687428D02*
X142198809Y-99739809D01*
X142136904Y-99863619D01*
X142075000Y-99925523D01*
X141951190Y-99987428D01*
X141765476Y-99987428D01*
X141641666Y-99925523D01*
X142198809Y-99492190D02*
X142075000Y-99554095D01*
X141827380Y-99554095D01*
X141703571Y-99492190D01*
X141641666Y-99430285D01*
X141579761Y-99306476D01*
X141579761Y-98935047D01*
X141641666Y-98811238D01*
X141703571Y-98749333D01*
X141827380Y-98687428D01*
X142075000Y-98687428D01*
X142198809Y-98749333D01*
X142817857Y-98687428D02*
X142817857Y-99554095D01*
X142817857Y-98811238D02*
X142879761Y-98749333D01*
X143003571Y-98687428D01*
X143189285Y-98687428D01*
X143313095Y-98749333D01*
X143375000Y-98873142D01*
X143375000Y-99554095D01*
X144489285Y-99492190D02*
X144365476Y-99554095D01*
X144117857Y-99554095D01*
X143994047Y-99492190D01*
X143932142Y-99368380D01*
X143932142Y-98873142D01*
X143994047Y-98749333D01*
X144117857Y-98687428D01*
X144365476Y-98687428D01*
X144489285Y-98749333D01*
X144551190Y-98873142D01*
X144551190Y-98996952D01*
X143932142Y-99120761D01*
X145665476Y-99554095D02*
X145665476Y-98254095D01*
X145665476Y-99492190D02*
X145541666Y-99554095D01*
X145294047Y-99554095D01*
X145170238Y-99492190D01*
X145108333Y-99430285D01*
X145046428Y-99306476D01*
X145046428Y-98935047D01*
X145108333Y-98811238D01*
X145170238Y-98749333D01*
X145294047Y-98687428D01*
X145541666Y-98687428D01*
X145665476Y-98749333D01*
X147089285Y-98687428D02*
X147584523Y-98687428D01*
X147275000Y-99554095D02*
X147275000Y-98439809D01*
X147336904Y-98316000D01*
X147460714Y-98254095D01*
X147584523Y-98254095D01*
X148203571Y-99554095D02*
X148079761Y-99492190D01*
X148017857Y-99430285D01*
X147955952Y-99306476D01*
X147955952Y-98935047D01*
X148017857Y-98811238D01*
X148079761Y-98749333D01*
X148203571Y-98687428D01*
X148389285Y-98687428D01*
X148513095Y-98749333D01*
X148575000Y-98811238D01*
X148636904Y-98935047D01*
X148636904Y-99306476D01*
X148575000Y-99430285D01*
X148513095Y-99492190D01*
X148389285Y-99554095D01*
X148203571Y-99554095D01*
X149194047Y-99554095D02*
X149194047Y-98687428D01*
X149194047Y-98935047D02*
X149255952Y-98811238D01*
X149317857Y-98749333D01*
X149441666Y-98687428D01*
X149565476Y-98687428D01*
X150803571Y-98687428D02*
X151298809Y-98687428D01*
X150989285Y-98254095D02*
X150989285Y-99368380D01*
X151051190Y-99492190D01*
X151175000Y-99554095D01*
X151298809Y-99554095D01*
X151732142Y-99554095D02*
X151732142Y-98254095D01*
X152289285Y-99554095D02*
X152289285Y-98873142D01*
X152227380Y-98749333D01*
X152103571Y-98687428D01*
X151917857Y-98687428D01*
X151794047Y-98749333D01*
X151732142Y-98811238D01*
X153403571Y-99492190D02*
X153279761Y-99554095D01*
X153032142Y-99554095D01*
X152908333Y-99492190D01*
X152846428Y-99368380D01*
X152846428Y-98873142D01*
X152908333Y-98749333D01*
X153032142Y-98687428D01*
X153279761Y-98687428D01*
X153403571Y-98749333D01*
X153465476Y-98873142D01*
X153465476Y-98996952D01*
X152846428Y-99120761D01*
X155446428Y-98873142D02*
X155013095Y-98873142D01*
X155013095Y-99554095D02*
X155013095Y-98254095D01*
X155632142Y-98254095D01*
X156808333Y-99554095D02*
X156065476Y-99554095D01*
X156436904Y-99554095D02*
X156436904Y-98254095D01*
X156313095Y-98439809D01*
X156189285Y-98563619D01*
X156065476Y-98625523D01*
X157365476Y-99058857D02*
X158355952Y-99058857D01*
X159160714Y-98811238D02*
X159036904Y-98749333D01*
X158975000Y-98687428D01*
X158913095Y-98563619D01*
X158913095Y-98501714D01*
X158975000Y-98377904D01*
X159036904Y-98316000D01*
X159160714Y-98254095D01*
X159408333Y-98254095D01*
X159532142Y-98316000D01*
X159594047Y-98377904D01*
X159655952Y-98501714D01*
X159655952Y-98563619D01*
X159594047Y-98687428D01*
X159532142Y-98749333D01*
X159408333Y-98811238D01*
X159160714Y-98811238D01*
X159036904Y-98873142D01*
X158975000Y-98935047D01*
X158913095Y-99058857D01*
X158913095Y-99306476D01*
X158975000Y-99430285D01*
X159036904Y-99492190D01*
X159160714Y-99554095D01*
X159408333Y-99554095D01*
X159532142Y-99492190D01*
X159594047Y-99430285D01*
X159655952Y-99306476D01*
X159655952Y-99058857D01*
X159594047Y-98935047D01*
X159532142Y-98873142D01*
X159408333Y-98811238D01*
X160213095Y-99554095D02*
X160213095Y-98254095D01*
X160955952Y-99554095D02*
X160398809Y-98811238D01*
X160955952Y-98254095D02*
X160213095Y-98996952D01*
X133532142Y-101647095D02*
X133532142Y-100347095D01*
X134089285Y-101647095D02*
X134089285Y-100966142D01*
X134027380Y-100842333D01*
X133903571Y-100780428D01*
X133717857Y-100780428D01*
X133594047Y-100842333D01*
X133532142Y-100904238D01*
X134522619Y-100780428D02*
X135017857Y-100780428D01*
X134708333Y-100347095D02*
X134708333Y-101461380D01*
X134770238Y-101585190D01*
X134894047Y-101647095D01*
X135017857Y-101647095D01*
X135265476Y-100780428D02*
X135760714Y-100780428D01*
X135451190Y-100347095D02*
X135451190Y-101461380D01*
X135513095Y-101585190D01*
X135636904Y-101647095D01*
X135760714Y-101647095D01*
X136194047Y-100780428D02*
X136194047Y-102080428D01*
X136194047Y-100842333D02*
X136317857Y-100780428D01*
X136565476Y-100780428D01*
X136689285Y-100842333D01*
X136751190Y-100904238D01*
X136813095Y-101028047D01*
X136813095Y-101399476D01*
X136751190Y-101523285D01*
X136689285Y-101585190D01*
X136565476Y-101647095D01*
X136317857Y-101647095D01*
X136194047Y-101585190D01*
X137308333Y-101585190D02*
X137432142Y-101647095D01*
X137679761Y-101647095D01*
X137803571Y-101585190D01*
X137865476Y-101461380D01*
X137865476Y-101399476D01*
X137803571Y-101275666D01*
X137679761Y-101213761D01*
X137494047Y-101213761D01*
X137370238Y-101151857D01*
X137308333Y-101028047D01*
X137308333Y-100966142D01*
X137370238Y-100842333D01*
X137494047Y-100780428D01*
X137679761Y-100780428D01*
X137803571Y-100842333D01*
X138422619Y-101523285D02*
X138484523Y-101585190D01*
X138422619Y-101647095D01*
X138360714Y-101585190D01*
X138422619Y-101523285D01*
X138422619Y-101647095D01*
X138422619Y-100842333D02*
X138484523Y-100904238D01*
X138422619Y-100966142D01*
X138360714Y-100904238D01*
X138422619Y-100842333D01*
X138422619Y-100966142D01*
X139970238Y-100285190D02*
X138855952Y-101956619D01*
X141332142Y-100285190D02*
X140217857Y-101956619D01*
X142322619Y-100780428D02*
X142322619Y-101832809D01*
X142260714Y-101956619D01*
X142198809Y-102018523D01*
X142075000Y-102080428D01*
X141889285Y-102080428D01*
X141765476Y-102018523D01*
X142322619Y-101585190D02*
X142198809Y-101647095D01*
X141951190Y-101647095D01*
X141827380Y-101585190D01*
X141765476Y-101523285D01*
X141703571Y-101399476D01*
X141703571Y-101028047D01*
X141765476Y-100904238D01*
X141827380Y-100842333D01*
X141951190Y-100780428D01*
X142198809Y-100780428D01*
X142322619Y-100842333D01*
X142941666Y-101647095D02*
X142941666Y-100780428D01*
X142941666Y-100347095D02*
X142879761Y-100409000D01*
X142941666Y-100470904D01*
X143003571Y-100409000D01*
X142941666Y-100347095D01*
X142941666Y-100470904D01*
X143375000Y-100780428D02*
X143870238Y-100780428D01*
X143560714Y-100347095D02*
X143560714Y-101461380D01*
X143622619Y-101585190D01*
X143746428Y-101647095D01*
X143870238Y-101647095D01*
X144303571Y-101647095D02*
X144303571Y-100347095D01*
X144860714Y-101647095D02*
X144860714Y-100966142D01*
X144798809Y-100842333D01*
X144675000Y-100780428D01*
X144489285Y-100780428D01*
X144365476Y-100842333D01*
X144303571Y-100904238D01*
X146036904Y-100780428D02*
X146036904Y-101647095D01*
X145479761Y-100780428D02*
X145479761Y-101461380D01*
X145541666Y-101585190D01*
X145665476Y-101647095D01*
X145851190Y-101647095D01*
X145975000Y-101585190D01*
X146036904Y-101523285D01*
X146655952Y-101647095D02*
X146655952Y-100347095D01*
X146655952Y-100842333D02*
X146779761Y-100780428D01*
X147027380Y-100780428D01*
X147151190Y-100842333D01*
X147213095Y-100904238D01*
X147275000Y-101028047D01*
X147275000Y-101399476D01*
X147213095Y-101523285D01*
X147151190Y-101585190D01*
X147027380Y-101647095D01*
X146779761Y-101647095D01*
X146655952Y-101585190D01*
X147832142Y-101523285D02*
X147894047Y-101585190D01*
X147832142Y-101647095D01*
X147770238Y-101585190D01*
X147832142Y-101523285D01*
X147832142Y-101647095D01*
X149008333Y-101585190D02*
X148884523Y-101647095D01*
X148636904Y-101647095D01*
X148513095Y-101585190D01*
X148451190Y-101523285D01*
X148389285Y-101399476D01*
X148389285Y-101028047D01*
X148451190Y-100904238D01*
X148513095Y-100842333D01*
X148636904Y-100780428D01*
X148884523Y-100780428D01*
X149008333Y-100842333D01*
X149751190Y-101647095D02*
X149627380Y-101585190D01*
X149565476Y-101523285D01*
X149503571Y-101399476D01*
X149503571Y-101028047D01*
X149565476Y-100904238D01*
X149627380Y-100842333D01*
X149751190Y-100780428D01*
X149936904Y-100780428D01*
X150060714Y-100842333D01*
X150122619Y-100904238D01*
X150184523Y-101028047D01*
X150184523Y-101399476D01*
X150122619Y-101523285D01*
X150060714Y-101585190D01*
X149936904Y-101647095D01*
X149751190Y-101647095D01*
X150741666Y-101647095D02*
X150741666Y-100780428D01*
X150741666Y-100904238D02*
X150803571Y-100842333D01*
X150927380Y-100780428D01*
X151113095Y-100780428D01*
X151236904Y-100842333D01*
X151298809Y-100966142D01*
X151298809Y-101647095D01*
X151298809Y-100966142D02*
X151360714Y-100842333D01*
X151484523Y-100780428D01*
X151670238Y-100780428D01*
X151794047Y-100842333D01*
X151855952Y-100966142D01*
X151855952Y-101647095D01*
X153403571Y-100285190D02*
X152289285Y-101956619D01*
X153713095Y-100780428D02*
X154394047Y-100780428D01*
X153713095Y-101647095D01*
X154394047Y-101647095D01*
X154765476Y-100780428D02*
X155075000Y-101647095D01*
X155384523Y-100780428D02*
X155075000Y-101647095D01*
X154951190Y-101956619D01*
X154889285Y-102018523D01*
X154765476Y-102080428D01*
X155879761Y-101647095D02*
X155879761Y-100347095D01*
X156003571Y-101151857D02*
X156375000Y-101647095D01*
X156375000Y-100780428D02*
X155879761Y-101275666D01*
X156932142Y-101647095D02*
X156932142Y-100780428D01*
X156932142Y-101028047D02*
X156994047Y-100904238D01*
X157055952Y-100842333D01*
X157179761Y-100780428D01*
X157303571Y-100780428D01*
X158294047Y-101647095D02*
X158294047Y-100966142D01*
X158232142Y-100842333D01*
X158108333Y-100780428D01*
X157860714Y-100780428D01*
X157736904Y-100842333D01*
X158294047Y-101585190D02*
X158170238Y-101647095D01*
X157860714Y-101647095D01*
X157736904Y-101585190D01*
X157675000Y-101461380D01*
X157675000Y-101337571D01*
X157736904Y-101213761D01*
X157860714Y-101151857D01*
X158170238Y-101151857D01*
X158294047Y-101089952D01*
X158913095Y-101647095D02*
X158913095Y-100347095D01*
X159470238Y-101647095D02*
X159470238Y-100966142D01*
X159408333Y-100842333D01*
X159284523Y-100780428D01*
X159098809Y-100780428D01*
X158975000Y-100842333D01*
X158913095Y-100904238D01*
X161017857Y-100285190D02*
X159903571Y-101956619D01*
X161265476Y-100780428D02*
X161760714Y-100780428D01*
X161451190Y-101647095D02*
X161451190Y-100532809D01*
X161513095Y-100409000D01*
X161636904Y-100347095D01*
X161760714Y-100347095D01*
X162751190Y-100780428D02*
X162751190Y-101647095D01*
X162194047Y-100780428D02*
X162194047Y-101461380D01*
X162255952Y-101585190D01*
X162379761Y-101647095D01*
X162565476Y-101647095D01*
X162689285Y-101585190D01*
X162751190Y-101523285D01*
X163246428Y-100780428D02*
X163555952Y-101647095D01*
X163865476Y-100780428D02*
X163555952Y-101647095D01*
X163432142Y-101956619D01*
X163370238Y-102018523D01*
X163246428Y-102080428D01*
X164917857Y-100780428D02*
X164917857Y-101647095D01*
X164360714Y-100780428D02*
X164360714Y-101461380D01*
X164422619Y-101585190D01*
X164546428Y-101647095D01*
X164732142Y-101647095D01*
X164855952Y-101585190D01*
X164917857Y-101523285D01*
X142786904Y-102749619D02*
X142663095Y-102687714D01*
X142415476Y-102687714D01*
X142291666Y-102749619D01*
X142167857Y-102873428D01*
X142105952Y-102997238D01*
X142105952Y-103244857D01*
X142167857Y-103368666D01*
X142291666Y-103492476D01*
X142415476Y-103554380D01*
X142663095Y-103554380D01*
X142786904Y-103492476D01*
X142539285Y-102254380D02*
X142229761Y-102316285D01*
X141920238Y-102502000D01*
X141734523Y-102811523D01*
X141672619Y-103121047D01*
X141734523Y-103430571D01*
X141920238Y-103740095D01*
X142229761Y-103925809D01*
X142539285Y-103987714D01*
X142848809Y-103925809D01*
X143158333Y-103740095D01*
X143344047Y-103430571D01*
X143405952Y-103121047D01*
X143344047Y-102811523D01*
X143158333Y-102502000D01*
X142848809Y-102316285D01*
X142539285Y-102254380D01*
X144829761Y-102440095D02*
X145696428Y-102440095D01*
X144829761Y-103740095D01*
X145696428Y-103740095D01*
X146067857Y-102873428D02*
X146377380Y-103740095D01*
X146686904Y-102873428D02*
X146377380Y-103740095D01*
X146253571Y-104049619D01*
X146191666Y-104111523D01*
X146067857Y-104173428D01*
X147182142Y-103740095D02*
X147182142Y-102440095D01*
X147305952Y-103244857D02*
X147677380Y-103740095D01*
X147677380Y-102873428D02*
X147182142Y-103368666D01*
X148234523Y-103740095D02*
X148234523Y-102873428D01*
X148234523Y-103121047D02*
X148296428Y-102997238D01*
X148358333Y-102935333D01*
X148482142Y-102873428D01*
X148605952Y-102873428D01*
X149596428Y-103740095D02*
X149596428Y-103059142D01*
X149534523Y-102935333D01*
X149410714Y-102873428D01*
X149163095Y-102873428D01*
X149039285Y-102935333D01*
X149596428Y-103678190D02*
X149472619Y-103740095D01*
X149163095Y-103740095D01*
X149039285Y-103678190D01*
X148977380Y-103554380D01*
X148977380Y-103430571D01*
X149039285Y-103306761D01*
X149163095Y-103244857D01*
X149472619Y-103244857D01*
X149596428Y-103182952D01*
X150215476Y-103740095D02*
X150215476Y-102440095D01*
X150772619Y-103740095D02*
X150772619Y-103059142D01*
X150710714Y-102935333D01*
X150586904Y-102873428D01*
X150401190Y-102873428D01*
X150277380Y-102935333D01*
X150215476Y-102997238D01*
X152320238Y-102563904D02*
X152382142Y-102502000D01*
X152505952Y-102440095D01*
X152815476Y-102440095D01*
X152939285Y-102502000D01*
X153001190Y-102563904D01*
X153063095Y-102687714D01*
X153063095Y-102811523D01*
X153001190Y-102997238D01*
X152258333Y-103740095D01*
X153063095Y-103740095D01*
X153867857Y-102440095D02*
X153991666Y-102440095D01*
X154115476Y-102502000D01*
X154177380Y-102563904D01*
X154239285Y-102687714D01*
X154301190Y-102935333D01*
X154301190Y-103244857D01*
X154239285Y-103492476D01*
X154177380Y-103616285D01*
X154115476Y-103678190D01*
X153991666Y-103740095D01*
X153867857Y-103740095D01*
X153744047Y-103678190D01*
X153682142Y-103616285D01*
X153620238Y-103492476D01*
X153558333Y-103244857D01*
X153558333Y-102935333D01*
X153620238Y-102687714D01*
X153682142Y-102563904D01*
X153744047Y-102502000D01*
X153867857Y-102440095D01*
X154796428Y-102563904D02*
X154858333Y-102502000D01*
X154982142Y-102440095D01*
X155291666Y-102440095D01*
X155415476Y-102502000D01*
X155477380Y-102563904D01*
X155539285Y-102687714D01*
X155539285Y-102811523D01*
X155477380Y-102997238D01*
X154734523Y-103740095D01*
X155539285Y-103740095D01*
X155972619Y-102440095D02*
X156777380Y-102440095D01*
X156344047Y-102935333D01*
X156529761Y-102935333D01*
X156653571Y-102997238D01*
X156715476Y-103059142D01*
X156777380Y-103182952D01*
X156777380Y-103492476D01*
X156715476Y-103616285D01*
X156653571Y-103678190D01*
X156529761Y-103740095D01*
X156158333Y-103740095D01*
X156034523Y-103678190D01*
X155972619Y-103616285D01*
D10*
%TO.C,J2*%
X278272916Y7602620D02*
X278272916Y6888334D01*
X278225297Y6745477D01*
X278130059Y6650239D01*
X277987202Y6602620D01*
X277891964Y6602620D01*
X278701488Y7507381D02*
X278749107Y7555000D01*
X278844345Y7602620D01*
X279082440Y7602620D01*
X279177678Y7555000D01*
X279225297Y7507381D01*
X279272916Y7412143D01*
X279272916Y7316905D01*
X279225297Y7174048D01*
X278653869Y6602620D01*
X279272916Y6602620D01*
%TO.C,G\u002A\u002A\u002A*%
G36*
X82776049Y-101526523D02*
G01*
X83170231Y-101564218D01*
X83604608Y-101623967D01*
X84068809Y-101703277D01*
X84552462Y-101799658D01*
X85045196Y-101910617D01*
X85536640Y-102033664D01*
X86016421Y-102166306D01*
X86474168Y-102306053D01*
X86899510Y-102450413D01*
X87282075Y-102596894D01*
X87611492Y-102743005D01*
X87668690Y-102771260D01*
X87991528Y-102965799D01*
X88259326Y-103195421D01*
X88470678Y-103457963D01*
X88624180Y-103751268D01*
X88718429Y-104073174D01*
X88752020Y-104421522D01*
X88752083Y-104437783D01*
X88737127Y-104632960D01*
X88689869Y-104787227D01*
X88685187Y-104797140D01*
X88577773Y-104962104D01*
X88420753Y-105127569D01*
X88229570Y-105279442D01*
X88021497Y-105402729D01*
X87893695Y-105463187D01*
X87791255Y-105501084D01*
X87689037Y-105522343D01*
X87561898Y-105532883D01*
X87452083Y-105536847D01*
X87269088Y-105537535D01*
X87122436Y-105525265D01*
X86982463Y-105496462D01*
X86885416Y-105468545D01*
X86731027Y-105415923D01*
X86577216Y-105352036D01*
X86411437Y-105270561D01*
X86221146Y-105165172D01*
X85993799Y-105029545D01*
X85899416Y-104971448D01*
X85605438Y-104781293D01*
X85292174Y-104564500D01*
X84978131Y-104334695D01*
X84681814Y-104105506D01*
X84421728Y-103890557D01*
X84368750Y-103844364D01*
X84300926Y-103784617D01*
X84199107Y-103695047D01*
X84079396Y-103589816D01*
X84002083Y-103521891D01*
X83872437Y-103406195D01*
X83717239Y-103264736D01*
X83542754Y-103103494D01*
X83355244Y-102928451D01*
X83160972Y-102745588D01*
X82966201Y-102560884D01*
X82777195Y-102380321D01*
X82600216Y-102209879D01*
X82441528Y-102055539D01*
X82307394Y-101923282D01*
X82204076Y-101819089D01*
X82137839Y-101748941D01*
X82115167Y-101720043D01*
X82112318Y-101646363D01*
X82128851Y-101588333D01*
X82151368Y-101550950D01*
X82187370Y-101528558D01*
X82252160Y-101517380D01*
X82361037Y-101513638D01*
X82432433Y-101513373D01*
X82776049Y-101526523D01*
G37*
G36*
X83612031Y-97691392D02*
G01*
X83900928Y-97710835D01*
X84189303Y-97742909D01*
X84491328Y-97789955D01*
X84821176Y-97854316D01*
X85193019Y-97938333D01*
X85378029Y-97983228D01*
X85939125Y-98132342D01*
X86464785Y-98293260D01*
X86943766Y-98462346D01*
X87276098Y-98596859D01*
X87574932Y-98737176D01*
X87817609Y-98878169D01*
X88014217Y-99028040D01*
X88174839Y-99194988D01*
X88309562Y-99387213D01*
X88362211Y-99480000D01*
X88467236Y-99719982D01*
X88536626Y-99972904D01*
X88568831Y-100223880D01*
X88562300Y-100458024D01*
X88515483Y-100660450D01*
X88491063Y-100717481D01*
X88349818Y-100932426D01*
X88160254Y-101112491D01*
X87933098Y-101253737D01*
X87679081Y-101352227D01*
X87408933Y-101404023D01*
X87133384Y-101405187D01*
X86863164Y-101351781D01*
X86810639Y-101334182D01*
X86665685Y-101277836D01*
X86531430Y-101214928D01*
X86394266Y-101137432D01*
X86240588Y-101037318D01*
X86056789Y-100906558D01*
X85941777Y-100821539D01*
X85816350Y-100720621D01*
X85653858Y-100578586D01*
X85462378Y-100403377D01*
X85249986Y-100202937D01*
X85024757Y-99985208D01*
X84794767Y-99758132D01*
X84568094Y-99529651D01*
X84352812Y-99307709D01*
X84156998Y-99100247D01*
X83988727Y-98915209D01*
X83902083Y-98815592D01*
X83768470Y-98659337D01*
X83621211Y-98488630D01*
X83481466Y-98327938D01*
X83402083Y-98237497D01*
X83274682Y-98092698D01*
X83185724Y-97988487D01*
X83129578Y-97915426D01*
X83100618Y-97864079D01*
X83093214Y-97825012D01*
X83101740Y-97788787D01*
X83115536Y-97757074D01*
X83155312Y-97669776D01*
X83612031Y-97691392D01*
G37*
G36*
X81490511Y-91226104D02*
G01*
X81702269Y-90807848D01*
X81896056Y-90393311D01*
X82075998Y-89974584D01*
X82246224Y-89543760D01*
X82410861Y-89092931D01*
X82440359Y-89008648D01*
X82599325Y-88537559D01*
X82729354Y-88119636D01*
X82831680Y-87748595D01*
X82907542Y-87418155D01*
X82958177Y-87122035D01*
X82984821Y-86853951D01*
X82988710Y-86607623D01*
X82971083Y-86376769D01*
X82966043Y-86338666D01*
X82944301Y-86158274D01*
X82940067Y-86031081D01*
X82956028Y-85945287D01*
X82994872Y-85889094D01*
X83059288Y-85850702D01*
X83078997Y-85842770D01*
X83217274Y-85814206D01*
X83405633Y-85810836D01*
X83633060Y-85831176D01*
X83888541Y-85873740D01*
X84161063Y-85937044D01*
X84439612Y-86019602D01*
X84472872Y-86030716D01*
X84670863Y-86105172D01*
X84895471Y-86201817D01*
X85130784Y-86312673D01*
X85360892Y-86429761D01*
X85569884Y-86545104D01*
X85741850Y-86650724D01*
X85822298Y-86707370D01*
X86011607Y-86863818D01*
X86145283Y-87005243D01*
X86229906Y-87140577D01*
X86272057Y-87278755D01*
X86277696Y-87325601D01*
X86280643Y-87438469D01*
X86260465Y-87522277D01*
X86207227Y-87611846D01*
X86188619Y-87637806D01*
X86099317Y-87740488D01*
X85995342Y-87833160D01*
X85956407Y-87860603D01*
X85883178Y-87919822D01*
X85801122Y-88013498D01*
X85703542Y-88150212D01*
X85585220Y-88336131D01*
X85476588Y-88510614D01*
X85360462Y-88693089D01*
X85250880Y-88861719D01*
X85163221Y-88992706D01*
X85087254Y-89106748D01*
X85030130Y-89198844D01*
X84999419Y-89256424D01*
X84996739Y-89269100D01*
X85031477Y-89263603D01*
X85115243Y-89238246D01*
X85234910Y-89197274D01*
X85356805Y-89152681D01*
X85684927Y-89025040D01*
X86001887Y-88891952D01*
X86322426Y-88746599D01*
X86661284Y-88582166D01*
X87033201Y-88391834D01*
X87255059Y-88274775D01*
X87503478Y-88147977D01*
X87708072Y-88057045D01*
X87879201Y-87999008D01*
X88027227Y-87970893D01*
X88162510Y-87969729D01*
X88264356Y-87985295D01*
X88401997Y-88021524D01*
X88591069Y-88080943D01*
X88821874Y-88160138D01*
X89084715Y-88255695D01*
X89369893Y-88364199D01*
X89610867Y-88459341D01*
X89955281Y-88611633D01*
X90293610Y-88787829D01*
X90616679Y-88981484D01*
X90915316Y-89186156D01*
X91180345Y-89395399D01*
X91402594Y-89602772D01*
X91572888Y-89801829D01*
X91619823Y-89870394D01*
X91692069Y-90007704D01*
X91714706Y-90122875D01*
X91684240Y-90224347D01*
X91597174Y-90320564D01*
X91450010Y-90419964D01*
X91374856Y-90461800D01*
X90972312Y-90687093D01*
X90623833Y-90904374D01*
X90318705Y-91121393D01*
X90046217Y-91345902D01*
X89795655Y-91585651D01*
X89737266Y-91646666D01*
X89652741Y-91734850D01*
X89527055Y-91863784D01*
X89366361Y-92027254D01*
X89176813Y-92219046D01*
X88964566Y-92432946D01*
X88735773Y-92662740D01*
X88496589Y-92902212D01*
X88265744Y-93132617D01*
X87092371Y-94301900D01*
X87447227Y-94520919D01*
X88147227Y-94932762D01*
X88896183Y-95335956D01*
X89676386Y-95721876D01*
X90470123Y-96081896D01*
X91259686Y-96407388D01*
X91542490Y-96515573D01*
X91944024Y-96661233D01*
X92398741Y-96818052D01*
X92894834Y-96982328D01*
X93420495Y-97150363D01*
X93963916Y-97318456D01*
X94513292Y-97482906D01*
X95056815Y-97640015D01*
X95582677Y-97786082D01*
X95685416Y-97813839D01*
X95863134Y-97861663D01*
X96019176Y-97903748D01*
X96141737Y-97936903D01*
X96219008Y-97957936D01*
X96238963Y-97963480D01*
X96272917Y-98002811D01*
X96302237Y-98084615D01*
X96321330Y-98184705D01*
X96324603Y-98278895D01*
X96319604Y-98312184D01*
X96269769Y-98398097D01*
X96164576Y-98465215D01*
X96000573Y-98515134D01*
X95817701Y-98544605D01*
X95706730Y-98558205D01*
X95542159Y-98578871D01*
X95336493Y-98605007D01*
X95102233Y-98635019D01*
X94851883Y-98667313D01*
X94642900Y-98694438D01*
X93886137Y-98786245D01*
X93134034Y-98864439D01*
X92397207Y-98928257D01*
X91686273Y-98976931D01*
X91011848Y-99009697D01*
X90384549Y-99025789D01*
X90029645Y-99027091D01*
X89748718Y-99023607D01*
X89527288Y-99016513D01*
X89358261Y-99005377D01*
X89234541Y-98989767D01*
X89166169Y-98974566D01*
X89033668Y-98917504D01*
X88860174Y-98811312D01*
X88647702Y-98657804D01*
X88398265Y-98458791D01*
X88113875Y-98216085D01*
X87796545Y-97931500D01*
X87448288Y-97606847D01*
X87071118Y-97243938D01*
X86667046Y-96844587D01*
X86238087Y-96410606D01*
X85786252Y-95943807D01*
X85700431Y-95854116D01*
X85468750Y-95611567D01*
X85152083Y-95830698D01*
X84182051Y-96470366D01*
X83209154Y-97047846D01*
X82225080Y-97567393D01*
X81221517Y-98033264D01*
X80190154Y-98449713D01*
X79668750Y-98638194D01*
X79168842Y-98811124D01*
X78727556Y-98961272D01*
X78341239Y-99089652D01*
X78006238Y-99197276D01*
X77718899Y-99285159D01*
X77475569Y-99354314D01*
X77272594Y-99405755D01*
X77106323Y-99440495D01*
X76973100Y-99459548D01*
X76869274Y-99463928D01*
X76791190Y-99454648D01*
X76760416Y-99445106D01*
X76701438Y-99412441D01*
X76683068Y-99373284D01*
X76709163Y-99323469D01*
X76783583Y-99258829D01*
X76910186Y-99175198D01*
X77092830Y-99068409D01*
X77127096Y-99049128D01*
X77270062Y-98968133D01*
X77458680Y-98859972D01*
X77681234Y-98731433D01*
X77926006Y-98589309D01*
X78181279Y-98440391D01*
X78435337Y-98291469D01*
X78502083Y-98252212D01*
X79325827Y-97760838D01*
X80092167Y-97290287D01*
X80800552Y-96840941D01*
X81450431Y-96413187D01*
X82041250Y-96007407D01*
X82572460Y-95623986D01*
X83043508Y-95263309D01*
X83453842Y-94925759D01*
X83802910Y-94611721D01*
X83982586Y-94434876D01*
X84050339Y-94367054D01*
X84098396Y-94314372D01*
X84122858Y-94268671D01*
X84119831Y-94221792D01*
X84085417Y-94165575D01*
X84015719Y-94091859D01*
X83906842Y-93992486D01*
X83754889Y-93859296D01*
X83673796Y-93788243D01*
X83391382Y-93552574D01*
X83097806Y-93330288D01*
X82807153Y-93131109D01*
X82533506Y-92964765D01*
X82324087Y-92856122D01*
X82079425Y-92741879D01*
X81890754Y-92905436D01*
X81709022Y-93057101D01*
X81499216Y-93222430D01*
X81270999Y-93394667D01*
X81034036Y-93567057D01*
X80797990Y-93732842D01*
X80572525Y-93885267D01*
X80367305Y-94017574D01*
X80191993Y-94123009D01*
X80056254Y-94194814D01*
X80029237Y-94206887D01*
X79885847Y-94261369D01*
X79784870Y-94283610D01*
X79726247Y-94270701D01*
X79709915Y-94219731D01*
X79735816Y-94127789D01*
X79803888Y-93991965D01*
X79914072Y-93809349D01*
X80017670Y-93649935D01*
X80381204Y-93094469D01*
X80706127Y-92582262D01*
X80996568Y-92105403D01*
X81063725Y-91989359D01*
X82950189Y-91989359D01*
X82954325Y-91991155D01*
X83011128Y-92004304D01*
X83110002Y-92024465D01*
X83206218Y-92042886D01*
X83630741Y-92147588D01*
X84051385Y-92304271D01*
X84475206Y-92516225D01*
X84909260Y-92786743D01*
X85118750Y-92935010D01*
X85205006Y-92995624D01*
X85269257Y-93035932D01*
X85291608Y-93045840D01*
X85321169Y-93021946D01*
X85381540Y-92957155D01*
X85462306Y-92862961D01*
X85509857Y-92805000D01*
X85662689Y-92613730D01*
X85800564Y-92435554D01*
X85933483Y-92256721D01*
X86071443Y-92063484D01*
X86224445Y-91842094D01*
X86402487Y-91578801D01*
X86412868Y-91563333D01*
X86536772Y-91379369D01*
X86656285Y-91203237D01*
X86763420Y-91046605D01*
X86850194Y-90921145D01*
X86908621Y-90838525D01*
X86911902Y-90834019D01*
X86981968Y-90728643D01*
X87016081Y-90643940D01*
X87024090Y-90552141D01*
X87022969Y-90520857D01*
X87001143Y-90386221D01*
X86955388Y-90258380D01*
X86894850Y-90156598D01*
X86828675Y-90100141D01*
X86822085Y-90097725D01*
X86760344Y-90100222D01*
X86652598Y-90126653D01*
X86513442Y-90173172D01*
X86463192Y-90192247D01*
X86294401Y-90257108D01*
X86111778Y-90325635D01*
X85949337Y-90385097D01*
X85918750Y-90396031D01*
X85604022Y-90506322D01*
X85343314Y-90593503D01*
X85128674Y-90659042D01*
X84952152Y-90704405D01*
X84805794Y-90731061D01*
X84681651Y-90740475D01*
X84571770Y-90734115D01*
X84468199Y-90713448D01*
X84368750Y-90682021D01*
X84255837Y-90641664D01*
X84163686Y-90609034D01*
X84118574Y-90593362D01*
X84074188Y-90610232D01*
X84000951Y-90682236D01*
X83897505Y-90810788D01*
X83853538Y-90869912D01*
X83613225Y-91187509D01*
X83387036Y-91463062D01*
X83160064Y-91714541D01*
X83106657Y-91770375D01*
X83003635Y-91883192D01*
X82951786Y-91955742D01*
X82950189Y-91989359D01*
X81063725Y-91989359D01*
X81256653Y-91655987D01*
X81490511Y-91226104D01*
G37*
G36*
X103427650Y-99309542D02*
G01*
X103665349Y-99239518D01*
X103884045Y-99186791D01*
X104069959Y-99155517D01*
X104173898Y-99148617D01*
X104279225Y-99157038D01*
X104421076Y-99179639D01*
X104575573Y-99212310D01*
X104644033Y-99229515D01*
X104794379Y-99267064D01*
X104893663Y-99285348D01*
X104950536Y-99285509D01*
X104971649Y-99272832D01*
X105004184Y-99257882D01*
X105069074Y-99278968D01*
X105124682Y-99308099D01*
X105201218Y-99356464D01*
X105247820Y-99396226D01*
X105254440Y-99408632D01*
X105273618Y-99422969D01*
X105282454Y-99418923D01*
X105320857Y-99424513D01*
X105402690Y-99453199D01*
X105514867Y-99500000D01*
X105611015Y-99543980D01*
X105774383Y-99626606D01*
X105901227Y-99705997D01*
X106014970Y-99798641D01*
X106122803Y-99904197D01*
X106260125Y-100050258D01*
X106361306Y-100171295D01*
X106437601Y-100283952D01*
X106500262Y-100404873D01*
X106560541Y-100550703D01*
X106561370Y-100552866D01*
X106614200Y-100686379D01*
X106669393Y-100818925D01*
X106712130Y-100915494D01*
X106736139Y-100973725D01*
X106754266Y-101038318D01*
X106767693Y-101119922D01*
X106777598Y-101229182D01*
X106785164Y-101376746D01*
X106791570Y-101573260D01*
X106793627Y-101650522D01*
X106798661Y-101835223D01*
X106801744Y-101980244D01*
X106800929Y-102097580D01*
X106794267Y-102199225D01*
X106779810Y-102297174D01*
X106755611Y-102403422D01*
X106719721Y-102529963D01*
X106670193Y-102688791D01*
X106605078Y-102891902D01*
X106578600Y-102974563D01*
X106527269Y-103100424D01*
X106449882Y-103229785D01*
X106339002Y-103373028D01*
X106187192Y-103540535D01*
X106133038Y-103596577D01*
X106004267Y-103702054D01*
X105833614Y-103804958D01*
X105641799Y-103894787D01*
X105449545Y-103961042D01*
X105380651Y-103977859D01*
X105296923Y-103997424D01*
X105176068Y-104027920D01*
X105041752Y-104063350D01*
X105017794Y-104069837D01*
X104861818Y-104105090D01*
X104710028Y-104121887D01*
X104547907Y-104119707D01*
X104360939Y-104098026D01*
X104134605Y-104056321D01*
X104031572Y-104034305D01*
X103832445Y-103983669D01*
X103677006Y-103925433D01*
X103545860Y-103850204D01*
X103419616Y-103748589D01*
X103395181Y-103726084D01*
X103306099Y-103651580D01*
X103215695Y-103589105D01*
X103192349Y-103575934D01*
X103110024Y-103521070D01*
X103020731Y-103444237D01*
X102996950Y-103420221D01*
X102929842Y-103356450D01*
X102876255Y-103318305D01*
X102861400Y-103313506D01*
X102822183Y-103286574D01*
X102779568Y-103220681D01*
X102745079Y-103138185D01*
X102730238Y-103061441D01*
X102730216Y-103058971D01*
X102742962Y-103009187D01*
X102785433Y-103008372D01*
X102840775Y-103026761D01*
X102936780Y-103059205D01*
X103054426Y-103099269D01*
X103076189Y-103106710D01*
X103219348Y-103153884D01*
X103311973Y-103178905D01*
X103362265Y-103182694D01*
X103378426Y-103166176D01*
X103372729Y-103140089D01*
X103371750Y-103110020D01*
X103410810Y-103104720D01*
X103460490Y-103112082D01*
X103560438Y-103134747D01*
X103675507Y-103166872D01*
X103701567Y-103175065D01*
X103799451Y-103202275D01*
X103881481Y-103217605D01*
X103900339Y-103218848D01*
X103974929Y-103233182D01*
X104049112Y-103262858D01*
X104130254Y-103286355D01*
X104254345Y-103301740D01*
X104401706Y-103308643D01*
X104552656Y-103306695D01*
X104687517Y-103295528D01*
X104781148Y-103276577D01*
X104956340Y-103188552D01*
X105101049Y-103048025D01*
X105200780Y-102880215D01*
X105257906Y-102746770D01*
X105302810Y-102623627D01*
X105337333Y-102499737D01*
X105363313Y-102364052D01*
X105382591Y-102205523D01*
X105397007Y-102013103D01*
X105408401Y-101775743D01*
X105414999Y-101593879D01*
X105422529Y-101356188D01*
X105426917Y-101170978D01*
X105427749Y-101027682D01*
X105424612Y-100915736D01*
X105417092Y-100824573D01*
X105404773Y-100743628D01*
X105387242Y-100662334D01*
X105376829Y-100619985D01*
X105291180Y-100349140D01*
X105181173Y-100130289D01*
X105040888Y-99955074D01*
X104864405Y-99815139D01*
X104766965Y-99759021D01*
X104647560Y-99708734D01*
X104521310Y-99673419D01*
X104467214Y-99665199D01*
X104341773Y-99650280D01*
X104206341Y-99628280D01*
X104172203Y-99621591D01*
X104051705Y-99602115D01*
X103932841Y-99591156D01*
X103900249Y-99590277D01*
X103745029Y-99601127D01*
X103548180Y-99631324D01*
X103326884Y-99677336D01*
X103098326Y-99735633D01*
X102900588Y-99795695D01*
X102766218Y-99839882D01*
X102655866Y-99875612D01*
X102582067Y-99898860D01*
X102557398Y-99905804D01*
X102555350Y-99880414D01*
X102562255Y-99846732D01*
X102600450Y-99800181D01*
X102686303Y-99743916D01*
X102772282Y-99701525D01*
X102863864Y-99657053D01*
X102921031Y-99621408D01*
X102932146Y-99601924D01*
X102931089Y-99601427D01*
X102885931Y-99606946D01*
X102803307Y-99635110D01*
X102710219Y-99675640D01*
X102609152Y-99726719D01*
X102552542Y-99767577D01*
X102526648Y-99812395D01*
X102517803Y-99874252D01*
X102514627Y-99954911D01*
X102512593Y-100074465D01*
X102511627Y-100219978D01*
X102511657Y-100378516D01*
X102512610Y-100537144D01*
X102514410Y-100682928D01*
X102516987Y-100802933D01*
X102520265Y-100884224D01*
X102523696Y-100913505D01*
X102527138Y-100948405D01*
X102531585Y-101038351D01*
X102536765Y-101175297D01*
X102542404Y-101351198D01*
X102548230Y-101558006D01*
X102553970Y-101787676D01*
X102555327Y-101846301D01*
X102561807Y-102086855D01*
X102569765Y-102312377D01*
X102578727Y-102513559D01*
X102588218Y-102681092D01*
X102597762Y-102805666D01*
X102606884Y-102877971D01*
X102608301Y-102884177D01*
X102624735Y-102977454D01*
X102611400Y-103024212D01*
X102606321Y-103028100D01*
X102585327Y-103069246D01*
X102561618Y-103161273D01*
X102537336Y-103292142D01*
X102514627Y-103449816D01*
X102495632Y-103622257D01*
X102490872Y-103676363D01*
X102475336Y-103797422D01*
X102447670Y-103952594D01*
X102412144Y-104122709D01*
X102373026Y-104288594D01*
X102334582Y-104431078D01*
X102301082Y-104530988D01*
X102300065Y-104533447D01*
X102262450Y-104602854D01*
X102226669Y-104637748D01*
X102221572Y-104638724D01*
X102202256Y-104615846D01*
X102210125Y-104583506D01*
X102232313Y-104507831D01*
X102242600Y-104449407D01*
X102255197Y-104362788D01*
X102272769Y-104261356D01*
X102273617Y-104256871D01*
X102282089Y-104175599D01*
X102263781Y-104134559D01*
X102243508Y-104123375D01*
X102209593Y-104120446D01*
X102180394Y-104147105D01*
X102150776Y-104212791D01*
X102115603Y-104326942D01*
X102098298Y-104390266D01*
X102065783Y-104495323D01*
X102030159Y-104587562D01*
X102020849Y-104607171D01*
X101949558Y-104752980D01*
X101879815Y-104907404D01*
X101821107Y-105048645D01*
X101784120Y-105151017D01*
X101753571Y-105231280D01*
X101723945Y-105281957D01*
X101718225Y-105286979D01*
X101689670Y-105331716D01*
X101688974Y-105339638D01*
X101708087Y-105347075D01*
X101752079Y-105317109D01*
X101797359Y-105286995D01*
X101815185Y-105296046D01*
X101790650Y-105333410D01*
X101728845Y-105385222D01*
X101696399Y-105407080D01*
X101612390Y-105465614D01*
X101547074Y-105520590D01*
X101534412Y-105534120D01*
X101485267Y-105576762D01*
X101398658Y-105637392D01*
X101289394Y-105707165D01*
X101172280Y-105777236D01*
X101062125Y-105838760D01*
X100973736Y-105882893D01*
X100921919Y-105900788D01*
X100920507Y-105900836D01*
X100890846Y-105903447D01*
X100850383Y-105914147D01*
X100787399Y-105937235D01*
X100690177Y-105977012D01*
X100547000Y-106037775D01*
X100545185Y-106038551D01*
X100472216Y-106063896D01*
X100430583Y-106067026D01*
X100426862Y-106061834D01*
X100454212Y-106019028D01*
X100528393Y-105960472D01*
X100637600Y-105893743D01*
X100770027Y-105826420D01*
X100845387Y-105793174D01*
X100951853Y-105746062D01*
X101033686Y-105704909D01*
X101074717Y-105677914D01*
X101076007Y-105676224D01*
X101118547Y-105652472D01*
X101151063Y-105648413D01*
X101209039Y-105625794D01*
X101227092Y-105601084D01*
X101221858Y-105561898D01*
X101185001Y-105553755D01*
X101127328Y-105565080D01*
X101109554Y-105578340D01*
X101071780Y-105593833D01*
X100992454Y-105605921D01*
X100938445Y-105609708D01*
X100809579Y-105625378D01*
X100682292Y-105665210D01*
X100537540Y-105736192D01*
X100442638Y-105791613D01*
X100343741Y-105846932D01*
X100290529Y-105865699D01*
X100284891Y-105847727D01*
X100318568Y-105803811D01*
X100356420Y-105758942D01*
X100347941Y-105747620D01*
X100285726Y-105760688D01*
X100284018Y-105761102D01*
X100188604Y-105787401D01*
X100117168Y-105810797D01*
X100049019Y-105833557D01*
X100021450Y-105832407D01*
X100016676Y-105812021D01*
X100043619Y-105780519D01*
X100110219Y-105742347D01*
X100195134Y-105706995D01*
X100277018Y-105683954D01*
X100313644Y-105679966D01*
X100450702Y-105652102D01*
X100612116Y-105569908D01*
X100793985Y-105435481D01*
X100837048Y-105398496D01*
X100936672Y-105313853D01*
X101023563Y-105245386D01*
X101083253Y-105204315D01*
X101094910Y-105198536D01*
X101133550Y-105156386D01*
X101132026Y-105119129D01*
X101142373Y-105051302D01*
X101195256Y-104965656D01*
X101200799Y-104958944D01*
X101249319Y-104890589D01*
X101297080Y-104806155D01*
X101338767Y-104718560D01*
X101369068Y-104640722D01*
X101382670Y-104585558D01*
X101374261Y-104565987D01*
X101358863Y-104574627D01*
X101307354Y-104599537D01*
X101282643Y-104582901D01*
X101300259Y-104536940D01*
X101322667Y-104479382D01*
X101327599Y-104447782D01*
X101395043Y-104447782D01*
X101407475Y-104455112D01*
X101428835Y-104414415D01*
X101449519Y-104344217D01*
X101456511Y-104285220D01*
X101441720Y-104272675D01*
X101441454Y-104272837D01*
X101416560Y-104314168D01*
X101398179Y-104386906D01*
X101395043Y-104447782D01*
X101327599Y-104447782D01*
X101336045Y-104393675D01*
X101336492Y-104386301D01*
X101347235Y-104273491D01*
X101365391Y-104164080D01*
X101386516Y-104082434D01*
X101395742Y-104061353D01*
X101428044Y-104056353D01*
X101452483Y-104070902D01*
X101481579Y-104085463D01*
X101481641Y-104085411D01*
X102268434Y-104085411D01*
X102282769Y-104102326D01*
X102307842Y-104074892D01*
X102326603Y-104008693D01*
X102326906Y-104006676D01*
X102329175Y-103946172D01*
X102314300Y-103940928D01*
X102289022Y-103987795D01*
X102274121Y-104031332D01*
X102268434Y-104085411D01*
X101481641Y-104085411D01*
X101504283Y-104066492D01*
X101506209Y-104060884D01*
X102142001Y-104060884D01*
X102155015Y-104070773D01*
X102179670Y-104043390D01*
X102214139Y-103972479D01*
X102242557Y-103897233D01*
X102280785Y-103803784D01*
X102318930Y-103740782D01*
X102342340Y-103723693D01*
X102381406Y-103718746D01*
X102385098Y-103715804D01*
X102399029Y-103629268D01*
X102403331Y-103536167D01*
X102398055Y-103459971D01*
X102384446Y-103424751D01*
X102360987Y-103436265D01*
X102351621Y-103501299D01*
X102351582Y-103507272D01*
X102347113Y-103573034D01*
X102330031Y-103584947D01*
X102312141Y-103570640D01*
X102289349Y-103512067D01*
X102279435Y-103394025D01*
X102280159Y-103272466D01*
X102281270Y-103139789D01*
X102275036Y-103068096D01*
X102261269Y-103055675D01*
X102256978Y-103061084D01*
X102233713Y-103127393D01*
X102225854Y-103197258D01*
X102212919Y-103288938D01*
X102190561Y-103351146D01*
X102171713Y-103410261D01*
X102190551Y-103437698D01*
X102201859Y-103476096D01*
X102203914Y-103559696D01*
X102198081Y-103671494D01*
X102185726Y-103794485D01*
X102168211Y-103911667D01*
X102146904Y-104006034D01*
X102144238Y-104014760D01*
X102142001Y-104060884D01*
X101506209Y-104060884D01*
X101525559Y-104004535D01*
X101550374Y-103890133D01*
X101552144Y-103881083D01*
X101562328Y-103787264D01*
X101567468Y-103649356D01*
X101567746Y-103486160D01*
X101563347Y-103316475D01*
X101554456Y-103159101D01*
X101544040Y-103053196D01*
X101535572Y-102961901D01*
X101543187Y-102917147D01*
X101570463Y-102903625D01*
X101579042Y-102903320D01*
X101616000Y-102890748D01*
X101611718Y-102842681D01*
X101608223Y-102832326D01*
X101597110Y-102771731D01*
X101587124Y-102665062D01*
X101579602Y-102529352D01*
X101578824Y-102503651D01*
X102425206Y-102503651D01*
X102429537Y-102522409D01*
X102446241Y-102524686D01*
X102472212Y-102513142D01*
X102467276Y-102503651D01*
X102429830Y-102499875D01*
X102425206Y-102503651D01*
X101578824Y-102503651D01*
X101576596Y-102430028D01*
X101574365Y-102378225D01*
X102436355Y-102378225D01*
X102450616Y-102398475D01*
X102471054Y-102371448D01*
X102477794Y-102319593D01*
X102473640Y-102260223D01*
X102465696Y-102240711D01*
X102451506Y-102267510D01*
X102438518Y-102319593D01*
X102436355Y-102378225D01*
X101574365Y-102378225D01*
X101567396Y-102216362D01*
X101549744Y-102030764D01*
X101525090Y-101882133D01*
X101494883Y-101779368D01*
X101463062Y-101732750D01*
X101440478Y-101701854D01*
X101453743Y-101645344D01*
X101463198Y-101623600D01*
X101485749Y-101553134D01*
X101469662Y-101503096D01*
X101456858Y-101487241D01*
X101427000Y-101436969D01*
X101408835Y-101359764D01*
X101400234Y-101242401D01*
X101398766Y-101126599D01*
X101396580Y-101052286D01*
X101385672Y-101032165D01*
X101359924Y-101057377D01*
X101355189Y-101063494D01*
X101327563Y-101094359D01*
X101320199Y-101079579D01*
X101329181Y-101011076D01*
X101329330Y-101010152D01*
X101336161Y-100942536D01*
X101324795Y-100933224D01*
X101316524Y-100943201D01*
X101270354Y-100969065D01*
X101246373Y-100962290D01*
X101205596Y-100973870D01*
X101127317Y-101035251D01*
X101012131Y-101145927D01*
X100927023Y-101234225D01*
X100797501Y-101375465D01*
X100703632Y-101489758D01*
X100634413Y-101592646D01*
X100578838Y-101699669D01*
X100549529Y-101767309D01*
X100497511Y-101892990D01*
X100449579Y-102007965D01*
X100414944Y-102090154D01*
X100411279Y-102098724D01*
X100355880Y-102255011D01*
X100303453Y-102451175D01*
X100258014Y-102666375D01*
X100223576Y-102879764D01*
X100204154Y-103070498D01*
X100201857Y-103186145D01*
X100196277Y-103341652D01*
X100160834Y-103456657D01*
X100087141Y-103549996D01*
X100013750Y-103608687D01*
X99925666Y-103664024D01*
X99852133Y-103684979D01*
X99761226Y-103679858D01*
X99747748Y-103677903D01*
X99587047Y-103630790D01*
X99399108Y-103536152D01*
X99191616Y-103399026D01*
X98972256Y-103224447D01*
X98766169Y-103034691D01*
X98633261Y-102861984D01*
X98554346Y-102657772D01*
X98529362Y-102421638D01*
X98558250Y-102153167D01*
X98607790Y-101954731D01*
X98642393Y-101832414D01*
X98686730Y-101665660D01*
X98736407Y-101471538D01*
X98787029Y-101267116D01*
X98818465Y-101136363D01*
X98877089Y-100903664D01*
X98936712Y-100693298D01*
X98994700Y-100512727D01*
X99048422Y-100369410D01*
X99095246Y-100270809D01*
X99132542Y-100224384D01*
X99141086Y-100221747D01*
X99153509Y-100250370D01*
X99163496Y-100325881D01*
X99168920Y-100432063D01*
X99168966Y-100434314D01*
X99173182Y-100647295D01*
X99197755Y-100489531D01*
X99213628Y-100355783D01*
X99223740Y-100211167D01*
X99225092Y-100167977D01*
X99233706Y-100060374D01*
X99252621Y-99997078D01*
X99277910Y-99984033D01*
X99305650Y-100027183D01*
X99309970Y-100039446D01*
X99322764Y-100117807D01*
X99328735Y-100244177D01*
X99328174Y-100403859D01*
X99321376Y-100582159D01*
X99308630Y-100764381D01*
X99292496Y-100918158D01*
X99273603Y-101125034D01*
X99263309Y-101361610D01*
X99261646Y-101606413D01*
X99268651Y-101837973D01*
X99284358Y-102034818D01*
X99290633Y-102082947D01*
X99315281Y-102224278D01*
X99345950Y-102360716D01*
X99378872Y-102479312D01*
X99410279Y-102567114D01*
X99436402Y-102611171D01*
X99444983Y-102613478D01*
X99484145Y-102581662D01*
X99553158Y-102510613D01*
X99643004Y-102410814D01*
X99744667Y-102292745D01*
X99849127Y-102166889D01*
X99947368Y-102043727D01*
X100030371Y-101933741D01*
X100033402Y-101929548D01*
X100132853Y-101794845D01*
X100240799Y-101653569D01*
X100337289Y-101531735D01*
X100356508Y-101508298D01*
X100593871Y-101210374D01*
X100773943Y-100965379D01*
X100830575Y-100896665D01*
X100878534Y-100857026D01*
X100890477Y-100853257D01*
X100934906Y-100829075D01*
X100977854Y-100781395D01*
X101026330Y-100728809D01*
X101062869Y-100710401D01*
X101100838Y-100687956D01*
X101162805Y-100629844D01*
X101218266Y-100568413D01*
X101282394Y-100487899D01*
X101318926Y-100421056D01*
X101336140Y-100343783D01*
X101342315Y-100231980D01*
X101342909Y-100205556D01*
X101342601Y-100101465D01*
X101338882Y-99953103D01*
X101332366Y-99772312D01*
X101323664Y-99570933D01*
X101313389Y-99360808D01*
X101302155Y-99153778D01*
X101290573Y-98961685D01*
X101279256Y-98796372D01*
X101268817Y-98669679D01*
X101259869Y-98593448D01*
X101259357Y-98590538D01*
X101216015Y-98475109D01*
X101136940Y-98411597D01*
X101020834Y-98399034D01*
X101004610Y-98400870D01*
X100763713Y-98459626D01*
X100552142Y-98569577D01*
X100366943Y-98733183D01*
X100205160Y-98952901D01*
X100097749Y-99155266D01*
X100036346Y-99295571D01*
X99984127Y-99430592D01*
X99948563Y-99540255D01*
X99938824Y-99582388D01*
X99914995Y-99678294D01*
X99889838Y-99712092D01*
X99869258Y-99684368D01*
X99859161Y-99595702D01*
X99858912Y-99574500D01*
X99851781Y-99484746D01*
X99832933Y-99436658D01*
X99823778Y-99432513D01*
X99802090Y-99408010D01*
X99807327Y-99333030D01*
X99818157Y-99290525D01*
X99922017Y-99290525D01*
X99937794Y-99306301D01*
X99953570Y-99290525D01*
X99937794Y-99274749D01*
X99922017Y-99290525D01*
X99818157Y-99290525D01*
X99839854Y-99205370D01*
X99863350Y-99132761D01*
X99985123Y-99132761D01*
X100000899Y-99148537D01*
X100016676Y-99132761D01*
X100000899Y-99116985D01*
X99985123Y-99132761D01*
X99863350Y-99132761D01*
X99883770Y-99069655D01*
X100016676Y-99069655D01*
X100032452Y-99085432D01*
X100048228Y-99069655D01*
X100032452Y-99053879D01*
X100016676Y-99069655D01*
X99883770Y-99069655D01*
X99929459Y-98931445D01*
X99975760Y-98783923D01*
X99998758Y-98706798D01*
X100079720Y-98497877D01*
X100195362Y-98295088D01*
X100333205Y-98117006D01*
X100423596Y-98034432D01*
X100660055Y-98034432D01*
X100704814Y-98015860D01*
X100705272Y-98015615D01*
X100766051Y-97973776D01*
X100791770Y-97946214D01*
X100793172Y-97927736D01*
X100748413Y-97946308D01*
X100747955Y-97946553D01*
X100687176Y-97988392D01*
X100661458Y-98015954D01*
X100660055Y-98034432D01*
X100423596Y-98034432D01*
X100480770Y-97982203D01*
X100489968Y-97975683D01*
X100616537Y-97898434D01*
X100706083Y-97869173D01*
X100732568Y-97870756D01*
X100794833Y-97870982D01*
X100821200Y-97854989D01*
X100865684Y-97828566D01*
X100903273Y-97823320D01*
X100969500Y-97809354D01*
X101059902Y-97774397D01*
X101091275Y-97759294D01*
X101260733Y-97693816D01*
X101456921Y-97651717D01*
X101666311Y-97632505D01*
X101875372Y-97635690D01*
X102070576Y-97660779D01*
X102238391Y-97707282D01*
X102365290Y-97774706D01*
X102401060Y-97806880D01*
X102453034Y-97872269D01*
X102479071Y-97923143D01*
X102479675Y-97927492D01*
X102485616Y-97979086D01*
X102498608Y-98067740D01*
X102507099Y-98120945D01*
X102516003Y-98233079D01*
X102514586Y-98376028D01*
X102503511Y-98515355D01*
X102494101Y-98620772D01*
X102486494Y-98760501D01*
X102480798Y-98922396D01*
X102477124Y-99094308D01*
X102475580Y-99264091D01*
X102476276Y-99419598D01*
X102479320Y-99548682D01*
X102484824Y-99639196D01*
X102492895Y-99678993D01*
X102493038Y-99679144D01*
X102526977Y-99673840D01*
X102602417Y-99644955D01*
X102704963Y-99598200D01*
X102738329Y-99581808D01*
X102950360Y-99484844D01*
X102951675Y-99484327D01*
X103469672Y-99484327D01*
X103506287Y-99482295D01*
X103534812Y-99476361D01*
X103605488Y-99458089D01*
X103642603Y-99443863D01*
X103642618Y-99443850D01*
X103638829Y-99431845D01*
X103597212Y-99433051D01*
X103540864Y-99444242D01*
X103492884Y-99462193D01*
X103487483Y-99465507D01*
X103469672Y-99484327D01*
X102951675Y-99484327D01*
X103184727Y-99392703D01*
X103427650Y-99309542D01*
G37*
G36*
X101562763Y-103676363D02*
G01*
X101546986Y-103692140D01*
X101531210Y-103676363D01*
X101546986Y-103660587D01*
X101562763Y-103676363D01*
G37*
G36*
X101122143Y-88244487D02*
G01*
X101132734Y-88253499D01*
X101178043Y-88273880D01*
X101240540Y-88287051D01*
X101297690Y-88305679D01*
X101397868Y-88349405D01*
X101529014Y-88412542D01*
X101679069Y-88489401D01*
X101752079Y-88528314D01*
X101923392Y-88622375D01*
X102050578Y-88697356D01*
X102146009Y-88762288D01*
X102222055Y-88826203D01*
X102291088Y-88898134D01*
X102343564Y-88960166D01*
X102472697Y-89126877D01*
X102561309Y-89267662D01*
X102616130Y-89398423D01*
X102643892Y-89535061D01*
X102651334Y-89687291D01*
X102645413Y-89837935D01*
X102621206Y-89942655D01*
X102569047Y-90018040D01*
X102479268Y-90080679D01*
X102398404Y-90121364D01*
X102303531Y-90178452D01*
X102192781Y-90263038D01*
X102103193Y-90344280D01*
X102022822Y-90422400D01*
X101960216Y-90479082D01*
X101928015Y-90502924D01*
X101927122Y-90503072D01*
X101914120Y-90476001D01*
X101909843Y-90424190D01*
X101896945Y-90358900D01*
X101860903Y-90351916D01*
X101815185Y-90392637D01*
X101765522Y-90433022D01*
X101740328Y-90440957D01*
X101680377Y-90472389D01*
X101624454Y-90556014D01*
X101574535Y-90680952D01*
X101532594Y-90836325D01*
X101500607Y-91011254D01*
X101480549Y-91194860D01*
X101474396Y-91376263D01*
X101484121Y-91544584D01*
X101511701Y-91688945D01*
X101512965Y-91693264D01*
X101571929Y-91883971D01*
X101625043Y-92032387D01*
X101680816Y-92157673D01*
X101747753Y-92278990D01*
X101832065Y-92412016D01*
X101896083Y-92507207D01*
X101955146Y-92588434D01*
X102017930Y-92665128D01*
X102093111Y-92746723D01*
X102189365Y-92842651D01*
X102315369Y-92962347D01*
X102473612Y-93109514D01*
X102581156Y-93217467D01*
X102705824Y-93355448D01*
X102828498Y-93501826D01*
X102891158Y-93581989D01*
X102984813Y-93703451D01*
X103071108Y-93811092D01*
X103139324Y-93891781D01*
X103174032Y-93928429D01*
X103247787Y-94026240D01*
X103317254Y-94176899D01*
X103380081Y-94370178D01*
X103433914Y-94595847D01*
X103476401Y-94843680D01*
X103505190Y-95103447D01*
X103517927Y-95364920D01*
X103518338Y-95425308D01*
X103516090Y-95606252D01*
X103509024Y-95738071D01*
X103495552Y-95834663D01*
X103474090Y-95909927D01*
X103458929Y-95945929D01*
X103344335Y-96121668D01*
X103186181Y-96264740D01*
X102997121Y-96370187D01*
X102789811Y-96433050D01*
X102576906Y-96448369D01*
X102371060Y-96411186D01*
X102320030Y-96392211D01*
X102082699Y-96275240D01*
X101883274Y-96133822D01*
X101752079Y-96010439D01*
X101643670Y-95911389D01*
X101518419Y-95815675D01*
X101444440Y-95768212D01*
X101356729Y-95713171D01*
X101296677Y-95666537D01*
X101278787Y-95642455D01*
X101257240Y-95612325D01*
X101197686Y-95546179D01*
X101107756Y-95451585D01*
X100995080Y-95336109D01*
X100867290Y-95207318D01*
X100732016Y-95072781D01*
X100596890Y-94940063D01*
X100469542Y-94816733D01*
X100357603Y-94710357D01*
X100268704Y-94628503D01*
X100210475Y-94578738D01*
X100195891Y-94568595D01*
X100156634Y-94559387D01*
X100109773Y-94580004D01*
X100042768Y-94637889D01*
X99990798Y-94690370D01*
X99786155Y-94905815D01*
X99603736Y-95104286D01*
X99448991Y-95279569D01*
X99327367Y-95425450D01*
X99244314Y-95535715D01*
X99228255Y-95560088D01*
X99161051Y-95654451D01*
X99090558Y-95716389D01*
X98999381Y-95755122D01*
X98870126Y-95779868D01*
X98796947Y-95788674D01*
X98701550Y-95797025D01*
X98631462Y-95792765D01*
X98565709Y-95769530D01*
X98483312Y-95720951D01*
X98407483Y-95670471D01*
X98252477Y-95549447D01*
X98145358Y-95420921D01*
X98075831Y-95267788D01*
X98033598Y-95072939D01*
X98029400Y-95042304D01*
X98010875Y-94860881D01*
X98001062Y-94679056D01*
X98000026Y-94512236D01*
X98007829Y-94375832D01*
X98024535Y-94285253D01*
X98026255Y-94280454D01*
X98065886Y-94201699D01*
X98127085Y-94108638D01*
X98201333Y-94010863D01*
X98280110Y-93917966D01*
X98354897Y-93839539D01*
X98417174Y-93785174D01*
X98458423Y-93764464D01*
X98470589Y-93780167D01*
X98498657Y-93795302D01*
X98569709Y-93800756D01*
X98612576Y-93799207D01*
X98697119Y-93797689D01*
X98747944Y-93804846D01*
X98754563Y-93810763D01*
X98732073Y-93841483D01*
X98675371Y-93894240D01*
X98644809Y-93919463D01*
X98567449Y-93990423D01*
X98508916Y-94060153D01*
X98498540Y-94077227D01*
X98462024Y-94147419D01*
X98540136Y-94075672D01*
X98660081Y-93998015D01*
X98808623Y-93949212D01*
X98969026Y-93929772D01*
X99124552Y-93940206D01*
X99258463Y-93981021D01*
X99352554Y-94050938D01*
X99415167Y-94092475D01*
X99453602Y-94100090D01*
X99526490Y-94112067D01*
X99611323Y-94141520D01*
X99686201Y-94178732D01*
X99729221Y-94213988D01*
X99732700Y-94223910D01*
X99708394Y-94240525D01*
X99651764Y-94225520D01*
X99570145Y-94206616D01*
X99461506Y-94195764D01*
X99420619Y-94194749D01*
X99312898Y-94203130D01*
X99239725Y-94234615D01*
X99196420Y-94273506D01*
X99151837Y-94330856D01*
X99139450Y-94368297D01*
X99141091Y-94370924D01*
X99200342Y-94398709D01*
X99310744Y-94421542D01*
X99460431Y-94437797D01*
X99637536Y-94445850D01*
X99692269Y-94446418D01*
X99831796Y-94445042D01*
X99917838Y-94439048D01*
X99959938Y-94426956D01*
X99967639Y-94407286D01*
X99966525Y-94403867D01*
X99970609Y-94374040D01*
X100023666Y-94374679D01*
X100027255Y-94375349D01*
X100104079Y-94367742D01*
X100224874Y-94326657D01*
X100352502Y-94269167D01*
X100487540Y-94203319D01*
X100575080Y-94161280D01*
X100624407Y-94139326D01*
X100644805Y-94133733D01*
X100645559Y-94140777D01*
X100636974Y-94155075D01*
X100602790Y-94186553D01*
X100529842Y-94241442D01*
X100432474Y-94309066D01*
X100409463Y-94324418D01*
X100201492Y-94462144D01*
X100290272Y-94532934D01*
X100350181Y-94572315D01*
X100453992Y-94632047D01*
X100588789Y-94705021D01*
X100741655Y-94784125D01*
X100797465Y-94812157D01*
X100992129Y-94906196D01*
X101150531Y-94973211D01*
X101291064Y-95017728D01*
X101432120Y-95044271D01*
X101592090Y-95057364D01*
X101789369Y-95061532D01*
X101811610Y-95061631D01*
X101933250Y-95060360D01*
X102009434Y-95052034D01*
X102057786Y-95031471D01*
X102095926Y-94993488D01*
X102111362Y-94973471D01*
X102151106Y-94882728D01*
X102177591Y-94743085D01*
X102191206Y-94567253D01*
X102192341Y-94367944D01*
X102181385Y-94157871D01*
X102158727Y-93949744D01*
X102124757Y-93756275D01*
X102079865Y-93590176D01*
X102067965Y-93556995D01*
X102026000Y-93469823D01*
X101956276Y-93349390D01*
X101869119Y-93212754D01*
X101790342Y-93098426D01*
X101588872Y-92801419D01*
X101425013Y-92521423D01*
X101290453Y-92240255D01*
X101176883Y-91939732D01*
X101075991Y-91601671D01*
X101036774Y-91449655D01*
X100962315Y-91024965D01*
X100950868Y-90602934D01*
X101002449Y-90183341D01*
X101117080Y-89765966D01*
X101200381Y-89552592D01*
X101278722Y-89370831D01*
X101334455Y-89234457D01*
X101368025Y-89130115D01*
X101379876Y-89044448D01*
X101370453Y-88964100D01*
X101340201Y-88875715D01*
X101289562Y-88765935D01*
X101230575Y-88645314D01*
X101164741Y-88507692D01*
X101110473Y-88389983D01*
X101073114Y-88304083D01*
X101058005Y-88261890D01*
X101057918Y-88260768D01*
X101078819Y-88232975D01*
X101122143Y-88244487D01*
G37*
G36*
X101426553Y-103938646D02*
G01*
X101430314Y-103987959D01*
X101424062Y-103999122D01*
X101409721Y-103989712D01*
X101407490Y-103957709D01*
X101415195Y-103924041D01*
X101426553Y-103938646D01*
G37*
G36*
X104718749Y-93139961D02*
G01*
X104821803Y-93166773D01*
X105033153Y-93236975D01*
X105240729Y-93331576D01*
X105462828Y-93459510D01*
X105588952Y-93541385D01*
X105861533Y-93734565D01*
X106114100Y-93934471D01*
X106339448Y-94134273D01*
X106530370Y-94327141D01*
X106679662Y-94506244D01*
X106780119Y-94664752D01*
X106785506Y-94675667D01*
X106837474Y-94827694D01*
X106832865Y-94960345D01*
X106769535Y-95083118D01*
X106670457Y-95184644D01*
X106580526Y-95252086D01*
X106492132Y-95290188D01*
X106375839Y-95310717D01*
X106347761Y-95313641D01*
X106137463Y-95326231D01*
X105970979Y-95319559D01*
X105854340Y-95294198D01*
X105801817Y-95261783D01*
X105749248Y-95224062D01*
X105716879Y-95219662D01*
X105665473Y-95229730D01*
X105577297Y-95242604D01*
X105530527Y-95248483D01*
X105439001Y-95252130D01*
X105387613Y-95240467D01*
X105383757Y-95218595D01*
X105434828Y-95191609D01*
X105443756Y-95188662D01*
X105494805Y-95158345D01*
X105506862Y-95134529D01*
X105478480Y-95118372D01*
X105403737Y-95112796D01*
X105298240Y-95116451D01*
X105177595Y-95127983D01*
X105057409Y-95146041D01*
X104953288Y-95169273D01*
X104900220Y-95187086D01*
X104804327Y-95223835D01*
X104762779Y-95229918D01*
X104774046Y-95203994D01*
X104836595Y-95144721D01*
X104844253Y-95138080D01*
X104954688Y-95042734D01*
X104860030Y-95064718D01*
X104771988Y-95096720D01*
X104709960Y-95134859D01*
X104655799Y-95167645D01*
X104633473Y-95155378D01*
X104648258Y-95110253D01*
X104681106Y-95068181D01*
X104729706Y-95001795D01*
X104749595Y-94945957D01*
X104772173Y-94886876D01*
X104802108Y-94853333D01*
X104847597Y-94808415D01*
X104918311Y-94730598D01*
X104999680Y-94635962D01*
X105007201Y-94626961D01*
X105102116Y-94498437D01*
X105154780Y-94383573D01*
X105163482Y-94272809D01*
X105126513Y-94156579D01*
X105042162Y-94025322D01*
X104908720Y-93869474D01*
X104863089Y-93820927D01*
X104731171Y-93693956D01*
X104577347Y-93563827D01*
X104416503Y-93441607D01*
X104263529Y-93338366D01*
X104133310Y-93265169D01*
X104090611Y-93246661D01*
X104016567Y-93212638D01*
X103981679Y-93184311D01*
X103984227Y-93174289D01*
X104038442Y-93161704D01*
X104129864Y-93157441D01*
X104234339Y-93160643D01*
X104327710Y-93170451D01*
X104385824Y-93186008D01*
X104389898Y-93188698D01*
X104442809Y-93194890D01*
X104526334Y-93165744D01*
X104527682Y-93165074D01*
X104589913Y-93138036D01*
X104646084Y-93129621D01*
X104718749Y-93139961D01*
G37*
G36*
X99822484Y-94270618D02*
G01*
X99856357Y-94302388D01*
X99849408Y-94320653D01*
X99844997Y-94320960D01*
X99818310Y-94298548D01*
X99808569Y-94284532D01*
X99804851Y-94262940D01*
X99822484Y-94270618D01*
G37*
G36*
X101468104Y-101972513D02*
G01*
X101452328Y-101988289D01*
X101436551Y-101972513D01*
X101452328Y-101956736D01*
X101468104Y-101972513D01*
G37*
D12*
%TO.C,J2*%
X283306250Y10800000D02*
X283306250Y12800000D01*
X273906250Y10800000D02*
X273906250Y12800000D01*
X283306250Y14700000D02*
X283306250Y16600000D01*
X273906250Y14700000D02*
X273906250Y16600000D01*
X283306250Y16600000D02*
X273906250Y16600000D01*
%TD*%
%LPC*%
D13*
%TO.C,S4*%
X238125000Y-89217500D03*
D14*
X261937500Y-73977500D03*
X238125000Y-73977500D03*
D13*
X261937500Y-89217500D03*
%TD*%
D14*
%TO.C,S3*%
X23812500Y-73977500D03*
D13*
X23812500Y-89217500D03*
D14*
X0Y-73977500D03*
D13*
X0Y-89217500D03*
%TD*%
D14*
%TO.C,S1*%
X245268750Y-16827500D03*
D13*
X245268750Y-32067500D03*
X269081250Y-32067500D03*
D14*
X269081250Y-16827500D03*
%TD*%
%TO.C,S5*%
X171450000Y-106997500D03*
X71437500Y-106997500D03*
D13*
X71437500Y-91757500D03*
X171450000Y-91757500D03*
%TD*%
D15*
%TO.C,J2*%
X274286250Y13750000D03*
D16*
X282926250Y9570000D03*
D15*
X282926250Y13750000D03*
D16*
X274286250Y9570000D03*
D17*
X281856250Y8655000D03*
X281056250Y8655000D03*
D18*
X280356250Y8655000D03*
X279356250Y8655000D03*
X277856250Y8655000D03*
X276856250Y8655000D03*
D17*
X276156250Y8655000D03*
X275356250Y8655000D03*
X275356250Y8655000D03*
X276156250Y8655000D03*
D18*
X277356250Y8655000D03*
X278356250Y8655000D03*
X278856250Y8655000D03*
X279856250Y8655000D03*
D17*
X281056250Y8655000D03*
X281856250Y8655000D03*
D19*
X275716250Y10100000D03*
X281496250Y10100000D03*
%TD*%
D14*
%TO.C,S2*%
X242887500Y-68897500D03*
X266700000Y-68897500D03*
D13*
X242887500Y-53657500D03*
X266700000Y-53657500D03*
%TD*%
D20*
%TO.C,J1*%
X279110000Y-87620000D03*
D21*
X279110000Y-85080000D03*
X279110000Y-82540000D03*
X279110000Y-80000000D03*
X279110000Y-77460000D03*
%TD*%
D22*
%TO.C,SW92*%
X195421250Y-94932500D03*
X189071250Y-97472500D03*
D23*
X197961250Y-100012500D03*
D13*
X192881250Y-100012500D03*
D23*
X187801250Y-100012500D03*
%TD*%
D22*
%TO.C,SW67*%
X257333750Y-56832500D03*
X250983750Y-59372500D03*
D13*
X254793750Y-61912500D03*
D23*
X259873750Y-61912500D03*
X249713750Y-61912500D03*
%TD*%
D22*
%TO.C,SW96*%
X293052500Y-94932500D03*
X286702500Y-97472500D03*
D23*
X285432500Y-100012500D03*
D13*
X290512500Y-100012500D03*
D23*
X295592500Y-100012500D03*
%TD*%
D22*
%TO.C,SW86*%
X312102500Y-75882500D03*
X305752500Y-78422500D03*
D23*
X314642500Y-80962500D03*
D13*
X309562500Y-80962500D03*
D23*
X304482500Y-80962500D03*
%TD*%
D22*
%TO.C,SW29*%
X212090000Y-18732500D03*
X205740000Y-21272500D03*
D23*
X214630000Y-23812500D03*
D13*
X209550000Y-23812500D03*
D23*
X204470000Y-23812500D03*
%TD*%
D22*
%TO.C,SW42*%
X107315000Y-37782500D03*
X100965000Y-40322500D03*
D23*
X109855000Y-42862500D03*
D13*
X104775000Y-42862500D03*
D23*
X99695000Y-42862500D03*
%TD*%
D22*
%TO.C,SW3*%
X40640000Y5080000D03*
X34290000Y2540000D03*
D13*
X38100000Y0D03*
D23*
X33020000Y0D03*
X43180000Y0D03*
%TD*%
D22*
%TO.C,SW11*%
X212090000Y5080000D03*
X205740000Y2540000D03*
D23*
X204470000Y0D03*
X214630000Y0D03*
D13*
X209550000Y0D03*
%TD*%
D22*
%TO.C,SW28*%
X193040000Y-18732500D03*
X186690000Y-21272500D03*
D13*
X190500000Y-23812500D03*
D23*
X195580000Y-23812500D03*
X185420000Y-23812500D03*
%TD*%
D22*
%TO.C,SW35*%
X312102500Y-18732500D03*
X305752500Y-21272500D03*
D23*
X304482500Y-23812500D03*
D13*
X309562500Y-23812500D03*
D23*
X314642500Y-23812500D03*
%TD*%
D22*
%TO.C,SW36*%
X331152500Y-18732500D03*
X324802500Y-21272500D03*
D23*
X333692500Y-23812500D03*
D13*
X328612500Y-23812500D03*
D23*
X323532500Y-23812500D03*
%TD*%
D22*
%TO.C,SW12*%
X231140000Y5080000D03*
X224790000Y2540000D03*
D23*
X233680000Y0D03*
X223520000Y0D03*
D13*
X228600000Y0D03*
%TD*%
D22*
%TO.C,SW59*%
X93027500Y-56832500D03*
X86677500Y-59372500D03*
D13*
X90487500Y-61912500D03*
D23*
X95567500Y-61912500D03*
X85407500Y-61912500D03*
%TD*%
D22*
%TO.C,SW72*%
X45402500Y-75882500D03*
X39052500Y-78422500D03*
D23*
X47942500Y-80962500D03*
D13*
X42862500Y-80962500D03*
D23*
X37782500Y-80962500D03*
%TD*%
D22*
%TO.C,SW9*%
X164465000Y5080000D03*
X158115000Y2540000D03*
D23*
X156845000Y0D03*
X167005000Y0D03*
D13*
X161925000Y0D03*
%TD*%
D22*
%TO.C,SW69*%
X312102500Y-56832500D03*
X305752500Y-59372500D03*
D23*
X304482500Y-61912500D03*
X314642500Y-61912500D03*
D13*
X309562500Y-61912500D03*
%TD*%
D22*
%TO.C,SW87*%
X331152500Y-75882500D03*
X324802500Y-78422500D03*
D23*
X333692500Y-80962500D03*
X323532500Y-80962500D03*
D13*
X328612500Y-80962500D03*
%TD*%
D22*
%TO.C,SW48*%
X221615000Y-37782500D03*
X215265000Y-40322500D03*
D13*
X219075000Y-42862500D03*
D23*
X224155000Y-42862500D03*
X213995000Y-42862500D03*
%TD*%
D22*
%TO.C,SW40*%
X69215000Y-37782500D03*
X62865000Y-40322500D03*
D23*
X61595000Y-42862500D03*
X71755000Y-42862500D03*
D13*
X66675000Y-42862500D03*
%TD*%
D22*
%TO.C,SW17*%
X331152500Y5080000D03*
X324802500Y2540000D03*
D13*
X328612500Y0D03*
D23*
X333692500Y0D03*
X323532500Y0D03*
%TD*%
D22*
%TO.C,SW7*%
X126365000Y5080000D03*
X120015000Y2540000D03*
D13*
X123825000Y0D03*
D23*
X118745000Y0D03*
X128905000Y0D03*
%TD*%
D22*
%TO.C,SW26*%
X154940000Y-18732500D03*
X148590000Y-21272500D03*
D13*
X152400000Y-23812500D03*
D23*
X157480000Y-23812500D03*
X147320000Y-23812500D03*
%TD*%
D22*
%TO.C,SW30*%
X231140000Y-18732500D03*
X224790000Y-21272500D03*
D13*
X228600000Y-23812500D03*
D23*
X223520000Y-23812500D03*
X233680000Y-23812500D03*
%TD*%
D22*
%TO.C,SW93*%
X219233750Y-94932500D03*
X212883750Y-97472500D03*
D23*
X211613750Y-100012500D03*
D13*
X216693750Y-100012500D03*
D23*
X221773750Y-100012500D03*
%TD*%
D22*
%TO.C,SW14*%
X269240000Y5080000D03*
X262890000Y2540000D03*
D23*
X271780000Y0D03*
X261620000Y0D03*
D13*
X266700000Y0D03*
%TD*%
D22*
%TO.C,SW64*%
X188277500Y-56832500D03*
X181927500Y-59372500D03*
D23*
X180657500Y-61912500D03*
X190817500Y-61912500D03*
D13*
X185737500Y-61912500D03*
%TD*%
D22*
%TO.C,SW94*%
X243046250Y-94932500D03*
X236696250Y-97472500D03*
D13*
X240506250Y-100012500D03*
D23*
X245586250Y-100012500D03*
X235426250Y-100012500D03*
%TD*%
D22*
%TO.C,SW24*%
X116840000Y-18732500D03*
X110490000Y-21272500D03*
D23*
X109220000Y-23812500D03*
D13*
X114300000Y-23812500D03*
D23*
X119380000Y-23812500D03*
%TD*%
D22*
%TO.C,SW88*%
X4921250Y-94932500D03*
X-1428750Y-97472500D03*
D13*
X2381250Y-100012500D03*
D23*
X7461250Y-100012500D03*
X-2698750Y-100012500D03*
%TD*%
D22*
%TO.C,SW75*%
X102552500Y-75882500D03*
X96202500Y-78422500D03*
D13*
X100012500Y-80962500D03*
D23*
X94932500Y-80962500D03*
X105092500Y-80962500D03*
%TD*%
D22*
%TO.C,SW52*%
X312102500Y-37782500D03*
X305752500Y-40322500D03*
D13*
X309562500Y-42862500D03*
D23*
X304482500Y-42862500D03*
X314642500Y-42862500D03*
%TD*%
D22*
%TO.C,SW60*%
X112077500Y-56832500D03*
X105727500Y-59372500D03*
D23*
X104457500Y-61912500D03*
X114617500Y-61912500D03*
D13*
X109537500Y-61912500D03*
%TD*%
D22*
%TO.C,SW37*%
X7302500Y-37782500D03*
X952500Y-40322500D03*
D23*
X-317500Y-42862500D03*
X9842500Y-42862500D03*
D13*
X4762500Y-42862500D03*
%TD*%
D22*
%TO.C,SW61*%
X131127500Y-56832500D03*
X124777500Y-59372500D03*
D13*
X128587500Y-61912500D03*
D23*
X123507500Y-61912500D03*
X133667500Y-61912500D03*
%TD*%
D22*
%TO.C,SW34*%
X293052500Y-18732500D03*
X286702500Y-21272500D03*
D23*
X285432500Y-23812500D03*
D13*
X290512500Y-23812500D03*
D23*
X295592500Y-23812500D03*
%TD*%
D22*
%TO.C,SW31*%
X245110000Y-28892500D03*
X251460000Y-26352500D03*
D23*
X252730000Y-23812500D03*
X242570000Y-23812500D03*
D13*
X247650000Y-23812500D03*
%TD*%
D22*
%TO.C,SW43*%
X126365000Y-37782500D03*
X120015000Y-40322500D03*
D13*
X123825000Y-42862500D03*
D23*
X128905000Y-42862500D03*
X118745000Y-42862500D03*
%TD*%
D22*
%TO.C,SW5*%
X78740000Y5080000D03*
X72390000Y2540000D03*
D13*
X76200000Y0D03*
D23*
X71120000Y0D03*
X81280000Y0D03*
%TD*%
D22*
%TO.C,SW70*%
X331152500Y-56832500D03*
X324802500Y-59372500D03*
D23*
X323532500Y-61912500D03*
D13*
X328612500Y-61912500D03*
D23*
X333692500Y-61912500D03*
%TD*%
D22*
%TO.C,SW73*%
X64452500Y-75882500D03*
X58102500Y-78422500D03*
D13*
X61912500Y-80962500D03*
D23*
X56832500Y-80962500D03*
X66992500Y-80962500D03*
%TD*%
D22*
%TO.C,SW81*%
X216852500Y-75882500D03*
X210502500Y-78422500D03*
D23*
X209232500Y-80962500D03*
X219392500Y-80962500D03*
D13*
X214312500Y-80962500D03*
%TD*%
D22*
%TO.C,SW49*%
X240665000Y-37782500D03*
X234315000Y-40322500D03*
D13*
X238125000Y-42862500D03*
D23*
X243205000Y-42862500D03*
X233045000Y-42862500D03*
%TD*%
D22*
%TO.C,SW89*%
X28733750Y-94932500D03*
X22383750Y-97472500D03*
D23*
X21113750Y-100012500D03*
D13*
X26193750Y-100012500D03*
D23*
X31273750Y-100012500D03*
%TD*%
D22*
%TO.C,SW57*%
X54927500Y-56832500D03*
X48577500Y-59372500D03*
D23*
X47307500Y-61912500D03*
X57467500Y-61912500D03*
D13*
X52387500Y-61912500D03*
%TD*%
D22*
%TO.C,SW74*%
X83502500Y-75882500D03*
X77152500Y-78422500D03*
D23*
X75882500Y-80962500D03*
D13*
X80962500Y-80962500D03*
D23*
X86042500Y-80962500D03*
%TD*%
D22*
%TO.C,SW32*%
X259715000Y-18732500D03*
X253365000Y-21272500D03*
D13*
X257175000Y-23812500D03*
D23*
X252095000Y-23812500D03*
X262255000Y-23812500D03*
%TD*%
D22*
%TO.C,SW79*%
X178752500Y-75882500D03*
X172402500Y-78422500D03*
D23*
X181292500Y-80962500D03*
D13*
X176212500Y-80962500D03*
D23*
X171132500Y-80962500D03*
%TD*%
D22*
%TO.C,SW55*%
X4603750Y-66992500D03*
X10953750Y-64452500D03*
D23*
X2063750Y-61912500D03*
D13*
X7143750Y-61912500D03*
D23*
X12223750Y-61912500D03*
%TD*%
D22*
%TO.C,SW65*%
X207327500Y-56832500D03*
X200977500Y-59372500D03*
D23*
X199707500Y-61912500D03*
X209867500Y-61912500D03*
D13*
X204787500Y-61912500D03*
%TD*%
D22*
%TO.C,SW22*%
X78740000Y-18732500D03*
X72390000Y-21272500D03*
D23*
X81280000Y-23812500D03*
D13*
X76200000Y-23812500D03*
D23*
X71120000Y-23812500D03*
%TD*%
D22*
%TO.C,SW4*%
X59690000Y5080000D03*
X53340000Y2540000D03*
D13*
X57150000Y0D03*
D23*
X52070000Y0D03*
X62230000Y0D03*
%TD*%
D22*
%TO.C,SW83*%
X252571250Y-75882500D03*
X246221250Y-78422500D03*
D23*
X244951250Y-80962500D03*
X255111250Y-80962500D03*
D13*
X250031250Y-80962500D03*
%TD*%
D22*
%TO.C,SW45*%
X164465000Y-37782500D03*
X158115000Y-40322500D03*
D23*
X167005000Y-42862500D03*
X156845000Y-42862500D03*
D13*
X161925000Y-42862500D03*
%TD*%
D22*
%TO.C,SW77*%
X140652500Y-75882500D03*
X134302500Y-78422500D03*
D13*
X138112500Y-80962500D03*
D23*
X143192500Y-80962500D03*
X133032500Y-80962500D03*
%TD*%
D22*
%TO.C,SW16*%
X312102500Y5080000D03*
X305752500Y2540000D03*
D13*
X309562500Y0D03*
D23*
X314642500Y0D03*
X304482500Y0D03*
%TD*%
D22*
%TO.C,SW98*%
X331152500Y-94932500D03*
X324802500Y-97472500D03*
D23*
X323532500Y-100012500D03*
D13*
X328612500Y-100012500D03*
D23*
X333692500Y-100012500D03*
%TD*%
D22*
%TO.C,SW58*%
X73977500Y-56832500D03*
X67627500Y-59372500D03*
D23*
X66357500Y-61912500D03*
D13*
X71437500Y-61912500D03*
D23*
X76517500Y-61912500D03*
%TD*%
D22*
%TO.C,SW78*%
X159702500Y-75882500D03*
X153352500Y-78422500D03*
D23*
X162242500Y-80962500D03*
X152082500Y-80962500D03*
D13*
X157162500Y-80962500D03*
%TD*%
D22*
%TO.C,SW47*%
X202565000Y-37782500D03*
X196215000Y-40322500D03*
D23*
X194945000Y-42862500D03*
D13*
X200025000Y-42862500D03*
D23*
X205105000Y-42862500D03*
%TD*%
D22*
%TO.C,SW25*%
X135890000Y-18732500D03*
X129540000Y-21272500D03*
D13*
X133350000Y-23812500D03*
D23*
X128270000Y-23812500D03*
X138430000Y-23812500D03*
%TD*%
D22*
%TO.C,SW44*%
X145415000Y-37782500D03*
X139065000Y-40322500D03*
D23*
X147955000Y-42862500D03*
D13*
X142875000Y-42862500D03*
D23*
X137795000Y-42862500D03*
%TD*%
D22*
%TO.C,SW13*%
X250190000Y5080000D03*
X243840000Y2540000D03*
D23*
X252730000Y0D03*
X242570000Y0D03*
D13*
X247650000Y0D03*
%TD*%
D22*
%TO.C,SW76*%
X121602500Y-75882500D03*
X115252500Y-78422500D03*
D13*
X119062500Y-80962500D03*
D23*
X124142500Y-80962500D03*
X113982500Y-80962500D03*
%TD*%
D22*
%TO.C,SW82*%
X237966250Y-86042500D03*
X244316250Y-83502500D03*
D23*
X245586250Y-80962500D03*
D13*
X240506250Y-80962500D03*
D23*
X235426250Y-80962500D03*
%TD*%
D22*
%TO.C,SW62*%
X150177500Y-56832500D03*
X143827500Y-59372500D03*
D13*
X147637500Y-61912500D03*
D23*
X152717500Y-61912500D03*
X142557500Y-61912500D03*
%TD*%
D22*
%TO.C,SW51*%
X293052500Y-37782500D03*
X286702500Y-40322500D03*
D23*
X295592500Y-42862500D03*
X285432500Y-42862500D03*
D13*
X290512500Y-42862500D03*
%TD*%
D22*
%TO.C,SW46*%
X183515000Y-37782500D03*
X177165000Y-40322500D03*
D23*
X186055000Y-42862500D03*
X175895000Y-42862500D03*
D13*
X180975000Y-42862500D03*
%TD*%
D22*
%TO.C,SW23*%
X97790000Y-18732500D03*
X91440000Y-21272500D03*
D23*
X100330000Y-23812500D03*
X90170000Y-23812500D03*
D13*
X95250000Y-23812500D03*
%TD*%
D22*
%TO.C,SW95*%
X266858750Y-94932500D03*
X260508750Y-97472500D03*
D23*
X269398750Y-100012500D03*
X259238750Y-100012500D03*
D13*
X264318750Y-100012500D03*
%TD*%
D22*
%TO.C,SW54*%
X4921250Y-56832500D03*
X-1428750Y-59372500D03*
D13*
X2381250Y-61912500D03*
D23*
X-2698750Y-61912500D03*
X7461250Y-61912500D03*
%TD*%
D22*
%TO.C,SW38*%
X31115000Y-37782500D03*
X24765000Y-40322500D03*
D23*
X23495000Y-42862500D03*
X33655000Y-42862500D03*
D13*
X28575000Y-42862500D03*
%TD*%
D22*
%TO.C,SW21*%
X59690000Y-18732500D03*
X53340000Y-21272500D03*
D23*
X62230000Y-23812500D03*
D13*
X57150000Y-23812500D03*
D23*
X52070000Y-23812500D03*
%TD*%
D22*
%TO.C,SW15*%
X293052500Y5080000D03*
X286702500Y2540000D03*
D23*
X285432500Y0D03*
X295592500Y0D03*
D13*
X290512500Y0D03*
%TD*%
D22*
%TO.C,SW80*%
X197802500Y-75882500D03*
X191452500Y-78422500D03*
D23*
X190182500Y-80962500D03*
X200342500Y-80962500D03*
D13*
X195262500Y-80962500D03*
%TD*%
D22*
%TO.C,SW8*%
X145415000Y5080000D03*
X139065000Y2540000D03*
D23*
X137795000Y0D03*
D13*
X142875000Y0D03*
D23*
X147955000Y0D03*
%TD*%
D22*
%TO.C,SW19*%
X21590000Y-18732500D03*
X15240000Y-21272500D03*
D13*
X19050000Y-23812500D03*
D23*
X24130000Y-23812500D03*
X13970000Y-23812500D03*
%TD*%
D22*
%TO.C,SW6*%
X97790000Y5080000D03*
X91440000Y2540000D03*
D23*
X90170000Y0D03*
D13*
X95250000Y0D03*
D23*
X100330000Y0D03*
%TD*%
D22*
%TO.C,SW50*%
X264477500Y-37782500D03*
X258127500Y-40322500D03*
D23*
X267017500Y-42862500D03*
D13*
X261937500Y-42862500D03*
D23*
X256857500Y-42862500D03*
%TD*%
D22*
%TO.C,SW2*%
X2540000Y5080000D03*
X-3810000Y2540000D03*
D23*
X5080000Y0D03*
X-5080000Y0D03*
D13*
X0Y0D03*
%TD*%
D22*
%TO.C,SW63*%
X169227500Y-56832500D03*
X162877500Y-59372500D03*
D23*
X171767500Y-61912500D03*
X161607500Y-61912500D03*
D13*
X166687500Y-61912500D03*
%TD*%
D22*
%TO.C,SW10*%
X183515000Y5080000D03*
X177165000Y2540000D03*
D13*
X180975000Y0D03*
D23*
X186055000Y0D03*
X175895000Y0D03*
%TD*%
D22*
%TO.C,SW71*%
X14446250Y-75882500D03*
X8096250Y-78422500D03*
D13*
X11906250Y-80962500D03*
D23*
X6826250Y-80962500D03*
X16986250Y-80962500D03*
%TD*%
D22*
%TO.C,SW33*%
X264160000Y-28892500D03*
X270510000Y-26352500D03*
D23*
X271780000Y-23812500D03*
D13*
X266700000Y-23812500D03*
D23*
X261620000Y-23812500D03*
%TD*%
D22*
%TO.C,SW91*%
X123983750Y-94932500D03*
X117633750Y-97472500D03*
D23*
X116363750Y-100012500D03*
X126523750Y-100012500D03*
D13*
X121443750Y-100012500D03*
%TD*%
D20*
%TO.C,SW1*%
X310780000Y-48225000D03*
D21*
X308240000Y-48225000D03*
%TD*%
D22*
%TO.C,SW97*%
X312102500Y-94932500D03*
X305752500Y-97472500D03*
D23*
X314642500Y-100012500D03*
X304482500Y-100012500D03*
D13*
X309562500Y-100012500D03*
%TD*%
D22*
%TO.C,SW66*%
X226377500Y-56832500D03*
X220027500Y-59372500D03*
D13*
X223837500Y-61912500D03*
D23*
X228917500Y-61912500D03*
X218757500Y-61912500D03*
%TD*%
D22*
%TO.C,SW56*%
X35877500Y-56832500D03*
X29527500Y-59372500D03*
D13*
X33337500Y-61912500D03*
D23*
X28257500Y-61912500D03*
X38417500Y-61912500D03*
%TD*%
D22*
%TO.C,SW84*%
X264160000Y-86042500D03*
X270510000Y-83502500D03*
D23*
X261620000Y-80962500D03*
D13*
X266700000Y-80962500D03*
D23*
X271780000Y-80962500D03*
%TD*%
D22*
%TO.C,SW39*%
X50165000Y-37782500D03*
X43815000Y-40322500D03*
D13*
X47625000Y-42862500D03*
D23*
X52705000Y-42862500D03*
X42545000Y-42862500D03*
%TD*%
D22*
%TO.C,SW20*%
X40640000Y-18732500D03*
X34290000Y-21272500D03*
D13*
X38100000Y-23812500D03*
D23*
X43180000Y-23812500D03*
X33020000Y-23812500D03*
%TD*%
D22*
%TO.C,SW68*%
X293052500Y-56832500D03*
X286702500Y-59372500D03*
D23*
X285432500Y-61912500D03*
D13*
X290512500Y-61912500D03*
D23*
X295592500Y-61912500D03*
%TD*%
D22*
%TO.C,SW18*%
X2540000Y-18732500D03*
X-3810000Y-21272500D03*
D23*
X5080000Y-23812500D03*
D13*
X0Y-23812500D03*
D23*
X-5080000Y-23812500D03*
%TD*%
D22*
%TO.C,SW90*%
X52546250Y-94932500D03*
X46196250Y-97472500D03*
D23*
X44926250Y-100012500D03*
X55086250Y-100012500D03*
D13*
X50006250Y-100012500D03*
%TD*%
D22*
%TO.C,SW53*%
X331152500Y-37782500D03*
X324802500Y-40322500D03*
D23*
X333692500Y-42862500D03*
X323532500Y-42862500D03*
D13*
X328612500Y-42862500D03*
%TD*%
D22*
%TO.C,SW27*%
X173990000Y-18732500D03*
X167640000Y-21272500D03*
D23*
X176530000Y-23812500D03*
X166370000Y-23812500D03*
D13*
X171450000Y-23812500D03*
%TD*%
D22*
%TO.C,SW41*%
X88265000Y-37782500D03*
X81915000Y-40322500D03*
D23*
X90805000Y-42862500D03*
D13*
X85725000Y-42862500D03*
D23*
X80645000Y-42862500D03*
%TD*%
D22*
%TO.C,SW85*%
X293052500Y-75882500D03*
X286702500Y-78422500D03*
D23*
X295592500Y-80962500D03*
X285432500Y-80962500D03*
D13*
X290512500Y-80962500D03*
%TD*%
M02*
