%TF.GenerationSoftware,KiCad,Pcbnew,(6.0.1)*%
%TF.CreationDate,2022-06-13T23:58:49+10:00*%
%TF.ProjectId,fuyu,66757975-2e6b-4696-9361-645f70636258,rev?*%
%TF.SameCoordinates,Original*%
%TF.FileFunction,Profile,NP*%
%FSLAX46Y46*%
G04 Gerber Fmt 4.6, Leading zero omitted, Abs format (unit mm)*
G04 Created by KiCad (PCBNEW (6.0.1)) date 2022-06-13 23:58:49*
%MOMM*%
%LPD*%
G01*
G04 APERTURE LIST*
%TA.AperFunction,Profile*%
%ADD10C,0.200000*%
%TD*%
%TA.AperFunction,Profile*%
%ADD11C,0.100000*%
%TD*%
G04 APERTURE END LIST*
D10*
X319646562Y-58277499D02*
G75*
G03*
X318646562Y-57277500I-999999J0D01*
G01*
X331046562Y-58777499D02*
G75*
G03*
X332046562Y-58777500I500000J-1D01*
G01*
X380877812Y-173840000D02*
G75*
G03*
X383877812Y-170840000I-1J3000001D01*
G01*
X383877811Y-60277500D02*
G75*
G03*
X380877812Y-57277500I-2999999J1D01*
G01*
X39215312Y-60277500D02*
X39215312Y-170840000D01*
X39215312Y-170840000D02*
G75*
G03*
X42215312Y-173840000I3000001J1D01*
G01*
X42215312Y-173840000D02*
X380877812Y-173840000D01*
X380877812Y-57277500D02*
X333046562Y-57277500D01*
X319646562Y-58777500D02*
G75*
G03*
X320646562Y-58777500I500000J1D01*
G01*
X330346562Y-50277500D02*
X321346562Y-50277500D01*
X331046562Y-50977501D02*
G75*
G03*
X330346562Y-50277500I-700001J0D01*
G01*
X320646562Y-50977500D02*
X320646562Y-58777500D01*
X42215312Y-57277500D02*
G75*
G03*
X39215312Y-60277500I1J-3000001D01*
G01*
X319646562Y-58777500D02*
X319646562Y-58277499D01*
X331046561Y-58777499D02*
X331046562Y-50977501D01*
X321346562Y-50277500D02*
G75*
G03*
X320646562Y-50977500I-1J-699999D01*
G01*
X333046562Y-57277500D02*
G75*
G03*
X332046562Y-58277499I1J-1000001D01*
G01*
X318646562Y-57277500D02*
X42215312Y-57277500D01*
X383877812Y-170840000D02*
X383877811Y-60277500D01*
X332046562Y-58277499D02*
X332046562Y-58777500D01*
D11*
%TO.C,LED3*%
X67990311Y-58599657D02*
X67990311Y-60005341D01*
X67084764Y-60802499D02*
X65495860Y-60802499D01*
X65495860Y-57802500D02*
X67084765Y-57802500D01*
X64590313Y-60005341D02*
X64590313Y-58599657D01*
X64590313Y-58599657D02*
G75*
G03*
X64540828Y-58382779I-499990J2D01*
G01*
X68039795Y-58382779D02*
G75*
G03*
X67337023Y-57734201I-450514J216878D01*
G01*
X65243601Y-57734200D02*
G75*
G03*
X65495859Y-57802499I252261J431710D01*
G01*
X68039796Y-58382779D02*
G75*
G03*
X67990311Y-58599656I450505J-216876D01*
G01*
X65243601Y-57734200D02*
G75*
G03*
X64540828Y-58382779I-252258J-431701D01*
G01*
X64540828Y-60222219D02*
G75*
G03*
X65243601Y-60870796I450515J-216877D01*
G01*
X65495860Y-60802499D02*
G75*
G03*
X65243602Y-60870798I3J-500009D01*
G01*
X67990311Y-60005341D02*
G75*
G03*
X68039796Y-60222219I499990J-2D01*
G01*
X64540828Y-60222219D02*
G75*
G03*
X64590313Y-60005342I-450505J216876D01*
G01*
X67337023Y-60870798D02*
G75*
G03*
X67084764Y-60802499I-252261J-431710D01*
G01*
X67084765Y-57802500D02*
G75*
G03*
X67337023Y-57734201I-3J500009D01*
G01*
X67337023Y-60870798D02*
G75*
G03*
X68039796Y-60222218I252259J431700D01*
G01*
%TO.C,LED4*%
X62420954Y-61608048D02*
X62420954Y-63196953D01*
X60218113Y-60702501D02*
X61623797Y-60702501D01*
X59420955Y-63196952D02*
X59420955Y-61608048D01*
X61623797Y-64102499D02*
X60218113Y-64102499D01*
X62489254Y-61355789D02*
G75*
G03*
X62420955Y-61608047I431710J-252261D01*
G01*
X61840675Y-64151984D02*
G75*
G03*
X61623798Y-64102499I-216876J-450505D01*
G01*
X62489254Y-61355789D02*
G75*
G03*
X61840675Y-60653016I-431701J252258D01*
G01*
X61840675Y-64151983D02*
G75*
G03*
X62489253Y-63449211I216878J450514D01*
G01*
X61623797Y-60702501D02*
G75*
G03*
X61840675Y-60653016I2J499990D01*
G01*
X60001235Y-60653016D02*
G75*
G03*
X60218112Y-60702501I216876J450505D01*
G01*
X59420955Y-61608048D02*
G75*
G03*
X59352656Y-61355790I-500009J-3D01*
G01*
X59352656Y-63449211D02*
G75*
G03*
X60001236Y-64151984I431700J-252259D01*
G01*
X62420954Y-63196953D02*
G75*
G03*
X62489253Y-63449211I500009J3D01*
G01*
X60218113Y-64102499D02*
G75*
G03*
X60001235Y-64151984I-2J-499990D01*
G01*
X59352656Y-63449211D02*
G75*
G03*
X59420955Y-63196952I-431710J252261D01*
G01*
X60001235Y-60653016D02*
G75*
G03*
X59352658Y-61355789I-216877J-450515D01*
G01*
%TO.C,LED5*%
X59220955Y-69305341D02*
X59220955Y-67899657D01*
X62620953Y-67899657D02*
X62620953Y-69305341D01*
X61715406Y-70102499D02*
X60126502Y-70102499D01*
X60126502Y-67102500D02*
X61715407Y-67102500D01*
X62670438Y-67682779D02*
G75*
G03*
X62620953Y-67899656I450505J-216876D01*
G01*
X60126502Y-70102499D02*
G75*
G03*
X59874244Y-70170798I3J-500009D01*
G01*
X59171470Y-69522219D02*
G75*
G03*
X59874243Y-70170796I450515J-216877D01*
G01*
X59874243Y-67034200D02*
G75*
G03*
X60126501Y-67102499I252261J431710D01*
G01*
X62620953Y-69305341D02*
G75*
G03*
X62670438Y-69522219I499990J-2D01*
G01*
X61715407Y-67102500D02*
G75*
G03*
X61967665Y-67034201I-3J500009D01*
G01*
X61967665Y-70170798D02*
G75*
G03*
X61715406Y-70102499I-252261J-431710D01*
G01*
X61967665Y-70170798D02*
G75*
G03*
X62670438Y-69522218I252259J431700D01*
G01*
X59874243Y-67034200D02*
G75*
G03*
X59171470Y-67682779I-252258J-431701D01*
G01*
X59171470Y-69522219D02*
G75*
G03*
X59220955Y-69305342I-450505J216876D01*
G01*
X59220955Y-67899657D02*
G75*
G03*
X59171470Y-67682779I-499990J2D01*
G01*
X62670437Y-67682779D02*
G75*
G03*
X61967665Y-67034201I-450514J216878D01*
G01*
%TO.C,LED7*%
X73159669Y-67808048D02*
X73159669Y-69396952D01*
X72362511Y-70302499D02*
X70956827Y-70302499D01*
X70956827Y-66902501D02*
X72362511Y-66902501D01*
X70159670Y-69396952D02*
X70159670Y-67808047D01*
X70739949Y-66853017D02*
G75*
G03*
X70091371Y-67555789I-216878J-450514D01*
G01*
X70956827Y-70302499D02*
G75*
G03*
X70739949Y-70351984I-2J-499990D01*
G01*
X70091370Y-69649211D02*
G75*
G03*
X70159669Y-69396953I-431710J252261D01*
G01*
X73227968Y-67555789D02*
G75*
G03*
X72579388Y-66853016I-431700J252259D01*
G01*
X72579389Y-70351984D02*
G75*
G03*
X73227966Y-69649211I216877J450515D01*
G01*
X72579389Y-70351984D02*
G75*
G03*
X72362512Y-70302499I-216876J-450505D01*
G01*
X73159669Y-69396952D02*
G75*
G03*
X73227968Y-69649210I500009J3D01*
G01*
X73227968Y-67555789D02*
G75*
G03*
X73159669Y-67808048I431710J-252261D01*
G01*
X72362511Y-66902501D02*
G75*
G03*
X72579389Y-66853016I2J499990D01*
G01*
X70091370Y-69649211D02*
G75*
G03*
X70739949Y-70351984I431701J-252258D01*
G01*
X70739949Y-66853016D02*
G75*
G03*
X70956826Y-66902501I216876J450505D01*
G01*
X70159670Y-67808047D02*
G75*
G03*
X70091371Y-67555789I-500009J-3D01*
G01*
%TO.C,LED1*%
X66993155Y-67352499D02*
X65587471Y-67352499D01*
X64790313Y-66446952D02*
X64790313Y-64858048D01*
X67790312Y-64858048D02*
X67790312Y-66446953D01*
X65587471Y-63952501D02*
X66993155Y-63952501D01*
X67210033Y-67401983D02*
G75*
G03*
X67858611Y-66699211I216878J450514D01*
G01*
X64722014Y-66699211D02*
G75*
G03*
X65370594Y-67401984I431700J-252259D01*
G01*
X65587471Y-67352499D02*
G75*
G03*
X65370593Y-67401984I-2J-499990D01*
G01*
X65370593Y-63903016D02*
G75*
G03*
X64722016Y-64605789I-216877J-450515D01*
G01*
X64790313Y-64858048D02*
G75*
G03*
X64722014Y-64605790I-500009J-3D01*
G01*
X64722014Y-66699211D02*
G75*
G03*
X64790313Y-66446952I-431710J252261D01*
G01*
X67790312Y-66446953D02*
G75*
G03*
X67858611Y-66699211I500009J3D01*
G01*
X67858612Y-64605789D02*
G75*
G03*
X67790313Y-64858047I431710J-252261D01*
G01*
X67858612Y-64605789D02*
G75*
G03*
X67210033Y-63903016I-431701J252258D01*
G01*
X67210033Y-67401984D02*
G75*
G03*
X66993156Y-67352499I-216876J-450505D01*
G01*
X65370593Y-63903016D02*
G75*
G03*
X65587470Y-63952501I216876J450505D01*
G01*
X66993155Y-63952501D02*
G75*
G03*
X67210033Y-63903016I2J499990D01*
G01*
%TO.C,LED2*%
X70865218Y-60902501D02*
X72454122Y-60902501D01*
X73359669Y-61699659D02*
X73359669Y-63105343D01*
X72454122Y-63902500D02*
X70865217Y-63902500D01*
X69959671Y-63105343D02*
X69959671Y-61699659D01*
X73359669Y-63105343D02*
G75*
G03*
X73409154Y-63322221I499990J-2D01*
G01*
X70612959Y-60834202D02*
G75*
G03*
X70865218Y-60902501I252261J431710D01*
G01*
X70865217Y-63902500D02*
G75*
G03*
X70612959Y-63970799I3J-500009D01*
G01*
X69959671Y-61699659D02*
G75*
G03*
X69910186Y-61482781I-499990J2D01*
G01*
X69910187Y-63322221D02*
G75*
G03*
X70612959Y-63970799I450514J-216878D01*
G01*
X70612959Y-60834202D02*
G75*
G03*
X69910186Y-61482782I-252259J-431700D01*
G01*
X69910186Y-63322221D02*
G75*
G03*
X69959671Y-63105344I-450505J216876D01*
G01*
X72706381Y-63970800D02*
G75*
G03*
X73409154Y-63322221I252258J431701D01*
G01*
X73409154Y-61482781D02*
G75*
G03*
X72706381Y-60834204I-450515J216877D01*
G01*
X72454122Y-60902501D02*
G75*
G03*
X72706380Y-60834202I-3J500009D01*
G01*
X72706381Y-63970800D02*
G75*
G03*
X72454123Y-63902501I-252261J-431710D01*
G01*
X73409154Y-61482781D02*
G75*
G03*
X73359669Y-61699658I450505J-216876D01*
G01*
%TO.C,LED6*%
X64590313Y-72405343D02*
X64590313Y-70999659D01*
X67990311Y-70999659D02*
X67990311Y-72405343D01*
X67084764Y-73202500D02*
X65495859Y-73202500D01*
X65495860Y-70202501D02*
X67084764Y-70202501D01*
X68039796Y-70782781D02*
G75*
G03*
X67990311Y-70999658I450505J-216876D01*
G01*
X64540828Y-72622221D02*
G75*
G03*
X64590313Y-72405344I-450505J216876D01*
G01*
X67337023Y-73270800D02*
G75*
G03*
X68039796Y-72622221I252258J431701D01*
G01*
X67990311Y-72405343D02*
G75*
G03*
X68039796Y-72622221I499990J-2D01*
G01*
X65495859Y-73202500D02*
G75*
G03*
X65243601Y-73270799I3J-500009D01*
G01*
X65243601Y-70134202D02*
G75*
G03*
X64540828Y-70782782I-252259J-431700D01*
G01*
X64590313Y-70999659D02*
G75*
G03*
X64540828Y-70782781I-499990J2D01*
G01*
X64540829Y-72622221D02*
G75*
G03*
X65243601Y-73270799I450514J-216878D01*
G01*
X67084764Y-70202501D02*
G75*
G03*
X67337022Y-70134202I-3J500009D01*
G01*
X65243601Y-70134202D02*
G75*
G03*
X65495860Y-70202501I252261J431710D01*
G01*
X68039796Y-70782781D02*
G75*
G03*
X67337023Y-70134204I-450515J216877D01*
G01*
X67337023Y-73270800D02*
G75*
G03*
X67084765Y-73202501I-252261J-431710D01*
G01*
%TD*%
M02*
