%TF.GenerationSoftware,KiCad,Pcbnew,(6.0.6)*%
%TF.CreationDate,2023-03-24T22:01:14+11:00*%
%TF.ProjectId,fuyu,66757975-2e6b-4696-9361-645f70636258,rev?*%
%TF.SameCoordinates,Original*%
%TF.FileFunction,Soldermask,Bot*%
%TF.FilePolarity,Negative*%
%FSLAX46Y46*%
G04 Gerber Fmt 4.6, Leading zero omitted, Abs format (unit mm)*
G04 Created by KiCad (PCBNEW (6.0.6)) date 2023-03-24 22:01:14*
%MOMM*%
%LPD*%
G01*
G04 APERTURE LIST*
G04 Aperture macros list*
%AMRoundRect*
0 Rectangle with rounded corners*
0 $1 Rounding radius*
0 $2 $3 $4 $5 $6 $7 $8 $9 X,Y pos of 4 corners*
0 Add a 4 corners polygon primitive as box body*
4,1,4,$2,$3,$4,$5,$6,$7,$8,$9,$2,$3,0*
0 Add four circle primitives for the rounded corners*
1,1,$1+$1,$2,$3*
1,1,$1+$1,$4,$5*
1,1,$1+$1,$6,$7*
1,1,$1+$1,$8,$9*
0 Add four rect primitives between the rounded corners*
20,1,$1+$1,$2,$3,$4,$5,0*
20,1,$1+$1,$4,$5,$6,$7,0*
20,1,$1+$1,$6,$7,$8,$9,0*
20,1,$1+$1,$8,$9,$2,$3,0*%
%AMRotRect*
0 Rectangle, with rotation*
0 The origin of the aperture is its center*
0 $1 length*
0 $2 width*
0 $3 Rotation angle, in degrees counterclockwise*
0 Add horizontal line*
21,1,$1,$2,0,0,$3*%
%AMFreePoly0*
4,1,18,-0.410000,0.593000,-0.403758,0.624380,-0.385983,0.650983,-0.359380,0.668758,-0.328000,0.675000,0.328000,0.675000,0.359380,0.668758,0.385983,0.650983,0.403758,0.624380,0.410000,0.593000,0.410000,-0.593000,0.403758,-0.624380,0.385983,-0.650983,0.359380,-0.668758,0.328000,-0.675000,0.000000,-0.675000,-0.410000,-0.265000,-0.410000,0.593000,-0.410000,0.593000,$1*%
G04 Aperture macros list end*
%ADD10C,3.987800*%
%ADD11C,3.048000*%
%ADD12C,0.650000*%
%ADD13O,1.000000X2.100000*%
%ADD14O,1.000000X1.600000*%
%ADD15RoundRect,0.082000X0.593000X-0.328000X0.593000X0.328000X-0.593000X0.328000X-0.593000X-0.328000X0*%
%ADD16FreePoly0,90.000000*%
%ADD17RoundRect,0.140000X0.140000X0.170000X-0.140000X0.170000X-0.140000X-0.170000X0.140000X-0.170000X0*%
%ADD18RoundRect,0.105000X-0.245000X-0.245000X0.245000X-0.245000X0.245000X0.245000X-0.245000X0.245000X0*%
%ADD19R,1.700000X1.700000*%
%ADD20O,1.700000X1.700000*%
%ADD21RotRect,1.400000X1.200000X45.000000*%
%ADD22R,1.200000X0.900000*%
%ADD23RoundRect,0.140000X-0.140000X-0.170000X0.140000X-0.170000X0.140000X0.170000X-0.140000X0.170000X0*%
%ADD24C,1.750000*%
%ADD25C,3.300000*%
%ADD26RoundRect,0.250000X1.025000X1.000000X-1.025000X1.000000X-1.025000X-1.000000X1.025000X-1.000000X0*%
%ADD27RoundRect,0.140000X0.170000X-0.140000X0.170000X0.140000X-0.170000X0.140000X-0.170000X-0.140000X0*%
%ADD28RoundRect,0.105000X0.245000X0.245000X-0.245000X0.245000X-0.245000X-0.245000X0.245000X-0.245000X0*%
%ADD29RoundRect,0.200000X-0.275000X0.200000X-0.275000X-0.200000X0.275000X-0.200000X0.275000X0.200000X0*%
%ADD30RoundRect,0.150000X-0.512500X-0.150000X0.512500X-0.150000X0.512500X0.150000X-0.512500X0.150000X0*%
%ADD31RoundRect,0.082000X-0.328000X-0.593000X0.328000X-0.593000X0.328000X0.593000X-0.328000X0.593000X0*%
%ADD32FreePoly0,0.000000*%
%ADD33RoundRect,0.150000X0.150000X-0.650000X0.150000X0.650000X-0.150000X0.650000X-0.150000X-0.650000X0*%
%ADD34R,0.900000X1.200000*%
%ADD35RoundRect,0.150000X0.475000X0.150000X-0.475000X0.150000X-0.475000X-0.150000X0.475000X-0.150000X0*%
%ADD36RoundRect,0.135000X-0.135000X-0.185000X0.135000X-0.185000X0.135000X0.185000X-0.135000X0.185000X0*%
%ADD37RoundRect,0.250000X-1.025000X-1.000000X1.025000X-1.000000X1.025000X1.000000X-1.025000X1.000000X0*%
%ADD38RoundRect,0.135000X-0.185000X0.135000X-0.185000X-0.135000X0.185000X-0.135000X0.185000X0.135000X0*%
%ADD39RoundRect,0.050000X0.387500X0.050000X-0.387500X0.050000X-0.387500X-0.050000X0.387500X-0.050000X0*%
%ADD40RoundRect,0.050000X0.050000X0.387500X-0.050000X0.387500X-0.050000X-0.387500X0.050000X-0.387500X0*%
%ADD41RoundRect,0.144000X1.456000X1.456000X-1.456000X1.456000X-1.456000X-1.456000X1.456000X-1.456000X0*%
%ADD42RoundRect,0.135000X0.135000X0.185000X-0.135000X0.185000X-0.135000X-0.185000X0.135000X-0.185000X0*%
%ADD43RoundRect,0.082000X0.328000X0.593000X-0.328000X0.593000X-0.328000X-0.593000X0.328000X-0.593000X0*%
%ADD44FreePoly0,180.000000*%
%ADD45RoundRect,0.140000X0.021213X-0.219203X0.219203X-0.021213X-0.021213X0.219203X-0.219203X0.021213X0*%
%ADD46RoundRect,0.140000X0.219203X0.021213X0.021213X0.219203X-0.219203X-0.021213X-0.021213X-0.219203X0*%
%ADD47RoundRect,0.135000X0.035355X-0.226274X0.226274X-0.035355X-0.035355X0.226274X-0.226274X0.035355X0*%
%ADD48RoundRect,0.171500X0.686000X1.078500X-0.686000X1.078500X-0.686000X-1.078500X0.686000X-1.078500X0*%
%ADD49RoundRect,0.150000X0.150000X-0.587500X0.150000X0.587500X-0.150000X0.587500X-0.150000X-0.587500X0*%
%ADD50RoundRect,0.250000X-0.625000X0.375000X-0.625000X-0.375000X0.625000X-0.375000X0.625000X0.375000X0*%
%ADD51RoundRect,0.140000X-0.170000X0.140000X-0.170000X-0.140000X0.170000X-0.140000X0.170000X0.140000X0*%
%ADD52RoundRect,0.082000X-0.593000X0.328000X-0.593000X-0.328000X0.593000X-0.328000X0.593000X0.328000X0*%
%ADD53FreePoly0,270.000000*%
G04 APERTURE END LIST*
D10*
%TO.C,S4*%
X261937500Y-89217500D03*
D11*
X238125000Y-73977500D03*
X261937500Y-73977500D03*
D10*
X238125000Y-89217500D03*
%TD*%
%TO.C,S5*%
X76200000Y-91757500D03*
X190500000Y-91757500D03*
D11*
X76200000Y-106997500D03*
X190500000Y-106997500D03*
%TD*%
D10*
%TO.C,S3*%
X0Y-89217500D03*
D11*
X0Y-73977500D03*
D10*
X23812500Y-89217500D03*
D11*
X23812500Y-73977500D03*
%TD*%
%TO.C,S1*%
X269081250Y-16827500D03*
D10*
X269081250Y-32067500D03*
X245268750Y-32067500D03*
D11*
X245268750Y-16827500D03*
%TD*%
D12*
%TO.C,J2*%
X281496250Y10100000D03*
X275716250Y10100000D03*
D13*
X274286250Y9570000D03*
D14*
X282926250Y13750000D03*
D13*
X282926250Y9570000D03*
D14*
X274286250Y13750000D03*
%TD*%
D10*
%TO.C,S2*%
X266700000Y-53657500D03*
X242887500Y-53657500D03*
D11*
X266700000Y-68897500D03*
X242887500Y-68897500D03*
%TD*%
D15*
%TO.C,LED3*%
X16325000Y6750000D03*
X16325000Y5250000D03*
X21775000Y6750000D03*
D16*
X21775000Y5250000D03*
%TD*%
D17*
%TO.C,C41*%
X334170000Y-69810000D03*
X333210000Y-69810000D03*
%TD*%
D18*
%TO.C,D108*%
X332685000Y-33880000D03*
X332685000Y-32780000D03*
X334515000Y-32780000D03*
X334515000Y-33880000D03*
%TD*%
D19*
%TO.C,J1*%
X279110000Y-87620000D03*
D20*
X279110000Y-85080000D03*
X279110000Y-82540000D03*
X279110000Y-80000000D03*
X279110000Y-77460000D03*
%TD*%
D21*
%TO.C,Y1*%
X275570790Y-72396425D03*
X277126425Y-70840790D03*
X278328506Y-72042871D03*
X276772871Y-73598506D03*
%TD*%
D22*
%TO.C,D38*%
X69850000Y-45306250D03*
X69850000Y-42006250D03*
%TD*%
D23*
%TO.C,C33*%
X203020000Y-13550000D03*
X203980000Y-13550000D03*
%TD*%
%TO.C,C45*%
X257150000Y-91040000D03*
X258110000Y-91040000D03*
%TD*%
D24*
%TO.C,SW67*%
X249713750Y-61912500D03*
X259873750Y-61912500D03*
D10*
X254793750Y-61912500D03*
D25*
X250983750Y-59372500D03*
D26*
X247433750Y-59372500D03*
D25*
X257333750Y-56832500D03*
D26*
X260883750Y-56832500D03*
%TD*%
D24*
%TO.C,SW95*%
X295592500Y-100012500D03*
D10*
X290512500Y-100012500D03*
D24*
X285432500Y-100012500D03*
D25*
X286702500Y-97472500D03*
D26*
X283152500Y-97472500D03*
X296602500Y-94932500D03*
D25*
X293052500Y-94932500D03*
%TD*%
D24*
%TO.C,SW86*%
X304482500Y-80962500D03*
D10*
X309562500Y-80962500D03*
D24*
X314642500Y-80962500D03*
D25*
X305752500Y-78422500D03*
D26*
X302202500Y-78422500D03*
D25*
X312102500Y-75882500D03*
D26*
X315652500Y-75882500D03*
%TD*%
D22*
%TO.C,D14*%
X293687500Y-2443750D03*
X293687500Y856250D03*
%TD*%
D17*
%TO.C,C9*%
X273530000Y-70397500D03*
X272570000Y-70397500D03*
%TD*%
D24*
%TO.C,SW29*%
X204470000Y-23812500D03*
D10*
X209550000Y-23812500D03*
D24*
X214630000Y-23812500D03*
D26*
X202190000Y-21272500D03*
D25*
X205740000Y-21272500D03*
D26*
X215640000Y-18732500D03*
D25*
X212090000Y-18732500D03*
%TD*%
D22*
%TO.C,D8*%
X165100000Y-2443750D03*
X165100000Y856250D03*
%TD*%
D18*
%TO.C,D115*%
X227432038Y-91037500D03*
X227432038Y-89937500D03*
X229262038Y-89937500D03*
X229262038Y-91037500D03*
%TD*%
D24*
%TO.C,SW42*%
X99695000Y-42862500D03*
D10*
X104775000Y-42862500D03*
D24*
X109855000Y-42862500D03*
D26*
X97415000Y-40322500D03*
D25*
X100965000Y-40322500D03*
D26*
X110865000Y-37782500D03*
D25*
X107315000Y-37782500D03*
%TD*%
D24*
%TO.C,SW3*%
X43180000Y0D03*
X33020000Y0D03*
D10*
X38100000Y0D03*
D25*
X34290000Y2540000D03*
D26*
X30740000Y2540000D03*
D25*
X40640000Y5080000D03*
D26*
X44190000Y5080000D03*
%TD*%
D27*
%TO.C,C3*%
X277327192Y-55045000D03*
X277327192Y-54085000D03*
%TD*%
D10*
%TO.C,SW11*%
X209550000Y0D03*
D24*
X214630000Y0D03*
X204470000Y0D03*
D25*
X205740000Y2540000D03*
D26*
X202190000Y2540000D03*
X215640000Y5080000D03*
D25*
X212090000Y5080000D03*
%TD*%
D28*
%TO.C,D95*%
X21430384Y-11356250D03*
X21430384Y-12456250D03*
X19600384Y-12456250D03*
X19600384Y-11356250D03*
%TD*%
D24*
%TO.C,SW28*%
X185420000Y-23812500D03*
X195580000Y-23812500D03*
D10*
X190500000Y-23812500D03*
D26*
X183140000Y-21272500D03*
D25*
X186690000Y-21272500D03*
X193040000Y-18732500D03*
D26*
X196590000Y-18732500D03*
%TD*%
D17*
%TO.C,C2*%
X273530000Y-69377500D03*
X272570000Y-69377500D03*
%TD*%
D24*
%TO.C,SW35*%
X314642500Y-23812500D03*
D10*
X309562500Y-23812500D03*
D24*
X304482500Y-23812500D03*
D26*
X302202500Y-21272500D03*
D25*
X305752500Y-21272500D03*
X312102500Y-18732500D03*
D26*
X315652500Y-18732500D03*
%TD*%
D17*
%TO.C,C11*%
X270087192Y-59077500D03*
X269127192Y-59077500D03*
%TD*%
D23*
%TO.C,C35*%
X255170000Y-13540000D03*
X256130000Y-13540000D03*
%TD*%
D24*
%TO.C,SW36*%
X323532500Y-23812500D03*
D10*
X328612500Y-23812500D03*
D24*
X333692500Y-23812500D03*
D26*
X321252500Y-21272500D03*
D25*
X324802500Y-21272500D03*
D26*
X334702500Y-18732500D03*
D25*
X331152500Y-18732500D03*
%TD*%
D10*
%TO.C,SW12*%
X228600000Y0D03*
D24*
X223520000Y0D03*
X233680000Y0D03*
D25*
X224790000Y2540000D03*
D26*
X221240000Y2540000D03*
X234690000Y5080000D03*
D25*
X231140000Y5080000D03*
%TD*%
D22*
%TO.C,D44*%
X184150000Y-45306250D03*
X184150000Y-42006250D03*
%TD*%
D24*
%TO.C,SW59*%
X85407500Y-61912500D03*
X95567500Y-61912500D03*
D10*
X90487500Y-61912500D03*
D26*
X83127500Y-59372500D03*
D25*
X86677500Y-59372500D03*
X93027500Y-56832500D03*
D26*
X96577500Y-56832500D03*
%TD*%
D22*
%TO.C,D41*%
X127000000Y-45306250D03*
X127000000Y-42006250D03*
%TD*%
D24*
%TO.C,SW72*%
X37782500Y-80962500D03*
D10*
X42862500Y-80962500D03*
D24*
X47942500Y-80962500D03*
D25*
X39052500Y-78422500D03*
D26*
X35502500Y-78422500D03*
D25*
X45402500Y-75882500D03*
D26*
X48952500Y-75882500D03*
%TD*%
D22*
%TO.C,D65*%
X297656250Y-64356250D03*
X297656250Y-61056250D03*
%TD*%
%TO.C,D18*%
X22225000Y-26256250D03*
X22225000Y-22956250D03*
%TD*%
D10*
%TO.C,SW9*%
X161925000Y0D03*
D24*
X167005000Y0D03*
X156845000Y0D03*
D25*
X158115000Y2540000D03*
D26*
X154565000Y2540000D03*
D25*
X164465000Y5080000D03*
D26*
X168015000Y5080000D03*
%TD*%
D10*
%TO.C,SW69*%
X309562500Y-61912500D03*
D24*
X314642500Y-61912500D03*
X304482500Y-61912500D03*
D25*
X305752500Y-59372500D03*
D26*
X302202500Y-59372500D03*
D25*
X312102500Y-56832500D03*
D26*
X315652500Y-56832500D03*
%TD*%
D27*
%TO.C,C1*%
X272327192Y-57757500D03*
X272327192Y-56797500D03*
%TD*%
D10*
%TO.C,SW87*%
X328612500Y-80962500D03*
D24*
X323532500Y-80962500D03*
X333692500Y-80962500D03*
D25*
X324802500Y-78422500D03*
D26*
X321252500Y-78422500D03*
X334702500Y-75882500D03*
D25*
X331152500Y-75882500D03*
%TD*%
D29*
%TO.C,R3*%
X273017812Y-53601402D03*
X273017812Y-55251402D03*
%TD*%
D24*
%TO.C,SW48*%
X213995000Y-42862500D03*
X224155000Y-42862500D03*
D10*
X219075000Y-42862500D03*
D25*
X215265000Y-40322500D03*
D26*
X211715000Y-40322500D03*
X225165000Y-37782500D03*
D25*
X221615000Y-37782500D03*
%TD*%
D10*
%TO.C,SW40*%
X66675000Y-42862500D03*
D24*
X71755000Y-42862500D03*
X61595000Y-42862500D03*
D26*
X59315000Y-40322500D03*
D25*
X62865000Y-40322500D03*
X69215000Y-37782500D03*
D26*
X72765000Y-37782500D03*
%TD*%
D22*
%TO.C,D17*%
X3175000Y-26256250D03*
X3175000Y-22956250D03*
%TD*%
D23*
%TO.C,C25*%
X-5580000Y-13540000D03*
X-4620000Y-13540000D03*
%TD*%
D24*
%TO.C,SW17*%
X323532500Y0D03*
X333692500Y0D03*
D10*
X328612500Y0D03*
D25*
X324802500Y2540000D03*
D26*
X321252500Y2540000D03*
X334702500Y5080000D03*
D25*
X331152500Y5080000D03*
%TD*%
D22*
%TO.C,D43*%
X165100000Y-45306250D03*
X165100000Y-42006250D03*
%TD*%
D24*
%TO.C,SW7*%
X128905000Y0D03*
X118745000Y0D03*
D10*
X123825000Y0D03*
D25*
X120015000Y2540000D03*
D26*
X116465000Y2540000D03*
X129915000Y5080000D03*
D25*
X126365000Y5080000D03*
%TD*%
D17*
%TO.C,C39*%
X333600000Y-31690000D03*
X332640000Y-31690000D03*
%TD*%
D24*
%TO.C,SW26*%
X147320000Y-23812500D03*
X157480000Y-23812500D03*
D10*
X152400000Y-23812500D03*
D26*
X145040000Y-21272500D03*
D25*
X148590000Y-21272500D03*
X154940000Y-18732500D03*
D26*
X158490000Y-18732500D03*
%TD*%
D24*
%TO.C,SW30*%
X233680000Y-23812500D03*
X223520000Y-23812500D03*
D10*
X228600000Y-23812500D03*
D26*
X221240000Y-21272500D03*
D25*
X224790000Y-21272500D03*
X231140000Y-18732500D03*
D26*
X234690000Y-18732500D03*
%TD*%
D22*
%TO.C,D51*%
X331787500Y-45306250D03*
X331787500Y-42006250D03*
%TD*%
D28*
%TO.C,D126*%
X-4641250Y-51837500D03*
X-4641250Y-52937500D03*
X-6471250Y-52937500D03*
X-6471250Y-51837500D03*
%TD*%
D10*
%TO.C,SW14*%
X266700000Y0D03*
D24*
X261620000Y0D03*
X271780000Y0D03*
D26*
X259340000Y2540000D03*
D25*
X262890000Y2540000D03*
X269240000Y5080000D03*
D26*
X272790000Y5080000D03*
%TD*%
D22*
%TO.C,D49*%
X293687500Y-45306250D03*
X293687500Y-42006250D03*
%TD*%
D23*
%TO.C,C46*%
X230330000Y-91040000D03*
X231290000Y-91040000D03*
%TD*%
D22*
%TO.C,D34*%
X331787500Y-26256250D03*
X331787500Y-22956250D03*
%TD*%
D28*
%TO.C,D103*%
X230003456Y-11356250D03*
X230003456Y-12456250D03*
X228173456Y-12456250D03*
X228173456Y-11356250D03*
%TD*%
D27*
%TO.C,C8*%
X279720000Y-63580000D03*
X279720000Y-62620000D03*
%TD*%
D28*
%TO.C,D101*%
X177860188Y-11356250D03*
X177860188Y-12456250D03*
X176030188Y-12456250D03*
X176030188Y-11356250D03*
%TD*%
D23*
%TO.C,C27*%
X46580000Y-13540000D03*
X47540000Y-13540000D03*
%TD*%
D10*
%TO.C,SW64*%
X185737500Y-61912500D03*
D24*
X190817500Y-61912500D03*
X180657500Y-61912500D03*
D26*
X178377500Y-59372500D03*
D25*
X181927500Y-59372500D03*
X188277500Y-56832500D03*
D26*
X191827500Y-56832500D03*
%TD*%
D18*
%TO.C,D124*%
X-6471250Y-91037500D03*
X-6471250Y-89937500D03*
X-4641250Y-89937500D03*
X-4641250Y-91037500D03*
%TD*%
D30*
%TO.C,U5*%
X281300000Y-64790000D03*
X281300000Y-63840000D03*
X281300000Y-62890000D03*
X283575000Y-62890000D03*
X283575000Y-64790000D03*
%TD*%
D31*
%TO.C,LED4*%
X14430642Y5625000D03*
X12930642Y5625000D03*
X14430642Y175000D03*
D32*
X12930642Y175000D03*
%TD*%
D24*
%TO.C,SW24*%
X119380000Y-23812500D03*
D10*
X114300000Y-23812500D03*
D24*
X109220000Y-23812500D03*
D25*
X110490000Y-21272500D03*
D26*
X106940000Y-21272500D03*
X120390000Y-18732500D03*
D25*
X116840000Y-18732500D03*
%TD*%
D22*
%TO.C,D7*%
X146050000Y-2443750D03*
X146050000Y856250D03*
%TD*%
D28*
%TO.C,D102*%
X203931822Y-11356250D03*
X203931822Y-12456250D03*
X202101822Y-12456250D03*
X202101822Y-11356250D03*
%TD*%
D33*
%TO.C,U4*%
X283395000Y-54724305D03*
X282125000Y-54724305D03*
X280855000Y-54724305D03*
X279585000Y-54724305D03*
X279585000Y-47524305D03*
X280855000Y-47524305D03*
X282125000Y-47524305D03*
X283395000Y-47524305D03*
%TD*%
D22*
%TO.C,D3*%
X60325000Y-2443750D03*
X60325000Y856250D03*
%TD*%
D28*
%TO.C,D98*%
X99645286Y-11356250D03*
X99645286Y-12456250D03*
X97815286Y-12456250D03*
X97815286Y-11356250D03*
%TD*%
D22*
%TO.C,D48*%
X265112500Y-45306250D03*
X265112500Y-42006250D03*
%TD*%
D18*
%TO.C,D116*%
X200618990Y-91037500D03*
X200618990Y-89937500D03*
X202448990Y-89937500D03*
X202448990Y-91037500D03*
%TD*%
D22*
%TO.C,D69*%
X46037500Y-83406250D03*
X46037500Y-80106250D03*
%TD*%
D17*
%TO.C,C42*%
X334290000Y-92120000D03*
X333330000Y-92120000D03*
%TD*%
D23*
%TO.C,C30*%
X124810000Y-13570000D03*
X125770000Y-13570000D03*
%TD*%
D10*
%TO.C,SW90*%
X52387500Y-100012500D03*
D24*
X57467500Y-100012500D03*
X47307500Y-100012500D03*
D26*
X45027500Y-97472500D03*
D25*
X48577500Y-97472500D03*
D26*
X58477500Y-94932500D03*
D25*
X54927500Y-94932500D03*
%TD*%
D24*
%TO.C,SW75*%
X105092500Y-80962500D03*
X94932500Y-80962500D03*
D10*
X100012500Y-80962500D03*
D25*
X96202500Y-78422500D03*
D26*
X92652500Y-78422500D03*
D25*
X102552500Y-75882500D03*
D26*
X106102500Y-75882500D03*
%TD*%
D23*
%TO.C,C53*%
X48560000Y-91040000D03*
X49520000Y-91040000D03*
%TD*%
D34*
%TO.C,D52*%
X9580000Y-70300000D03*
X6280000Y-70300000D03*
%TD*%
D18*
%TO.C,D119*%
X120179846Y-91037500D03*
X120179846Y-89937500D03*
X122009846Y-89937500D03*
X122009846Y-91037500D03*
%TD*%
D24*
%TO.C,SW52*%
X314642500Y-42862500D03*
X304482500Y-42862500D03*
D10*
X309562500Y-42862500D03*
D25*
X305752500Y-40322500D03*
D26*
X302202500Y-40322500D03*
X315652500Y-37782500D03*
D25*
X312102500Y-37782500D03*
%TD*%
D10*
%TO.C,SW60*%
X109537500Y-61912500D03*
D24*
X114617500Y-61912500D03*
X104457500Y-61912500D03*
D25*
X105727500Y-59372500D03*
D26*
X102177500Y-59372500D03*
D25*
X112077500Y-56832500D03*
D26*
X115627500Y-56832500D03*
%TD*%
D23*
%TO.C,C56*%
X-5560000Y-73070000D03*
X-4600000Y-73070000D03*
%TD*%
D22*
%TO.C,D91*%
X293687500Y-102456250D03*
X293687500Y-99156250D03*
%TD*%
D17*
%TO.C,C19*%
X19170000Y3780000D03*
X18210000Y3780000D03*
%TD*%
D10*
%TO.C,SW37*%
X4762500Y-42862500D03*
D24*
X9842500Y-42862500D03*
X-317500Y-42862500D03*
D26*
X-2597500Y-40322500D03*
D25*
X952500Y-40322500D03*
D26*
X10852500Y-37782500D03*
D25*
X7302500Y-37782500D03*
%TD*%
D17*
%TO.C,C40*%
X333261875Y-50760000D03*
X332301875Y-50760000D03*
%TD*%
D24*
%TO.C,SW61*%
X133667500Y-61912500D03*
X123507500Y-61912500D03*
D10*
X128587500Y-61912500D03*
D26*
X121227500Y-59372500D03*
D25*
X124777500Y-59372500D03*
X131127500Y-56832500D03*
D26*
X134677500Y-56832500D03*
%TD*%
D23*
%TO.C,C34*%
X229090000Y-13550000D03*
X230050000Y-13550000D03*
%TD*%
D22*
%TO.C,D73*%
X122237500Y-83406250D03*
X122237500Y-80106250D03*
%TD*%
%TO.C,D6*%
X127000000Y-2443750D03*
X127000000Y856250D03*
%TD*%
%TO.C,D42*%
X146050000Y-45306250D03*
X146050000Y-42006250D03*
%TD*%
D35*
%TO.C,U3*%
X279732500Y4280000D03*
X279732500Y3330000D03*
X279807500Y2380000D03*
X277382500Y2380000D03*
X277382500Y3330000D03*
X277382500Y4280000D03*
%TD*%
D17*
%TO.C,C14*%
X274335000Y-8420000D03*
X273375000Y-8420000D03*
%TD*%
D22*
%TO.C,D70*%
X65087500Y-83406250D03*
X65087500Y-80106250D03*
%TD*%
D36*
%TO.C,R7*%
X276560000Y6780000D03*
X277580000Y6780000D03*
%TD*%
D27*
%TO.C,C18*%
X285200000Y-64870000D03*
X285200000Y-63910000D03*
%TD*%
D24*
%TO.C,SW34*%
X295592500Y-23812500D03*
D10*
X290512500Y-23812500D03*
D24*
X285432500Y-23812500D03*
D26*
X283152500Y-21272500D03*
D25*
X286702500Y-21272500D03*
X293052500Y-18732500D03*
D26*
X296602500Y-18732500D03*
%TD*%
D23*
%TO.C,C13*%
X273350000Y-3230000D03*
X274310000Y-3230000D03*
%TD*%
D10*
%TO.C,SW31*%
X247650000Y-23812500D03*
D24*
X242570000Y-23812500D03*
X252730000Y-23812500D03*
D37*
X255010000Y-26352500D03*
D25*
X251460000Y-26352500D03*
X245110000Y-28892500D03*
D37*
X241560000Y-28892500D03*
%TD*%
D18*
%TO.C,D118*%
X146992894Y-91037500D03*
X146992894Y-89937500D03*
X148822894Y-89937500D03*
X148822894Y-91037500D03*
%TD*%
D38*
%TO.C,R1*%
X276739358Y-81480000D03*
X276739358Y-82500000D03*
%TD*%
D27*
%TO.C,C5*%
X271279104Y-57760858D03*
X271279104Y-56800858D03*
%TD*%
D24*
%TO.C,SW43*%
X118745000Y-42862500D03*
X128905000Y-42862500D03*
D10*
X123825000Y-42862500D03*
D26*
X116465000Y-40322500D03*
D25*
X120015000Y-40322500D03*
D26*
X129915000Y-37782500D03*
D25*
X126365000Y-37782500D03*
%TD*%
D22*
%TO.C,D93*%
X331787500Y-102456250D03*
X331787500Y-99156250D03*
%TD*%
D24*
%TO.C,SW5*%
X81280000Y0D03*
X71120000Y0D03*
D10*
X76200000Y0D03*
D26*
X68840000Y2540000D03*
D25*
X72390000Y2540000D03*
D26*
X82290000Y5080000D03*
D25*
X78740000Y5080000D03*
%TD*%
D24*
%TO.C,SW70*%
X333692500Y-61912500D03*
D10*
X328612500Y-61912500D03*
D24*
X323532500Y-61912500D03*
D25*
X324802500Y-59372500D03*
D26*
X321252500Y-59372500D03*
D25*
X331152500Y-56832500D03*
D26*
X334702500Y-56832500D03*
%TD*%
D22*
%TO.C,D15*%
X312737500Y-2443750D03*
X312737500Y856250D03*
%TD*%
%TO.C,D54*%
X55562500Y-64356250D03*
X55562500Y-61056250D03*
%TD*%
D24*
%TO.C,SW92*%
X219392500Y-100012500D03*
X209232500Y-100012500D03*
D10*
X214312500Y-100012500D03*
D26*
X206952500Y-97472500D03*
D25*
X210502500Y-97472500D03*
D26*
X220402500Y-94932500D03*
D25*
X216852500Y-94932500D03*
%TD*%
D22*
%TO.C,D61*%
X188912500Y-64356250D03*
X188912500Y-61056250D03*
%TD*%
D17*
%TO.C,C23*%
X22420000Y-8910000D03*
X21460000Y-8910000D03*
%TD*%
D23*
%TO.C,C36*%
X282570000Y-13540000D03*
X283530000Y-13540000D03*
%TD*%
D22*
%TO.C,D89*%
X241300000Y-102456250D03*
X241300000Y-99156250D03*
%TD*%
%TO.C,D80*%
X263590000Y-78780000D03*
X263590000Y-82080000D03*
%TD*%
%TO.C,D46*%
X222250000Y-45306250D03*
X222250000Y-42006250D03*
%TD*%
D24*
%TO.C,SW73*%
X66992500Y-80962500D03*
X56832500Y-80962500D03*
D10*
X61912500Y-80962500D03*
D26*
X54552500Y-78422500D03*
D25*
X58102500Y-78422500D03*
X64452500Y-75882500D03*
D26*
X68002500Y-75882500D03*
%TD*%
D22*
%TO.C,D40*%
X107950000Y-45306250D03*
X107950000Y-42006250D03*
%TD*%
%TO.C,D57*%
X112712500Y-64356250D03*
X112712500Y-61056250D03*
%TD*%
D10*
%TO.C,SW81*%
X214312500Y-80962500D03*
D24*
X219392500Y-80962500D03*
X209232500Y-80962500D03*
D26*
X206952500Y-78422500D03*
D25*
X210502500Y-78422500D03*
X216852500Y-75882500D03*
D26*
X220402500Y-75882500D03*
%TD*%
D22*
%TO.C,D28*%
X212725000Y-26256250D03*
X212725000Y-22956250D03*
%TD*%
D24*
%TO.C,SW93*%
X233045000Y-100012500D03*
D10*
X238125000Y-100012500D03*
D24*
X243205000Y-100012500D03*
D25*
X234315000Y-97472500D03*
D26*
X230765000Y-97472500D03*
D25*
X240665000Y-94932500D03*
D26*
X244215000Y-94932500D03*
%TD*%
D23*
%TO.C,C31*%
X150870000Y-13570000D03*
X151830000Y-13570000D03*
%TD*%
D24*
%TO.C,SW49*%
X233045000Y-42862500D03*
X243205000Y-42862500D03*
D10*
X238125000Y-42862500D03*
D26*
X230765000Y-40322500D03*
D25*
X234315000Y-40322500D03*
X240665000Y-37782500D03*
D26*
X244215000Y-37782500D03*
%TD*%
D22*
%TO.C,D85*%
X31750000Y-102456250D03*
X31750000Y-99156250D03*
%TD*%
%TO.C,D19*%
X41275000Y-26256250D03*
X41275000Y-22956250D03*
%TD*%
%TO.C,D90*%
X265112500Y-102456250D03*
X265112500Y-99156250D03*
%TD*%
D17*
%TO.C,C6*%
X268880000Y-64123608D03*
X267920000Y-64123608D03*
%TD*%
D22*
%TO.C,D24*%
X136525000Y-26256250D03*
X136525000Y-22956250D03*
%TD*%
D10*
%TO.C,SW57*%
X52387500Y-61912500D03*
D24*
X57467500Y-61912500D03*
X47307500Y-61912500D03*
D25*
X48577500Y-59372500D03*
D26*
X45027500Y-59372500D03*
D25*
X54927500Y-56832500D03*
D26*
X58477500Y-56832500D03*
%TD*%
D22*
%TO.C,D77*%
X198437500Y-83406250D03*
X198437500Y-80106250D03*
%TD*%
D24*
%TO.C,SW74*%
X86042500Y-80962500D03*
D10*
X80962500Y-80962500D03*
D24*
X75882500Y-80962500D03*
D25*
X77152500Y-78422500D03*
D26*
X73602500Y-78422500D03*
X87052500Y-75882500D03*
D25*
X83502500Y-75882500D03*
%TD*%
D28*
%TO.C,D100*%
X151788554Y-11356250D03*
X151788554Y-12456250D03*
X149958554Y-12456250D03*
X149958554Y-11356250D03*
%TD*%
D23*
%TO.C,C49*%
X149880000Y-91040000D03*
X150840000Y-91040000D03*
%TD*%
D24*
%TO.C,SW32*%
X262255000Y-23812500D03*
X252095000Y-23812500D03*
D10*
X257175000Y-23812500D03*
D25*
X253365000Y-21272500D03*
D26*
X249815000Y-21272500D03*
X263265000Y-18732500D03*
D25*
X259715000Y-18732500D03*
%TD*%
D24*
%TO.C,SW79*%
X171132500Y-80962500D03*
D10*
X176212500Y-80962500D03*
D24*
X181292500Y-80962500D03*
D25*
X172402500Y-78422500D03*
D26*
X168852500Y-78422500D03*
X182302500Y-75882500D03*
D25*
X178752500Y-75882500D03*
%TD*%
D18*
%TO.C,D123*%
X19435000Y-91037500D03*
X19435000Y-89937500D03*
X21265000Y-89937500D03*
X21265000Y-91037500D03*
%TD*%
D23*
%TO.C,C24*%
X23330000Y-7630000D03*
X24290000Y-7630000D03*
%TD*%
D22*
%TO.C,D39*%
X88900000Y-45306250D03*
X88900000Y-42006250D03*
%TD*%
D24*
%TO.C,SW55*%
X12223750Y-61912500D03*
D10*
X7143750Y-61912500D03*
D24*
X2063750Y-61912500D03*
D25*
X10953750Y-64452500D03*
D37*
X14503750Y-64452500D03*
D25*
X4603750Y-66992500D03*
D37*
X1053750Y-66992500D03*
%TD*%
D29*
%TO.C,R2*%
X274604062Y-53601402D03*
X274604062Y-55251402D03*
%TD*%
D22*
%TO.C,D25*%
X155575000Y-26256250D03*
X155575000Y-22956250D03*
%TD*%
D18*
%TO.C,D117*%
X174503750Y-91037500D03*
X174503750Y-89937500D03*
X176333750Y-89937500D03*
X176333750Y-91037500D03*
%TD*%
D22*
%TO.C,D5*%
X98425000Y-2443750D03*
X98425000Y856250D03*
%TD*%
D18*
%TO.C,D113*%
X280316724Y-91037500D03*
X280316724Y-89937500D03*
X282146724Y-89937500D03*
X282146724Y-91037500D03*
%TD*%
D10*
%TO.C,SW65*%
X204787500Y-61912500D03*
D24*
X209867500Y-61912500D03*
X199707500Y-61912500D03*
D25*
X200977500Y-59372500D03*
D26*
X197427500Y-59372500D03*
X210877500Y-56832500D03*
D25*
X207327500Y-56832500D03*
%TD*%
D27*
%TO.C,C7*%
X276277192Y-55045000D03*
X276277192Y-54085000D03*
%TD*%
D34*
%TO.C,D67*%
X321330000Y-64360000D03*
X324630000Y-64360000D03*
%TD*%
D39*
%TO.C,U2*%
X278477500Y-60310000D03*
X278477500Y-60710000D03*
X278477500Y-61110000D03*
X278477500Y-61510000D03*
X278477500Y-61910000D03*
X278477500Y-62310000D03*
X278477500Y-62710000D03*
X278477500Y-63110000D03*
X278477500Y-63510000D03*
X278477500Y-63910000D03*
X278477500Y-64310000D03*
X278477500Y-64710000D03*
X278477500Y-65110000D03*
X278477500Y-65510000D03*
D40*
X277640000Y-66347500D03*
X277240000Y-66347500D03*
X276840000Y-66347500D03*
X276440000Y-66347500D03*
X276040000Y-66347500D03*
X275640000Y-66347500D03*
X275240000Y-66347500D03*
X274840000Y-66347500D03*
X274440000Y-66347500D03*
X274040000Y-66347500D03*
X273640000Y-66347500D03*
X273240000Y-66347500D03*
X272840000Y-66347500D03*
X272440000Y-66347500D03*
D39*
X271602500Y-65510000D03*
X271602500Y-65110000D03*
X271602500Y-64710000D03*
X271602500Y-64310000D03*
X271602500Y-63910000D03*
X271602500Y-63510000D03*
X271602500Y-63110000D03*
X271602500Y-62710000D03*
X271602500Y-62310000D03*
X271602500Y-61910000D03*
X271602500Y-61510000D03*
X271602500Y-61110000D03*
X271602500Y-60710000D03*
X271602500Y-60310000D03*
D40*
X272440000Y-59472500D03*
X272840000Y-59472500D03*
X273240000Y-59472500D03*
X273640000Y-59472500D03*
X274040000Y-59472500D03*
X274440000Y-59472500D03*
X274840000Y-59472500D03*
X275240000Y-59472500D03*
X275640000Y-59472500D03*
X276040000Y-59472500D03*
X276440000Y-59472500D03*
X276840000Y-59472500D03*
X277240000Y-59472500D03*
X277640000Y-59472500D03*
D41*
X275040000Y-62910000D03*
%TD*%
D24*
%TO.C,SW22*%
X71120000Y-23812500D03*
D10*
X76200000Y-23812500D03*
D24*
X81280000Y-23812500D03*
D25*
X72390000Y-21272500D03*
D26*
X68840000Y-21272500D03*
X82290000Y-18732500D03*
D25*
X78740000Y-18732500D03*
%TD*%
D24*
%TO.C,SW4*%
X62230000Y0D03*
X52070000Y0D03*
D10*
X57150000Y0D03*
D25*
X53340000Y2540000D03*
D26*
X49790000Y2540000D03*
X63240000Y5080000D03*
D25*
X59690000Y5080000D03*
%TD*%
D10*
%TO.C,SW83*%
X250031250Y-80962500D03*
D24*
X255111250Y-80962500D03*
X244951250Y-80962500D03*
D26*
X242671250Y-78422500D03*
D25*
X246221250Y-78422500D03*
X252571250Y-75882500D03*
D26*
X256121250Y-75882500D03*
%TD*%
D34*
%TO.C,D83*%
X321400000Y-83400000D03*
X324700000Y-83400000D03*
%TD*%
D18*
%TO.C,D112*%
X306388358Y-91037500D03*
X306388358Y-89937500D03*
X308218358Y-89937500D03*
X308218358Y-91037500D03*
%TD*%
D15*
%TO.C,LED5*%
X10955642Y-2550000D03*
X10955642Y-4050000D03*
X16405642Y-2550000D03*
D16*
X16405642Y-4050000D03*
%TD*%
D10*
%TO.C,SW45*%
X161925000Y-42862500D03*
D24*
X156845000Y-42862500D03*
X167005000Y-42862500D03*
D26*
X154565000Y-40322500D03*
D25*
X158115000Y-40322500D03*
X164465000Y-37782500D03*
D26*
X168015000Y-37782500D03*
%TD*%
D42*
%TO.C,R5*%
X305610001Y-48225000D03*
X304590001Y-48225000D03*
%TD*%
D24*
%TO.C,SW77*%
X133032500Y-80962500D03*
X143192500Y-80962500D03*
D10*
X138112500Y-80962500D03*
D25*
X134302500Y-78422500D03*
D26*
X130752500Y-78422500D03*
X144202500Y-75882500D03*
D25*
X140652500Y-75882500D03*
%TD*%
D24*
%TO.C,SW16*%
X304482500Y0D03*
X314642500Y0D03*
D10*
X309562500Y0D03*
D26*
X302202500Y2540000D03*
D25*
X305752500Y2540000D03*
X312102500Y5080000D03*
D26*
X315652500Y5080000D03*
%TD*%
D22*
%TO.C,D22*%
X98425000Y-26256250D03*
X98425000Y-22956250D03*
%TD*%
D23*
%TO.C,C32*%
X176970000Y-13540000D03*
X177930000Y-13540000D03*
%TD*%
%TO.C,C48*%
X177400000Y-91040000D03*
X178360000Y-91040000D03*
%TD*%
D22*
%TO.C,D76*%
X179387500Y-83406250D03*
X179387500Y-80106250D03*
%TD*%
D28*
%TO.C,D94*%
X-4641250Y-11356250D03*
X-4641250Y-12456250D03*
X-6471250Y-12456250D03*
X-6471250Y-11356250D03*
%TD*%
D24*
%TO.C,SW97*%
X333692500Y-100012500D03*
D10*
X328612500Y-100012500D03*
D24*
X323532500Y-100012500D03*
D26*
X321252500Y-97472500D03*
D25*
X324802500Y-97472500D03*
X331152500Y-94932500D03*
D26*
X334702500Y-94932500D03*
%TD*%
D18*
%TO.C,D120*%
X93366798Y-91037500D03*
X93366798Y-89937500D03*
X95196798Y-89937500D03*
X95196798Y-91037500D03*
%TD*%
D43*
%TO.C,LED7*%
X23669358Y-6025000D03*
X25169358Y-6025000D03*
X23669358Y-575000D03*
D44*
X25169358Y-575000D03*
%TD*%
D24*
%TO.C,SW58*%
X76517500Y-61912500D03*
D10*
X71437500Y-61912500D03*
D24*
X66357500Y-61912500D03*
D26*
X64077500Y-59372500D03*
D25*
X67627500Y-59372500D03*
X73977500Y-56832500D03*
D26*
X77527500Y-56832500D03*
%TD*%
D23*
%TO.C,C44*%
X283210000Y-91040000D03*
X284170000Y-91040000D03*
%TD*%
D10*
%TO.C,SW78*%
X157162500Y-80962500D03*
D24*
X152082500Y-80962500D03*
X162242500Y-80962500D03*
D25*
X153352500Y-78422500D03*
D26*
X149802500Y-78422500D03*
D25*
X159702500Y-75882500D03*
D26*
X163252500Y-75882500D03*
%TD*%
D24*
%TO.C,SW47*%
X205105000Y-42862500D03*
D10*
X200025000Y-42862500D03*
D24*
X194945000Y-42862500D03*
D25*
X196215000Y-40322500D03*
D26*
X192665000Y-40322500D03*
D25*
X202565000Y-37782500D03*
D26*
X206115000Y-37782500D03*
%TD*%
D22*
%TO.C,D35*%
X7937500Y-45306250D03*
X7937500Y-42006250D03*
%TD*%
D24*
%TO.C,SW25*%
X138430000Y-23812500D03*
X128270000Y-23812500D03*
D10*
X133350000Y-23812500D03*
D26*
X125990000Y-21272500D03*
D25*
X129540000Y-21272500D03*
X135890000Y-18732500D03*
D26*
X139440000Y-18732500D03*
%TD*%
D22*
%TO.C,D56*%
X93662500Y-64356250D03*
X93662500Y-61056250D03*
%TD*%
D24*
%TO.C,SW44*%
X137795000Y-42862500D03*
D10*
X142875000Y-42862500D03*
D24*
X147955000Y-42862500D03*
D25*
X139065000Y-40322500D03*
D26*
X135515000Y-40322500D03*
X148965000Y-37782500D03*
D25*
X145415000Y-37782500D03*
%TD*%
D22*
%TO.C,D81*%
X297656250Y-83406250D03*
X297656250Y-80106250D03*
%TD*%
D10*
%TO.C,SW13*%
X247650000Y0D03*
D24*
X242570000Y0D03*
X252730000Y0D03*
D25*
X243840000Y2540000D03*
D26*
X240290000Y2540000D03*
D25*
X250190000Y5080000D03*
D26*
X253740000Y5080000D03*
%TD*%
D24*
%TO.C,SW76*%
X113982500Y-80962500D03*
X124142500Y-80962500D03*
D10*
X119062500Y-80962500D03*
D25*
X115252500Y-78422500D03*
D26*
X111702500Y-78422500D03*
X125152500Y-75882500D03*
D25*
X121602500Y-75882500D03*
%TD*%
D24*
%TO.C,SW82*%
X235426250Y-80962500D03*
D10*
X240506250Y-80962500D03*
D24*
X245586250Y-80962500D03*
D37*
X247866250Y-83502500D03*
D25*
X244316250Y-83502500D03*
X237966250Y-86042500D03*
D37*
X234416250Y-86042500D03*
%TD*%
D24*
%TO.C,SW62*%
X142557500Y-61912500D03*
X152717500Y-61912500D03*
D10*
X147637500Y-61912500D03*
D26*
X140277500Y-59372500D03*
D25*
X143827500Y-59372500D03*
X150177500Y-56832500D03*
D26*
X153727500Y-56832500D03*
%TD*%
D34*
%TO.C,D79*%
X253660000Y-85510000D03*
X250360000Y-85510000D03*
%TD*%
D22*
%TO.C,D78*%
X217487500Y-83406250D03*
X217487500Y-80106250D03*
%TD*%
D23*
%TO.C,C4*%
X273350000Y-9570000D03*
X274310000Y-9570000D03*
%TD*%
D10*
%TO.C,SW51*%
X290512500Y-42862500D03*
D24*
X285432500Y-42862500D03*
X295592500Y-42862500D03*
D26*
X283152500Y-40322500D03*
D25*
X286702500Y-40322500D03*
X293052500Y-37782500D03*
D26*
X296602500Y-37782500D03*
%TD*%
D45*
%TO.C,C15*%
X278330237Y-74159059D03*
X279009059Y-73480237D03*
%TD*%
D22*
%TO.C,D53*%
X36512500Y-64356250D03*
X36512500Y-61056250D03*
%TD*%
%TO.C,D59*%
X150812500Y-64356250D03*
X150812500Y-61056250D03*
%TD*%
%TO.C,D92*%
X312737500Y-102456250D03*
X312737500Y-99156250D03*
%TD*%
%TO.C,D74*%
X141287500Y-83406250D03*
X141287500Y-80106250D03*
%TD*%
D23*
%TO.C,C55*%
X-3570000Y-91040000D03*
X-2610000Y-91040000D03*
%TD*%
D22*
%TO.C,D27*%
X193675000Y-26256250D03*
X193675000Y-22956250D03*
%TD*%
%TO.C,D63*%
X227012500Y-64356250D03*
X227012500Y-61056250D03*
%TD*%
D10*
%TO.C,SW46*%
X180975000Y-42862500D03*
D24*
X175895000Y-42862500D03*
X186055000Y-42862500D03*
D25*
X177165000Y-40322500D03*
D26*
X173615000Y-40322500D03*
X187065000Y-37782500D03*
D25*
X183515000Y-37782500D03*
%TD*%
D28*
%TO.C,D105*%
X283490000Y-11356250D03*
X283490000Y-12456250D03*
X281660000Y-12456250D03*
X281660000Y-11356250D03*
%TD*%
D17*
%TO.C,C10*%
X270087192Y-60075000D03*
X269127192Y-60075000D03*
%TD*%
D23*
%TO.C,C50*%
X123080000Y-91040000D03*
X124040000Y-91040000D03*
%TD*%
D10*
%TO.C,SW23*%
X95250000Y-23812500D03*
D24*
X90170000Y-23812500D03*
X100330000Y-23812500D03*
D26*
X87890000Y-21272500D03*
D25*
X91440000Y-21272500D03*
D26*
X101340000Y-18732500D03*
D25*
X97790000Y-18732500D03*
%TD*%
D22*
%TO.C,D36*%
X31750000Y-45306250D03*
X31750000Y-42006250D03*
%TD*%
%TO.C,D87*%
X136525000Y-102456250D03*
X136525000Y-99156250D03*
%TD*%
D46*
%TO.C,C16*%
X275339059Y-74499059D03*
X274660237Y-73820237D03*
%TD*%
D23*
%TO.C,C37*%
X307310000Y-13540000D03*
X308270000Y-13540000D03*
%TD*%
D28*
%TO.C,D97*%
X73573652Y-11356250D03*
X73573652Y-12456250D03*
X71743652Y-12456250D03*
X71743652Y-11356250D03*
%TD*%
D27*
%TO.C,C12*%
X279720000Y-60090000D03*
X279720000Y-59130000D03*
%TD*%
D22*
%TO.C,D50*%
X312737500Y-45306250D03*
X312737500Y-42006250D03*
%TD*%
%TO.C,D72*%
X103187500Y-83406250D03*
X103187500Y-80106250D03*
%TD*%
D24*
%TO.C,SW54*%
X7461250Y-61912500D03*
X-2698750Y-61912500D03*
D10*
X2381250Y-61912500D03*
D26*
X-4978750Y-59372500D03*
D25*
X-1428750Y-59372500D03*
D26*
X8471250Y-56832500D03*
D25*
X4921250Y-56832500D03*
%TD*%
D10*
%TO.C,SW38*%
X28575000Y-42862500D03*
D24*
X33655000Y-42862500D03*
X23495000Y-42862500D03*
D26*
X21215000Y-40322500D03*
D25*
X24765000Y-40322500D03*
X31115000Y-37782500D03*
D26*
X34665000Y-37782500D03*
%TD*%
D24*
%TO.C,SW21*%
X52070000Y-23812500D03*
D10*
X57150000Y-23812500D03*
D24*
X62230000Y-23812500D03*
D26*
X49790000Y-21272500D03*
D25*
X53340000Y-21272500D03*
D26*
X63240000Y-18732500D03*
D25*
X59690000Y-18732500D03*
%TD*%
D10*
%TO.C,SW15*%
X290512500Y0D03*
D24*
X295592500Y0D03*
X285432500Y0D03*
D25*
X286702500Y2540000D03*
D26*
X283152500Y2540000D03*
X296602500Y5080000D03*
D25*
X293052500Y5080000D03*
%TD*%
D22*
%TO.C,D33*%
X312737500Y-26256250D03*
X312737500Y-22956250D03*
%TD*%
%TO.C,D66*%
X312737500Y-64356250D03*
X312737500Y-61056250D03*
%TD*%
%TO.C,D84*%
X7937500Y-102456250D03*
X7937500Y-99156250D03*
%TD*%
D31*
%TO.C,LED1*%
X19800000Y2375000D03*
X18300000Y2375000D03*
X19800000Y-3075000D03*
D32*
X18300000Y-3075000D03*
%TD*%
D23*
%TO.C,C38*%
X333380000Y-13540000D03*
X334340000Y-13540000D03*
%TD*%
D28*
%TO.C,D96*%
X47502018Y-11356250D03*
X47502018Y-12456250D03*
X45672018Y-12456250D03*
X45672018Y-11356250D03*
%TD*%
D18*
%TO.C,D111*%
X332460000Y-91037500D03*
X332460000Y-89937500D03*
X334290000Y-89937500D03*
X334290000Y-91037500D03*
%TD*%
D22*
%TO.C,D16*%
X331787500Y-2443750D03*
X331787500Y856250D03*
%TD*%
D10*
%TO.C,SW80*%
X195262500Y-80962500D03*
D24*
X200342500Y-80962500D03*
X190182500Y-80962500D03*
D25*
X191452500Y-78422500D03*
D26*
X187902500Y-78422500D03*
D25*
X197802500Y-75882500D03*
D26*
X201352500Y-75882500D03*
%TD*%
D24*
%TO.C,SW8*%
X147955000Y0D03*
D10*
X142875000Y0D03*
D24*
X137795000Y0D03*
D26*
X135515000Y2540000D03*
D25*
X139065000Y2540000D03*
D26*
X148965000Y5080000D03*
D25*
X145415000Y5080000D03*
%TD*%
D24*
%TO.C,SW19*%
X13970000Y-23812500D03*
X24130000Y-23812500D03*
D10*
X19050000Y-23812500D03*
D26*
X11690000Y-21272500D03*
D25*
X15240000Y-21272500D03*
X21590000Y-18732500D03*
D26*
X25140000Y-18732500D03*
%TD*%
D22*
%TO.C,D68*%
X15081250Y-83406250D03*
X15081250Y-80106250D03*
%TD*%
D47*
%TO.C,R4*%
X275699024Y-70280272D03*
X276420272Y-69559024D03*
%TD*%
D24*
%TO.C,SW6*%
X100330000Y0D03*
D10*
X95250000Y0D03*
D24*
X90170000Y0D03*
D25*
X91440000Y2540000D03*
D26*
X87890000Y2540000D03*
X101340000Y5080000D03*
D25*
X97790000Y5080000D03*
%TD*%
D42*
%TO.C,R6*%
X280650000Y6780000D03*
X279630000Y6780000D03*
%TD*%
D24*
%TO.C,SW50*%
X256857500Y-42862500D03*
D10*
X261937500Y-42862500D03*
D24*
X267017500Y-42862500D03*
D26*
X254577500Y-40322500D03*
D25*
X258127500Y-40322500D03*
X264477500Y-37782500D03*
D26*
X268027500Y-37782500D03*
%TD*%
D23*
%TO.C,C29*%
X98720000Y-13540000D03*
X99680000Y-13540000D03*
%TD*%
D28*
%TO.C,D99*%
X125716920Y-11356250D03*
X125716920Y-12456250D03*
X123886920Y-12456250D03*
X123886920Y-11356250D03*
%TD*%
D10*
%TO.C,SW2*%
X0Y0D03*
D24*
X-5080000Y0D03*
X5080000Y0D03*
D25*
X-3810000Y2540000D03*
D48*
X-6942500Y2540000D03*
D25*
X2540000Y5080000D03*
D26*
X6090000Y5080000D03*
%TD*%
D10*
%TO.C,SW63*%
X166687500Y-61912500D03*
D24*
X161607500Y-61912500D03*
X171767500Y-61912500D03*
D25*
X162877500Y-59372500D03*
D26*
X159327500Y-59372500D03*
D25*
X169227500Y-56832500D03*
D26*
X172777500Y-56832500D03*
%TD*%
D22*
%TO.C,D23*%
X117475000Y-26256250D03*
X117475000Y-22956250D03*
%TD*%
D23*
%TO.C,C57*%
X-5580000Y-54020000D03*
X-4620000Y-54020000D03*
%TD*%
D22*
%TO.C,D20*%
X60325000Y-26256250D03*
X60325000Y-22956250D03*
%TD*%
%TO.C,D58*%
X131762500Y-64356250D03*
X131762500Y-61056250D03*
%TD*%
D23*
%TO.C,C51*%
X96250000Y-91040000D03*
X97210000Y-91040000D03*
%TD*%
D22*
%TO.C,D88*%
X217487500Y-102456250D03*
X217487500Y-99156250D03*
%TD*%
D28*
%TO.C,D107*%
X334290000Y-11356250D03*
X334290000Y-12456250D03*
X332460000Y-12456250D03*
X332460000Y-11356250D03*
%TD*%
D24*
%TO.C,SW10*%
X175895000Y0D03*
X186055000Y0D03*
D10*
X180975000Y0D03*
D25*
X177165000Y2540000D03*
D26*
X173615000Y2540000D03*
D25*
X183515000Y5080000D03*
D26*
X187065000Y5080000D03*
%TD*%
D22*
%TO.C,D29*%
X231775000Y-26256250D03*
X231775000Y-22956250D03*
%TD*%
D27*
%TO.C,C20*%
X28740000Y2150000D03*
X28740000Y3110000D03*
%TD*%
D22*
%TO.C,D21*%
X79375000Y-26256250D03*
X79375000Y-22956250D03*
%TD*%
D23*
%TO.C,C58*%
X-5590000Y-34970000D03*
X-4630000Y-34970000D03*
%TD*%
D22*
%TO.C,D11*%
X231775000Y-2443750D03*
X231775000Y856250D03*
%TD*%
D49*
%TO.C,U1*%
X275270000Y-6777500D03*
X273370000Y-6777500D03*
X274320000Y-4902500D03*
%TD*%
D24*
%TO.C,SW71*%
X16986250Y-80962500D03*
X6826250Y-80962500D03*
D10*
X11906250Y-80962500D03*
D26*
X4546250Y-78422500D03*
D25*
X8096250Y-78422500D03*
D26*
X17996250Y-75882500D03*
D25*
X14446250Y-75882500D03*
%TD*%
D22*
%TO.C,D47*%
X241300000Y-45306250D03*
X241300000Y-42006250D03*
%TD*%
D24*
%TO.C,SW33*%
X261620000Y-23812500D03*
D10*
X266700000Y-23812500D03*
D24*
X271780000Y-23812500D03*
D37*
X274060000Y-26352500D03*
D25*
X270510000Y-26352500D03*
D37*
X260610000Y-28892500D03*
D25*
X264160000Y-28892500D03*
%TD*%
D18*
%TO.C,D110*%
X333250000Y-72000000D03*
X333250000Y-70900000D03*
X335080000Y-70900000D03*
X335080000Y-72000000D03*
%TD*%
D22*
%TO.C,D30*%
X244540000Y-25500000D03*
X244540000Y-22200000D03*
%TD*%
D17*
%TO.C,C21*%
X14700000Y7060000D03*
X13740000Y7060000D03*
%TD*%
D19*
%TO.C,SW1*%
X310780000Y-48225000D03*
D20*
X308240000Y-48225000D03*
%TD*%
D18*
%TO.C,D114*%
X254245090Y-91037500D03*
X254245090Y-89937500D03*
X256075090Y-89937500D03*
X256075090Y-91037500D03*
%TD*%
D22*
%TO.C,D64*%
X257920000Y-64020000D03*
X257920000Y-60720000D03*
%TD*%
D28*
%TO.C,D125*%
X-4641250Y-70887500D03*
X-4641250Y-71987500D03*
X-6471250Y-71987500D03*
X-6471250Y-70887500D03*
%TD*%
D10*
%TO.C,SW96*%
X309562500Y-100012500D03*
D24*
X304482500Y-100012500D03*
X314642500Y-100012500D03*
D25*
X305752500Y-97472500D03*
D26*
X302202500Y-97472500D03*
D25*
X312102500Y-94932500D03*
D26*
X315652500Y-94932500D03*
%TD*%
D22*
%TO.C,D1*%
X3175000Y-2443750D03*
X3175000Y856250D03*
%TD*%
D24*
%TO.C,SW66*%
X218757500Y-61912500D03*
X228917500Y-61912500D03*
D10*
X223837500Y-61912500D03*
D25*
X220027500Y-59372500D03*
D26*
X216477500Y-59372500D03*
D25*
X226377500Y-56832500D03*
D26*
X229927500Y-56832500D03*
%TD*%
D22*
%TO.C,D75*%
X160337500Y-83406250D03*
X160337500Y-80106250D03*
%TD*%
%TO.C,D9*%
X184150000Y-2443750D03*
X184150000Y856250D03*
%TD*%
D24*
%TO.C,SW88*%
X-317500Y-100012500D03*
D10*
X4762500Y-100012500D03*
D24*
X9842500Y-100012500D03*
D26*
X-2597500Y-97472500D03*
D25*
X952500Y-97472500D03*
D26*
X10852500Y-94932500D03*
D25*
X7302500Y-94932500D03*
%TD*%
D22*
%TO.C,D60*%
X169862500Y-64356250D03*
X169862500Y-61056250D03*
%TD*%
D17*
%TO.C,C52*%
X68380000Y-92120000D03*
X67420000Y-92120000D03*
%TD*%
D22*
%TO.C,D26*%
X174625000Y-26256250D03*
X174625000Y-22956250D03*
%TD*%
D24*
%TO.C,SW56*%
X38417500Y-61912500D03*
X28257500Y-61912500D03*
D10*
X33337500Y-61912500D03*
D26*
X25977500Y-59372500D03*
D25*
X29527500Y-59372500D03*
X35877500Y-56832500D03*
D26*
X39427500Y-56832500D03*
%TD*%
D18*
%TO.C,D121*%
X66553750Y-91037500D03*
X66553750Y-89937500D03*
X68383750Y-89937500D03*
X68383750Y-91037500D03*
%TD*%
D24*
%TO.C,SW84*%
X271780000Y-80962500D03*
D10*
X266700000Y-80962500D03*
D24*
X261620000Y-80962500D03*
D25*
X270510000Y-83502500D03*
D37*
X274060000Y-83502500D03*
X260610000Y-86042500D03*
D25*
X264160000Y-86042500D03*
%TD*%
D50*
%TO.C,F1*%
X274390000Y2440000D03*
X274390000Y-360000D03*
%TD*%
D24*
%TO.C,SW39*%
X42545000Y-42862500D03*
X52705000Y-42862500D03*
D10*
X47625000Y-42862500D03*
D26*
X40265000Y-40322500D03*
D25*
X43815000Y-40322500D03*
D26*
X53715000Y-37782500D03*
D25*
X50165000Y-37782500D03*
%TD*%
D24*
%TO.C,SW89*%
X23495000Y-100012500D03*
X33655000Y-100012500D03*
D10*
X28575000Y-100012500D03*
D25*
X24765000Y-97472500D03*
D26*
X21215000Y-97472500D03*
D25*
X31115000Y-94932500D03*
D26*
X34665000Y-94932500D03*
%TD*%
D24*
%TO.C,SW20*%
X33020000Y-23812500D03*
X43180000Y-23812500D03*
D10*
X38100000Y-23812500D03*
D25*
X34290000Y-21272500D03*
D26*
X30740000Y-21272500D03*
X44190000Y-18732500D03*
D25*
X40640000Y-18732500D03*
%TD*%
D22*
%TO.C,D2*%
X41275000Y-2443750D03*
X41275000Y856250D03*
%TD*%
%TO.C,D82*%
X312737500Y-83406250D03*
X312737500Y-80106250D03*
%TD*%
D51*
%TO.C,C22*%
X9350000Y-2540000D03*
X9350000Y-3500000D03*
%TD*%
D22*
%TO.C,D86*%
X55562500Y-102456250D03*
X55562500Y-99156250D03*
%TD*%
D24*
%TO.C,SW68*%
X295592500Y-61912500D03*
D10*
X290512500Y-61912500D03*
D24*
X285432500Y-61912500D03*
D26*
X283152500Y-59372500D03*
D25*
X286702500Y-59372500D03*
D26*
X296602500Y-56832500D03*
D25*
X293052500Y-56832500D03*
%TD*%
D22*
%TO.C,D13*%
X269875000Y-2443750D03*
X269875000Y856250D03*
%TD*%
D17*
%TO.C,C43*%
X308220000Y-92110000D03*
X307260000Y-92110000D03*
%TD*%
D22*
%TO.C,D55*%
X74612500Y-64356250D03*
X74612500Y-61056250D03*
%TD*%
%TO.C,D12*%
X250825000Y-2443750D03*
X250825000Y856250D03*
%TD*%
%TO.C,D10*%
X212725000Y-2443750D03*
X212725000Y856250D03*
%TD*%
D24*
%TO.C,SW18*%
X-5080000Y-23812500D03*
D10*
X0Y-23812500D03*
D24*
X5080000Y-23812500D03*
D48*
X-6942500Y-21272500D03*
D25*
X-3810000Y-21272500D03*
D26*
X6090000Y-18732500D03*
D25*
X2540000Y-18732500D03*
%TD*%
D22*
%TO.C,D4*%
X79375000Y-2443750D03*
X79375000Y856250D03*
%TD*%
%TO.C,D71*%
X84137500Y-83406250D03*
X84137500Y-80106250D03*
%TD*%
%TO.C,D45*%
X203200000Y-45306250D03*
X203200000Y-42006250D03*
%TD*%
D28*
%TO.C,D104*%
X256075090Y-11356250D03*
X256075090Y-12456250D03*
X254245090Y-12456250D03*
X254245090Y-11356250D03*
%TD*%
%TO.C,D127*%
X-4641250Y-32787500D03*
X-4641250Y-33887500D03*
X-6471250Y-33887500D03*
X-6471250Y-32787500D03*
%TD*%
D18*
%TO.C,D122*%
X45672018Y-91037500D03*
X45672018Y-89937500D03*
X47502018Y-89937500D03*
X47502018Y-91037500D03*
%TD*%
D17*
%TO.C,C54*%
X21270000Y-92120000D03*
X20310000Y-92120000D03*
%TD*%
D23*
%TO.C,C47*%
X203510000Y-91040000D03*
X204470000Y-91040000D03*
%TD*%
D27*
%TO.C,C17*%
X284950000Y-47870000D03*
X284950000Y-46910000D03*
%TD*%
D18*
%TO.C,D109*%
X332348125Y-52937500D03*
X332348125Y-51837500D03*
X334178125Y-51837500D03*
X334178125Y-52937500D03*
%TD*%
D23*
%TO.C,C28*%
X72680000Y-13570000D03*
X73640000Y-13570000D03*
%TD*%
D22*
%TO.C,D31*%
X274200000Y-32040000D03*
X274200000Y-28740000D03*
%TD*%
%TO.C,D62*%
X207962500Y-64356250D03*
X207962500Y-61056250D03*
%TD*%
D24*
%TO.C,SW94*%
X256857500Y-100012500D03*
D10*
X261937500Y-100012500D03*
D24*
X267017500Y-100012500D03*
D25*
X258127500Y-97472500D03*
D26*
X254577500Y-97472500D03*
X268027500Y-94932500D03*
D25*
X264477500Y-94932500D03*
%TD*%
D22*
%TO.C,D37*%
X50800000Y-45306250D03*
X50800000Y-42006250D03*
%TD*%
D24*
%TO.C,SW91*%
X138430000Y-100012500D03*
D10*
X133350000Y-100012500D03*
D24*
X128270000Y-100012500D03*
D26*
X125990000Y-97472500D03*
D25*
X129540000Y-97472500D03*
D26*
X139440000Y-94932500D03*
D25*
X135890000Y-94932500D03*
%TD*%
D28*
%TO.C,D106*%
X308218358Y-11356250D03*
X308218358Y-12456250D03*
X306388358Y-12456250D03*
X306388358Y-11356250D03*
%TD*%
D52*
%TO.C,LED2*%
X27144358Y2150000D03*
X27144358Y3650000D03*
X21694358Y2150000D03*
D53*
X21694358Y3650000D03*
%TD*%
D23*
%TO.C,C26*%
X20530000Y-13610000D03*
X21490000Y-13610000D03*
%TD*%
D22*
%TO.C,D32*%
X293687500Y-26256250D03*
X293687500Y-22956250D03*
%TD*%
D10*
%TO.C,SW53*%
X328612500Y-42862500D03*
D24*
X323532500Y-42862500D03*
X333692500Y-42862500D03*
D26*
X321252500Y-40322500D03*
D25*
X324802500Y-40322500D03*
D26*
X334702500Y-37782500D03*
D25*
X331152500Y-37782500D03*
%TD*%
D10*
%TO.C,SW27*%
X171450000Y-23812500D03*
D24*
X166370000Y-23812500D03*
X176530000Y-23812500D03*
D26*
X164090000Y-21272500D03*
D25*
X167640000Y-21272500D03*
D26*
X177540000Y-18732500D03*
D25*
X173990000Y-18732500D03*
%TD*%
D24*
%TO.C,SW41*%
X80645000Y-42862500D03*
D10*
X85725000Y-42862500D03*
D24*
X90805000Y-42862500D03*
D26*
X78365000Y-40322500D03*
D25*
X81915000Y-40322500D03*
D26*
X91815000Y-37782500D03*
D25*
X88265000Y-37782500D03*
%TD*%
D52*
%TO.C,LED6*%
X21775000Y-7150000D03*
X21775000Y-5650000D03*
X16325000Y-7150000D03*
D53*
X16325000Y-5650000D03*
%TD*%
D10*
%TO.C,SW85*%
X290512500Y-80962500D03*
D24*
X285432500Y-80962500D03*
X295592500Y-80962500D03*
D25*
X286702500Y-78422500D03*
D26*
X283152500Y-78422500D03*
X296602500Y-75882500D03*
D25*
X293052500Y-75882500D03*
%TD*%
M02*
