%TF.GenerationSoftware,KiCad,Pcbnew,(6.0.6)*%
%TF.CreationDate,2023-03-24T21:40:06+11:00*%
%TF.ProjectId,fuyu,66757975-2e6b-4696-9361-645f70636258,rev?*%
%TF.SameCoordinates,Original*%
%TF.FileFunction,Soldermask,Top*%
%TF.FilePolarity,Negative*%
%FSLAX46Y46*%
G04 Gerber Fmt 4.6, Leading zero omitted, Abs format (unit mm)*
G04 Created by KiCad (PCBNEW (6.0.6)) date 2023-03-24 21:40:06*
%MOMM*%
%LPD*%
G01*
G04 APERTURE LIST*
%ADD10C,3.987800*%
%ADD11C,3.048000*%
%ADD12O,1.000000X1.600000*%
%ADD13O,1.000000X2.100000*%
%ADD14R,0.600000X1.450000*%
%ADD15R,0.300000X1.450000*%
%ADD16C,0.650000*%
%ADD17R,1.700000X1.700000*%
%ADD18O,1.700000X1.700000*%
%ADD19C,3.300000*%
%ADD20C,1.750000*%
G04 APERTURE END LIST*
D10*
%TO.C,S4*%
X238125000Y-89217500D03*
D11*
X261937500Y-73977500D03*
X238125000Y-73977500D03*
D10*
X261937500Y-89217500D03*
%TD*%
D11*
%TO.C,S3*%
X23812500Y-73977500D03*
D10*
X23812500Y-89217500D03*
D11*
X0Y-73977500D03*
D10*
X0Y-89217500D03*
%TD*%
D11*
%TO.C,S1*%
X245268750Y-16827500D03*
D10*
X245268750Y-32067500D03*
X269081250Y-32067500D03*
D11*
X269081250Y-16827500D03*
%TD*%
%TO.C,S5*%
X171450000Y-106997500D03*
X71437500Y-106997500D03*
D10*
X71437500Y-91757500D03*
X171450000Y-91757500D03*
%TD*%
D12*
%TO.C,J2*%
X274286250Y13750000D03*
D13*
X282926250Y9570000D03*
D12*
X282926250Y13750000D03*
D13*
X274286250Y9570000D03*
D14*
X281856250Y8655000D03*
X281056250Y8655000D03*
D15*
X280356250Y8655000D03*
X279356250Y8655000D03*
X277856250Y8655000D03*
X276856250Y8655000D03*
D14*
X276156250Y8655000D03*
X275356250Y8655000D03*
X275356250Y8655000D03*
X276156250Y8655000D03*
D15*
X277356250Y8655000D03*
X278356250Y8655000D03*
X278856250Y8655000D03*
X279856250Y8655000D03*
D14*
X281056250Y8655000D03*
X281856250Y8655000D03*
D16*
X275716250Y10100000D03*
X281496250Y10100000D03*
%TD*%
D11*
%TO.C,S2*%
X242887500Y-68897500D03*
X266700000Y-68897500D03*
D10*
X242887500Y-53657500D03*
X266700000Y-53657500D03*
%TD*%
D17*
%TO.C,J1*%
X279110000Y-87620000D03*
D18*
X279110000Y-85080000D03*
X279110000Y-82540000D03*
X279110000Y-80000000D03*
X279110000Y-77460000D03*
%TD*%
D19*
%TO.C,SW92*%
X195421250Y-94932500D03*
X189071250Y-97472500D03*
D20*
X197961250Y-100012500D03*
D10*
X192881250Y-100012500D03*
D20*
X187801250Y-100012500D03*
%TD*%
D19*
%TO.C,SW67*%
X257333750Y-56832500D03*
X250983750Y-59372500D03*
D10*
X254793750Y-61912500D03*
D20*
X259873750Y-61912500D03*
X249713750Y-61912500D03*
%TD*%
D19*
%TO.C,SW96*%
X293052500Y-94932500D03*
X286702500Y-97472500D03*
D20*
X285432500Y-100012500D03*
D10*
X290512500Y-100012500D03*
D20*
X295592500Y-100012500D03*
%TD*%
D19*
%TO.C,SW86*%
X312102500Y-75882500D03*
X305752500Y-78422500D03*
D20*
X314642500Y-80962500D03*
D10*
X309562500Y-80962500D03*
D20*
X304482500Y-80962500D03*
%TD*%
D19*
%TO.C,SW29*%
X212090000Y-18732500D03*
X205740000Y-21272500D03*
D20*
X214630000Y-23812500D03*
D10*
X209550000Y-23812500D03*
D20*
X204470000Y-23812500D03*
%TD*%
D19*
%TO.C,SW42*%
X107315000Y-37782500D03*
X100965000Y-40322500D03*
D20*
X109855000Y-42862500D03*
D10*
X104775000Y-42862500D03*
D20*
X99695000Y-42862500D03*
%TD*%
D19*
%TO.C,SW3*%
X40640000Y5080000D03*
X34290000Y2540000D03*
D10*
X38100000Y0D03*
D20*
X33020000Y0D03*
X43180000Y0D03*
%TD*%
D19*
%TO.C,SW11*%
X212090000Y5080000D03*
X205740000Y2540000D03*
D20*
X204470000Y0D03*
X214630000Y0D03*
D10*
X209550000Y0D03*
%TD*%
D19*
%TO.C,SW28*%
X193040000Y-18732500D03*
X186690000Y-21272500D03*
D10*
X190500000Y-23812500D03*
D20*
X195580000Y-23812500D03*
X185420000Y-23812500D03*
%TD*%
D19*
%TO.C,SW35*%
X312102500Y-18732500D03*
X305752500Y-21272500D03*
D20*
X304482500Y-23812500D03*
D10*
X309562500Y-23812500D03*
D20*
X314642500Y-23812500D03*
%TD*%
D19*
%TO.C,SW36*%
X331152500Y-18732500D03*
X324802500Y-21272500D03*
D20*
X333692500Y-23812500D03*
D10*
X328612500Y-23812500D03*
D20*
X323532500Y-23812500D03*
%TD*%
D19*
%TO.C,SW12*%
X231140000Y5080000D03*
X224790000Y2540000D03*
D20*
X233680000Y0D03*
X223520000Y0D03*
D10*
X228600000Y0D03*
%TD*%
D19*
%TO.C,SW59*%
X93027500Y-56832500D03*
X86677500Y-59372500D03*
D10*
X90487500Y-61912500D03*
D20*
X95567500Y-61912500D03*
X85407500Y-61912500D03*
%TD*%
D19*
%TO.C,SW72*%
X45402500Y-75882500D03*
X39052500Y-78422500D03*
D20*
X47942500Y-80962500D03*
D10*
X42862500Y-80962500D03*
D20*
X37782500Y-80962500D03*
%TD*%
D19*
%TO.C,SW9*%
X164465000Y5080000D03*
X158115000Y2540000D03*
D20*
X156845000Y0D03*
X167005000Y0D03*
D10*
X161925000Y0D03*
%TD*%
D19*
%TO.C,SW69*%
X312102500Y-56832500D03*
X305752500Y-59372500D03*
D20*
X304482500Y-61912500D03*
X314642500Y-61912500D03*
D10*
X309562500Y-61912500D03*
%TD*%
D19*
%TO.C,SW87*%
X331152500Y-75882500D03*
X324802500Y-78422500D03*
D20*
X333692500Y-80962500D03*
X323532500Y-80962500D03*
D10*
X328612500Y-80962500D03*
%TD*%
D19*
%TO.C,SW48*%
X221615000Y-37782500D03*
X215265000Y-40322500D03*
D10*
X219075000Y-42862500D03*
D20*
X224155000Y-42862500D03*
X213995000Y-42862500D03*
%TD*%
D19*
%TO.C,SW40*%
X69215000Y-37782500D03*
X62865000Y-40322500D03*
D20*
X61595000Y-42862500D03*
X71755000Y-42862500D03*
D10*
X66675000Y-42862500D03*
%TD*%
D19*
%TO.C,SW17*%
X331152500Y5080000D03*
X324802500Y2540000D03*
D10*
X328612500Y0D03*
D20*
X333692500Y0D03*
X323532500Y0D03*
%TD*%
D19*
%TO.C,SW7*%
X126365000Y5080000D03*
X120015000Y2540000D03*
D10*
X123825000Y0D03*
D20*
X118745000Y0D03*
X128905000Y0D03*
%TD*%
D19*
%TO.C,SW26*%
X154940000Y-18732500D03*
X148590000Y-21272500D03*
D10*
X152400000Y-23812500D03*
D20*
X157480000Y-23812500D03*
X147320000Y-23812500D03*
%TD*%
D19*
%TO.C,SW30*%
X231140000Y-18732500D03*
X224790000Y-21272500D03*
D10*
X228600000Y-23812500D03*
D20*
X223520000Y-23812500D03*
X233680000Y-23812500D03*
%TD*%
D19*
%TO.C,SW93*%
X219233750Y-94932500D03*
X212883750Y-97472500D03*
D20*
X211613750Y-100012500D03*
D10*
X216693750Y-100012500D03*
D20*
X221773750Y-100012500D03*
%TD*%
D19*
%TO.C,SW14*%
X269240000Y5080000D03*
X262890000Y2540000D03*
D20*
X271780000Y0D03*
X261620000Y0D03*
D10*
X266700000Y0D03*
%TD*%
D19*
%TO.C,SW64*%
X188277500Y-56832500D03*
X181927500Y-59372500D03*
D20*
X180657500Y-61912500D03*
X190817500Y-61912500D03*
D10*
X185737500Y-61912500D03*
%TD*%
D19*
%TO.C,SW94*%
X243046250Y-94932500D03*
X236696250Y-97472500D03*
D10*
X240506250Y-100012500D03*
D20*
X245586250Y-100012500D03*
X235426250Y-100012500D03*
%TD*%
D19*
%TO.C,SW24*%
X116840000Y-18732500D03*
X110490000Y-21272500D03*
D20*
X109220000Y-23812500D03*
D10*
X114300000Y-23812500D03*
D20*
X119380000Y-23812500D03*
%TD*%
D19*
%TO.C,SW88*%
X4921250Y-94932500D03*
X-1428750Y-97472500D03*
D10*
X2381250Y-100012500D03*
D20*
X7461250Y-100012500D03*
X-2698750Y-100012500D03*
%TD*%
D19*
%TO.C,SW75*%
X102552500Y-75882500D03*
X96202500Y-78422500D03*
D10*
X100012500Y-80962500D03*
D20*
X94932500Y-80962500D03*
X105092500Y-80962500D03*
%TD*%
D19*
%TO.C,SW52*%
X312102500Y-37782500D03*
X305752500Y-40322500D03*
D10*
X309562500Y-42862500D03*
D20*
X304482500Y-42862500D03*
X314642500Y-42862500D03*
%TD*%
D19*
%TO.C,SW60*%
X112077500Y-56832500D03*
X105727500Y-59372500D03*
D20*
X104457500Y-61912500D03*
X114617500Y-61912500D03*
D10*
X109537500Y-61912500D03*
%TD*%
D19*
%TO.C,SW37*%
X7302500Y-37782500D03*
X952500Y-40322500D03*
D20*
X-317500Y-42862500D03*
X9842500Y-42862500D03*
D10*
X4762500Y-42862500D03*
%TD*%
D19*
%TO.C,SW61*%
X131127500Y-56832500D03*
X124777500Y-59372500D03*
D10*
X128587500Y-61912500D03*
D20*
X123507500Y-61912500D03*
X133667500Y-61912500D03*
%TD*%
D19*
%TO.C,SW34*%
X293052500Y-18732500D03*
X286702500Y-21272500D03*
D20*
X285432500Y-23812500D03*
D10*
X290512500Y-23812500D03*
D20*
X295592500Y-23812500D03*
%TD*%
D19*
%TO.C,SW31*%
X245110000Y-28892500D03*
X251460000Y-26352500D03*
D20*
X252730000Y-23812500D03*
X242570000Y-23812500D03*
D10*
X247650000Y-23812500D03*
%TD*%
D19*
%TO.C,SW43*%
X126365000Y-37782500D03*
X120015000Y-40322500D03*
D10*
X123825000Y-42862500D03*
D20*
X128905000Y-42862500D03*
X118745000Y-42862500D03*
%TD*%
D19*
%TO.C,SW5*%
X78740000Y5080000D03*
X72390000Y2540000D03*
D10*
X76200000Y0D03*
D20*
X71120000Y0D03*
X81280000Y0D03*
%TD*%
D19*
%TO.C,SW70*%
X331152500Y-56832500D03*
X324802500Y-59372500D03*
D20*
X323532500Y-61912500D03*
D10*
X328612500Y-61912500D03*
D20*
X333692500Y-61912500D03*
%TD*%
D19*
%TO.C,SW73*%
X64452500Y-75882500D03*
X58102500Y-78422500D03*
D10*
X61912500Y-80962500D03*
D20*
X56832500Y-80962500D03*
X66992500Y-80962500D03*
%TD*%
D19*
%TO.C,SW81*%
X216852500Y-75882500D03*
X210502500Y-78422500D03*
D20*
X209232500Y-80962500D03*
X219392500Y-80962500D03*
D10*
X214312500Y-80962500D03*
%TD*%
D19*
%TO.C,SW49*%
X240665000Y-37782500D03*
X234315000Y-40322500D03*
D10*
X238125000Y-42862500D03*
D20*
X243205000Y-42862500D03*
X233045000Y-42862500D03*
%TD*%
D19*
%TO.C,SW89*%
X28733750Y-94932500D03*
X22383750Y-97472500D03*
D20*
X21113750Y-100012500D03*
D10*
X26193750Y-100012500D03*
D20*
X31273750Y-100012500D03*
%TD*%
D19*
%TO.C,SW57*%
X54927500Y-56832500D03*
X48577500Y-59372500D03*
D20*
X47307500Y-61912500D03*
X57467500Y-61912500D03*
D10*
X52387500Y-61912500D03*
%TD*%
D19*
%TO.C,SW74*%
X83502500Y-75882500D03*
X77152500Y-78422500D03*
D20*
X75882500Y-80962500D03*
D10*
X80962500Y-80962500D03*
D20*
X86042500Y-80962500D03*
%TD*%
D19*
%TO.C,SW32*%
X259715000Y-18732500D03*
X253365000Y-21272500D03*
D10*
X257175000Y-23812500D03*
D20*
X252095000Y-23812500D03*
X262255000Y-23812500D03*
%TD*%
D19*
%TO.C,SW79*%
X178752500Y-75882500D03*
X172402500Y-78422500D03*
D20*
X181292500Y-80962500D03*
D10*
X176212500Y-80962500D03*
D20*
X171132500Y-80962500D03*
%TD*%
D19*
%TO.C,SW55*%
X4603750Y-66992500D03*
X10953750Y-64452500D03*
D20*
X2063750Y-61912500D03*
D10*
X7143750Y-61912500D03*
D20*
X12223750Y-61912500D03*
%TD*%
D19*
%TO.C,SW65*%
X207327500Y-56832500D03*
X200977500Y-59372500D03*
D20*
X199707500Y-61912500D03*
X209867500Y-61912500D03*
D10*
X204787500Y-61912500D03*
%TD*%
D19*
%TO.C,SW22*%
X78740000Y-18732500D03*
X72390000Y-21272500D03*
D20*
X81280000Y-23812500D03*
D10*
X76200000Y-23812500D03*
D20*
X71120000Y-23812500D03*
%TD*%
D19*
%TO.C,SW4*%
X59690000Y5080000D03*
X53340000Y2540000D03*
D10*
X57150000Y0D03*
D20*
X52070000Y0D03*
X62230000Y0D03*
%TD*%
D19*
%TO.C,SW83*%
X252571250Y-75882500D03*
X246221250Y-78422500D03*
D20*
X244951250Y-80962500D03*
X255111250Y-80962500D03*
D10*
X250031250Y-80962500D03*
%TD*%
D19*
%TO.C,SW45*%
X164465000Y-37782500D03*
X158115000Y-40322500D03*
D20*
X167005000Y-42862500D03*
X156845000Y-42862500D03*
D10*
X161925000Y-42862500D03*
%TD*%
D19*
%TO.C,SW77*%
X140652500Y-75882500D03*
X134302500Y-78422500D03*
D10*
X138112500Y-80962500D03*
D20*
X143192500Y-80962500D03*
X133032500Y-80962500D03*
%TD*%
D19*
%TO.C,SW16*%
X312102500Y5080000D03*
X305752500Y2540000D03*
D10*
X309562500Y0D03*
D20*
X314642500Y0D03*
X304482500Y0D03*
%TD*%
D19*
%TO.C,SW98*%
X331152500Y-94932500D03*
X324802500Y-97472500D03*
D20*
X323532500Y-100012500D03*
D10*
X328612500Y-100012500D03*
D20*
X333692500Y-100012500D03*
%TD*%
D19*
%TO.C,SW58*%
X73977500Y-56832500D03*
X67627500Y-59372500D03*
D20*
X66357500Y-61912500D03*
D10*
X71437500Y-61912500D03*
D20*
X76517500Y-61912500D03*
%TD*%
D19*
%TO.C,SW78*%
X159702500Y-75882500D03*
X153352500Y-78422500D03*
D20*
X162242500Y-80962500D03*
X152082500Y-80962500D03*
D10*
X157162500Y-80962500D03*
%TD*%
D19*
%TO.C,SW47*%
X202565000Y-37782500D03*
X196215000Y-40322500D03*
D20*
X194945000Y-42862500D03*
D10*
X200025000Y-42862500D03*
D20*
X205105000Y-42862500D03*
%TD*%
D19*
%TO.C,SW25*%
X135890000Y-18732500D03*
X129540000Y-21272500D03*
D10*
X133350000Y-23812500D03*
D20*
X128270000Y-23812500D03*
X138430000Y-23812500D03*
%TD*%
D19*
%TO.C,SW44*%
X145415000Y-37782500D03*
X139065000Y-40322500D03*
D20*
X147955000Y-42862500D03*
D10*
X142875000Y-42862500D03*
D20*
X137795000Y-42862500D03*
%TD*%
D19*
%TO.C,SW13*%
X250190000Y5080000D03*
X243840000Y2540000D03*
D20*
X252730000Y0D03*
X242570000Y0D03*
D10*
X247650000Y0D03*
%TD*%
D19*
%TO.C,SW76*%
X121602500Y-75882500D03*
X115252500Y-78422500D03*
D10*
X119062500Y-80962500D03*
D20*
X124142500Y-80962500D03*
X113982500Y-80962500D03*
%TD*%
D19*
%TO.C,SW82*%
X237966250Y-86042500D03*
X244316250Y-83502500D03*
D20*
X245586250Y-80962500D03*
D10*
X240506250Y-80962500D03*
D20*
X235426250Y-80962500D03*
%TD*%
D19*
%TO.C,SW62*%
X150177500Y-56832500D03*
X143827500Y-59372500D03*
D10*
X147637500Y-61912500D03*
D20*
X152717500Y-61912500D03*
X142557500Y-61912500D03*
%TD*%
D19*
%TO.C,SW51*%
X293052500Y-37782500D03*
X286702500Y-40322500D03*
D20*
X295592500Y-42862500D03*
X285432500Y-42862500D03*
D10*
X290512500Y-42862500D03*
%TD*%
D19*
%TO.C,SW46*%
X183515000Y-37782500D03*
X177165000Y-40322500D03*
D20*
X186055000Y-42862500D03*
X175895000Y-42862500D03*
D10*
X180975000Y-42862500D03*
%TD*%
D19*
%TO.C,SW23*%
X97790000Y-18732500D03*
X91440000Y-21272500D03*
D20*
X100330000Y-23812500D03*
X90170000Y-23812500D03*
D10*
X95250000Y-23812500D03*
%TD*%
D19*
%TO.C,SW95*%
X266858750Y-94932500D03*
X260508750Y-97472500D03*
D20*
X269398750Y-100012500D03*
X259238750Y-100012500D03*
D10*
X264318750Y-100012500D03*
%TD*%
D19*
%TO.C,SW54*%
X4921250Y-56832500D03*
X-1428750Y-59372500D03*
D10*
X2381250Y-61912500D03*
D20*
X-2698750Y-61912500D03*
X7461250Y-61912500D03*
%TD*%
D19*
%TO.C,SW38*%
X31115000Y-37782500D03*
X24765000Y-40322500D03*
D20*
X23495000Y-42862500D03*
X33655000Y-42862500D03*
D10*
X28575000Y-42862500D03*
%TD*%
D19*
%TO.C,SW21*%
X59690000Y-18732500D03*
X53340000Y-21272500D03*
D20*
X62230000Y-23812500D03*
D10*
X57150000Y-23812500D03*
D20*
X52070000Y-23812500D03*
%TD*%
D19*
%TO.C,SW15*%
X293052500Y5080000D03*
X286702500Y2540000D03*
D20*
X285432500Y0D03*
X295592500Y0D03*
D10*
X290512500Y0D03*
%TD*%
D19*
%TO.C,SW80*%
X197802500Y-75882500D03*
X191452500Y-78422500D03*
D20*
X190182500Y-80962500D03*
X200342500Y-80962500D03*
D10*
X195262500Y-80962500D03*
%TD*%
D19*
%TO.C,SW8*%
X145415000Y5080000D03*
X139065000Y2540000D03*
D20*
X137795000Y0D03*
D10*
X142875000Y0D03*
D20*
X147955000Y0D03*
%TD*%
D19*
%TO.C,SW19*%
X21590000Y-18732500D03*
X15240000Y-21272500D03*
D10*
X19050000Y-23812500D03*
D20*
X24130000Y-23812500D03*
X13970000Y-23812500D03*
%TD*%
D19*
%TO.C,SW6*%
X97790000Y5080000D03*
X91440000Y2540000D03*
D20*
X90170000Y0D03*
D10*
X95250000Y0D03*
D20*
X100330000Y0D03*
%TD*%
D19*
%TO.C,SW50*%
X264477500Y-37782500D03*
X258127500Y-40322500D03*
D20*
X267017500Y-42862500D03*
D10*
X261937500Y-42862500D03*
D20*
X256857500Y-42862500D03*
%TD*%
D19*
%TO.C,SW2*%
X2540000Y5080000D03*
X-3810000Y2540000D03*
D20*
X5080000Y0D03*
X-5080000Y0D03*
D10*
X0Y0D03*
%TD*%
D19*
%TO.C,SW63*%
X169227500Y-56832500D03*
X162877500Y-59372500D03*
D20*
X171767500Y-61912500D03*
X161607500Y-61912500D03*
D10*
X166687500Y-61912500D03*
%TD*%
D19*
%TO.C,SW10*%
X183515000Y5080000D03*
X177165000Y2540000D03*
D10*
X180975000Y0D03*
D20*
X186055000Y0D03*
X175895000Y0D03*
%TD*%
D19*
%TO.C,SW71*%
X14446250Y-75882500D03*
X8096250Y-78422500D03*
D10*
X11906250Y-80962500D03*
D20*
X6826250Y-80962500D03*
X16986250Y-80962500D03*
%TD*%
D19*
%TO.C,SW33*%
X264160000Y-28892500D03*
X270510000Y-26352500D03*
D20*
X271780000Y-23812500D03*
D10*
X266700000Y-23812500D03*
D20*
X261620000Y-23812500D03*
%TD*%
D19*
%TO.C,SW91*%
X123983750Y-94932500D03*
X117633750Y-97472500D03*
D20*
X116363750Y-100012500D03*
X126523750Y-100012500D03*
D10*
X121443750Y-100012500D03*
%TD*%
D17*
%TO.C,SW1*%
X310780000Y-48225000D03*
D18*
X308240000Y-48225000D03*
%TD*%
D19*
%TO.C,SW97*%
X312102500Y-94932500D03*
X305752500Y-97472500D03*
D20*
X314642500Y-100012500D03*
X304482500Y-100012500D03*
D10*
X309562500Y-100012500D03*
%TD*%
D19*
%TO.C,SW66*%
X226377500Y-56832500D03*
X220027500Y-59372500D03*
D10*
X223837500Y-61912500D03*
D20*
X228917500Y-61912500D03*
X218757500Y-61912500D03*
%TD*%
D19*
%TO.C,SW56*%
X35877500Y-56832500D03*
X29527500Y-59372500D03*
D10*
X33337500Y-61912500D03*
D20*
X28257500Y-61912500D03*
X38417500Y-61912500D03*
%TD*%
D19*
%TO.C,SW84*%
X264160000Y-86042500D03*
X270510000Y-83502500D03*
D20*
X261620000Y-80962500D03*
D10*
X266700000Y-80962500D03*
D20*
X271780000Y-80962500D03*
%TD*%
D19*
%TO.C,SW39*%
X50165000Y-37782500D03*
X43815000Y-40322500D03*
D10*
X47625000Y-42862500D03*
D20*
X52705000Y-42862500D03*
X42545000Y-42862500D03*
%TD*%
D19*
%TO.C,SW20*%
X40640000Y-18732500D03*
X34290000Y-21272500D03*
D10*
X38100000Y-23812500D03*
D20*
X43180000Y-23812500D03*
X33020000Y-23812500D03*
%TD*%
D19*
%TO.C,SW68*%
X293052500Y-56832500D03*
X286702500Y-59372500D03*
D20*
X285432500Y-61912500D03*
D10*
X290512500Y-61912500D03*
D20*
X295592500Y-61912500D03*
%TD*%
D19*
%TO.C,SW18*%
X2540000Y-18732500D03*
X-3810000Y-21272500D03*
D20*
X5080000Y-23812500D03*
D10*
X0Y-23812500D03*
D20*
X-5080000Y-23812500D03*
%TD*%
D19*
%TO.C,SW90*%
X52546250Y-94932500D03*
X46196250Y-97472500D03*
D20*
X44926250Y-100012500D03*
X55086250Y-100012500D03*
D10*
X50006250Y-100012500D03*
%TD*%
D19*
%TO.C,SW53*%
X331152500Y-37782500D03*
X324802500Y-40322500D03*
D20*
X333692500Y-42862500D03*
X323532500Y-42862500D03*
D10*
X328612500Y-42862500D03*
%TD*%
D19*
%TO.C,SW27*%
X173990000Y-18732500D03*
X167640000Y-21272500D03*
D20*
X176530000Y-23812500D03*
X166370000Y-23812500D03*
D10*
X171450000Y-23812500D03*
%TD*%
D19*
%TO.C,SW41*%
X88265000Y-37782500D03*
X81915000Y-40322500D03*
D20*
X90805000Y-42862500D03*
D10*
X85725000Y-42862500D03*
D20*
X80645000Y-42862500D03*
%TD*%
D19*
%TO.C,SW85*%
X293052500Y-75882500D03*
X286702500Y-78422500D03*
D20*
X295592500Y-80962500D03*
X285432500Y-80962500D03*
D10*
X290512500Y-80962500D03*
%TD*%
M02*
